<svg width="552" height="502" viewBox="0 0 552 502" fill="none" xmlns="http://www.w3.org/2000/svg">
<g filter="url(#filter0_d_352_1701)">
<path d="M141.179 194.999C137.401 194.472 136.019 195.297 134.379 198.001L127.733 217.922L126.784 220.768C79.9402 205.963 55.2075 195.328 12.7953 173.78C25.11 159.278 42.0106 157.523 100.707 172.537L217.069 212.41L220.071 219.21L142.08 195.276L141.179 194.999Z" fill="#E9CDA1"/>
<path d="M449.785 325.361C459.207 316.937 461.544 311.253 458.646 298.8L489.475 309.085C507.585 316.531 517.283 321.649 534.058 331.864C536.493 337.058 535.661 339.301 530.577 342.299C510.943 340.191 500.118 338.403 481.247 333.749L449.785 325.361Z" fill="#E9CDA1"/>
<path d="M134.379 198.001C136.019 195.297 137.401 194.472 141.179 194.999L142.08 195.276L458.646 298.8C461.544 311.253 459.207 316.937 449.785 325.361L288.759 271.642L127.733 217.922L134.379 198.001Z" fill="#FFFBF3"/>
<path d="M127.733 217.922L126.784 220.768C79.9402 205.963 55.2075 195.328 12.7953 173.78C25.11 159.278 42.0106 157.523 100.707 172.537L217.069 212.41L220.071 219.21L142.08 195.276M127.733 217.922L134.379 198.001C136.019 195.297 137.401 194.472 141.179 194.999L142.08 195.276M127.733 217.922L288.759 271.642L449.785 325.361M449.785 325.361C459.207 316.937 461.544 311.253 458.646 298.8M449.785 325.361L481.247 333.749C500.118 338.403 510.943 340.191 530.577 342.299C535.661 339.301 536.493 337.058 534.058 331.864C517.283 321.649 507.585 316.531 489.475 309.085L458.646 298.8M458.646 298.8L142.08 195.276" stroke="black"/>
</g>
<defs>
<filter id="filter0_d_352_1701" x="8.00439" y="161.562" width="531.868" height="189.252" filterUnits="userSpaceOnUse" color-interpolation-filters="sRGB">
<feFlood flood-opacity="0" result="BackgroundImageFix"/>
<feColorMatrix in="SourceAlpha" type="matrix" values="0 0 0 0 0 0 0 0 0 0 0 0 0 0 0 0 0 0 127 0" result="hardAlpha"/>
<feOffset dy="4"/>
<feGaussianBlur stdDeviation="2"/>
<feComposite in2="hardAlpha" operator="out"/>
<feColorMatrix type="matrix" values="0 0 0 0 0 0 0 0 0 0 0 0 0 0 0 0 0 0 0.25 0"/>
<feBlend mode="normal" in2="BackgroundImageFix" result="effect1_dropShadow_352_1701"/>
<feBlend mode="normal" in="SourceGraphic" in2="effect1_dropShadow_352_1701" result="shape"/>
</filter>
</defs>
</svg>
