<svg width="1182" height="1154" viewBox="0 0 1182 1154" fill="none" xmlns="http://www.w3.org/2000/svg">
<g filter="url(#filter0_d_363_3)">
<rect x="4" y="97" width="1141" height="1049" fill="#FFF1DA"/>
<rect x="4.57568" y="97.5757" width="1139.85" height="1047.85" stroke="black" stroke-width="1.15136"/>
</g>
<g filter="url(#filter1_d_363_3)">
<rect x="17" y="74" width="1141" height="1054" fill="#FFF1DA"/>
<rect x="17.5757" y="74.5757" width="1139.85" height="1052.85" stroke="black" stroke-width="1.15136"/>
</g>
<g filter="url(#filter2_d_363_3)">
<rect x="37" y="53" width="1141" height="1057" fill="#FFF1DA"/>
<rect x="37.5757" y="53.5757" width="1139.85" height="1055.85" stroke="black" stroke-width="1.15136"/>
</g>
<path d="M1073.23 330.91H1036.38" stroke="black" stroke-width="1.15136"/>
<path d="M1040.99 539.307H1082.44" stroke="black" stroke-width="1.15136"/>
<path d="M809.564 239.953V279.099H968.452V239.953" stroke="black" stroke-width="1.15136"/>
<path d="M905.703 307.883V317.67" stroke="black" stroke-width="1.15136"/>
<path d="M870.011 309.61V317.67" stroke="black" stroke-width="1.15136"/>
<path d="M1150 1082V1090.64" stroke="black" stroke-width="1.15136"/>
<path d="M1116 1064H1177" stroke="black" stroke-width="1.15136"/>
<path d="M1117 1082H1177" stroke="black" stroke-width="1.15136"/>
<path d="M1162 1055V1082.06" stroke="black" stroke-width="1.15136"/>
<path d="M924 1088.51H1017.26M924 1058H1017.26M924 1065.48H1017.26M924 1072.97H1017.26M924 1080.45H1017.26M924 1101.75H1017.26M924 1095.99H1017.26" stroke="black" stroke-width="1.15136"/>
<path d="M925 1052H1017.68" stroke="black" stroke-width="1.15136"/>
<path d="M925 1046H1017.11" stroke="black" stroke-width="1.15136"/>
<path d="M945 1033V1109" stroke="black" stroke-width="1.15136"/>
<path d="M424.434 436.26H453.793" stroke="black" stroke-width="1.15136"/>
<circle cx="438.826" cy="436.835" r="9.2109" stroke="black" stroke-width="1.15136"/>
<path d="M438.825 417.262V462.166" stroke="black" stroke-width="1.15136"/>
<path d="M125.655 437.411H96.295" stroke="black" stroke-width="1.15136"/>
<circle cx="111.263" cy="436.835" r="9.2109" transform="rotate(180 111.263 436.835)" stroke="black" stroke-width="1.15136"/>
<path d="M111.263 456.409V411.506" stroke="black" stroke-width="1.15136"/>
<path d="M277.43 434.329L147.647 309.034" stroke="black" stroke-width="1.15136"/>
<path d="M277.059 433.753L402.354 303.97" stroke="black" stroke-width="1.15136"/>
<path d="M276.601 434.533L429.614 580.756" stroke="black" stroke-width="1.15136"/>
<path d="M276.855 432.923L151.561 562.706" stroke="black" stroke-width="1.15136"/>
<path d="M277.059 305.58V556.002" stroke="black" stroke-width="1.15136"/>
<path d="M401.982 434.533H151.561" stroke="black" stroke-width="1.15136"/>
<path d="M748.772 791.751L748.081 791.06C737.489 800.962 722.751 806.949 706.862 806.949C685.447 806.949 675.776 796.356 675.776 780.237C675.776 753.296 702.948 749.381 748.081 742.012V720.367C748.081 704.478 739.561 693.425 724.133 693.425C718.146 693.425 712.619 695.037 707.093 698.721V717.373C707.093 726.814 701.106 732.571 693.046 732.571C685.217 732.571 679.23 727.505 679.23 718.064C679.23 699.872 701.566 689.74 724.593 689.74C755.45 689.74 772.029 704.938 772.029 724.742V794.975C772.029 799.35 773.872 800.732 777.556 800.732C779.859 800.732 783.313 800.041 785.155 798.199L786.767 799.811C782.392 804.186 775.023 806.028 765.812 806.028C756.141 806.028 749.923 802.574 748.772 791.751ZM748.081 785.764V745.466C715.613 750.532 700.184 752.374 700.184 777.244C700.184 791.521 707.553 798.889 719.297 798.889C729.659 798.889 740.482 793.823 748.081 785.764Z" fill="black"/>
<path d="M942.088 788.958L941.408 788.278C930.974 798.031 916.458 803.928 900.807 803.928C879.713 803.928 870.187 793.495 870.187 777.617C870.187 751.08 896.951 747.224 941.408 739.966V718.645C941.408 702.994 933.016 692.107 917.819 692.107C911.921 692.107 906.478 693.695 901.034 697.324V715.696C901.034 724.995 895.137 730.666 887.198 730.666C879.486 730.666 873.589 725.676 873.589 716.376C873.589 698.458 895.591 688.478 918.272 688.478C948.666 688.478 964.997 703.448 964.997 722.954V792.134C964.997 796.443 966.811 797.804 970.441 797.804C972.709 797.804 976.111 797.124 977.926 795.309L979.513 796.897C975.204 801.206 967.946 803.021 958.873 803.021C949.346 803.021 943.222 799.619 942.088 788.958ZM941.408 783.061V743.368C909.426 748.358 894.23 750.172 894.23 774.669C894.23 788.731 901.488 795.99 913.056 795.99C923.262 795.99 933.923 791 941.408 783.061Z" fill="black"/>
<path d="M924 1040H1016.68" stroke="black" stroke-width="1.15136"/>
<path d="M691.572 697.542L694.48 696.095C694.741 695.965 695.043 695.946 695.319 696.042L705.215 699.488C705.65 699.64 705.941 700.05 705.941 700.511V715.689L705.389 720.638L704.344 724.796C704.304 724.955 704.229 725.102 704.124 725.227L701.59 728.253C701.544 728.308 701.491 728.359 701.435 728.405L698.846 730.465C698.787 730.512 698.722 730.553 698.654 730.587L695.598 732.108C695.494 732.159 695.382 732.194 695.268 732.21L691.737 732.712C691.628 732.728 691.517 732.726 691.408 732.708L688.384 732.207C688.299 732.193 688.216 732.169 688.137 732.135L684.523 730.594C684.433 730.555 684.349 730.505 684.273 730.445L681.756 728.441C681.669 728.372 681.593 728.289 681.531 728.197L679.519 725.193C679.449 725.09 679.398 724.975 679.368 724.855L678.341 720.768C678.32 720.681 678.309 720.593 678.309 720.504V716.239L678.842 711.992C678.855 711.891 678.882 711.792 678.922 711.698L680.48 708.082C680.506 708.021 680.538 707.962 680.575 707.907L682.67 704.78C682.71 704.72 682.755 704.665 682.806 704.615L685.493 701.941L688.745 699.245C688.788 699.209 688.833 699.177 688.881 699.149L691.572 697.542Z" fill="#FFFBF3" stroke="black" stroke-width="1.08262"/>
<path d="M276.464 485.316C230.599 487.034 231.759 374.271 276.464 376.561V371.982C202.141 367.975 192.854 489.895 276.464 489.895V485.316Z" fill="#FFFBF3" stroke="black" stroke-width="1.15136"/>
<path d="M277.059 485.79C322.924 487.507 321.764 374.745 277.059 377.035V372.456C351.382 368.449 360.669 490.369 277.059 490.369V485.79Z" fill="black" stroke="black" stroke-width="1.15136"/>
<path d="M267.354 484.075L275.236 489.799" stroke="black" stroke-width="1.15136"/>
<path d="M219.51 449.731L255.5 476.061" stroke="black" stroke-width="1.15136"/>
<path d="M217.188 438.283L247.373 462.324" stroke="black" stroke-width="1.15136"/>
<path d="M264.208 372.458L268.851 377.037" stroke="black" stroke-width="1.15136"/>
<path d="M255.5 374.747L260.724 381.044" stroke="black" stroke-width="1.15136"/>
<path d="M217.188 427.98L244.471 450.303" stroke="black" stroke-width="1.15136"/>
<path d="M221.832 408.519L242.729 426.835" stroke="black" stroke-width="1.15136"/>
<path d="M225.315 399.36L243.891 416.532" stroke="black" stroke-width="1.15136"/>
<path d="M229.959 393.636L245.632 408.519" stroke="black" stroke-width="1.15136"/>
<path d="M235.764 386.768L247.954 399.36" stroke="black" stroke-width="1.15136"/>
<path d="M241.568 382.188L251.436 392.492" stroke="black" stroke-width="1.15136"/>
<path d="M247.373 378.182L254.919 386.768" stroke="black" stroke-width="1.15136"/>
<path d="M218.35 418.822L242.73 439.428" stroke="black" stroke-width="1.15136"/>
<path d="M224.734 462.324L265.367 488.654" stroke="black" stroke-width="1.15136"/>
<path d="M234.022 474.344L252.017 485.22" stroke="black" stroke-width="1.15136"/>
<circle cx="275.332" cy="436.26" r="94.4117" stroke="black" stroke-width="1.15136"/>
<circle cx="275.908" cy="436.836" r="100.744" stroke="black" stroke-width="1.15136"/>
<path d="M378.379 421.868H369.744C371.122 432.538 371.046 438.58 369.744 449.501H378.379C389.797 438.129 390.139 432.082 378.379 421.868Z" stroke="black" stroke-width="1.15136"/>
<path d="M289.724 539.883V531.247C279.054 532.625 273.012 532.549 262.091 531.247V539.883C273.463 551.301 279.51 551.643 289.724 539.883Z" stroke="black" stroke-width="1.15136"/>
<path d="M172.918 448.349H181.553C180.175 437.679 180.251 431.637 181.553 420.716H172.918C161.5 432.088 161.157 438.135 172.918 448.349Z" stroke="black" stroke-width="1.15136"/>
<path d="M357.97 499.358L351.864 493.252C345.293 501.772 340.967 505.99 332.325 512.791L338.431 518.897C354.545 518.931 359.063 514.897 357.97 499.358Z" stroke="black" stroke-width="1.15136"/>
<path d="M212.938 353.176L219.044 359.282C210.525 365.852 206.307 370.178 199.505 378.821L193.399 372.715C193.366 356.6 197.4 352.082 212.938 353.176Z" stroke="black" stroke-width="1.15136"/>
<path d="M290.875 333.846V342.481C280.205 341.103 274.164 341.179 263.243 342.481V333.846C274.614 322.428 280.661 322.085 290.875 333.846Z" stroke="black" stroke-width="1.15136"/>
<path d="M178.618 241.104L93.9927 301.551L89.9629 435.684L100.901 545.064L185.526 600.905H365.714L449.188 545.064L456.672 435.684V296.945L369.744 241.104H178.618Z" stroke="black" stroke-width="1.15136"/>
<path d="M782.564 241.104L687.444 308.804L682.914 459.034L695.209 581.539L790.329 644.081H992.864L1086.69 581.539L1095.1 459.034V303.646L997.393 241.104H782.564Z" stroke="black" stroke-width="1.15136"/>
<path d="M212.938 518.898L219.044 512.792C210.525 506.221 206.307 501.895 199.505 493.252L193.399 499.358C193.366 515.473 197.4 519.991 212.938 518.898Z" stroke="black" stroke-width="1.15136"/>
<path d="M356.818 372.715L350.712 378.821C344.142 370.302 339.816 366.083 331.173 359.282L337.279 353.176C353.394 353.143 357.912 357.177 356.818 372.715Z" stroke="black" stroke-width="1.15136"/>
<circle cx="163.65" cy="322.851" r="7.48385" stroke="black" stroke-width="1.15136"/>
<circle cx="382.409" cy="324.002" r="7.48385" stroke="black" stroke-width="1.15136"/>
<circle cx="390.468" cy="545.064" r="7.48385" stroke="black" stroke-width="1.15136"/>
<circle cx="168.255" cy="545.064" r="7.48385" stroke="black" stroke-width="1.15136"/>
<circle cx="275.908" cy="434.533" r="137.588" stroke="black" stroke-width="1.15136"/>
<circle cx="275.908" cy="436.835" r="120.317" stroke="black" stroke-width="1.15136"/>
<circle cx="320.811" cy="325.153" r="6.33249" stroke="black" stroke-width="1.15136"/>
<circle cx="385.287" cy="389.63" r="6.33249" stroke="black" stroke-width="1.15136"/>
<circle cx="387.59" cy="481.739" r="6.33249" stroke="black" stroke-width="1.15136"/>
<circle cx="320.811" cy="546.215" r="6.33249" stroke="black" stroke-width="1.15136"/>
<circle cx="227.55" cy="546.215" r="6.33249" stroke="black" stroke-width="1.15136"/>
<circle cx="165.377" cy="481.739" r="6.33249" stroke="black" stroke-width="1.15136"/>
<circle cx="164.226" cy="389.63" r="6.33249" stroke="black" stroke-width="1.15136"/>
<circle cx="229.853" cy="325.153" r="6.33249" stroke="black" stroke-width="1.15136"/>
<mask id="path-79-outside-1_363_3" maskUnits="userSpaceOnUse" x="830.986" y="390.759" width="126" height="121" fill="black">
<rect fill="white" x="830.986" y="390.759" width="126" height="121"/>
<path d="M920.325 409.972V400.071C919.634 399.61 918.943 399.38 917.792 399.38C911.114 399.38 907.2 406.518 904.897 416.42L902.134 428.624C900.291 436.454 896.146 443.822 887.166 447.967H891.311C916.41 447.967 927.233 454.876 931.378 473.067L934.141 485.041C937.135 497.476 939.438 504.154 945.655 504.154C947.267 504.154 949.8 503.693 952.563 501.621L954.405 503.233C950.03 507.608 941.74 509.911 934.141 509.911C918.253 509.911 914.568 500.469 910.884 486.193L907.66 472.146C904.206 458.099 898.679 451.421 881.87 451.421H870.126V502.081L883.251 506.457V508.759H832.361V506.457L846.177 502.081V400.301L832.361 395.926V393.623H883.942V395.926L870.126 400.301V447.737C885.093 447.737 894.304 439.908 897.068 428.624L899.601 416.65C902.594 402.604 909.272 392.472 924.7 392.472C934.832 392.472 945.425 396.847 945.425 409.512C945.425 418.262 940.359 422.637 933.22 422.637C925.621 422.637 920.325 417.571 920.325 409.972Z"/>
</mask>
<path d="M920.325 409.972V400.071C919.634 399.61 918.943 399.38 917.792 399.38C911.114 399.38 907.2 406.518 904.897 416.42L902.134 428.624C900.291 436.454 896.146 443.822 887.166 447.967H891.311C916.41 447.967 927.233 454.876 931.378 473.067L934.141 485.041C937.135 497.476 939.438 504.154 945.655 504.154C947.267 504.154 949.8 503.693 952.563 501.621L954.405 503.233C950.03 507.608 941.74 509.911 934.141 509.911C918.253 509.911 914.568 500.469 910.884 486.193L907.66 472.146C904.206 458.099 898.679 451.421 881.87 451.421H870.126V502.081L883.251 506.457V508.759H832.361V506.457L846.177 502.081V400.301L832.361 395.926V393.623H883.942V395.926L870.126 400.301V447.737C885.093 447.737 894.304 439.908 897.068 428.624L899.601 416.65C902.594 402.604 909.272 392.472 924.7 392.472C934.832 392.472 945.425 396.847 945.425 409.512C945.425 418.262 940.359 422.637 933.22 422.637C925.621 422.637 920.325 417.571 920.325 409.972Z" fill="black"/>
<path d="M920.325 400.071H921.476V399.454L920.964 399.113L920.325 400.071ZM904.897 416.42L903.775 416.159L903.774 416.166L904.897 416.42ZM902.134 428.624L903.254 428.888L903.257 428.879L902.134 428.624ZM887.166 447.967L886.683 446.922L887.166 449.119V447.967ZM931.378 473.067L930.256 473.323L930.256 473.326L931.378 473.067ZM934.141 485.041L933.02 485.3L933.022 485.311L934.141 485.041ZM952.563 501.621L953.321 500.754L952.619 500.14L951.872 500.7L952.563 501.621ZM954.405 503.233L955.22 504.047L956.09 503.177L955.164 502.366L954.405 503.233ZM910.884 486.193L909.762 486.45L909.765 486.465L909.769 486.48L910.884 486.193ZM907.66 472.146L908.782 471.888L908.78 471.88L908.778 471.871L907.66 472.146ZM870.126 451.421V450.27H868.974V451.421H870.126ZM870.126 502.081H868.974V502.911L869.762 503.174L870.126 502.081ZM883.251 506.457H884.403V505.627L883.615 505.364L883.251 506.457ZM883.251 508.759V509.911H884.403V508.759H883.251ZM832.361 508.759H831.21V509.911H832.361V508.759ZM832.361 506.457L832.013 505.359L831.21 505.613V506.457H832.361ZM846.177 502.081L846.525 503.179L847.329 502.924V502.081H846.177ZM846.177 400.301H847.329V399.458L846.525 399.203L846.177 400.301ZM832.361 395.926H831.21V396.769L832.013 397.023L832.361 395.926ZM832.361 393.623V392.472H831.21V393.623H832.361ZM883.942 393.623H885.093V392.472H883.942V393.623ZM883.942 395.926L884.29 397.023L885.093 396.769V395.926H883.942ZM870.126 400.301L869.778 399.203L868.974 399.458V400.301H870.126ZM870.126 447.737H868.974V448.888H870.126V447.737ZM897.068 428.624L898.186 428.898L898.19 428.881L898.194 428.863L897.068 428.624ZM899.601 416.65L898.475 416.41L898.474 416.412L899.601 416.65ZM921.476 409.972V400.071H919.174V409.972H921.476ZM920.964 399.113C920.063 398.512 919.145 398.228 917.792 398.228V400.531C918.742 400.531 919.205 400.708 919.686 401.029L920.964 399.113ZM917.792 398.228C913.965 398.228 911.002 400.302 908.758 403.53C906.535 406.727 904.94 411.152 903.775 416.159L906.018 416.681C907.157 411.786 908.67 407.691 910.649 404.844C912.608 402.027 914.942 400.531 917.792 400.531V398.228ZM903.774 416.166L901.011 428.37L903.257 428.879L906.02 416.674L903.774 416.166ZM901.013 428.361C899.225 435.958 895.25 442.968 886.683 446.922L887.648 449.013C897.043 444.677 901.358 436.95 903.254 428.888L901.013 428.361ZM887.166 449.119H891.311V446.816H887.166V449.119ZM891.311 449.119C903.792 449.119 912.506 450.844 918.59 454.67C924.613 458.458 928.227 464.418 930.256 473.323L932.501 472.811C930.385 463.524 926.515 456.934 919.816 452.721C913.176 448.545 903.93 446.816 891.311 446.816V449.119ZM930.256 473.326L933.02 485.3L935.263 484.782L932.5 472.808L930.256 473.326ZM933.022 485.311C934.513 491.503 935.866 496.428 937.674 499.804C938.588 501.509 939.654 502.893 940.98 503.85C942.327 504.821 943.876 505.305 945.655 505.305V503.002C944.326 503.002 943.255 502.652 942.328 501.982C941.38 501.299 940.518 500.236 939.704 498.717C938.059 495.645 936.764 491.014 935.261 484.772L933.022 485.311ZM945.655 505.305C947.492 505.305 950.273 504.778 953.254 502.542L951.872 500.7C949.327 502.609 947.042 503.002 945.655 503.002V505.305ZM951.805 502.487L953.647 504.099L955.164 502.366L953.321 500.754L951.805 502.487ZM953.591 502.419C949.524 506.486 941.597 508.759 934.141 508.759V511.062C941.884 511.062 950.536 508.73 955.22 504.047L953.591 502.419ZM934.141 508.759C926.461 508.759 921.931 506.497 918.83 502.679C915.643 498.757 913.848 493.071 911.999 485.905L909.769 486.48C911.604 493.591 913.494 499.764 917.042 504.131C920.676 508.604 925.933 511.062 934.141 511.062V508.759ZM912.006 485.935L908.782 471.888L906.538 472.404L909.762 486.45L912.006 485.935ZM908.778 471.871C907.036 464.786 904.72 459.315 900.531 455.65C896.32 451.965 890.41 450.27 881.87 450.27V452.573C890.139 452.573 895.398 454.217 899.015 457.383C902.656 460.568 904.83 465.46 906.542 472.421L908.778 471.871ZM881.87 450.27H870.126V452.573H881.87V450.27ZM868.974 451.421V502.081H871.277V451.421H868.974ZM869.762 503.174L882.887 507.549L883.615 505.364L870.49 500.989L869.762 503.174ZM882.1 506.457V508.759H884.403V506.457H882.1ZM883.251 507.608H832.361V509.911H883.251V507.608ZM833.512 508.759V506.457H831.21V508.759H833.512ZM832.709 507.554L846.525 503.179L845.83 500.984L832.013 505.359L832.709 507.554ZM847.329 502.081V400.301H845.026V502.081H847.329ZM846.525 399.203L832.709 394.828L832.013 397.023L845.83 401.399L846.525 399.203ZM833.512 395.926V393.623H831.21V395.926H833.512ZM832.361 394.774H883.942V392.472H832.361V394.774ZM882.791 393.623V395.926H885.093V393.623H882.791ZM883.594 394.828L869.778 399.203L870.473 401.399L884.29 397.023L883.594 394.828ZM868.974 400.301V447.737H871.277V400.301H868.974ZM870.126 448.888C877.813 448.888 884.11 446.876 888.861 443.335C893.615 439.793 896.747 434.774 898.186 428.898L895.949 428.351C894.625 433.758 891.77 438.296 887.485 441.489C883.198 444.684 877.407 446.586 870.126 446.586V448.888ZM898.194 428.863L900.727 416.889L898.474 416.412L895.941 428.386L898.194 428.863ZM900.727 416.89C902.204 409.959 904.562 404.147 908.332 400.076C912.062 396.048 917.27 393.623 924.7 393.623V391.32C916.702 391.32 910.857 393.961 906.643 398.511C902.469 403.018 899.991 409.295 898.475 416.41L900.727 416.89ZM924.7 393.623C929.628 393.623 934.554 394.691 938.212 397.193C941.811 399.653 944.273 403.557 944.273 409.512H946.576C946.576 402.802 943.743 398.185 939.512 395.292C935.341 392.44 929.905 391.32 924.7 391.32V393.623ZM944.273 409.512C944.273 413.665 943.075 416.627 941.18 418.547C939.284 420.469 936.555 421.486 933.22 421.486V423.789C937.025 423.789 940.397 422.619 942.819 420.165C945.241 417.71 946.576 414.109 946.576 409.512H944.273ZM933.22 421.486C929.681 421.486 926.758 420.31 924.727 418.33C922.698 416.353 921.476 413.495 921.476 409.972H919.174C919.174 414.049 920.6 417.523 923.119 419.979C925.636 422.432 929.161 423.789 933.22 423.789V421.486Z" fill="black" mask="url(#path-79-outside-1_363_3)"/>
<path d="M918.944 412.243V400.73L918.944 399.66H917.792C915.675 399.646 914.465 400.127 912.036 401.963C909.432 404.534 908.184 407.031 906.279 412.901C904.592 409.293 903.907 407.215 903.4 403.376C910.863 392.754 916.035 390.931 931.033 392.669C937.729 394.397 941.154 396.932 944.849 403.607C945.868 410.436 945.695 413.728 943.122 418C936.79 427.787 921.475 423.71 918.944 412.243Z" fill="#FFFBF3" stroke="black" stroke-width="1.15136"/>
<mask id="path-82-outside-2_363_3" maskUnits="userSpaceOnUse" x="254.851" y="686.265" width="112" height="118" fill="black">
<rect fill="white" x="254.851" y="686.265" width="112" height="118"/>
<path d="M354.052 692.01H322.583V795.603L336.365 799.968V802.265H284.913V799.968L298.695 795.603V692.01H267.226L260.106 712.453H256.431V687.416H365.077V712.453H361.172L354.052 692.01Z"/>
</mask>
<path d="M354.052 692.01H322.583V795.603L336.365 799.968V802.265H284.913V799.968L298.695 795.603V692.01H267.226L260.106 712.453H256.431V687.416H365.077V712.453H361.172L354.052 692.01Z" fill="black"/>
<path d="M354.052 692.01L355.139 691.631L354.87 690.859H354.052V692.01ZM322.583 692.01V690.859H321.432V692.01H322.583ZM322.583 795.603H321.432V796.447L322.236 796.701L322.583 795.603ZM336.365 799.968H337.516V799.125L336.713 798.87L336.365 799.968ZM336.365 802.265V803.416H337.516V802.265H336.365ZM284.913 802.265H283.762V803.416H284.913V802.265ZM284.913 799.968L284.565 798.87L283.762 799.125V799.968H284.913ZM298.695 795.603L299.042 796.701L299.846 796.447V795.603H298.695ZM298.695 692.01H299.846V690.859H298.695V692.01ZM267.226 692.01V690.859H266.408L266.139 691.631L267.226 692.01ZM260.106 712.453V713.605H260.924L261.193 712.832L260.106 712.453ZM256.431 712.453H255.279V713.605H256.431V712.453ZM256.431 687.416V686.265H255.279V687.416H256.431ZM365.077 687.416H366.229V686.265H365.077V687.416ZM365.077 712.453V713.605H366.229V712.453H365.077ZM361.172 712.453L360.085 712.832L360.354 713.605H361.172V712.453ZM354.052 690.859H322.583V693.162H354.052V690.859ZM321.432 692.01V795.603H323.735V692.01H321.432ZM322.236 796.701L336.017 801.065L336.713 798.87L322.931 794.506L322.236 796.701ZM335.214 799.968V802.265H337.516V799.968H335.214ZM336.365 801.113H284.913V803.416H336.365V801.113ZM286.064 802.265V799.968H283.762V802.265H286.064ZM285.261 801.065L299.042 796.701L298.347 794.506L284.565 798.87L285.261 801.065ZM299.846 795.603V692.01H297.543V795.603H299.846ZM298.695 690.859H267.226V693.162H298.695V690.859ZM266.139 691.631L259.018 712.074L261.193 712.832L268.314 692.389L266.139 691.631ZM260.106 711.302H256.431V713.605H260.106V711.302ZM257.582 712.453V687.416H255.279V712.453H257.582ZM256.431 688.568H365.077V686.265H256.431V688.568ZM363.926 687.416V712.453H366.229V687.416H363.926ZM365.077 711.302H361.172V713.605H365.077V711.302ZM362.26 712.074L355.139 691.631L352.964 692.389L360.085 712.832L362.26 712.074Z" fill="black" mask="url(#path-82-outside-2_363_3)"/>
<mask id="path-84-outside-3_363_3" maskUnits="userSpaceOnUse" x="396.468" y="686.265" width="112" height="118" fill="black">
<rect fill="white" x="396.468" y="686.265" width="112" height="118"/>
<path d="M495.669 692.01H464.201V795.603L477.983 799.968V802.265H426.531V799.968L440.312 795.603V692.01H408.844L401.723 712.453H398.048V687.416H506.695V712.453H502.79L495.669 692.01Z"/>
</mask>
<path d="M495.669 692.01H464.201V795.603L477.983 799.968V802.265H426.531V799.968L440.312 795.603V692.01H408.844L401.723 712.453H398.048V687.416H506.695V712.453H502.79L495.669 692.01Z" fill="black"/>
<path d="M495.669 692.01L496.757 691.631L496.488 690.859H495.669V692.01ZM464.201 692.01V690.859H463.05V692.01H464.201ZM464.201 795.603H463.05V796.447L463.853 796.701L464.201 795.603ZM477.983 799.968H479.134V799.125L478.33 798.87L477.983 799.968ZM477.983 802.265V803.416H479.134V802.265H477.983ZM426.531 802.265H425.379V803.416H426.531V802.265ZM426.531 799.968L426.183 798.87L425.379 799.125V799.968H426.531ZM440.312 795.603L440.66 796.701L441.464 796.447V795.603H440.312ZM440.312 692.01H441.464V690.859H440.312V692.01ZM408.844 692.01V690.859H408.026L407.757 691.631L408.844 692.01ZM401.723 712.453V713.605H402.542L402.811 712.832L401.723 712.453ZM398.048 712.453H396.897V713.605H398.048V712.453ZM398.048 687.416V686.265H396.897V687.416H398.048ZM506.695 687.416H507.846V686.265H506.695V687.416ZM506.695 712.453V713.605H507.846V712.453H506.695ZM502.79 712.453L501.703 712.832L501.972 713.605H502.79V712.453ZM495.669 690.859H464.201V693.162H495.669V690.859ZM463.05 692.01V795.603H465.352V692.01H463.05ZM463.853 796.701L477.635 801.065L478.33 798.87L464.549 794.506L463.853 796.701ZM476.831 799.968V802.265H479.134V799.968H476.831ZM477.983 801.113H426.531V803.416H477.983V801.113ZM427.682 802.265V799.968H425.379V802.265H427.682ZM426.878 801.065L440.66 796.701L439.965 794.506L426.183 798.87L426.878 801.065ZM441.464 795.603V692.01H439.161V795.603H441.464ZM440.312 690.859H408.844V693.162H440.312V690.859ZM407.757 691.631L400.636 712.074L402.811 712.832L409.931 692.389L407.757 691.631ZM401.723 711.302H398.048V713.605H401.723V711.302ZM399.2 712.453V687.416H396.897V712.453H399.2ZM398.048 688.568H506.695V686.265H398.048V688.568ZM505.543 687.416V712.453H507.846V687.416H505.543ZM506.695 711.302H502.79V713.605H506.695V711.302ZM503.877 712.074L496.757 691.631L494.582 692.389L501.703 712.832L503.877 712.074Z" fill="black" mask="url(#path-84-outside-3_363_3)"/>
<path d="M95.1436 804.696H514.239" stroke="black" stroke-width="1.15136"/>
<path d="M89.9629 687.833H514.816" stroke="black" stroke-width="1.15136"/>
<path d="M213.158 671.713V825.996" stroke="black" stroke-width="1.15136"/>
<path d="M255.759 671.713V825.996" stroke="black" stroke-width="1.15136"/>
<path d="M267.272 671.713V825.996" stroke="black" stroke-width="1.15136"/>
<path d="M352.473 671.713V825.996" stroke="black" stroke-width="1.15136"/>
<path d="M366.29 671.713V825.996" stroke="black" stroke-width="1.15136"/>
<path d="M397.376 671.713V825.996" stroke="black" stroke-width="1.15136"/>
<path d="M408.89 671.713V825.996" stroke="black" stroke-width="1.15136"/>
<path d="M495.242 671.713V825.996" stroke="black" stroke-width="1.15136"/>
<path d="M507.907 671.713V825.996" stroke="black" stroke-width="1.15136"/>
<path d="M785.386 732.735H664.493" stroke="black" stroke-width="1.15136"/>
<path d="M983.42 789.152H862.527" stroke="black" stroke-width="1.15136"/>
<path d="M679.698 677.559L672.314 831.664" stroke="black" stroke-width="1.15136"/>
<path d="M1036.19 718.433L966.959 818.902" stroke="black" stroke-width="1.15136"/>
<path d="M39.1904 943.398V944.945H49.6839L49.9902 943.333H50.1514V947.734H49.9902L49.6839 946.686H39.2549L39.0131 947.734H38.868V943.188C38.868 940.641 40.0769 938.868 42.0918 938.868C44.1067 938.868 45.3156 940.641 45.3156 943.188V944.494L45.1061 944.703H44.9933V943.398C44.9933 941.786 44.0261 940.641 42.0918 940.641C40.1575 940.641 39.1904 941.786 39.1904 943.398ZM49.6839 936.834H42.6238L42.4142 937.801H42.2369L41.979 935.367L42.2047 935.157L43.6231 935.206L43.6715 935.157C43.6715 935.157 42.0274 934.4 42.0274 932.804C42.0274 931.772 42.7205 930.934 43.7682 930.934C44.5258 930.934 44.8482 931.37 44.8482 931.918C44.8482 932.53 44.4291 932.949 43.7682 932.949H42.4787C42.4303 933.014 42.4142 933.094 42.4142 933.207C42.4142 934.48 44.2518 935.157 44.2518 935.157H49.6839L49.9902 933.707H50.1514V937.801H49.9902L49.6839 936.834ZM46.1377 930.159C43.6393 930.159 42.0274 928.499 42.0274 926.081C42.0274 923.679 43.6393 922.019 46.1377 922.019C48.6523 922.019 50.232 923.679 50.232 926.081C50.232 928.499 48.6523 930.159 46.1377 930.159ZM46.1377 928.434C48.6684 928.434 49.9902 927.467 49.9902 926.081C49.9902 924.678 48.6684 923.727 46.1377 923.727C43.5909 923.727 42.2691 924.678 42.2691 926.081C42.2691 927.467 43.5909 928.434 46.1377 928.434Z" fill="black"/>
<path d="M39.1904 836.269V839.283H49.6839L49.9902 838.235H50.1514V842.071H49.9902L49.6839 841.024H39.1904V844.022L40.8507 844.78V845.037H38.868V835.253H40.8507V835.527L39.1904 836.269ZM46.1216 827.972V833.598C48.3783 833.598 49.7323 832.566 49.7323 830.471C49.7323 829.568 49.4744 828.795 48.7812 828.101L48.9747 827.924C49.7645 828.714 50.232 829.746 50.232 831.164C50.232 833.969 48.4911 835.323 46.2183 835.323C43.6554 835.323 42.0274 833.614 42.0274 831.277C42.0274 829.181 43.3491 827.666 45.2673 827.666C45.4607 827.666 45.7025 827.682 45.9121 827.747L46.1216 827.972ZM42.2691 831.212C42.2691 832.373 43.3814 833.534 45.8798 833.598L45.638 829.31C43.3975 829.31 42.2691 830.02 42.2691 831.212ZM49.6839 821.049L46.4923 823.434L49.6839 825.885L49.9902 824.595H50.1514V827.319H49.9902L49.6839 826.255L46.2344 823.644L42.5593 826.32L42.253 827.239H42.0918V823.612H42.253L42.5593 824.579L45.5574 822.371L42.5593 820.082L42.253 821.371H42.0918V818.647H42.253L42.5593 819.695L45.8153 822.161L49.6839 819.308L49.9902 818.389H50.1514V822.032H49.9902L49.6839 821.049ZM42.4142 817.858H42.2853C42.0112 816.697 41.1569 815.891 40.2381 815.408L40.4477 815.198H42.0918V812.555H42.4142V815.198H48.072C49.0714 815.198 49.7323 814.763 49.7323 813.86C49.7323 813.377 49.5227 812.925 49.1681 812.571L49.3454 812.394C49.8773 812.909 50.232 813.619 50.232 814.586C50.232 816.133 49.3132 816.875 48.072 816.875H42.4142V817.858Z" fill="black"/>
<path d="M709.307 677.663L696.144 831.383" stroke="black" stroke-width="1.15136"/>
<path d="M889.008 682.076L954.007 821.998" stroke="black" stroke-width="1.15136"/>
<path d="M625.346 688.984H1057.68" stroke="black" stroke-width="1.15136"/>
<path d="M625.346 805.271H1057.68" stroke="black" stroke-width="1.15136"/>
<path d="M95.7197 693.589H528.056" stroke="black" stroke-width="1.15136"/>
<path d="M224.672 671.713V825.996" stroke="black" stroke-width="1.15136"/>
<path d="M126.806 668.259V822.542" stroke="black" stroke-width="1.15136"/>
<path d="M115.292 668.259V822.542" stroke="black" stroke-width="1.15136"/>
<path d="M169.982 803.544V687.833H115.292V713.738H119.898L127.382 693.014H157.893V795.485L144.077 800.09V803.544H169.982Z" fill="#FFFBF3" stroke="black" stroke-width="1.15136"/>
<path d="M141.774 688.408L152.136 693.014" stroke="black" stroke-width="1.15136"/>
<path d="M155.57 687.833L169.963 700.162" stroke="black" stroke-width="1.15136"/>
<path d="M157.893 696.468L169.982 706.83" stroke="black" stroke-width="1.15136"/>
<path d="M158.469 704.527L169.982 715.465" stroke="black" stroke-width="1.15136"/>
<path d="M158.469 712.587L169.982 724.676" stroke="black" stroke-width="1.15136"/>
<path d="M157.893 721.798L169.982 733.887" stroke="black" stroke-width="1.15136"/>
<path d="M157.893 731.009L169.982 742.522" stroke="black" stroke-width="1.15136"/>
<path d="M157.893 741.946L169.982 756.338" stroke="black" stroke-width="1.15136"/>
<path d="M157.893 785.698L169.982 798.939" stroke="black" stroke-width="1.15136"/>
<path d="M156.742 796.061L164.801 803.544" stroke="black" stroke-width="1.15136"/>
<path d="M115.868 702.8L121.625 708.557" stroke="black" stroke-width="1.15136"/>
<path d="M158.469 754.611L169.982 771.882" stroke="black" stroke-width="1.15136"/>
<path d="M157.893 771.306L169.982 786.274" stroke="black" stroke-width="1.15136"/>
<path d="M130.26 688.408L136.017 693.014" stroke="black" stroke-width="1.15136"/>
<path d="M115.868 691.862L124.503 699.922" stroke="black" stroke-width="1.15136"/>
<path d="M120.474 688.408L126.806 694.165" stroke="black" stroke-width="1.15136"/>
<path d="M148.682 798.939L152.136 803.544" stroke="black" stroke-width="1.15136"/>
<path d="M310.448 803.544V687.833H255.759V713.738H260.364L267.848 693.014H298.359V795.485L284.543 800.09V803.544H310.448Z" fill="#FFFBF3" stroke="black" stroke-width="1.15136"/>
<path d="M282.24 688.408L292.602 693.014" stroke="black" stroke-width="1.15136"/>
<path d="M296.036 687.833L310.429 700.162" stroke="black" stroke-width="1.15136"/>
<path d="M298.359 696.468L310.449 706.83" stroke="black" stroke-width="1.15136"/>
<path d="M298.935 704.527L310.449 715.465" stroke="black" stroke-width="1.15136"/>
<path d="M298.935 712.587L310.449 724.676" stroke="black" stroke-width="1.15136"/>
<path d="M298.359 721.798L310.449 733.887" stroke="black" stroke-width="1.15136"/>
<path d="M298.359 731.009L310.449 742.522" stroke="black" stroke-width="1.15136"/>
<path d="M298.359 741.946L310.449 756.338" stroke="black" stroke-width="1.15136"/>
<path d="M298.359 785.698L310.449 798.939" stroke="black" stroke-width="1.15136"/>
<path d="M297.208 796.061L305.268 803.544" stroke="black" stroke-width="1.15136"/>
<path d="M256.334 702.8L262.091 708.557" stroke="black" stroke-width="1.15136"/>
<path d="M298.935 754.611L310.449 771.882" stroke="black" stroke-width="1.15136"/>
<path d="M298.359 771.306L310.449 786.274" stroke="black" stroke-width="1.15136"/>
<path d="M270.727 688.408L276.483 693.014" stroke="black" stroke-width="1.15136"/>
<path d="M256.334 691.862L264.97 699.922" stroke="black" stroke-width="1.15136"/>
<path d="M260.94 688.408L267.272 694.165" stroke="black" stroke-width="1.15136"/>
<path d="M289.148 798.939L292.603 803.544" stroke="black" stroke-width="1.15136"/>
<path d="M170.519 803.544V687.833H225.208V713.738H220.603L213.119 693.014H182.608V795.485L196.424 800.09V803.544H170.519Z" fill="#FFFBF3" stroke="black" stroke-width="1.15136"/>
<path d="M198.727 688.408L188.365 693.014" stroke="black" stroke-width="1.15136"/>
<path d="M184.931 687.833L170.538 700.162" stroke="black" stroke-width="1.15136"/>
<path d="M182.608 696.468L170.519 706.83" stroke="black" stroke-width="1.15136"/>
<path d="M182.032 704.527L170.519 715.465" stroke="black" stroke-width="1.15136"/>
<path d="M182.032 712.587L170.519 724.676" stroke="black" stroke-width="1.15136"/>
<path d="M182.608 721.798L170.519 733.887" stroke="black" stroke-width="1.15136"/>
<path d="M182.608 731.009L170.519 742.522" stroke="black" stroke-width="1.15136"/>
<path d="M182.608 741.946L170.519 756.338" stroke="black" stroke-width="1.15136"/>
<path d="M182.608 785.698L170.519 798.939" stroke="black" stroke-width="1.15136"/>
<path d="M183.759 796.061L175.7 803.544" stroke="black" stroke-width="1.15136"/>
<path d="M224.633 702.8L218.876 708.557" stroke="black" stroke-width="1.15136"/>
<path d="M182.032 754.611L170.519 771.882" stroke="black" stroke-width="1.15136"/>
<path d="M182.608 771.306L170.519 786.274" stroke="black" stroke-width="1.15136"/>
<path d="M210.241 688.408L204.484 693.014" stroke="black" stroke-width="1.15136"/>
<path d="M224.633 691.862L215.998 699.922" stroke="black" stroke-width="1.15136"/>
<path d="M220.027 688.408L213.695 694.165" stroke="black" stroke-width="1.15136"/>
<path d="M191.819 798.939L188.365 803.544" stroke="black" stroke-width="1.15136"/>
<rect x="37.5757" y="749.43" width="17.2704" height="51.8113" stroke="black" stroke-width="1.15136"/>
<rect x="37.5757" y="802.393" width="17.2704" height="51.8113" stroke="black" stroke-width="1.15136"/>
<rect x="37.5757" y="855.356" width="17.2704" height="51.8113" stroke="black" stroke-width="1.15136"/>
<rect x="37.5757" y="908.318" width="17.2704" height="51.8113" stroke="black" stroke-width="1.15136"/>
<rect x="38.727" y="112.727" width="100.169" height="19.5732" stroke="black" stroke-width="1.15136"/>
<rect x="1017.58" y="1033.58" width="159.849" height="20.8486" stroke="black" stroke-width="1.15136"/>
<rect x="1017.58" y="1055.58" width="99.0172" height="35.6922" stroke="black" stroke-width="1.15136"/>
<rect x="1117.58" y="1055.58" width="59.8486" height="35.8486" stroke="black" stroke-width="1.15136"/>
<rect x="1017.58" y="1091.58" width="99.0172" height="17.2704" stroke="black" stroke-width="1.15136"/>
<rect x="1117.58" y="1091.58" width="59.8486" height="16.8486" stroke="black" stroke-width="1.15136"/>
<rect x="924.576" y="1033.58" width="91.8486" height="74.8486" stroke="black" stroke-width="1.15136"/>
<path d="M980 1033V1109" stroke="black" stroke-width="1.15136"/>
<path d="M1002.5 1033V1108.57" stroke="black" stroke-width="1.15136"/>
<path d="M1137.25 1055V1082.14" stroke="black" stroke-width="1.15136"/>
<circle cx="857.346" cy="378.935" r="39.1463" stroke="black" stroke-width="1.15136"/>
<circle cx="941.395" cy="395.055" r="39.1463" stroke="black" stroke-width="1.15136"/>
<circle cx="857.346" cy="507.888" r="39.1463" stroke="black" stroke-width="1.15136"/>
<path d="M834.223 410.847H835.328V419.21H834.223V410.847ZM834.223 422H835.328V430.364H834.223V422ZM834.223 433.154H835.328V441.518H834.223V433.154ZM834.223 444.308H835.328V452.672H834.223V444.308ZM834.223 455.462H835.328V463.825H834.223V455.462ZM834.223 466.616H835.328V474.979H834.223V466.616Z" fill="black"/>
<path d="M918.768 426.92L919.728 427.467L915.592 434.736L914.631 434.189L918.768 426.92ZM913.251 436.614L914.212 437.161L910.075 444.43L909.115 443.883L913.251 436.614ZM907.735 446.308L908.695 446.855L904.559 454.124L903.598 453.577L907.735 446.308ZM902.218 456.002L903.179 456.549L899.042 463.818L898.082 463.271L902.218 456.002ZM896.702 465.697L897.662 466.243L893.526 473.512L892.565 472.966L896.702 465.697ZM891.185 475.391L892.146 475.937L888.009 483.206L887.049 482.66L891.185 475.391Z" fill="black"/>
<path d="M940.248 355.087L940.06 356.177L931.819 354.755L932.006 353.666L940.248 355.087ZM929.257 353.192L929.069 354.281L920.827 352.86L921.015 351.77L929.257 353.192ZM918.265 351.296L918.077 352.385L909.835 350.964L910.023 349.875L918.265 351.296ZM907.274 349.401L907.086 350.49L898.844 349.068L899.032 347.979L907.274 349.401ZM896.282 347.505L896.094 348.594L887.852 347.173L888.04 346.084L896.282 347.505ZM885.29 345.609L885.103 346.699L876.861 345.277L877.049 344.188L885.29 345.609Z" fill="black"/>
<path d="M845.832 400.811V416.355C855.501 419.102 860.921 418.72 870.586 415.779V400.811L884.403 396.206V392.752H832.016V396.206L845.832 400.811Z" fill="#FFFBF3" stroke="black" stroke-width="1.15136"/>
<path d="M845.832 500.98V470.469C855.488 467.546 860.915 467.903 870.586 471.045V500.98L883.827 505.585V509.04H832.016V505.585L845.832 500.98Z" fill="#FFFBF3" stroke="black" stroke-width="1.15136"/>
<path d="M739.331 303.278L1027.94 591.889" stroke="black" stroke-width="1.15136"/>
<path d="M1022.19 303.278L733.574 591.889" stroke="black" stroke-width="1.15136"/>
<circle cx="888.433" cy="443.168" r="126.65" stroke="black" stroke-width="1.15136"/>
<circle cx="889.008" cy="443.744" r="136.436" stroke="black" stroke-width="1.15136"/>
<path d="M867.708 568.091V578.453" stroke="black" stroke-width="1.15136"/>
<path d="M913.187 567.515V577.877" stroke="black" stroke-width="1.15136"/>
<path d="M1015.66 437.987H1025.44" stroke="black" stroke-width="1.15136"/>
<path d="M1014.51 453.53H1025.44" stroke="black" stroke-width="1.15136"/>
<path d="M762.358 432.23H753.147" stroke="black" stroke-width="1.15136"/>
<path d="M761.783 446.622H752.572" stroke="black" stroke-width="1.15136"/>
<rect x="683.49" y="225.561" width="411.036" height="445.577" stroke="black" stroke-width="1.15136"/>
<rect x="650.101" y="241.68" width="476.664" height="401.825" stroke="black" stroke-width="1.15136"/>
<path d="M666.795 241.104V437.987H684.065" stroke="black" stroke-width="1.15136"/>
<circle cx="1061.71" cy="539.307" r="10.9379" stroke="black" stroke-width="1.15136"/>
<path d="M1061.71 516.28V559.456" stroke="black" stroke-width="1.15136"/>
<circle cx="1054.8" cy="330.91" r="10.9379" stroke="black" stroke-width="1.15136"/>
<path d="M1055.38 310.186V352.786" stroke="black" stroke-width="1.15136"/>
<circle cx="892.462" cy="279.099" r="10.9379" stroke="black" stroke-width="1.15136"/>
<path d="M892.462 259.526V302.126" stroke="black" stroke-width="1.15136"/>
<path d="M908.581 614.145H871.738" stroke="black" stroke-width="1.15136"/>
<circle cx="890.159" cy="614.145" r="10.9379" stroke="black" stroke-width="1.15136"/>
<path d="M890.735 593.421V636.021" stroke="black" stroke-width="1.15136"/>
<path d="M746.239 538.156H709.396" stroke="black" stroke-width="1.15136"/>
<circle cx="727.817" cy="538.155" r="10.9379" stroke="black" stroke-width="1.15136"/>
<path d="M728.393 517.431V560.031" stroke="black" stroke-width="1.15136"/>
<path d="M750.845 334.364H714.001" stroke="black" stroke-width="1.15136"/>
<circle cx="732.423" cy="334.364" r="10.9379" stroke="black" stroke-width="1.15136"/>
<path d="M978.239 794.909C974.209 798.939 966.149 798.363 965.574 794.909V789.152H941.971C941.962 796.112 943.468 799.062 949.455 802.393C955.124 804.156 958.395 804.459 964.422 803.544C972.227 802.725 975.931 801.543 980.541 797.212L978.239 794.909Z" fill="#FFFBF3" stroke="black" stroke-width="1.15136"/>
<path d="M941.395 789.152H965.574C965.103 791.627 965.128 792.87 965.574 794.909" stroke="black" stroke-width="1.15136"/>
<path d="M87.6602 796.061H519.997" stroke="black" stroke-width="1.15136"/>
<path d="M95.7197 714.313H528.056" stroke="black" stroke-width="1.15136"/>
<g filter="url(#filter3_d_363_3)">
<path d="M1086.5 43H1014V85.5H1035V80L1040.5 85.5H1061.5L1068 80V85.5H1086.5V43Z" fill="black" stroke="black" stroke-width="2"/>
<path d="M1015 45.3739L1085.4 45.644" stroke="white" stroke-width="2"/>
<path d="M1085.5 80H1069" stroke="white" stroke-width="2"/>
<path d="M1034 80H1015" stroke="white" stroke-width="2"/>
<path d="M1033 86.7924C1035.58 60.1156 1038.36 45.3788 1044.5 19.2924C1043.59 15.3372 1042.47 13.2409 1036.5 10.2924C1035.29 9.13732 1035.37 8.41773 1036.5 6.79244C1039.44 3.0667 1041.71 1.9992 1046.5 1.29244C1050.03 0.867017 1052.29 0.939712 1056.5 1.29244C1061.36 2.28368 1063.65 3.27012 1066 6.79244C1066.84 8.22778 1066.9 9.00191 1066 10.2924C1060.25 12.3057 1058.07 14.0753 1057.5 19.2924C1063.41 45.1614 1066.27 59.8187 1069 86.7924" stroke="#DBDBDB" stroke-width="2"/>
</g>
<defs>
<filter id="filter0_d_363_3" x="0" y="97" width="1149" height="1057" filterUnits="userSpaceOnUse" color-interpolation-filters="sRGB">
<feFlood flood-opacity="0" result="BackgroundImageFix"/>
<feColorMatrix in="SourceAlpha" type="matrix" values="0 0 0 0 0 0 0 0 0 0 0 0 0 0 0 0 0 0 127 0" result="hardAlpha"/>
<feOffset dy="4"/>
<feGaussianBlur stdDeviation="2"/>
<feComposite in2="hardAlpha" operator="out"/>
<feColorMatrix type="matrix" values="0 0 0 0 0 0 0 0 0 0 0 0 0 0 0 0 0 0 0.25 0"/>
<feBlend mode="normal" in2="BackgroundImageFix" result="effect1_dropShadow_363_3"/>
<feBlend mode="normal" in="SourceGraphic" in2="effect1_dropShadow_363_3" result="shape"/>
</filter>
<filter id="filter1_d_363_3" x="13" y="74" width="1149" height="1062" filterUnits="userSpaceOnUse" color-interpolation-filters="sRGB">
<feFlood flood-opacity="0" result="BackgroundImageFix"/>
<feColorMatrix in="SourceAlpha" type="matrix" values="0 0 0 0 0 0 0 0 0 0 0 0 0 0 0 0 0 0 127 0" result="hardAlpha"/>
<feOffset dy="4"/>
<feGaussianBlur stdDeviation="2"/>
<feComposite in2="hardAlpha" operator="out"/>
<feColorMatrix type="matrix" values="0 0 0 0 0 0 0 0 0 0 0 0 0 0 0 0 0 0 0.25 0"/>
<feBlend mode="normal" in2="BackgroundImageFix" result="effect1_dropShadow_363_3"/>
<feBlend mode="normal" in="SourceGraphic" in2="effect1_dropShadow_363_3" result="shape"/>
</filter>
<filter id="filter2_d_363_3" x="33" y="53" width="1149" height="1065" filterUnits="userSpaceOnUse" color-interpolation-filters="sRGB">
<feFlood flood-opacity="0" result="BackgroundImageFix"/>
<feColorMatrix in="SourceAlpha" type="matrix" values="0 0 0 0 0 0 0 0 0 0 0 0 0 0 0 0 0 0 127 0" result="hardAlpha"/>
<feOffset dy="4"/>
<feGaussianBlur stdDeviation="2"/>
<feComposite in2="hardAlpha" operator="out"/>
<feColorMatrix type="matrix" values="0 0 0 0 0 0 0 0 0 0 0 0 0 0 0 0 0 0 0.25 0"/>
<feBlend mode="normal" in2="BackgroundImageFix" result="effect1_dropShadow_363_3"/>
<feBlend mode="normal" in="SourceGraphic" in2="effect1_dropShadow_363_3" result="shape"/>
</filter>
<filter id="filter3_d_363_3" x="1009" y="0" width="82.5" height="94.8933" filterUnits="userSpaceOnUse" color-interpolation-filters="sRGB">
<feFlood flood-opacity="0" result="BackgroundImageFix"/>
<feColorMatrix in="SourceAlpha" type="matrix" values="0 0 0 0 0 0 0 0 0 0 0 0 0 0 0 0 0 0 127 0" result="hardAlpha"/>
<feOffset dy="4"/>
<feGaussianBlur stdDeviation="2"/>
<feComposite in2="hardAlpha" operator="out"/>
<feColorMatrix type="matrix" values="0 0 0 0 0 0 0 0 0 0 0 0 0 0 0 0 0 0 0.25 0"/>
<feBlend mode="normal" in2="BackgroundImageFix" result="effect1_dropShadow_363_3"/>
<feBlend mode="normal" in="SourceGraphic" in2="effect1_dropShadow_363_3" result="shape"/>
</filter>
</defs>
</svg>
