<svg width="290" height="480" viewBox="0 0 290 480" fill="none" xmlns="http://www.w3.org/2000/svg">
<g filter="url(#filter0_d_242_4671)">
<path fill-rule="evenodd" clip-rule="evenodd" d="M36.0338 387.226C82.7063 368.826 105.236 350.462 139.599 304.939C149.756 289.911 156.348 278.336 161.789 264.527C164.85 256.759 167.546 248.284 170.308 238.089C170.612 236.966 170.917 235.822 171.224 234.656C149.328 247.831 136.5 253.771 111.293 258.19C93.3261 260.695 86.102 264.675 74.3326 272.766C57.0092 286.302 47.7175 294.151 32.997 309.35C24.8728 320.505 22.6146 326.17 19.9907 335.734C14.5898 363.064 14.3533 372.922 19.7173 379.183C24.1358 385.596 27.6498 387.459 36.0338 387.226ZM55.3085 367.383L134.523 295.101C138.2 287.85 136.736 278.561 130.43 275.391C124.647 272.812 119.067 270.342 114.129 269.944C104.58 269.94 101.203 267.786 94.7513 271.612L82.3271 278.433L71.1251 287.151C60.0695 295.895 51.5857 304.388 44.4533 314.997L32.4296 331.51L27.6825 349.019C27.2071 361.846 29.3361 366.552 36.4642 371.471C44.192 374.409 48.2939 373.136 55.3085 367.383Z" fill="#E9CDA1"/>
<path fill-rule="evenodd" clip-rule="evenodd" d="M196.283 288.866L197.134 316.903L193.159 348.602C190.033 362.001 187.159 368.593 180.349 378.966C175.079 393.04 176.055 400.607 182.623 413.746C186.716 422.319 189.009 425.635 193.101 430.131C198.602 434.947 201.978 436.351 208.542 436.448C223.542 437.507 229.294 434.203 237.909 425.896C244.597 419.504 246.251 415.177 247.321 406.802C247.263 393.372 245.437 386.529 240.045 375.167C230.598 358.813 228.523 351.448 224.961 340.114C218.103 318.183 217.323 303.315 216.12 276.638C214.112 278.261 212.331 279.637 210.653 280.847C207.005 283.478 203.847 285.321 199.914 287.204C198.779 287.748 197.578 288.296 196.283 288.866ZM209.686 363.222C215.809 364.475 218.821 366.031 223.572 370.067C232.345 382.039 235.035 389.202 236.393 402.71C236.412 412.026 233.975 415.701 226.453 420.248C220.963 424.234 217.763 424.82 211.936 424.312C202.312 422.81 199.875 419.859 195.609 414.538C189.744 402.007 189.987 395.663 191.805 384.614C193.706 376.949 195.66 373.115 200.533 366.909C203.613 363.933 205.579 363.149 209.686 363.222Z" fill="#E9CDA1"/>
<path d="M338.396 136.257L252.397 187.935L229.928 238.998L331.639 165.722C365.037 142.933 380.409 128.145 404.659 99.8785C381.292 111.723 367.456 119.057 338.396 136.257Z" fill="#FFF1DA"/>
<path d="M193.612 256.912L191.012 244.411L205.698 216.698C191.081 226.953 183.244 232.14 170.308 238.089C167.546 248.284 164.85 256.759 161.789 264.527C174.33 263.586 181.31 262.139 193.612 256.912Z" fill="#FFF1DA"/>
<path d="M319.59 24.7171C301.595 38.4635 291.078 52.5708 271.336 92.8436L205.698 216.698L191.012 244.411L193.612 256.912L199.914 287.204C203.847 285.321 207.005 283.478 210.653 280.847L229.928 238.998L252.397 187.935L288.902 106.681C301.206 77.4234 308.026 60.3251 319.59 24.7171Z" fill="#FFF1DA"/>
<path d="M199.914 287.204C198.779 287.748 197.578 288.296 196.283 288.866L197.134 316.903L193.159 348.602C190.033 362.001 187.159 368.593 180.349 378.966C175.079 393.04 176.055 400.607 182.623 413.746C186.716 422.319 189.009 425.635 193.101 430.131C198.602 434.947 201.978 436.351 208.542 436.448C223.542 437.507 229.294 434.203 237.909 425.896C244.597 419.504 246.251 415.177 247.321 406.802C247.263 393.372 245.437 386.529 240.045 375.167C230.598 358.813 228.523 351.448 224.961 340.114C218.103 318.183 217.323 303.315 216.12 276.638C214.112 278.261 212.331 279.637 210.653 280.847M199.914 287.204C203.847 285.321 207.005 283.478 210.653 280.847M199.914 287.204L193.612 256.912M210.653 280.847L229.928 238.998M161.789 264.527C156.348 278.336 149.756 289.911 139.599 304.939C105.236 350.462 82.7063 368.826 36.0338 387.226C27.6498 387.459 24.1358 385.596 19.7173 379.183C14.3533 372.922 14.5898 363.064 19.9907 335.734C22.6146 326.17 24.8728 320.505 32.997 309.35C47.7175 294.151 57.0092 286.302 74.3326 272.766C86.102 264.675 93.3261 260.695 111.293 258.19C136.5 253.771 149.328 247.831 171.224 234.656C170.917 235.822 170.612 236.966 170.308 238.089M161.789 264.527C174.33 263.586 181.31 262.139 193.612 256.912M161.789 264.527C164.85 256.759 167.546 248.284 170.308 238.089M193.612 256.912L191.012 244.411L205.698 216.698M170.308 238.089C183.244 232.14 191.081 226.953 205.698 216.698M205.698 216.698L271.336 92.8436C291.078 52.5708 301.595 38.4635 319.59 24.7171C308.026 60.3251 301.206 77.4234 288.902 106.681L252.397 187.935M252.397 187.935L338.396 136.257C367.456 119.057 381.292 111.723 404.659 99.8785C380.409 128.145 365.037 142.933 331.639 165.722L229.928 238.998M252.397 187.935L229.928 238.998M134.523 295.101L55.3085 367.383C48.2939 373.136 44.192 374.409 36.4642 371.471C29.3361 366.552 27.2071 361.846 27.6825 349.019L32.4296 331.51L44.4533 314.997C51.5857 304.388 60.0695 295.895 71.1251 287.151L82.3271 278.433L94.7513 271.612C101.203 267.786 104.58 269.94 114.129 269.944C119.067 270.342 124.647 272.812 130.43 275.391C136.736 278.561 138.2 287.85 134.523 295.101ZM223.572 370.067C218.821 366.031 215.809 364.475 209.686 363.222C205.579 363.149 203.613 363.933 200.533 366.909C195.66 373.115 193.706 376.949 191.805 384.614C189.987 395.663 189.744 402.007 195.609 414.538C199.875 419.859 202.312 422.81 211.936 424.312C217.763 424.82 220.963 424.234 226.453 420.248C233.975 415.701 236.412 412.026 236.393 402.71C235.035 389.202 232.345 382.039 223.572 370.067Z" stroke="black" stroke-width="0.774095"/>
<circle cx="218.09" cy="227.121" r="10.8373" transform="rotate(116.241 218.09 227.121)" fill="#E9CDA1" stroke="black" stroke-width="0.774095"/>
<circle cx="218.09" cy="227.121" r="7.74095" transform="rotate(116.241 218.09 227.121)" fill="#FFFBF3" stroke="black" stroke-width="0.774095"/>
</g>
<defs>
<filter id="filter0_d_242_4671" x="12.3314" y="23.6559" width="395.718" height="419.563" filterUnits="userSpaceOnUse" color-interpolation-filters="sRGB">
<feFlood flood-opacity="0" result="BackgroundImageFix"/>
<feColorMatrix in="SourceAlpha" type="matrix" values="0 0 0 0 0 0 0 0 0 0 0 0 0 0 0 0 0 0 127 0" result="hardAlpha"/>
<feOffset dy="3.09638"/>
<feGaussianBlur stdDeviation="1.54819"/>
<feComposite in2="hardAlpha" operator="out"/>
<feColorMatrix type="matrix" values="0 0 0 0 0 0 0 0 0 0 0 0 0 0 0 0 0 0 0.25 0"/>
<feBlend mode="normal" in2="BackgroundImageFix" result="effect1_dropShadow_242_4671"/>
<feBlend mode="normal" in="SourceGraphic" in2="effect1_dropShadow_242_4671" result="shape"/>
</filter>
</defs>
</svg>
