<svg width="567" height="274" viewBox="0 0 567 274" fill="none" xmlns="http://www.w3.org/2000/svg">
<path opacity="0.5" fill-rule="evenodd" clip-rule="evenodd" d="M59.1913 52.381C158.789 -225.563 542.984 -83.639 472.913 179.874L472.114 182.468L497.116 190.173L501.015 196.798L477.465 273.221L1.00002 126.394L24.5506 49.9709L32.3017 44.0947L59.1913 52.381ZM390.122 154.361C435.987 5.52458 217.516 -95.1372 137.973 76.6584L233.03 105.951C257.4 65.4224 301.433 85.965 297.424 125.795L390.122 154.361Z" fill="#F6E1BF" stroke="black" stroke-width="0.987277"/>
<path d="M28.4585 106.853L20.6083 132.327" stroke="black" stroke-width="0.493638"/>
<path d="M72.5669 120.445L64.7167 145.92" stroke="black" stroke-width="0.493638"/>
<path d="M116.186 133.112L107.881 159.221" stroke="black" stroke-width="0.493638"/>
<path d="M160.693 147.086L152.698 173.032" stroke="black" stroke-width="0.493638"/>
<path d="M203.93 160.151L195.862 186.333" stroke="black" stroke-width="0.493638"/>
<path d="M247.168 173.217L239.028 199.635" stroke="black" stroke-width="0.493638"/>
<path d="M291.621 188.207L283.843 213.446" stroke="black" stroke-width="0.493638"/>
<path d="M335.676 199.459L327.244 226.82" stroke="black" stroke-width="0.493638"/>
<path d="M379.383 216.027L371.824 240.558" stroke="black" stroke-width="0.493638"/>
<path d="M423.639 225.791L414.989 253.86" stroke="black" stroke-width="0.493638"/>
<path d="M466.966 239.401L458.389 267.234" stroke="black" stroke-width="0.493638"/>
<path d="M260.422 114.283L244.383 109.34" stroke="black" stroke-width="0.493638"/>
<path d="M263.977 119.511L259.252 134.843" stroke="black" stroke-width="0.493638"/>
<path d="M267.897 116.845L285.352 122.224" stroke="black" stroke-width="0.493638"/>
<path d="M271.463 95.2158L265.866 113.378" stroke="black" stroke-width="0.493638"/>
<path d="M467.864 179.5L440.502 171.068" stroke="black" stroke-width="0.493638"/>
<path d="M478.495 142.485L451.404 139.044" stroke="black" stroke-width="0.493638"/>
<path d="M478.874 104.378L452.597 105.836" stroke="black" stroke-width="0.493638"/>
<path d="M474.045 67.2479L446.859 73.3336" stroke="black" stroke-width="0.493638"/>
<path d="M462.537 31.6759L438.488 41.8277" stroke="black" stroke-width="0.493638"/>
<path d="M444.966 0.692349L422.369 12.8408" stroke="black" stroke-width="0.493638"/>
<path d="M94.9624 -13.412L115.225 2.13003" stroke="black" stroke-width="0.493638"/>
<path d="M75.0962 19.2069L95.7789 29.1963" stroke="black" stroke-width="0.493638"/>
<path d="M61.1816 52.6268L82.882 59.314" stroke="black" stroke-width="0.493638"/>
<path d="M91.9398 67.987C90.3996 67.1357 89.2871 66.1015 88.6022 64.8842C87.9188 63.6621 87.7565 62.4687 88.1154 61.3041C88.4743 60.1394 89.2181 59.4458 90.3466 59.2233C91.4752 59.0007 92.8111 59.3101 94.3544 60.1516C95.8927 60.9915 97.006 62.0233 97.6943 63.247C98.3776 64.4692 98.5391 65.665 98.1787 66.8346C97.8198 67.9992 97.0761 68.6928 95.9475 68.9153C94.8189 69.1379 93.483 68.8285 91.9398 67.987ZM92.4202 66.4805C93.8825 67.2701 95.0691 67.6627 95.9798 67.6581C96.8871 67.6472 97.4529 67.2781 97.677 66.5508C97.9011 65.8235 97.6852 65.0225 97.0293 64.1478C96.3733 63.2731 95.3329 62.4413 93.908 61.6525C92.4407 60.8613 91.251 60.4705 90.3387 60.4799C89.4231 60.4829 88.8532 60.8481 88.6291 61.5754C88.405 62.3026 88.6226 63.1068 89.2819 63.988C89.9412 64.8691 90.9873 65.7 92.4202 66.4805Z" fill="black"/>
<path d="M108.223 43.982L107.811 43.7742L107.865 42.3702L99.5753 37.8141L99.1437 39.2146L98.7213 38.9876L98.9744 36.0712L99.2381 35.975L108.382 41.0043L109.026 39.9356L109.409 40.1343L108.223 43.982ZM104.94 35.8594C103.399 35.0082 102.287 33.9739 101.602 32.7567C100.919 31.5345 100.756 30.3411 101.115 29.1765C101.474 28.0119 102.218 27.3183 103.346 27.0957C104.475 26.8731 105.811 27.1826 107.354 28.024C108.892 28.8639 110.006 29.8958 110.694 31.1194C111.377 32.3416 111.539 33.5374 111.178 34.707C110.82 35.8716 110.076 36.5652 108.947 36.7878C107.819 37.0103 106.483 36.7009 104.94 35.8594ZM105.42 34.3529C106.882 35.1425 108.069 35.5351 108.98 35.5306C109.887 35.5196 110.453 35.1505 110.677 34.4232C110.901 33.6959 110.685 32.8949 110.029 32.0202C109.373 31.1455 108.333 30.3137 106.908 29.5249C105.44 28.7337 104.251 28.3429 103.339 28.3523C102.423 28.3553 101.853 28.7205 101.629 29.4478C101.405 30.175 101.622 30.9793 102.282 31.8604C102.941 32.7415 103.987 33.5724 105.42 34.3529Z" fill="black"/>
<path d="M119.564 19.1398L119.091 18.6375C119.081 17.8889 119.068 17.2694 119.053 16.7789C119.041 16.2843 119.017 15.7199 118.98 15.0856C118.946 14.4472 118.9 13.9082 118.841 13.4685C118.778 13.0257 118.695 12.5491 118.592 12.0388C118.489 11.5285 118.365 11.0857 118.221 10.7104C118.075 10.3279 117.896 9.95034 117.686 9.57763C117.475 9.20493 117.235 8.86793 116.965 8.56665C115.969 7.44829 115.054 7.45391 114.221 8.58349C113.802 9.15034 113.616 9.81823 113.663 10.5871L114.34 11.3455C114.466 11.4772 114.538 11.6483 114.555 11.859C114.571 12.0625 114.522 12.2408 114.409 12.3939C114.303 12.5388 114.167 12.6144 114.002 12.6208C113.838 12.6272 113.661 12.5253 113.471 12.3149C113.056 11.8553 112.881 11.2309 112.946 10.4416C113.006 9.6492 113.333 8.85166 113.925 8.04895C114.542 7.21314 115.199 6.74263 115.896 6.63742C116.597 6.52807 117.279 6.84258 117.942 7.58096C118.287 7.9701 118.578 8.45016 118.815 9.02115C119.051 9.58495 119.225 10.1066 119.338 10.586C119.451 11.0654 119.532 11.7353 119.581 12.5957C119.632 13.452 119.66 14.0987 119.664 14.5357C119.663 14.9697 119.656 15.6933 119.644 16.7064C119.644 16.9049 119.643 17.054 119.639 17.1538L122.341 13.492L121.698 12.1549L122.014 11.7267L123.635 13.6223L119.564 19.1398ZM120.783 8.17272C119.611 6.86034 118.902 5.51656 118.658 4.14138C118.417 2.76207 118.658 1.5821 119.382 0.601474C120.105 -0.37915 121.036 -0.78804 122.175 -0.625196C123.314 -0.462351 124.473 0.271125 125.651 1.57523C126.825 2.87629 127.535 4.218 127.781 5.60037C128.022 6.97968 127.779 8.16172 127.052 9.14648C126.329 10.1271 125.398 10.536 124.259 10.3732C123.12 10.2103 121.962 9.47683 120.783 8.17272ZM121.734 6.90955C122.854 8.13802 123.844 8.90058 124.705 9.19724C125.565 9.4867 126.221 9.32525 126.673 8.71288C127.124 8.1005 127.185 7.27316 126.855 6.23084C126.525 5.18852 125.818 4.05968 124.734 2.84431C123.61 1.61279 122.617 0.85077 121.753 0.55825C120.887 0.25854 120.229 0.414872 119.777 1.02724C119.325 1.63962 119.265 2.47056 119.596 3.52007C119.927 4.56958 120.64 5.69941 121.734 6.90955Z" fill="black"/>
<path d="M382.414 -12.3436L382.781 -12.6239L384.021 -11.9638L391.736 -17.4371L390.663 -18.4361L391.052 -18.7173L393.566 -17.218L393.538 -16.9386L385.025 -10.9023L385.705 -9.85666L385.36 -9.59887L382.414 -12.3436ZM386.404 -8.62612L386.957 -9.03858C387.702 -8.96302 388.319 -8.90477 388.808 -8.86382C389.3 -8.81938 389.864 -8.77925 390.498 -8.74344C391.136 -8.70412 391.677 -8.68866 392.121 -8.69705C392.568 -8.7092 393.051 -8.73717 393.569 -8.78096C394.088 -8.82475 394.542 -8.89717 394.931 -8.99824C395.328 -9.09957 395.724 -9.2336 396.118 -9.40033C396.512 -9.56707 396.874 -9.76723 397.204 -10.0008C398.429 -10.8627 398.528 -11.7721 397.501 -12.7291C396.986 -13.2093 396.343 -13.4704 395.574 -13.5124L394.744 -12.9264C394.598 -12.8157 394.42 -12.764 394.209 -12.7711C394.005 -12.7784 393.833 -12.8469 393.694 -12.9766C393.562 -13.0993 393.503 -13.2427 393.515 -13.4069C393.527 -13.5711 393.649 -13.7354 393.88 -13.9C394.384 -14.2598 395.024 -14.3625 395.801 -14.208C396.581 -14.0573 397.336 -13.6419 398.066 -12.9619C398.826 -12.2538 399.218 -11.5473 399.243 -10.8423C399.272 -10.1339 398.881 -9.49248 398.072 -8.91816C397.646 -8.61933 397.136 -8.38484 396.542 -8.21468C395.955 -8.04478 395.417 -7.93118 394.927 -7.87388C394.438 -7.81659 393.764 -7.81277 392.903 -7.86242C392.047 -7.90857 391.401 -7.9549 390.966 -8.0014C390.535 -8.05166 389.817 -8.14091 388.812 -8.26913C388.615 -8.29127 388.467 -8.30969 388.368 -8.3244L391.698 -5.22213L393.099 -5.70822L393.489 -5.34542L391.42 -3.95168L386.404 -8.62612ZM397.16 -6.16271C398.598 -7.17762 400.013 -7.72788 401.408 -7.8135C402.805 -7.89561 403.95 -7.52128 404.842 -6.6905C405.733 -5.85972 406.033 -4.88799 405.741 -3.77529C405.45 -2.66259 404.589 -1.59528 403.159 -0.573361C401.732 0.444799 400.318 0.996817 398.917 1.08269C397.519 1.1648 396.372 0.788718 395.477 -0.0455648C394.585 -0.876342 394.285 -1.84808 394.577 -2.96078C394.869 -4.07347 395.73 -5.14078 397.16 -6.16271ZM398.306 -5.07351C396.958 -4.10178 396.087 -3.20513 395.694 -2.38355C395.309 -1.56224 395.394 -0.892179 395.951 -0.373381C396.508 0.145417 397.323 0.300366 398.396 0.0914653C399.469 -0.117435 400.671 -0.691079 402.002 -1.62947C403.354 -2.60496 404.225 -3.50525 404.614 -4.33033C405.01 -5.15566 404.93 -5.82773 404.374 -6.34653C403.817 -6.86532 402.998 -7.02015 401.918 -6.81099C400.837 -6.60183 399.633 -6.02267 398.306 -5.07351Z" fill="black"/>
<path d="M405.114 10.5507L405.523 10.3383L406.63 11.2038L415.178 7.15323L414.295 5.98319L414.727 5.77378L416.942 7.68689L416.866 7.95706L407.434 12.4234L407.923 13.5714L407.538 13.7652L405.114 10.5507ZM410.33 14.3934C410.57 14.2765 410.788 14.241 410.984 14.2867C411.187 14.3335 411.341 14.4267 411.446 14.5662C411.56 14.7181 411.595 14.8754 411.551 15.038C411.51 15.1975 411.401 15.3181 411.224 15.3999L410.393 15.7954C410.357 16.0475 410.395 16.3246 410.507 16.6266C410.619 16.9287 410.777 17.2152 410.982 17.4861C411.418 18.065 411.974 18.4348 412.649 18.5955C413.327 18.7602 414.04 18.6673 414.786 18.3167C415.546 17.9568 415.966 17.4816 416.049 16.891C416.135 16.3046 415.913 15.6604 415.384 14.9584L414.924 14.3487L415.449 14.0974L415.877 14.6639C416.861 15.9695 418.024 16.3068 419.364 15.6759C420.029 15.3614 420.43 14.9716 420.569 14.5064C420.715 14.0422 420.603 13.5658 420.235 13.0773C420.058 12.8433 419.832 12.6243 419.556 12.4204C419.283 12.2206 418.984 12.0759 418.659 11.9862L417.879 12.3616C417.705 12.4475 417.517 12.467 417.315 12.4202C417.116 12.3704 416.962 12.2736 416.854 12.1299C416.746 11.9862 416.712 11.8346 416.753 11.6751C416.796 11.5197 416.941 11.382 417.185 11.2621C417.552 11.0821 417.964 11.0481 418.422 11.16C418.88 11.2719 419.318 11.4857 419.736 11.8013C420.158 12.1211 420.537 12.5047 420.875 12.9522C421.491 13.7692 421.75 14.5269 421.652 15.2255C421.561 15.925 421.127 16.4589 420.348 16.8271C419.743 17.1095 419.134 17.2021 418.519 17.105C417.905 17.008 417.336 16.7575 416.813 16.3537C417.094 17.043 417.135 17.6692 416.935 18.2323C416.739 18.7923 416.307 19.231 415.638 19.5485C414.769 19.9591 413.869 20.0037 412.937 19.6822C412.009 19.3649 411.204 18.7546 410.523 17.8514C410.173 17.3875 409.918 16.9295 409.757 16.4774C409.597 16.0254 409.56 15.6089 409.646 15.2282C409.732 14.8475 409.96 14.5692 410.33 14.3934ZM418.794 19.5062C420.386 18.7563 421.876 18.4603 423.264 18.618C424.655 18.7799 425.717 19.3473 426.451 20.3203C427.185 21.2933 427.311 22.3023 426.831 23.3475C426.35 24.3926 425.317 25.2942 423.731 26.0522C422.149 26.8072 420.661 27.1053 419.266 26.9465C417.875 26.7847 416.811 26.2152 416.075 25.2381C415.341 24.2651 415.214 23.2561 415.695 22.211C416.175 21.1658 417.208 20.2642 418.794 19.5062ZM419.734 20.7779C418.238 21.5007 417.224 22.2326 416.695 22.9734C416.172 23.7153 416.14 24.39 416.598 24.9976C417.057 25.6052 417.832 25.8993 418.925 25.88C420.019 25.8606 421.302 25.5044 422.776 24.8114C424.277 24.0855 425.29 23.35 425.817 22.6051C426.351 21.8611 426.388 21.1854 425.93 20.5778C425.472 19.9702 424.693 19.6756 423.592 19.6939C422.492 19.7123 421.206 20.0736 419.734 20.7779Z" fill="black"/>
<path d="M419.614 34.8568L420.054 34.7188L420.994 35.7634L430.115 33.2586L429.449 31.9531L429.911 31.8218L431.76 34.0906L431.638 34.3434L421.574 37.104L421.856 38.3195L421.443 38.4435L419.614 34.8568ZM424.495 39.2159L424.915 39.1056C425.636 39.2517 426.265 39.3697 426.802 39.4597C427.34 39.5543 427.952 39.6379 428.635 39.7106C429.326 39.7856 429.96 39.8231 430.537 39.8231C431.114 39.8231 431.732 39.7848 432.392 39.7082C433.051 39.6317 433.692 39.507 434.314 39.3341L434.986 40.6534C434.374 40.8215 433.725 40.9302 433.04 40.9794C432.36 41.0262 431.717 41.0279 431.112 40.9844C430.514 40.9432 429.855 40.8519 429.137 40.7104C428.425 40.5713 427.798 40.4291 427.257 40.2839C426.717 40.1434 426.095 39.9644 425.39 39.7469L427.25 43.3954L430.445 42.5282L432.175 43.2561L432.063 43.5122L427.888 44.646L428.421 45.6904L427.874 45.8396L427.344 44.8021L425.73 45.2531L425.855 46.1593L425.442 46.2833L423.956 43.37L424.407 43.2526L425.182 43.9742L426.707 43.5516L424.495 39.2159ZM431.693 46.3679C433.391 45.9059 434.91 45.8731 436.249 46.2694C437.591 46.6704 438.538 47.4136 439.092 48.4993C439.646 49.5849 439.595 50.6006 438.94 51.5464C438.286 52.4922 437.112 53.2007 435.418 53.6718C433.729 54.1407 432.212 54.1758 430.866 53.7772C429.524 53.3763 428.575 52.6307 428.019 51.5405C427.465 50.4549 427.516 49.4392 428.171 48.4934C428.826 47.5476 430 46.8391 431.693 46.3679ZM432.398 47.7835C430.798 48.2355 429.674 48.7803 429.023 49.4179C428.38 50.0578 428.231 50.7167 428.577 51.3946C428.923 52.0725 429.635 52.4969 430.715 52.6676C431.795 52.8384 433.121 52.7105 434.693 52.284C436.297 51.8297 437.423 51.2814 438.071 50.6392C438.726 49.9993 438.88 49.3403 438.534 48.6624C438.189 47.9844 437.472 47.559 436.386 47.386C435.299 47.213 433.969 47.3455 432.398 47.7835Z" fill="black"/>
<path d="M429.701 61.2942L430.158 61.228L430.92 62.4087L440.323 61.3863L439.874 59.9915L440.35 59.9352L441.815 62.4693L441.654 62.6994L431.279 63.8245L431.365 65.0694L430.937 65.1262L429.701 61.2942ZM433.828 66.3741L434.26 66.332C434.948 66.5908 435.55 66.8073 436.066 66.9815C436.583 67.1606 437.173 67.3404 437.836 67.5209C438.506 67.7047 439.126 67.8425 439.696 67.9343C440.265 68.026 440.882 68.0866 441.545 68.1158C442.208 68.1451 442.861 68.1239 443.502 68.0521L443.957 69.4616C443.325 69.5302 442.667 69.5343 441.983 69.4739C441.304 69.4119 440.669 69.3114 440.079 69.1723C439.495 69.0364 438.859 68.8416 438.172 68.5877C437.491 68.3371 436.895 68.097 436.384 67.8676C435.874 67.6431 435.288 67.3674 434.626 67.0406L435.883 70.9386L439.174 70.5903L440.767 71.5841L440.616 71.8192L436.314 72.2746L436.674 73.3904L436.11 73.4507L435.752 72.3423L434.087 72.5308L434.065 73.4453L433.638 73.5021L432.634 70.3896L433.098 70.3453L433.749 71.181L435.321 71.0062L433.828 66.3741ZM439.796 74.5797C441.546 74.3936 443.051 74.6027 444.31 75.2069C445.571 75.8161 446.388 76.7006 446.762 77.8605C447.136 79.0203 446.925 80.0151 446.128 80.8447C445.331 81.6744 444.059 82.1871 442.313 82.383C440.571 82.5773 439.067 82.3707 437.801 81.7631C436.54 81.1539 435.722 80.267 435.347 79.1022C434.973 77.9424 435.184 76.9476 435.981 76.118C436.778 75.2883 438.05 74.7756 439.796 74.5797ZM440.267 76.0893C438.616 76.2812 437.419 76.6402 436.676 77.1663C435.939 77.6957 435.687 78.3226 435.92 79.0469C436.154 79.7712 436.79 80.3035 437.829 80.6438C438.868 80.9841 440.198 81.0687 441.817 80.8976C443.473 80.704 444.672 80.3418 445.414 79.8108C446.162 79.2831 446.419 78.6572 446.186 77.9329C445.952 77.2086 445.313 76.6746 444.267 76.331C443.222 75.9874 441.888 75.9068 440.267 76.0893Z" fill="black"/>
<path d="M435.396 91.671L435.857 91.685L436.402 92.9801L445.84 93.6061L445.639 92.1544L446.118 92.1816L447.121 94.9317L446.923 95.1304L436.51 94.4368L436.378 95.6775L435.947 95.6592L435.396 91.671ZM437.88 97.3074C438.142 97.3231 438.347 97.4011 438.497 97.5414C438.646 97.6817 438.733 97.841 438.757 98.0193C438.783 98.2077 438.737 98.3621 438.619 98.4823C438.506 98.6017 438.357 98.6534 438.173 98.6373L437.307 98.5702C437.05 98.9639 436.963 99.4587 437.045 100.055C437.145 100.778 437.475 101.358 438.034 101.795C438.592 102.231 439.325 102.483 440.233 102.549C441.227 102.609 441.948 102.434 442.395 102.025C442.847 101.62 443.018 101.017 442.908 100.217C442.816 99.5501 442.567 98.9745 442.163 98.4905L442.496 98.1408L447.56 98.8889C447.846 100.962 448.136 102.57 448.429 103.713L447.111 103.638L446.535 99.4744L442.785 98.6537C443.197 99.23 443.456 99.9028 443.562 100.672C443.716 101.782 443.521 102.64 442.976 103.245C442.437 103.854 441.618 104.12 440.517 104.044C439.427 103.972 438.525 103.588 437.812 102.892C437.098 102.197 436.661 101.271 436.501 100.114C436.385 99.274 436.448 98.5852 436.69 98.0482C436.938 97.5104 437.334 97.2635 437.88 97.3074ZM442.878 105.407C444.634 105.528 446.079 105.995 447.214 106.809C448.35 107.628 449.001 108.641 449.168 109.848C449.335 111.055 448.954 111.998 448.026 112.677C447.097 113.355 445.755 113.639 444.001 113.529C442.252 113.418 440.807 112.953 439.666 112.135C438.53 111.316 437.878 110.301 437.711 109.088C437.544 107.881 437.925 106.938 438.853 106.26C439.782 105.581 441.124 105.297 442.878 105.407ZM443.079 106.976C441.42 106.878 440.179 107.024 439.355 107.413C438.538 107.806 438.181 108.38 438.285 109.134C438.39 109.887 438.924 110.522 439.888 111.038C440.852 111.553 442.146 111.867 443.771 111.98C445.435 112.077 446.679 111.928 447.502 111.534C448.33 111.145 448.692 110.573 448.588 109.819C448.484 109.065 447.947 108.428 446.977 107.908C446.007 107.388 444.708 107.078 443.079 106.976Z" fill="black"/>
<path d="M435.632 123.929L436.077 124.049L436.308 125.435L445.346 128.226L445.486 126.767L445.946 126.904L446.286 129.812L446.047 129.959L436.076 126.877L435.661 128.054L435.246 127.936L435.632 123.929ZM439.804 130.901C440.642 131.157 441.389 131.495 442.046 131.915C442.703 132.339 443.245 132.805 443.671 133.311C444.102 133.822 444.454 134.386 444.725 135.001C445.001 135.621 445.192 136.247 445.296 136.876C445.401 137.512 445.44 138.171 445.416 138.856L445.028 139.098C444.985 137.565 444.585 136.242 443.829 135.131C443.078 134.026 442.036 133.231 440.703 132.746C441.216 133.488 441.425 134.345 441.332 135.317C441.233 136.346 440.855 137.077 440.199 137.51C439.542 137.948 438.709 138.01 437.701 137.696C436.662 137.379 435.874 136.799 435.335 135.957C434.801 135.115 434.583 134.185 434.681 133.167C434.74 132.557 434.905 132.049 435.176 131.641C435.448 131.239 435.806 130.948 436.252 130.768C436.698 130.594 437.22 130.513 437.818 130.524C438.421 130.54 439.083 130.666 439.804 130.901ZM439.794 132.457C438.771 132.137 437.93 131.965 437.27 131.943C436.611 131.921 436.119 132.019 435.793 132.235C435.472 132.458 435.289 132.804 435.244 133.275C435.185 133.889 435.378 134.461 435.823 134.989C436.273 135.518 436.917 135.915 437.754 136.182C438.653 136.449 439.351 136.441 439.848 136.159C440.351 135.876 440.634 135.4 440.699 134.73C440.739 134.305 440.677 133.883 440.51 133.464C440.349 133.051 440.11 132.715 439.794 132.457ZM439.659 139.821C441.339 140.344 442.637 141.133 443.553 142.187C444.469 143.246 444.869 144.383 444.752 145.596C444.635 146.809 444.047 147.638 442.986 148.084C441.926 148.529 440.555 148.495 438.874 147.982C437.198 147.47 435.899 146.684 434.978 145.624C434.062 144.565 433.663 143.426 433.78 142.208C433.897 140.995 434.486 140.166 435.546 139.72C436.607 139.274 437.977 139.308 439.659 139.821ZM439.492 141.394C437.9 140.915 436.659 140.77 435.768 140.958C434.881 141.152 434.402 141.627 434.329 142.385C434.256 143.142 434.629 143.883 435.448 144.608C436.267 145.332 437.453 145.937 439.008 146.422C440.605 146.901 441.849 147.044 442.741 146.851C443.637 146.664 444.121 146.191 444.194 145.434C444.267 144.676 443.892 143.932 443.068 143.202C442.245 142.472 441.053 141.869 439.492 141.394Z" fill="black"/>
<path d="M426.59 156.394L427.025 156.549L427.149 157.948L435.945 161.427L436.197 159.984L436.644 160.156L436.76 163.081L436.51 163.21L426.807 159.368L426.302 160.51L425.897 160.361L426.59 156.394ZM433.839 165.186L436.096 166.254L434.915 173.008L434.504 172.85C433.956 172.405 433.195 171.752 432.223 170.893C431.25 170.039 430.452 169.347 429.83 168.815C429.207 168.289 428.446 167.728 427.548 167.132C426.649 166.542 425.784 166.085 424.953 165.763L425.205 164.319C425.875 164.582 426.522 164.912 427.147 165.308C427.777 165.705 428.385 166.167 428.972 166.692C429.564 167.218 430.095 167.718 430.565 168.192C431.04 168.672 431.612 169.254 432.28 169.94C432.948 170.631 433.518 171.203 433.992 171.657L434.867 166.65L433.748 165.71L433.839 165.186ZM429.498 171.881C431.133 172.532 432.366 173.419 433.199 174.54C434.03 175.667 434.341 176.831 434.131 178.031C433.921 179.232 433.271 180.013 432.179 180.376C431.087 180.738 429.723 180.599 428.086 179.958C426.455 179.318 425.221 178.434 424.384 177.306C423.553 176.18 423.242 175.014 423.453 173.808C423.663 172.608 424.314 171.826 425.405 171.464C426.497 171.101 427.861 171.24 429.498 171.881ZM429.211 173.436C427.661 172.837 426.434 172.596 425.531 172.715C424.632 172.84 424.118 173.277 423.987 174.027C423.856 174.776 424.17 175.544 424.931 176.329C425.691 177.115 426.828 177.809 428.341 178.413C429.896 179.014 431.125 179.252 432.029 179.128C432.937 179.01 433.457 178.576 433.588 177.826C433.719 177.077 433.402 176.306 432.637 175.515C431.872 174.724 430.73 174.031 429.211 173.436Z" fill="black"/>
</svg>
