<svg width="453" height="370" viewBox="0 0 453 370" fill="none" xmlns="http://www.w3.org/2000/svg">
<g filter="url(#filter0_d_308_164)">
<path d="M118.832 86.4396C115.461 84.6569 113.881 84.9617 111.417 86.9448L98.3793 103.408L96.5168 105.76C57.524 75.8753 37.8968 57.4475 5.36813 22.7345C21.8883 13.2979 38.3751 17.4082 88.4398 51.5285L184.245 128.674L184.75 136.09L119.586 87.0071L118.832 86.4396Z" fill="#E9CDA1"/>
<path d="M364.53 314.178C376.259 309.47 380.393 304.923 381.913 292.227L407.391 312.404C421.879 325.576 429.252 333.694 441.541 349.015C442.06 354.727 440.513 356.552 434.712 357.638C416.972 348.965 407.404 343.594 391.25 332.787L364.53 314.178Z" fill="#E9CDA1"/>
<path d="M111.417 86.9448C113.881 84.9617 115.461 84.6569 118.832 86.4396L119.586 87.0071L381.913 292.227C380.393 304.923 376.259 309.47 364.53 314.178L231.455 208.793L98.3793 103.408L111.417 86.9448Z" fill="#FFFBF3"/>
<path d="M98.3793 103.408L96.5168 105.76C57.524 75.8753 37.8968 57.4475 5.36813 22.7345C21.8883 13.2979 38.3751 17.4082 88.4398 51.5285L184.245 128.674L184.75 136.09L119.586 87.0071M98.3793 103.408L111.417 86.9448C113.881 84.9617 115.461 84.6569 118.832 86.4396L119.586 87.0071M98.3793 103.408L231.455 208.793L364.53 314.178M364.53 314.178C376.259 309.47 380.393 304.923 381.913 292.227M364.53 314.178L391.25 332.787C407.404 343.594 416.972 348.965 434.712 357.638C440.513 356.552 442.06 354.727 441.541 349.015C429.252 333.694 421.879 325.576 407.391 312.404L381.913 292.227M381.913 292.227L119.586 87.0071" stroke="black"/>
</g>
<defs>
<filter id="filter0_d_308_164" x="0.570312" y="17.8425" width="445.564" height="348.318" filterUnits="userSpaceOnUse" color-interpolation-filters="sRGB">
<feFlood flood-opacity="0" result="BackgroundImageFix"/>
<feColorMatrix in="SourceAlpha" type="matrix" values="0 0 0 0 0 0 0 0 0 0 0 0 0 0 0 0 0 0 127 0" result="hardAlpha"/>
<feOffset dy="4"/>
<feGaussianBlur stdDeviation="2"/>
<feComposite in2="hardAlpha" operator="out"/>
<feColorMatrix type="matrix" values="0 0 0 0 0 0 0 0 0 0 0 0 0 0 0 0 0 0 0.25 0"/>
<feBlend mode="normal" in2="BackgroundImageFix" result="effect1_dropShadow_308_164"/>
<feBlend mode="normal" in="SourceGraphic" in2="effect1_dropShadow_308_164" result="shape"/>
</filter>
</defs>
</svg>
