<svg width="317" height="20" viewBox="0 0 317 20" fill="none" xmlns="http://www.w3.org/2000/svg">
<path d="M0.600875 4.8H5.70488C8.90488 4.8 11.1449 6.912 11.1449 10.4C11.1449 13.92 8.90488 16 5.70488 16H0.600875V15.872L1.64088 15.616V5.184L0.600875 4.944V4.8ZM5.70488 5.12H3.36888V15.68H5.70488C7.81688 15.68 9.33687 13.936 9.33687 10.416C9.33687 6.88 7.81688 5.12 5.70488 5.12ZM12.2103 16V15.84L13.1703 15.536V8.528L12.2103 8.32V8.144L14.6263 7.888L14.8343 8.112V15.536L15.7943 15.84V16H12.2103ZM12.7543 5.76C12.7543 5.104 13.2343 4.624 13.8903 4.624C14.5463 4.624 15.0423 5.104 15.0423 5.76C15.0423 6.416 14.5463 6.896 13.8903 6.896C13.2343 6.896 12.7543 6.416 12.7543 5.76ZM16.8778 15.696V13.952H17.2138C17.5498 15.488 18.6218 15.84 19.5658 15.84C20.7977 15.84 21.6298 15.232 21.6298 14.224C21.6298 13.248 20.8298 13.008 19.5818 12.688C18.2698 12.336 16.9258 11.984 16.9258 10.272C16.9258 8.928 17.7418 7.936 19.7578 7.936C20.5098 7.936 21.2298 8.112 21.8058 8.416L22.1418 8.144L22.3018 8.304V10.032H21.9818C21.6618 8.496 20.5898 8.176 19.8218 8.176C18.7178 8.176 18.0458 8.8 18.0458 9.664C18.0458 10.56 18.7658 10.816 19.8378 11.12C21.2458 11.552 22.7498 11.984 22.7498 13.728C22.7498 15.088 21.8538 16.08 19.5978 16.08C18.7498 16.08 17.9978 15.92 17.3738 15.584L17.0378 15.856L16.8778 15.696ZM23.7103 19.2V19.04L24.6703 18.736V8.528L23.7103 8.32V8.144L26.1263 7.888L26.3343 8.112L26.2863 8.992L26.3343 9.04C26.9743 8.368 27.8703 7.936 28.9583 7.936C31.0863 7.936 32.0943 9.536 32.0943 11.824C32.0943 14.544 30.6543 16.08 28.2063 16.08C27.3743 16.08 26.7823 15.888 26.3343 15.648V18.736L27.7743 19.04V19.2H23.7103ZM26.3343 9.392V15.408C26.8783 15.696 27.3743 15.84 27.9023 15.84C29.5023 15.84 30.3983 14.464 30.3983 12.08C30.3983 9.936 29.5183 8.496 28.1583 8.496C27.4703 8.496 26.8303 8.8 26.3343 9.392ZM33.0228 16V15.84L33.9828 15.536V5.008L33.0228 4.8V4.624L35.4388 4.368L35.6468 4.592V15.536L36.6068 15.84V16H33.0228ZM42.7623 15.04L42.7143 14.992C41.9783 15.68 40.9543 16.096 39.8503 16.096C38.3623 16.096 37.6903 15.36 37.6903 14.24C37.6903 12.368 39.5783 12.096 42.7143 11.584V10.08C42.7143 8.976 42.1223 8.208 41.0503 8.208C40.6343 8.208 40.2503 8.32 39.8663 8.576V9.872C39.8663 10.528 39.4503 10.928 38.8903 10.928C38.3463 10.928 37.9303 10.576 37.9303 9.92C37.9303 8.656 39.4823 7.952 41.0823 7.952C43.2263 7.952 44.3783 9.008 44.3783 10.384V15.264C44.3783 15.568 44.5063 15.664 44.7623 15.664C44.9223 15.664 45.1623 15.616 45.2903 15.488L45.4023 15.6C45.0983 15.904 44.5863 16.032 43.9463 16.032C43.2743 16.032 42.8423 15.792 42.7623 15.04ZM42.7143 14.624V11.824C40.4583 12.176 39.3863 12.304 39.3863 14.032C39.3863 15.024 39.8983 15.536 40.7143 15.536C41.4343 15.536 42.1863 15.184 42.7143 14.624ZM49.7018 16.144L46.2138 8.464L45.2698 8.16V8H48.9178V8.16L47.9418 8.464L50.5658 14.272L53.1578 8.464L51.8298 8.16V8H54.5338V8.16L53.5098 8.464L50.1178 16C49.1578 18.128 48.5178 19.232 47.4138 19.232C46.8698 19.232 46.0058 18.976 46.0058 18.064C46.0058 17.488 46.3418 17.184 46.8218 17.184C47.3338 17.184 47.6858 17.52 47.6858 18.064V18.704C47.7498 18.736 47.7978 18.752 47.8618 18.752C48.4858 18.752 49.0778 17.568 49.7018 16.144Z" fill="black"/>
<path d="M116.35 5.264L114.222 15.536L115.134 15.84L115.118 16H111.406L111.438 15.84L112.526 15.536L114.654 5.264L113.678 4.96L113.71 4.8H117.406L117.374 4.96L116.35 5.264ZM117.364 8.32L117.396 8.192C118.58 7.92 119.556 7.072 120.228 6.16L120.388 6.368L120.068 8H122.644L122.58 8.32H120.004L118.836 13.936C118.628 14.928 118.916 15.584 119.796 15.584C120.276 15.584 120.756 15.376 121.172 15.024L121.316 15.2C120.692 15.728 119.924 16.08 118.98 16.08C117.444 16.08 116.916 15.168 117.172 13.936L118.34 8.32H117.364ZM131.106 14.912L131.186 15.04C130.418 15.664 129.538 16.08 128.914 16.08C128.338 16.08 127.922 15.76 128.13 15.04L128.226 14.672L128.194 14.624C127.33 15.52 126.226 16.08 125.058 16.08C123.106 16.08 122.53 14.464 122.994 12.208C123.554 9.44 125.362 7.936 128.082 7.936C128.834 7.936 129.458 8.064 130.098 8.32L131.026 7.888L131.202 8.112L129.81 14.848C129.73 15.264 129.874 15.44 130.114 15.44C130.37 15.44 130.722 15.232 131.106 14.912ZM128.29 14.144L129.426 8.608C128.946 8.32 128.498 8.176 127.97 8.176C126.402 8.176 125.25 9.552 124.738 11.936C124.306 14.08 124.786 15.536 126.002 15.536C126.786 15.536 127.602 14.992 128.29 14.144ZM135.284 14.912L135.364 15.04C134.612 15.664 133.716 16.08 133.092 16.08C132.532 16.08 132.132 15.76 132.292 15.04L134.356 5.008L133.46 4.8L133.492 4.624L135.94 4.368L136.1 4.592L133.988 14.848C133.908 15.264 134.052 15.44 134.292 15.44C134.548 15.44 134.9 15.232 135.284 14.912ZM136.399 9.088L136.303 8.96C137.071 8.336 137.967 7.92 138.575 7.92C139.151 7.92 139.535 8.24 139.391 8.96L138.175 14.848C138.095 15.264 138.239 15.44 138.495 15.44C138.735 15.44 139.103 15.232 139.471 14.912L139.551 15.04C138.799 15.664 137.903 16.08 137.295 16.08C136.719 16.08 136.319 15.76 136.479 15.04L137.695 9.152C137.775 8.736 137.631 8.56 137.391 8.56C137.135 8.56 136.767 8.768 136.399 9.088ZM137.983 5.76C138.111 5.104 138.703 4.624 139.343 4.624C139.999 4.624 140.383 5.104 140.255 5.76C140.111 6.416 139.535 6.896 138.879 6.896C138.239 6.896 137.855 6.416 137.983 5.76ZM146.347 9.968L146.635 8.592C146.251 8.304 145.867 8.176 145.419 8.176C143.979 8.176 142.859 9.584 142.411 11.76C141.915 14.128 142.587 15.6 144.555 15.6C145.483 15.6 146.315 15.28 147.067 14.64L147.211 14.832C146.267 15.616 145.179 16.08 143.787 16.08C141.131 16.08 140.155 14.432 140.651 12.032C141.179 9.52 142.891 7.936 145.451 7.936C147.067 7.936 148.587 8.656 148.315 10C148.171 10.688 147.675 11.024 147.131 11.024C146.539 11.024 146.219 10.624 146.347 9.968Z" fill="black"/>
<path d="M206.469 6.92969L207.078 4.79688H215.977L215.719 6.86719H215.18L214.922 5.375H212.188L210.148 15.25L211.094 15.5703L211.016 16H207.445L207.531 15.5391L208.617 15.1328L210.633 5.375H207.914L207.016 6.92969H206.469ZM214.68 12.2891C214.924 11.1224 215.451 10.2135 216.258 9.5625C217.07 8.90625 218.06 8.57812 219.227 8.57812C220.034 8.57812 220.628 8.74219 221.008 9.07031C221.393 9.39323 221.526 9.84635 221.406 10.4297C221.344 10.7318 221.216 10.9974 221.023 11.2266C220.836 11.4505 220.547 11.6589 220.156 11.8516C219.771 12.0443 219.245 12.2057 218.578 12.3359C217.917 12.4609 217.109 12.5573 216.156 12.625C215.786 14.4583 216.438 15.375 218.109 15.375C218.531 15.375 218.94 15.3151 219.336 15.1953C219.737 15.0703 220.073 14.8906 220.344 14.6562L220.648 15.0234C220.263 15.3568 219.799 15.6146 219.258 15.7969C218.721 15.974 218.167 16.0625 217.594 16.0625C216.458 16.0625 215.628 15.724 215.102 15.0469C214.581 14.3646 214.44 13.4453 214.68 12.2891ZM216.266 12.0938C217.422 11.9948 218.323 11.8203 218.969 11.5703C219.615 11.3203 219.995 10.9297 220.109 10.3984C220.177 10.0391 220.115 9.73958 219.922 9.5C219.734 9.25521 219.427 9.13281 219 9.13281C218.396 9.13281 217.836 9.39583 217.32 9.92188C216.81 10.4427 216.458 11.1667 216.266 12.0938ZM221.477 15.1484C221.529 14.9036 221.641 14.7135 221.812 14.5781C221.99 14.4375 222.177 14.3672 222.375 14.3672C222.573 14.3672 222.729 14.4401 222.844 14.5859C222.958 14.7318 222.995 14.8984 222.953 15.0859L222.883 15.3906C223.549 15.2917 224.302 14.3047 225.141 12.4297L224.195 10.0469C224.07 9.76562 223.958 9.56771 223.859 9.45312C223.76 9.33854 223.643 9.28125 223.508 9.28125C223.31 9.28125 223.086 9.39844 222.836 9.63281L222.664 9.40625C222.872 9.22917 223.044 9.09115 223.18 8.99219C223.315 8.89323 223.482 8.79688 223.68 8.70312C223.883 8.60938 224.073 8.5625 224.25 8.5625C224.755 8.5625 225.174 8.95573 225.508 9.74219L226.148 11.375C226.32 11.0365 226.497 10.724 226.68 10.4375C226.867 10.1458 227.086 9.85156 227.336 9.55469C227.591 9.2526 227.87 9.01562 228.172 8.84375C228.474 8.66667 228.781 8.57812 229.094 8.57812C229.422 8.57812 229.661 8.66667 229.812 8.84375C229.969 9.02083 230.018 9.24219 229.961 9.50781C229.919 9.7474 229.81 9.9349 229.633 10.0703C229.456 10.2057 229.266 10.2734 229.062 10.2734C228.87 10.2734 228.714 10.2031 228.594 10.0625C228.479 9.91667 228.438 9.7474 228.469 9.55469L228.547 9.25C227.901 9.34375 227.182 10.25 226.391 11.9688L227.445 14.5781C227.648 15.0885 227.883 15.3438 228.148 15.3438C228.336 15.3438 228.56 15.2318 228.82 15.0078L229 15.2188C228.693 15.4844 228.409 15.6927 228.148 15.8438C227.893 15.9896 227.638 16.0625 227.383 16.0625C226.852 16.0625 226.43 15.6693 226.117 14.8828L225.398 13.0703C225.232 13.4141 225.055 13.7396 224.867 14.0469C224.68 14.3542 224.453 14.6719 224.188 15C223.927 15.3281 223.635 15.5911 223.312 15.7891C222.995 15.9818 222.672 16.0781 222.344 16.0781C222.026 16.0781 221.789 15.9896 221.633 15.8125C221.482 15.6354 221.43 15.4141 221.477 15.1484ZM230.945 13.9219L231.922 9.21875H230.977L231.039 8.89844C232.055 8.54427 232.935 7.8724 233.68 6.88281L233.836 7.08594L233.516 8.64062H235.695L235.57 9.21875H233.406L232.43 13.9219C232.331 14.401 232.362 14.7682 232.523 15.0234C232.69 15.2786 232.974 15.4062 233.375 15.4062C233.792 15.4062 234.138 15.2839 234.414 15.0391L234.672 15.3438C234.089 15.8229 233.417 16.0625 232.656 16.0625C231.995 16.0625 231.51 15.8698 231.203 15.4844C230.896 15.099 230.81 14.5781 230.945 13.9219Z" fill="black"/>
<path d="M293.472 5.264H290.64L288.544 15.392L289.504 15.696L289.456 16H285.776L285.84 15.696L286.928 15.344L288.992 5.264H286.176L285.184 6.848H284.784L285.296 4.8H294.544L294.224 6.816H293.808L293.472 5.264ZM294.435 9.36L294.307 9.2C294.899 8.688 295.827 8.24 296.467 8.24C296.995 8.24 297.363 8.528 297.187 9.36L296.099 14.72C295.987 15.184 296.131 15.392 296.387 15.392C296.611 15.392 296.915 15.216 297.219 14.96L297.347 15.12C296.739 15.632 295.843 16.08 295.203 16.08C294.659 16.08 294.291 15.792 294.467 14.96L295.571 9.6C295.667 9.136 295.539 8.928 295.267 8.928C295.043 8.928 294.723 9.12 294.435 9.36ZM295.923 6.016C296.051 5.424 296.595 4.96 297.203 4.96C297.795 4.96 298.163 5.424 298.019 6.016C297.907 6.64 297.379 7.088 296.771 7.088C296.163 7.088 295.795 6.64 295.923 6.016ZM299.131 8.784L299.179 8.544C300.299 8.224 301.211 7.472 301.899 6.512L302.091 6.736L301.755 8.32H304.139L304.043 8.784H301.659L300.587 13.936C300.395 14.912 300.699 15.504 301.547 15.504C301.963 15.504 302.411 15.344 302.763 15.04L302.955 15.28C302.379 15.776 301.627 16.08 300.763 16.08C299.355 16.08 298.747 15.216 299.019 13.936L300.091 8.784H299.131ZM307.594 14.96L307.706 15.12C307.098 15.632 306.202 16.08 305.546 16.08C305.018 16.08 304.65 15.792 304.826 14.96L306.874 4.976L306.026 4.736L306.09 4.432L308.41 4.128L308.586 4.352L306.458 14.72C306.346 15.184 306.49 15.392 306.73 15.392C306.97 15.392 307.29 15.216 307.594 14.96ZM310.595 12.32C310.179 14.4 310.899 15.488 312.723 15.488C313.571 15.488 314.387 15.248 315.091 14.656L315.315 14.928C314.451 15.664 313.331 16.08 312.067 16.08C309.555 16.08 308.515 14.48 308.995 12.16C309.491 9.744 311.283 8.256 313.779 8.256C315.427 8.256 316.371 8.928 316.099 10.256C315.891 11.312 314.979 12.176 310.595 12.32ZM313.555 8.672C312.435 8.672 311.171 9.696 310.659 11.92C313.043 11.84 314.435 11.44 314.691 10.192C314.851 9.392 314.515 8.672 313.555 8.672Z" fill="black"/>
</svg>
