<svg width="1371" height="980" viewBox="0 0 1371 980" fill="none" xmlns="http://www.w3.org/2000/svg">
<g filter="url(#filter0_d_360_2)">
<rect x="4" y="92" width="1332" height="880" fill="#FFF1DA"/>
<rect x="4.5" y="92.5" width="1331" height="879" stroke="black"/>
</g>
<g filter="url(#filter1_d_360_2)">
<rect x="18" y="80" width="1332" height="880" fill="#FFF1DA"/>
<rect x="18.5" y="80.5" width="1331" height="879" stroke="black"/>
</g>
<g filter="url(#filter2_d_360_2)">
<rect x="35" y="64" width="1332" height="880" fill="#FFF1DA"/>
<rect x="35.5" y="64.5" width="1331" height="879" stroke="black"/>
</g>
<path d="M322.188 343.222L303 439.493" stroke="black"/>
<path d="M273.188 338.222L254 434.493" stroke="black"/>
<path d="M341.188 343.222L322 439.493" stroke="black"/>
<path d="M390.188 349.222L371 445.493" stroke="black"/>
<path d="M234.188 512.222L215 608.493" stroke="black"/>
<path d="M287.188 513.222L268 609.493" stroke="black"/>
<path d="M306.188 514.222L287 610.493" stroke="black"/>
<path d="M409.188 514.222L390 610.493" stroke="black"/>
<path d="M462.188 513.222L443 609.493" stroke="black"/>
<path d="M575.188 513.222L556 609.493" stroke="black"/>
<path d="M631.188 514.222L612 610.493" stroke="black"/>
<path d="M472.188 513.222L453 609.493" stroke="black"/>
<path d="M189 185V281" stroke="black"/>
<path d="M248 185V281" stroke="black"/>
<path d="M266 185V281" stroke="black"/>
<path d="M322 185V281" stroke="black"/>
<path d="M369 185V281" stroke="black"/>
<path d="M429 185V281" stroke="black"/>
<path d="M440 185V281" stroke="black"/>
<path d="M499 185V281" stroke="black"/>
<path d="M547 185V281" stroke="black"/>
<path d="M600 185V281" stroke="black"/>
<path d="M1219.19 679.222L1200 775.493" stroke="black"/>
<path d="M1162.19 679.222L1143 775.493" stroke="black"/>
<path d="M1078.19 680.222L1059 776.493" stroke="black"/>
<path d="M1021.19 679.222L1002 775.493" stroke="black"/>
<path d="M897.188 679.222L878 775.493" stroke="black"/>
<path d="M835.188 679.222L816 775.493" stroke="black"/>
<path d="M826.188 679.222L807 775.493" stroke="black"/>
<path d="M783.188 680.222L764 776.493" stroke="black"/>
<path d="M655.188 679.222L636 775.493" stroke="black"/>
<path d="M598.188 679.222L579 775.493" stroke="black"/>
<path d="M428.188 679.222L409 775.493" stroke="black"/>
<path d="M482.188 680.222L463 776.493" stroke="black"/>
<path d="M550.188 679.222L531 775.493" stroke="black"/>
<path d="M495.188 680.222L476 776.493" stroke="black"/>
<path d="M380.188 679.222L361 775.493" stroke="black"/>
<path d="M325.188 679.222L306 775.493" stroke="black"/>
<path d="M252.188 679.222L233 775.493" stroke="black"/>
<path d="M1008.19 512.222L989 608.493" stroke="black"/>
<path d="M995.188 512.222L976 608.493" stroke="black"/>
<path d="M1079.19 512.222L1060 608.493" stroke="black"/>
<path d="M527.188 513.222L508 609.493" stroke="black"/>
<path d="M444.188 349.222L425 445.493" stroke="black"/>
<path d="M505.188 350.222L486 446.493" stroke="black"/>
<path d="M605.188 350.222L586 446.493" stroke="black"/>
<path d="M659.188 351.222L640 447.493" stroke="black"/>
<path d="M556.188 349.222L537 445.493" stroke="black"/>
<path d="M776.188 350.222L757 446.493" stroke="black"/>
<path d="M825.188 351.222L806 447.493" stroke="black"/>
<path d="M834.188 351.222L815 447.493" stroke="black"/>
<path d="M888.188 351.222L869 447.493" stroke="black"/>
<path d="M1000.19 350.222L981 446.493" stroke="black"/>
<path d="M1031.19 512.222L1012 608.493" stroke="black"/>
<path d="M1107.19 513.222L1088 609.493" stroke="black"/>
<path d="M1162.19 513.222L1143 609.493" stroke="black"/>
<path d="M869.188 514.222L850 610.493" stroke="black"/>
<path d="M807.188 512.222L788 608.493" stroke="black"/>
<path d="M798.188 512.222L779 608.493" stroke="black"/>
<path d="M749.188 512.222L730 608.493" stroke="black"/>
<path d="M1049.19 352.222L1030 448.493" stroke="black"/>
<path d="M1059.19 351.222L1040 447.493" stroke="black"/>
<path d="M1117.19 352.222L1098 448.493" stroke="black"/>
<path d="M1127.19 351.222L1108 447.493" stroke="black"/>
<path d="M1163.19 352.222L1144 448.493" stroke="black"/>
<path d="M64 759H1314" stroke="black"/>
<path d="M62 695H1312" stroke="black"/>
<path d="M64 593H1314" stroke="black"/>
<path d="M64 531H1314" stroke="black"/>
<path d="M64 424H1314" stroke="black"/>
<path d="M64 366H1314" stroke="black"/>
<path d="M62 265H1312" stroke="black"/>
<path d="M62 201H1312" stroke="black"/>
<g filter="url(#filter3_d_360_2)">
<path d="M147.5 43H75V85.5H96V80L101.5 85.5H122.5L129 80V85.5H147.5V43Z" fill="black" stroke="black" stroke-width="2"/>
<path d="M75.9966 45.3739L146.404 45.644" stroke="white" stroke-width="2"/>
<path d="M146.5 80H130" stroke="white" stroke-width="2"/>
<path d="M95 80H76" stroke="white" stroke-width="2"/>
<path d="M94 86.7924C96.5764 60.1156 99.3568 45.3788 105.5 19.2924C104.587 15.3372 103.472 13.2409 97.5 10.2924C96.292 9.13732 96.372 8.41773 97.5 6.79244C100.445 3.0667 102.712 1.9992 107.5 1.29244C111.03 0.867017 113.286 0.939712 117.5 1.29244C122.355 2.28368 124.651 3.27012 127 6.79244C127.838 8.22778 127.9 9.00191 127 10.2924C121.255 12.3057 119.07 14.0753 118.5 19.2924C124.408 45.1614 127.266 59.8187 130 86.7924" stroke="#DBDBDB" stroke-width="2"/>
</g>
<defs>
<filter id="filter0_d_360_2" x="0" y="92" width="1340" height="888" filterUnits="userSpaceOnUse" color-interpolation-filters="sRGB">
<feFlood flood-opacity="0" result="BackgroundImageFix"/>
<feColorMatrix in="SourceAlpha" type="matrix" values="0 0 0 0 0 0 0 0 0 0 0 0 0 0 0 0 0 0 127 0" result="hardAlpha"/>
<feOffset dy="4"/>
<feGaussianBlur stdDeviation="2"/>
<feComposite in2="hardAlpha" operator="out"/>
<feColorMatrix type="matrix" values="0 0 0 0 0 0 0 0 0 0 0 0 0 0 0 0 0 0 0.25 0"/>
<feBlend mode="normal" in2="BackgroundImageFix" result="effect1_dropShadow_360_2"/>
<feBlend mode="normal" in="SourceGraphic" in2="effect1_dropShadow_360_2" result="shape"/>
</filter>
<filter id="filter1_d_360_2" x="14" y="80" width="1340" height="888" filterUnits="userSpaceOnUse" color-interpolation-filters="sRGB">
<feFlood flood-opacity="0" result="BackgroundImageFix"/>
<feColorMatrix in="SourceAlpha" type="matrix" values="0 0 0 0 0 0 0 0 0 0 0 0 0 0 0 0 0 0 127 0" result="hardAlpha"/>
<feOffset dy="4"/>
<feGaussianBlur stdDeviation="2"/>
<feComposite in2="hardAlpha" operator="out"/>
<feColorMatrix type="matrix" values="0 0 0 0 0 0 0 0 0 0 0 0 0 0 0 0 0 0 0.25 0"/>
<feBlend mode="normal" in2="BackgroundImageFix" result="effect1_dropShadow_360_2"/>
<feBlend mode="normal" in="SourceGraphic" in2="effect1_dropShadow_360_2" result="shape"/>
</filter>
<filter id="filter2_d_360_2" x="31" y="64" width="1340" height="888" filterUnits="userSpaceOnUse" color-interpolation-filters="sRGB">
<feFlood flood-opacity="0" result="BackgroundImageFix"/>
<feColorMatrix in="SourceAlpha" type="matrix" values="0 0 0 0 0 0 0 0 0 0 0 0 0 0 0 0 0 0 127 0" result="hardAlpha"/>
<feOffset dy="4"/>
<feGaussianBlur stdDeviation="2"/>
<feComposite in2="hardAlpha" operator="out"/>
<feColorMatrix type="matrix" values="0 0 0 0 0 0 0 0 0 0 0 0 0 0 0 0 0 0 0.25 0"/>
<feBlend mode="normal" in2="BackgroundImageFix" result="effect1_dropShadow_360_2"/>
<feBlend mode="normal" in="SourceGraphic" in2="effect1_dropShadow_360_2" result="shape"/>
</filter>
<filter id="filter3_d_360_2" x="70" y="0" width="82.5" height="94.8933" filterUnits="userSpaceOnUse" color-interpolation-filters="sRGB">
<feFlood flood-opacity="0" result="BackgroundImageFix"/>
<feColorMatrix in="SourceAlpha" type="matrix" values="0 0 0 0 0 0 0 0 0 0 0 0 0 0 0 0 0 0 127 0" result="hardAlpha"/>
<feOffset dy="4"/>
<feGaussianBlur stdDeviation="2"/>
<feComposite in2="hardAlpha" operator="out"/>
<feColorMatrix type="matrix" values="0 0 0 0 0 0 0 0 0 0 0 0 0 0 0 0 0 0 0.25 0"/>
<feBlend mode="normal" in2="BackgroundImageFix" result="effect1_dropShadow_360_2"/>
<feBlend mode="normal" in="SourceGraphic" in2="effect1_dropShadow_360_2" result="shape"/>
</filter>
</defs>
</svg>
