<svg width="559" height="627" viewBox="0 0 559 627" fill="none" xmlns="http://www.w3.org/2000/svg">
<path d="M558.238 148.322L530.965 156.956C531.341 161.632 533.16 163.087 539.482 163.451L558.238 148.322Z" fill="black"/>
<path d="M-52.2164 476.785L494.277 189.235C498.877 178.837 497.475 176.436 488.489 177.498L-59.133 465.314L-52.2164 476.785Z" fill="#F6E1BF"/>
<path d="M-47.029 485.389L501.032 194.467C504.025 188.907 502.122 188.026 494.277 189.235L-52.2164 476.785L-47.029 485.389Z" fill="#FFFBF3"/>
<path d="M488.023 170.55L-62.9371 459.004L-59.133 465.314L488.489 177.498C491.758 173.516 491.513 172.032 488.023 170.55Z" fill="#FFFBF3"/>
<path d="M488.489 177.498C497.475 176.436 498.877 178.837 494.277 189.235C502.122 188.026 504.025 188.907 501.032 194.467L539.482 163.451C533.16 163.087 531.341 161.632 530.965 156.956L488.023 170.55C491.513 172.032 491.758 173.516 488.489 177.498Z" fill="#FFFBF3"/>
<path d="M-62.9371 459.004C-63.271 475.136 -59.7338 480.975 -47.029 485.389M-62.9371 459.004L488.023 170.55M-62.9371 459.004L-59.133 465.314M-47.029 485.389L501.032 194.467M-47.029 485.389L-52.2164 476.785M501.032 194.467C504.025 188.907 502.122 188.026 494.277 189.235M501.032 194.467L539.482 163.451M488.023 170.55C491.513 172.032 491.758 173.516 488.489 177.498M488.023 170.55L530.965 156.956M-52.2164 476.785L494.277 189.235M-52.2164 476.785L-59.133 465.314M494.277 189.235C498.877 178.837 497.475 176.436 488.489 177.498M488.489 177.498L-59.133 465.314M530.965 156.956L558.238 148.322L539.482 163.451M530.965 156.956C531.341 161.632 533.16 163.087 539.482 163.451" stroke="black"/>
</svg>
