<svg width="1067" height="582" viewBox="0 0 1067 582" fill="none" xmlns="http://www.w3.org/2000/svg">
<g filter="url(#filter0_d_354_1731)">
<rect x="4" y="17" width="1041" height="557" fill="#FFFBF3"/>
<rect x="4.5" y="17.5" width="1040" height="556" stroke="black"/>
</g>
<g filter="url(#filter1_d_354_1731)">
<rect x="16" y="8" width="1041" height="557" fill="#FFFBF3"/>
<rect x="16.5" y="8.5" width="1040" height="556" stroke="black"/>
</g>
<g filter="url(#filter2_d_354_1731)">
<rect x="27" width="1040" height="557" fill="#FFFBF3"/>
<rect x="27.5" y="0.5" width="1039" height="556" stroke="black"/>
</g>
<path d="M664.5 429H560C557.239 429 555 431.239 555 434V482C555 484.761 557.239 487 560 487H664.5C667.261 487 669.5 484.761 669.5 482V434C669.5 431.239 667.261 429 664.5 429Z" stroke="black"/>
<path d="M663.096 454.5C662.377 442.674 658.219 439.36 647.079 437.097C646.761 437.032 646.433 437 646.108 437H568.596C562.411 437.246 560.528 438.59 561.096 444V476.5C561.361 482.329 562.846 484.159 568.596 484H646.596C657.712 483.233 662.116 480.815 663.096 469V454.5Z" stroke="black"/>
<path d="M655 455.912C654.388 445.835 650.844 443.011 641.352 441.082C641.081 441.027 640.8 441 640.524 441H574.473C569.202 441.209 567.598 442.355 568.082 446.965V474.659C568.308 479.627 569.573 481.186 574.473 481.051H640.94C650.412 480.397 654.165 478.336 655 468.268V455.912Z" stroke="black" stroke-width="0.852139"/>
<path d="M809.5 34H938" stroke="black"/>
<path d="M809.5 74H938.5" stroke="black"/>
<path d="M597.5 74H708" stroke="black"/>
<path d="M682.5 491.5V506H536V34H597.5V74H551.5V265M682.5 491.5H674.5M682.5 491.5V429H674.5V491.5M750 74H707.5V34H809.5V74H758.5M750 74V346.5H758.5V74M750 74H758.5M818 491.5H758.5V506H992.5V34H938V74H977.5V491.5H826M818 491.5V346.5H826V491.5M818 491.5H826M674.5 491.5H551.5V339M551.5 310H674.5V375.5H682.5V346.5H690V339H682.5V302H551.5M551.5 310V302M551.5 310V328M551.5 302V274.5M551.5 265H629.5V339H551.5M551.5 265V274.5M551.5 339V328M551.5 328H622V274.5H551.5" stroke="black" stroke-width="2"/>
<path d="M597.5 34H707.5" stroke="black"/>
<path d="M589 347.5H616.5C621.201 348.797 622.837 350.334 624 354.5V363.5C623.259 368.825 620.962 369.753 616.5 371H589M589 347.5V371M589 347.5V345.5H574.5V351M589 371V373.5H574.5V368M574.5 351H581V357M574.5 351V368M574.5 368H581V361.5M581 357H576V361.5H581M581 357V361.5M565.5 350V352.5H560L557 349V344L560 341.5H565.5V343M565.5 350H572V343H566H565.5M565.5 350V343M564.5 244.5H593M564.5 244.5C562.248 243.407 561.487 242.441 561 240V214L567.5 206.5H590L597.5 214V240C596.644 242.319 595.633 243.307 593 244.5M564.5 244.5H558.5M564.5 244.5V258.984M593 244.5H600.5M593 244.5V258.405M558.5 244.5V212L567.5 203.5H590L600.5 212V244.5M558.5 244.5V250C559.167 255.628 560.665 257.963 564.5 258.984M600.5 244.5V250C598.789 254.721 596.779 256.794 593 258.405M593 258.405C592.106 258.786 591.112 259.142 590 259.5H567.5C566.367 259.38 565.373 259.216 564.5 258.984M610 118V115H559.5V156H610V152.5M610 118H601.5V152.5H610M610 118V119.5M610 152.5V151M610 151H603V119.5H610M610 151V149M610 119.5V122M610 122H604.5V127.5H610M610 122V127.5M610 127.5V130.5M610 130.5H604.5V141H610M610 130.5V141M610 141V144M610 144H604.5V149H610M610 144V149M569.5 460H574V464H575.724V460H580V456H575.724V452.5H574V456H569.5V460ZM557 383H577C582.032 385.028 584.043 386.955 585.5 392.5V410.5C583.786 414.73 581.846 416.256 577 417.5H557V383ZM557.5 395.5H563.5V398.5H570.5V404.5H563.5V407.5H557.5V395.5ZM556.5 359H562V365.5H556.5V359ZM576.5 240V248.5H581V240H576.5ZM574.5 234.5L577.5 231.5H580.5L583 234.5V237L580.5 239.5H577.5L574.5 237V234.5ZM574.5 252L577.5 249H580.5L583 252V254.5L580.5 257H577.5L574.5 254.5V252ZM555 110H612.5V160H555V110ZM580 118H581.5V153H580V118ZM568 124H570V125.5H568V124ZM568 145.5H570V147H568V145.5ZM591.5 145.5H593.5V147H591.5V145.5ZM591.5 124H593.5V125.5H591.5V124ZM584.5 143.5C584.178 145.602 584.196 146.809 584.5 149C585.374 151.471 586.587 152.254 589.5 153C591.776 153.416 592.991 153.4 595 153C596.833 152.184 597.717 151.496 598.5 149C598.85 147.017 598.908 145.841 598.5 143.5C597.863 140.817 597.054 139.892 595 139C593.064 138.425 591.879 138.392 589.5 139C586.594 139.569 585.681 140.635 584.5 143.5ZM565 142C563.771 145.591 563.808 147.438 565 150.5C566.335 152.156 567.107 152.555 568.5 153C570.93 153.256 571.966 152.569 573.5 150.5C574.841 147.367 574.901 145.55 573.5 142C571.881 140.123 570.929 139.604 569 139.5C567.107 139.732 566.278 140.376 565 142ZM586.5 122C585.573 124.092 585.697 125.304 586.5 127.5C587.373 128.701 588.078 129.173 589.5 129.5C591.634 129.89 592.866 129.861 595 129.5C596.171 129.107 596.467 128.53 597 127.5C597.676 125.202 597.65 123.99 597 122C596.393 120.7 595.975 120.115 595 119.5C592.899 118.506 591.701 118.603 589.5 119.5C588.213 120.002 587.555 120.543 586.5 122ZM575 121.5C575.727 123.987 575.671 125.41 575 128C574.145 129.793 573.756 130.938 571.5 131.5C569.14 132.208 567.499 131.804 565 131C564.059 130.264 563.586 129.703 563 128C562.301 125.461 562.258 124.038 563 121.5C563.626 119.952 564.064 119.295 565 118.5C566.717 117.444 568.017 116.878 571 118C573.093 118.734 574.023 119.848 575 121.5Z" stroke="black"/>
<defs>
<filter id="filter0_d_354_1731" x="0" y="17" width="1049" height="565" filterUnits="userSpaceOnUse" color-interpolation-filters="sRGB">
<feFlood flood-opacity="0" result="BackgroundImageFix"/>
<feColorMatrix in="SourceAlpha" type="matrix" values="0 0 0 0 0 0 0 0 0 0 0 0 0 0 0 0 0 0 127 0" result="hardAlpha"/>
<feOffset dy="4"/>
<feGaussianBlur stdDeviation="2"/>
<feComposite in2="hardAlpha" operator="out"/>
<feColorMatrix type="matrix" values="0 0 0 0 0 0 0 0 0 0 0 0 0 0 0 0 0 0 0.25 0"/>
<feBlend mode="normal" in2="BackgroundImageFix" result="effect1_dropShadow_354_1731"/>
<feBlend mode="normal" in="SourceGraphic" in2="effect1_dropShadow_354_1731" result="shape"/>
</filter>
<filter id="filter1_d_354_1731" x="12" y="8" width="1049" height="565" filterUnits="userSpaceOnUse" color-interpolation-filters="sRGB">
<feFlood flood-opacity="0" result="BackgroundImageFix"/>
<feColorMatrix in="SourceAlpha" type="matrix" values="0 0 0 0 0 0 0 0 0 0 0 0 0 0 0 0 0 0 127 0" result="hardAlpha"/>
<feOffset dy="4"/>
<feGaussianBlur stdDeviation="2"/>
<feComposite in2="hardAlpha" operator="out"/>
<feColorMatrix type="matrix" values="0 0 0 0 0 0 0 0 0 0 0 0 0 0 0 0 0 0 0.25 0"/>
<feBlend mode="normal" in2="BackgroundImageFix" result="effect1_dropShadow_354_1731"/>
<feBlend mode="normal" in="SourceGraphic" in2="effect1_dropShadow_354_1731" result="shape"/>
</filter>
<filter id="filter2_d_354_1731" x="23" y="0" width="1048" height="565" filterUnits="userSpaceOnUse" color-interpolation-filters="sRGB">
<feFlood flood-opacity="0" result="BackgroundImageFix"/>
<feColorMatrix in="SourceAlpha" type="matrix" values="0 0 0 0 0 0 0 0 0 0 0 0 0 0 0 0 0 0 127 0" result="hardAlpha"/>
<feOffset dy="4"/>
<feGaussianBlur stdDeviation="2"/>
<feComposite in2="hardAlpha" operator="out"/>
<feColorMatrix type="matrix" values="0 0 0 0 0 0 0 0 0 0 0 0 0 0 0 0 0 0 0.25 0"/>
<feBlend mode="normal" in2="BackgroundImageFix" result="effect1_dropShadow_354_1731"/>
<feBlend mode="normal" in="SourceGraphic" in2="effect1_dropShadow_354_1731" result="shape"/>
</filter>
</defs>
</svg>
