<svg width="1071" height="582" viewBox="0 0 1071 582" fill="none" xmlns="http://www.w3.org/2000/svg">
<g filter="url(#filter0_d_357_1734)">
<rect x="4" y="17" width="1041" height="557" fill="#FFFBF3"/>
<rect x="4.5" y="17.5" width="1040" height="556" stroke="black"/>
</g>
<g filter="url(#filter1_d_357_1734)">
<rect x="16" y="8" width="1041" height="557" fill="#FFFBF3"/>
<rect x="16.5" y="8.5" width="1040" height="556" stroke="black"/>
</g>
<g filter="url(#filter2_d_357_1734)">
<rect x="27" width="1040" height="557" fill="#FFFBF3"/>
<rect x="27.5" y="0.5" width="1039" height="556" stroke="black"/>
</g>
<path d="M708.5 446H604C601.239 446 599 448.239 599 451V499C599 501.761 601.239 504 604 504H708.5C711.261 504 713.5 501.761 713.5 499V451C713.5 448.239 711.261 446 708.5 446Z" stroke="black"/>
<path d="M707.096 471.5C706.377 459.674 702.219 456.36 691.079 454.097C690.761 454.032 690.433 454 690.108 454H612.596C606.411 454.246 604.528 455.59 605.096 461V493.5C605.361 499.329 606.846 501.159 612.596 501H690.596C701.712 500.233 706.116 497.815 707.096 486V471.5Z" stroke="black"/>
<path d="M699 472.912C698.388 462.835 694.844 460.011 685.352 458.082C685.081 458.027 684.8 458 684.524 458H618.473C613.202 458.209 611.598 459.355 612.082 463.965V491.659C612.308 496.627 613.573 498.186 618.473 498.051H684.94C694.412 497.397 698.165 495.336 699 485.268V472.912Z" stroke="black" stroke-width="0.852139"/>
<path d="M641.5 91H752" stroke="black"/>
<path d="M726.5 508.5V523H580V51H641.5V91H595.5V282M726.5 508.5H718.5M726.5 508.5V446H718.5V508.5M794 91H751.5V51H853.5V91H802.5M794 91V363.5H802.5V91M794 91H802.5M862 508.5H802.5V523H1036.5V51H982V91H1021.5V508.5H870M862 508.5V363.5H870V508.5M862 508.5H870M718.5 508.5H595.5V356M595.5 327H718.5V392.5H726.5V363.5H734V356H726.5V319H595.5M595.5 327V319M595.5 327V345M595.5 319V291.5M595.5 282H673.5V356H595.5M595.5 282V291.5M595.5 356V345M595.5 345H666V291.5H595.5" stroke="black" stroke-width="2"/>
<path d="M641.5 51H751.5" stroke="black"/>
<path d="M633 364.5H660.5C665.201 365.797 666.837 367.334 668 371.5V380.5C667.259 385.825 664.962 386.753 660.5 388H633M633 364.5V388M633 364.5V362.5H618.5V368M633 388V390.5H618.5V385M618.5 368H625V374M618.5 368V385M618.5 385H625V378.5M625 374H620V378.5H625M625 374V378.5M609.5 367V369.5H604L601 366V361L604 358.5H609.5V360M609.5 367H616V360H610H609.5M609.5 367V360M608.5 261.5H637M608.5 261.5C606.248 260.407 605.487 259.441 605 257V231L611.5 223.5H634L641.5 231V257C640.644 259.319 639.633 260.307 637 261.5M608.5 261.5H602.5M608.5 261.5V275.984M637 261.5H644.5M637 261.5V275.405M602.5 261.5V229L611.5 220.5H634L644.5 229V261.5M602.5 261.5V267C603.167 272.628 604.665 274.963 608.5 275.984M644.5 261.5V267C642.789 271.721 640.779 273.794 637 275.405M637 275.405C636.106 275.786 635.112 276.142 634 276.5H611.5C610.367 276.38 609.373 276.216 608.5 275.984M654 135V132H603.5V173H654V169.5M654 135H645.5V169.5H654M654 135V136.5M654 169.5V168M654 168H647V136.5H654M654 168V166M654 136.5V139M654 139H648.5V144.5H654M654 139V144.5M654 144.5V147.5M654 147.5H648.5V158H654M654 147.5V158M654 158V161M654 161H648.5V166H654M654 161V166M613.5 477H618V481H619.724V477H624V473H619.724V469.5H618V473H613.5V477ZM601 400H621C626.032 402.028 628.043 403.955 629.5 409.5V427.5C627.786 431.73 625.846 433.256 621 434.5H601V400ZM601.5 412.5H607.5V415.5H614.5V421.5H607.5V424.5H601.5V412.5ZM600.5 376H606V382.5H600.5V376ZM620.5 257V265.5H625V257H620.5ZM618.5 251.5L621.5 248.5H624.5L627 251.5V254L624.5 256.5H621.5L618.5 254V251.5ZM618.5 269L621.5 266H624.5L627 269V271.5L624.5 274H621.5L618.5 271.5V269ZM599 127H656.5V177H599V127ZM624 135H625.5V170H624V135ZM612 141H614V142.5H612V141ZM612 162.5H614V164H612V162.5ZM635.5 162.5H637.5V164H635.5V162.5ZM635.5 141H637.5V142.5H635.5V141ZM628.5 160.5C628.178 162.602 628.196 163.809 628.5 166C629.374 168.471 630.587 169.254 633.5 170C635.776 170.416 636.991 170.4 639 170C640.833 169.184 641.717 168.496 642.5 166C642.85 164.017 642.908 162.841 642.5 160.5C641.863 157.817 641.054 156.892 639 156C637.064 155.425 635.879 155.392 633.5 156C630.594 156.569 629.681 157.635 628.5 160.5ZM609 159C607.771 162.591 607.808 164.438 609 167.5C610.335 169.156 611.107 169.555 612.5 170C614.93 170.256 615.966 169.569 617.5 167.5C618.841 164.367 618.901 162.55 617.5 159C615.881 157.123 614.929 156.604 613 156.5C611.107 156.732 610.278 157.376 609 159ZM630.5 139C629.573 141.092 629.697 142.304 630.5 144.5C631.373 145.701 632.078 146.173 633.5 146.5C635.634 146.89 636.866 146.861 639 146.5C640.171 146.107 640.467 145.53 641 144.5C641.676 142.202 641.65 140.99 641 139C640.393 137.7 639.975 137.115 639 136.5C636.899 135.506 635.701 135.603 633.5 136.5C632.213 137.002 631.555 137.543 630.5 139ZM619 138.5C619.727 140.987 619.671 142.41 619 145C618.145 146.793 617.756 147.938 615.5 148.5C613.14 149.208 611.499 148.804 609 148C608.059 147.264 607.586 146.703 607 145C606.301 142.461 606.258 141.038 607 138.5C607.626 136.952 608.064 136.295 609 135.5C610.717 134.444 612.017 133.878 615 135C617.093 135.734 618.023 136.848 619 138.5Z" stroke="black"/>
<defs>
<filter id="filter0_d_357_1734" x="0" y="17" width="1049" height="565" filterUnits="userSpaceOnUse" color-interpolation-filters="sRGB">
<feFlood flood-opacity="0" result="BackgroundImageFix"/>
<feColorMatrix in="SourceAlpha" type="matrix" values="0 0 0 0 0 0 0 0 0 0 0 0 0 0 0 0 0 0 127 0" result="hardAlpha"/>
<feOffset dy="4"/>
<feGaussianBlur stdDeviation="2"/>
<feComposite in2="hardAlpha" operator="out"/>
<feColorMatrix type="matrix" values="0 0 0 0 0 0 0 0 0 0 0 0 0 0 0 0 0 0 0.25 0"/>
<feBlend mode="normal" in2="BackgroundImageFix" result="effect1_dropShadow_357_1734"/>
<feBlend mode="normal" in="SourceGraphic" in2="effect1_dropShadow_357_1734" result="shape"/>
</filter>
<filter id="filter1_d_357_1734" x="12" y="8" width="1049" height="565" filterUnits="userSpaceOnUse" color-interpolation-filters="sRGB">
<feFlood flood-opacity="0" result="BackgroundImageFix"/>
<feColorMatrix in="SourceAlpha" type="matrix" values="0 0 0 0 0 0 0 0 0 0 0 0 0 0 0 0 0 0 127 0" result="hardAlpha"/>
<feOffset dy="4"/>
<feGaussianBlur stdDeviation="2"/>
<feComposite in2="hardAlpha" operator="out"/>
<feColorMatrix type="matrix" values="0 0 0 0 0 0 0 0 0 0 0 0 0 0 0 0 0 0 0.25 0"/>
<feBlend mode="normal" in2="BackgroundImageFix" result="effect1_dropShadow_357_1734"/>
<feBlend mode="normal" in="SourceGraphic" in2="effect1_dropShadow_357_1734" result="shape"/>
</filter>
<filter id="filter2_d_357_1734" x="23" y="0" width="1048" height="565" filterUnits="userSpaceOnUse" color-interpolation-filters="sRGB">
<feFlood flood-opacity="0" result="BackgroundImageFix"/>
<feColorMatrix in="SourceAlpha" type="matrix" values="0 0 0 0 0 0 0 0 0 0 0 0 0 0 0 0 0 0 127 0" result="hardAlpha"/>
<feOffset dy="4"/>
<feGaussianBlur stdDeviation="2"/>
<feComposite in2="hardAlpha" operator="out"/>
<feColorMatrix type="matrix" values="0 0 0 0 0 0 0 0 0 0 0 0 0 0 0 0 0 0 0.25 0"/>
<feBlend mode="normal" in2="BackgroundImageFix" result="effect1_dropShadow_357_1734"/>
<feBlend mode="normal" in="SourceGraphic" in2="effect1_dropShadow_357_1734" result="shape"/>
</filter>
</defs>
</svg>
