<svg width="404" height="585" viewBox="0 0 404 585" fill="none" xmlns="http://www.w3.org/2000/svg">
<path d="M306.5 1L283 17.314C284.742 21.6694 286.911 22.5218 293.057 21L306.5 1Z" fill="black"/>
<path d="M-179.5 495.315L257.5 59C258.819 47.7062 256.77 45.8274 248.5 49.5L-189.5 486.402L-179.5 495.315Z" fill="#F6E1BF"/>
<path d="M246 43L-195 481.5L-189.5 486.402L248.5 49.5C250.445 44.7292 249.772 43.3837 246 43Z" fill="#FFFBF3"/>
<path d="M-172 502L265.5 62C266.715 55.8031 264.636 55.525 257.5 59L-179.5 495.315L-172 502Z" fill="#FFFBF3"/>
<path d="M248.5 49.5C256.77 45.8274 258.819 47.7062 257.5 59C264.636 55.525 266.715 55.8031 265.5 62L293.057 21C286.911 22.5218 284.742 21.6694 283 17.314L246 43C249.772 43.3837 250.445 44.7292 248.5 49.5Z" fill="#FFFBF3"/>
<path d="M-195 481.5C-190.548 497.009 -185.442 501.54 -172 502M-195 481.5L246 43M-195 481.5L-189.5 486.402M-172 502L265.5 62M-172 502L-179.5 495.315M265.5 62C266.715 55.8031 264.636 55.525 257.5 59M265.5 62L293.057 21M246 43C249.772 43.3837 250.445 44.7292 248.5 49.5M246 43L283 17.314M-179.5 495.315L257.5 59M-179.5 495.315L-189.5 486.402M257.5 59C258.819 47.7062 256.77 45.8274 248.5 49.5M248.5 49.5L-189.5 486.402M283 17.314L306.5 1L293.057 21M283 17.314C284.742 21.6694 286.911 22.5218 293.057 21" stroke="black"/>
<path d="M308.025 41.0282L284.573 57.4107C286.328 61.7609 288.499 62.607 294.641 61.0673L308.025 41.0282Z" fill="black"/>
<path d="M-176.533 536.757L259.194 99.1707C260.481 87.8731 258.426 86.0003 250.167 89.697L-186.559 527.873L-176.533 536.757Z" fill="#F6E1BF"/>
<path d="M250.167 89.697C258.426 86.0003 260.481 87.8731 259.194 99.1707C266.321 95.675 268.4 95.947 267.203 102.147L294.641 61.0673C288.499 62.607 286.328 61.7609 284.573 57.4107L247.648 83.2043C251.421 83.577 252.098 84.9206 250.167 89.697Z" fill="#FFFBF3"/>
<path d="M247.648 83.2043L-192.073 522.987L-186.559 527.873L250.167 89.697C252.098 84.9206 251.421 83.577 247.648 83.2043Z" fill="#FFFBF3"/>
<path d="M-169.013 543.42L267.203 102.147C268.4 95.947 266.321 95.675 259.194 99.1707L-176.533 536.757L-169.013 543.42Z" fill="#FFFBF3"/>
<path d="M-192.073 522.987C-187.576 538.483 -182.457 542.999 -169.013 543.42M-192.073 522.987L247.648 83.2043M-192.073 522.987L-186.559 527.873M-169.013 543.42L267.203 102.147M-169.013 543.42L-176.533 536.757M267.203 102.147C268.4 95.947 266.321 95.675 259.194 99.1707M267.203 102.147L294.641 61.0673M247.648 83.2043C251.421 83.577 252.098 84.9206 250.167 89.697M247.648 83.2043L284.573 57.4107M-176.533 536.757L259.194 99.1707M-176.533 536.757L-186.559 527.873M259.194 99.1707C260.481 87.8731 258.426 86.0003 250.167 89.697M250.167 89.697L-186.559 527.873M284.573 57.4107L308.025 41.0282L294.641 61.0673M284.573 57.4107C286.328 61.7609 288.499 62.607 294.641 61.0673" stroke="black"/>
<path d="M309.998 82L286.546 98.3824C288.3 102.733 290.471 103.579 296.614 102.039L309.998 82Z" fill="black"/>
<path d="M-174.56 577.729L261.167 140.142C262.453 128.845 260.398 126.972 252.139 130.669L-184.586 568.845L-174.56 577.729Z" fill="#F6E1BF"/>
<path d="M252.139 130.669C260.398 126.972 262.453 128.845 261.167 140.142C268.293 136.647 270.373 136.919 269.176 143.119L296.614 102.039C290.471 103.579 288.3 102.733 286.546 98.3824L249.62 124.176C253.393 124.549 254.071 125.892 252.139 130.669Z" fill="#FFFBF3"/>
<path d="M-167.041 584.392L269.176 143.119C270.373 136.919 268.293 136.647 261.167 140.142L-174.56 577.729L-167.041 584.392Z" fill="#FFFBF3"/>
<path d="M249.62 124.176L-190.1 563.959L-184.586 568.845L252.139 130.669C254.071 125.892 253.393 124.549 249.62 124.176Z" fill="#FFFBF3"/>
<path d="M-190.1 563.959C-185.603 579.454 -180.484 583.971 -167.041 584.392M-190.1 563.959L249.62 124.176M-190.1 563.959L-184.586 568.845M-167.041 584.392L269.176 143.119M-167.041 584.392L-174.56 577.729M269.176 143.119C270.373 136.919 268.293 136.647 261.167 140.142M269.176 143.119L296.614 102.039M249.62 124.176C253.393 124.549 254.071 125.892 252.139 130.669M249.62 124.176L286.546 98.3824M-174.56 577.729L261.167 140.142M-174.56 577.729L-184.586 568.845M261.167 140.142C262.453 128.845 260.398 126.972 252.139 130.669M252.139 130.669L-184.586 568.845M286.546 98.3824L309.998 82L296.614 102.039M286.546 98.3824C288.3 102.733 290.471 103.579 296.614 102.039" stroke="black"/>
<path d="M367.998 69L344.546 85.3824C346.3 89.7326 348.471 90.5787 354.614 89.039L367.998 69Z" fill="black"/>
<path d="M-116.56 564.729L319.167 127.142C320.453 115.845 318.398 113.972 310.139 117.669L-126.586 555.845L-116.56 564.729Z" fill="#F6E1BF"/>
<path d="M310.139 117.669C318.398 113.972 320.453 115.845 319.167 127.142C326.293 123.647 328.373 123.919 327.176 130.119L354.614 89.039C348.471 90.5787 346.3 89.7326 344.546 85.3824L307.62 111.176C311.393 111.549 312.071 112.892 310.139 117.669Z" fill="#FFFBF3"/>
<path d="M-109.041 571.392L327.176 130.119C328.373 123.919 326.293 123.647 319.167 127.142L-116.56 564.729L-109.041 571.392Z" fill="#FFFBF3"/>
<path d="M307.62 111.176L-132.1 550.959L-126.586 555.845L310.139 117.669C312.071 112.892 311.393 111.549 307.62 111.176Z" fill="#FFFBF3"/>
<path d="M-132.1 550.959C-127.603 566.454 -122.484 570.971 -109.041 571.392M-132.1 550.959L307.62 111.176M-132.1 550.959L-126.586 555.845M-109.041 571.392L327.176 130.119M-109.041 571.392L-116.56 564.729M327.176 130.119C328.373 123.919 326.293 123.647 319.167 127.142M327.176 130.119L354.614 89.039M307.62 111.176C311.393 111.549 312.071 112.892 310.139 117.669M307.62 111.176L344.546 85.3824M-116.56 564.729L319.167 127.142M-116.56 564.729L-126.586 555.845M319.167 127.142C320.453 115.845 318.398 113.972 310.139 117.669M310.139 117.669L-126.586 555.845M344.546 85.3824L367.998 69L354.614 89.039M344.546 85.3824C346.3 89.7326 348.471 90.5787 354.614 89.039" stroke="black"/>
<path d="M401.998 82L378.546 98.3824C380.3 102.733 382.471 103.579 388.614 102.039L401.998 82Z" fill="black"/>
<path d="M-82.56 577.729L353.167 140.142C354.453 128.845 352.398 126.972 344.139 130.669L-92.5859 568.845L-82.56 577.729Z" fill="#F6E1BF"/>
<path d="M-75.0406 584.392L361.176 143.119C362.373 136.919 360.293 136.647 353.167 140.142L-82.56 577.729L-75.0406 584.392Z" fill="#FFFBF3"/>
<path d="M341.62 124.176L-98.1002 563.959L-92.5859 568.845L344.139 130.669C346.071 125.892 345.393 124.549 341.62 124.176Z" fill="#FFFBF3"/>
<path d="M344.139 130.669C352.398 126.972 354.453 128.845 353.167 140.142C360.293 136.647 362.373 136.919 361.176 143.119L388.614 102.039C382.471 103.579 380.3 102.733 378.546 98.3824L341.62 124.176C345.393 124.549 346.071 125.892 344.139 130.669Z" fill="#FFFBF3"/>
<path d="M-98.1002 563.959C-93.603 579.454 -88.484 583.971 -75.0406 584.392M-98.1002 563.959L341.62 124.176M-98.1002 563.959L-92.5859 568.845M-75.0406 584.392L361.176 143.119M-75.0406 584.392L-82.56 577.729M361.176 143.119C362.373 136.919 360.293 136.647 353.167 140.142M361.176 143.119L388.614 102.039M341.62 124.176C345.393 124.549 346.071 125.892 344.139 130.669M341.62 124.176L378.546 98.3824M-82.56 577.729L353.167 140.142M-82.56 577.729L-92.5859 568.845M353.167 140.142C354.453 128.845 352.398 126.972 344.139 130.669M344.139 130.669L-92.5859 568.845M378.546 98.3824L401.998 82L388.614 102.039M378.546 98.3824C380.3 102.733 382.471 103.579 388.614 102.039" stroke="black"/>
</svg>
