<svg width="581" height="810" viewBox="0 0 581 810" fill="none" xmlns="http://www.w3.org/2000/svg">
<g filter="url(#filter0_d_365_14)">
<path d="M568.793 114.69L238.986 1.97022C237.418 1.43438 235.713 2.27098 235.177 3.8388L9.50711 664.127C9.08172 665.372 9.53396 666.762 10.5992 667.533C111.508 740.629 188.608 764.546 350.29 783.491C351.706 783.657 353.076 782.805 353.52 781.45L570.674 118.463C571.185 116.902 570.347 115.221 568.793 114.69Z" fill="#F6E1BF"/>
<path d="M568.793 114.69L238.986 1.97022C237.418 1.43438 235.713 2.27098 235.177 3.8388L9.50711 664.127C9.08172 665.372 9.53396 666.762 10.5992 667.533C111.508 740.629 188.608 764.546 350.29 783.491C351.706 783.657 353.076 782.805 353.52 781.45L570.674 118.463C571.185 116.902 570.347 115.221 568.793 114.69Z" stroke="black" stroke-width="2"/>
</g>
<path d="M223.755 196.499L250.437 118.432L511.131 207.531L484.45 285.597L223.755 196.499Z" fill="#E9CDA1" stroke="black"/>
<path d="M261.534 10.2053L252.072 6.97119L24.0697 674.084L32.562 680.157L261.534 10.2053Z" fill="white"/>
<path d="M210.735 195.945L239.74 111.078L523.145 207.938L494.14 292.805L210.735 195.945Z" stroke="black" stroke-width="1.08711"/>
<g filter="url(#filter1_d_365_14)">
<ellipse cx="322.765" cy="318.051" rx="47.5" ry="33" transform="rotate(18.8691 322.765 318.051)" fill="#FFF1DA"/>
<path d="M367.239 333.251C364.36 341.676 356.822 347.673 346.864 350.513C336.908 353.353 324.582 353.018 312.254 348.805C299.927 344.592 289.974 337.312 283.839 328.973C277.702 320.632 275.412 311.276 278.291 302.851C281.17 294.427 288.709 288.429 298.666 285.589C308.622 282.749 320.948 283.085 333.276 287.298C345.603 291.511 355.557 298.791 361.692 307.13C367.828 315.47 370.119 324.827 367.239 333.251Z" stroke="black"/>
</g>
<g filter="url(#filter2_d_365_14)">
<ellipse cx="404.717" cy="320.413" rx="23.0884" ry="15.897" transform="rotate(-8.49385 404.717 320.413)" fill="#FFF1DA"/>
<path d="M427.058 317.077C427.675 321.209 425.81 325.367 422.183 328.754C418.559 332.139 413.21 334.712 406.992 335.641C400.773 336.57 394.906 335.671 390.45 333.493C385.993 331.313 382.994 327.882 382.377 323.749C381.76 319.617 383.625 315.459 387.251 312.072C390.876 308.687 396.225 306.114 402.443 305.185C408.662 304.256 414.529 305.155 418.984 307.333C423.442 309.513 426.441 312.944 427.058 317.077Z" stroke="black"/>
</g>
<g filter="url(#filter3_d_365_14)">
<ellipse cx="23.0884" cy="15.897" rx="23.0884" ry="15.897" transform="matrix(-0.691739 -0.722147 -0.722147 0.691739 283.283 276.261)" fill="#FFF1DA"/>
<path d="M240.206 254.272C237.189 257.162 236.119 261.592 236.914 266.49C237.709 271.385 240.363 276.694 244.713 281.235C249.062 285.775 254.252 288.656 259.109 289.66C263.968 290.665 268.44 289.786 271.457 286.896C274.474 284.006 275.544 279.576 274.749 274.678C273.954 269.783 271.3 264.474 266.95 259.933C262.601 255.393 257.411 252.512 252.555 251.508C247.696 250.503 243.224 251.382 240.206 254.272Z" stroke="black"/>
</g>
<g filter="url(#filter4_d_365_14)">
<ellipse cx="456.397" cy="335.068" rx="21.4156" ry="14.7452" transform="rotate(-3.90384 456.397 335.068)" fill="#FFF1DA"/>
<path d="M477.264 333.644C477.527 337.496 475.502 341.191 471.904 344.048C468.308 346.903 463.179 348.884 457.367 349.281C451.555 349.677 446.204 348.412 442.253 346.071C438.301 343.73 435.792 340.343 435.53 336.492C435.267 332.641 437.292 328.946 440.89 326.089C444.486 323.233 449.615 321.253 455.427 320.856C461.239 320.46 466.59 321.725 470.54 324.065C474.493 326.407 477.001 329.793 477.264 333.644Z" stroke="black"/>
</g>
<g filter="url(#filter5_d_365_14)">
<ellipse cx="21.4156" cy="14.7452" rx="21.4156" ry="14.7452" transform="matrix(0.747311 0.664475 0.664475 -0.747311 180.782 246.478)" fill="#FFF1DA"/>
<path d="M222.215 263.587C224.78 260.702 225.44 256.54 224.343 252.079C223.247 247.62 220.403 242.914 216.05 239.043C211.696 235.172 206.69 232.898 202.134 232.331C197.575 231.764 193.519 232.906 190.954 235.791C188.389 238.676 187.728 242.838 188.825 247.299C189.921 251.758 192.765 256.464 197.119 260.335C201.472 264.205 206.478 266.48 211.034 267.047C215.594 267.614 219.65 266.472 222.215 263.587Z" stroke="black"/>
</g>
<g filter="url(#filter6_d_365_14)">
<rect x="174.807" y="291.789" width="44" height="30" transform="rotate(18.8691 174.807 291.789)" fill="#FFF1DA"/>
<rect x="175.119" y="292.424" width="43" height="29" transform="rotate(18.8691 175.119 292.424)" stroke="black"/>
</g>
<g filter="url(#filter7_d_365_14)">
<path d="M223.066 308.283L264.702 322.513L255 350.901L213.364 336.671L223.066 308.283Z" fill="#FFF1DA"/>
<path d="M223.378 308.918L264.067 322.825L254.688 350.266L213.999 336.36L223.378 308.918Z" stroke="black"/>
</g>
<g filter="url(#filter8_d_365_14)">
<rect x="160.254" y="334.371" width="44" height="30" transform="rotate(18.8691 160.254 334.371)" fill="#FFF1DA"/>
<rect x="160.565" y="335.006" width="43" height="29" transform="rotate(18.8691 160.565 335.006)" stroke="black"/>
</g>
<g filter="url(#filter9_d_365_14)">
<rect x="208.513" y="350.865" width="44" height="30" transform="rotate(18.8691 208.513 350.865)" fill="#FFF1DA"/>
<rect x="208.825" y="351.5" width="43" height="29" transform="rotate(18.8691 208.825 351.5)" stroke="black"/>
</g>
<g filter="url(#filter10_d_365_14)">
<rect x="256.772" y="367.358" width="44" height="30" transform="rotate(18.8691 256.772 367.358)" fill="#FFF1DA"/>
<rect x="257.084" y="367.993" width="43" height="29" transform="rotate(18.8691 257.084 367.993)" stroke="black"/>
</g>
<g filter="url(#filter11_d_365_14)">
<rect x="305.032" y="383.853" width="44" height="30" transform="rotate(18.8691 305.032 383.853)" fill="#FFF1DA"/>
<rect x="305.343" y="384.487" width="43" height="29" transform="rotate(18.8691 305.343 384.487)" stroke="black"/>
</g>
<g filter="url(#filter12_d_365_14)">
<rect x="353.291" y="400.346" width="44" height="30" transform="rotate(18.8691 353.291 400.346)" fill="#FFF1DA"/>
<rect x="353.602" y="400.981" width="43" height="29" transform="rotate(18.8691 353.602 400.981)" stroke="black"/>
</g>
<g filter="url(#filter13_d_365_14)">
<rect x="401.55" y="416.84" width="44" height="30" transform="rotate(18.8691 401.55 416.84)" fill="#FFF1DA"/>
<rect x="401.862" y="417.475" width="43" height="29" transform="rotate(18.8691 401.862 417.475)" stroke="black"/>
</g>
<g filter="url(#filter14_d_365_14)">
<rect x="368.791" y="358.088" width="44" height="30" transform="rotate(18.8691 368.791 358.088)" fill="#FFF1DA"/>
<rect x="369.102" y="358.723" width="43" height="29" transform="rotate(18.8691 369.102 358.723)" stroke="black"/>
</g>
<g filter="url(#filter15_d_365_14)">
<rect x="417.05" y="374.582" width="44" height="30" transform="rotate(18.8691 417.05 374.582)" fill="#FFF1DA"/>
<rect x="417.361" y="375.216" width="43" height="29" transform="rotate(18.8691 417.361 375.216)" stroke="black"/>
</g>
<g filter="url(#filter16_d_365_14)">
<rect x="145.701" y="376.953" width="44" height="30" transform="rotate(18.8691 145.701 376.953)" fill="#FFF1DA"/>
<rect x="146.012" y="377.587" width="43" height="29" transform="rotate(18.8691 146.012 377.587)" stroke="black"/>
</g>
<g filter="url(#filter17_d_365_14)">
<rect x="193.96" y="393.446" width="44" height="30" transform="rotate(18.8691 193.96 393.446)" fill="#FFF1DA"/>
<rect x="194.271" y="394.081" width="43" height="29" transform="rotate(18.8691 194.271 394.081)" stroke="black"/>
</g>
<g filter="url(#filter18_d_365_14)">
<rect x="290.479" y="426.434" width="44" height="30" transform="rotate(18.8691 290.479 426.434)" fill="#FFF1DA"/>
<rect x="290.79" y="427.069" width="43" height="29" transform="rotate(18.8691 290.79 427.069)" stroke="black"/>
</g>
<g filter="url(#filter19_d_365_14)">
<rect x="338.738" y="442.928" width="44" height="30" transform="rotate(18.8691 338.738 442.928)" fill="#FFF1DA"/>
<rect x="339.049" y="443.563" width="43" height="29" transform="rotate(18.8691 339.049 443.563)" stroke="black"/>
</g>
<g filter="url(#filter20_d_365_14)">
<rect x="386.997" y="459.422" width="44" height="30" transform="rotate(18.8691 386.997 459.422)" fill="#FFF1DA"/>
<rect x="387.308" y="460.057" width="43" height="29" transform="rotate(18.8691 387.308 460.057)" stroke="black"/>
</g>
<g filter="url(#filter21_d_365_14)">
<rect x="131.147" y="419.534" width="44" height="30" transform="rotate(18.8691 131.147 419.534)" fill="#FFF1DA"/>
<rect x="131.459" y="420.169" width="43" height="29" transform="rotate(18.8691 131.459 420.169)" stroke="black"/>
</g>
<g filter="url(#filter22_d_365_14)">
<rect x="179.407" y="436.028" width="44" height="30" transform="rotate(18.8691 179.407 436.028)" fill="#FFF1DA"/>
<rect x="179.718" y="436.663" width="43" height="29" transform="rotate(18.8691 179.718 436.663)" stroke="black"/>
</g>
<g filter="url(#filter23_d_365_14)">
<rect x="227.666" y="452.522" width="44" height="30" transform="rotate(18.8691 227.666 452.522)" fill="#FFF1DA"/>
<rect x="227.977" y="453.157" width="43" height="29" transform="rotate(18.8691 227.977 453.157)" stroke="black"/>
</g>
<g filter="url(#filter24_d_365_14)">
<rect x="275.925" y="469.016" width="44" height="30" transform="rotate(18.8691 275.925 469.016)" fill="#FFF1DA"/>
<rect x="276.236" y="469.65" width="43" height="29" transform="rotate(18.8691 276.236 469.65)" stroke="black"/>
</g>
<g filter="url(#filter25_d_365_14)">
<rect x="361.136" y="491.798" width="44" height="30" transform="rotate(108.869 361.136 491.798)" fill="#FFF1DA"/>
<rect x="360.501" y="492.109" width="43" height="29" transform="rotate(108.869 360.501 492.109)" stroke="black"/>
</g>
<g filter="url(#filter26_d_365_14)">
<rect x="409.396" y="508.292" width="44" height="30" transform="rotate(108.869 409.396 508.292)" fill="#FFF1DA"/>
<rect x="408.761" y="508.603" width="43" height="29" transform="rotate(108.869 408.761 508.603)" stroke="black"/>
</g>
<g filter="url(#filter27_d_365_14)">
<rect x="347.781" y="543.243" width="58" height="39.5455" transform="rotate(18.8691 347.781 543.243)" fill="#FFF1DA"/>
<rect x="348.092" y="543.878" width="57" height="38.5455" transform="rotate(18.8691 348.092 543.878)" stroke="black"/>
</g>
<g filter="url(#filter28_d_365_14)">
<rect x="287.22" y="522.545" width="58" height="39.5455" transform="rotate(18.8691 287.22 522.545)" fill="#FFF1DA"/>
<rect x="287.532" y="523.18" width="57" height="38.5455" transform="rotate(18.8691 287.532 523.18)" stroke="black"/>
</g>
<g filter="url(#filter29_d_365_14)">
<path d="M116.546 468.44L109.269 489.731L111.874 500.661L150.671 513.921L158.475 506.548L165.751 485.258L116.546 468.44Z" fill="#FFF1DA"/>
<path d="M116.546 468.44L109.269 489.731L111.874 500.661L150.671 513.921L158.475 506.548L165.751 485.258L116.546 468.44Z" stroke="black"/>
</g>
<g filter="url(#filter30_d_365_14)">
<path d="M172.375 487.521L165.099 508.812L167.704 519.742L206.501 533.002L214.304 525.63L221.581 504.339L172.375 487.521Z" fill="#FFF1DA"/>
<path d="M172.375 487.521L165.099 508.812L167.704 519.742L206.501 533.002L214.304 525.63L221.581 504.339L172.375 487.521Z" stroke="black"/>
</g>
<g filter="url(#filter31_d_365_14)">
<path d="M228.205 506.603L220.928 527.893L223.533 538.823L262.33 552.083L270.133 544.711L277.41 523.42L228.205 506.603Z" fill="#FFF1DA"/>
<path d="M228.205 506.603L220.928 527.893L223.533 538.823L262.33 552.083L270.133 544.711L277.41 523.42L228.205 506.603Z" stroke="black"/>
</g>
<g filter="url(#filter32_d_365_14)">
<path d="M96.5425 520.784L89.2658 542.075L91.871 553.005L130.668 566.265L138.471 558.892L145.748 537.601L96.5425 520.784Z" fill="#FFF1DA"/>
<path d="M96.5425 520.784L89.2658 542.075L91.871 553.005L130.668 566.265L138.471 558.892L145.748 537.601L96.5425 520.784Z" stroke="black"/>
</g>
<g filter="url(#filter33_d_365_14)">
<path d="M154.265 540.512L146.988 561.803L149.593 572.733L188.39 585.993L196.193 578.62L203.47 557.329L154.265 540.512Z" fill="#FFF1DA"/>
<path d="M154.265 540.512L146.988 561.803L149.593 572.733L188.39 585.993L196.193 578.62L203.47 557.329L154.265 540.512Z" stroke="black"/>
</g>
<g filter="url(#filter34_d_365_14)">
<path d="M210.094 559.593L202.817 580.884L205.422 591.814L244.219 605.074L252.023 597.701L259.299 576.41L210.094 559.593Z" fill="#FFF1DA"/>
<path d="M210.094 559.593L202.817 580.884L205.422 591.814L244.219 605.074L252.023 597.701L259.299 576.41L210.094 559.593Z" stroke="black"/>
</g>
<g filter="url(#filter35_d_365_14)">
<path d="M267.816 579.321L260.539 600.612L263.144 611.542L301.941 624.801L309.745 617.429L317.021 596.138L267.816 579.321Z" fill="#FFF1DA"/>
<path d="M267.816 579.321L260.539 600.612L263.144 611.542L301.941 624.801L309.745 617.429L317.021 596.138L267.816 579.321Z" stroke="black"/>
</g>
<g filter="url(#filter36_d_365_14)">
<path d="M325.538 599.049L318.261 620.34L320.866 631.27L359.663 644.529L367.466 637.157L374.743 615.866L325.538 599.049Z" fill="#FFF1DA"/>
<path d="M325.538 599.049L318.261 620.34L320.866 631.27L359.663 644.529L367.466 637.157L374.743 615.866L325.538 599.049Z" stroke="black"/>
</g>
<g filter="url(#filter37_d_365_14)">
<path d="M306.78 653.932L299.503 675.222L302.108 686.152L340.905 699.412L348.709 692.04L355.985 670.749L306.78 653.932Z" fill="#FFF1DA"/>
<path d="M306.78 653.932L299.503 675.222L302.108 686.152L340.905 699.412L348.709 692.04L355.985 670.749L306.78 653.932Z" stroke="black"/>
</g>
<g filter="url(#filter38_d_365_14)">
<path d="M249.058 634.204L241.781 655.495L244.387 666.425L283.183 679.685L290.987 672.312L298.264 651.021L249.058 634.204Z" fill="#FFF1DA"/>
<path d="M249.058 634.204L241.781 655.495L244.387 666.425L283.183 679.685L290.987 672.312L298.264 651.021L249.058 634.204Z" stroke="black"/>
</g>
<g filter="url(#filter39_d_365_14)">
<path d="M191.336 614.476L184.06 635.767L186.665 646.697L225.462 659.957L233.265 652.584L240.542 631.293L191.336 614.476Z" fill="#FFF1DA"/>
<path d="M191.336 614.476L184.06 635.767L186.665 646.697L225.462 659.957L233.265 652.584L240.542 631.293L191.336 614.476Z" stroke="black"/>
</g>
<g filter="url(#filter40_d_365_14)">
<path d="M135.507 595.395L128.23 616.686L130.835 627.616L169.632 640.875L177.436 633.503L184.712 612.212L135.507 595.395Z" fill="#FFF1DA"/>
<path d="M135.507 595.395L128.23 616.686L130.835 627.616L169.632 640.875L177.436 633.503L184.712 612.212L135.507 595.395Z" stroke="black"/>
</g>
<g filter="url(#filter41_d_365_14)">
<path d="M77.7852 575.667L70.5085 596.958L73.1137 607.888L111.91 621.148L119.714 613.776L126.991 592.485L77.7852 575.667Z" fill="#FFF1DA"/>
<path d="M77.7852 575.667L70.5085 596.958L73.1137 607.888L111.91 621.148L119.714 613.776L126.991 592.485L77.7852 575.667Z" stroke="black"/>
</g>
<g filter="url(#filter42_d_365_14)">
<path d="M59.6743 628.658L52.3977 649.949L55.0028 660.878L93.7995 674.138L101.603 666.766L108.88 645.475L59.6743 628.658Z" fill="#FFF1DA"/>
<path d="M59.6743 628.658L52.3977 649.949L55.0028 660.878L93.7995 674.138L101.603 666.766L108.88 645.475L59.6743 628.658Z" stroke="black"/>
</g>
<g filter="url(#filter43_d_365_14)">
<path d="M117.396 648.386L110.119 669.677L112.725 680.607L151.521 693.866L159.325 686.494L166.602 665.203L117.396 648.386Z" fill="#FFF1DA"/>
<path d="M117.396 648.386L110.119 669.677L112.725 680.607L151.521 693.866L159.325 686.494L166.602 665.203L117.396 648.386Z" stroke="black"/>
</g>
<g filter="url(#filter44_d_365_14)">
<path d="M173.226 667.467L165.949 688.758L168.554 699.688L207.351 712.947L215.154 705.575L222.431 684.284L173.226 667.467Z" fill="#FFF1DA"/>
<path d="M173.226 667.467L165.949 688.758L168.554 699.688L207.351 712.947L215.154 705.575L222.431 684.284L173.226 667.467Z" stroke="black"/>
</g>
<g filter="url(#filter45_d_365_14)">
<path d="M230.947 687.195L223.671 708.486L226.276 719.416L265.072 732.675L272.876 725.303L280.153 704.012L230.947 687.195Z" fill="#FFF1DA"/>
<path d="M230.947 687.195L223.671 708.486L226.276 719.416L265.072 732.675L272.876 725.303L280.153 704.012L230.947 687.195Z" stroke="black"/>
</g>
<g filter="url(#filter46_d_365_14)">
<path d="M288.669 706.922L281.392 728.213L283.997 739.143L322.794 752.403L330.598 745.03L337.874 723.74L288.669 706.922Z" fill="#FFF1DA"/>
<path d="M288.669 706.922L281.392 728.213L283.997 739.143L322.794 752.403L330.598 745.03L337.874 723.74L288.669 706.922Z" stroke="black"/>
</g>
<g filter="url(#filter47_d_365_14)">
<rect x="242.219" y="409.94" width="44" height="30" transform="rotate(18.8691 242.219 409.94)" fill="#FFF1DA"/>
<rect x="242.531" y="410.575" width="43" height="29" transform="rotate(18.8691 242.531 410.575)" stroke="black"/>
</g>
<path d="M233.326 339.52L235.962 337.187C230.172 335.113 227.734 330 229.849 323.811C231.974 317.594 237.164 315.024 242.984 317.013C245.141 317.751 247.171 319.047 248.306 320.735L249.741 320.433L249.928 320.813L248.589 324.731L248.106 324.566C248.632 320.339 245.173 318.491 243.328 317.86C238.985 316.376 235.192 318.662 233.096 324.794C231.185 330.386 232.355 334.939 237.55 336.715C239.736 337.462 242.107 337.575 244.326 336.463L244.521 336.91C242.074 338.134 239.426 338.276 236.501 337.371L235.345 338.434C236.651 338.881 237.746 339.572 237.407 340.566C237.048 341.616 235.257 342.589 233.353 343.428L233.242 343.105C234.184 342.666 235.081 341.99 235.334 341.252C235.576 340.542 235.143 340.141 233.326 339.52Z" fill="black"/>
<path d="M187.027 320.568L188.051 314.323L182.09 312.286L177.679 317.214L179.992 318.607L179.895 318.891L174.842 317.164L174.939 316.88L177.054 317.001L191.655 300.718L203.578 304.793L202.384 308.284L201.93 308.129L201.595 304.749L193.107 301.848L191.624 311.106L196.961 312.93L198.313 310.919L198.739 311.065L197.022 316.09L196.596 315.944L196.757 313.526L191.505 311.731L189.912 321.681L195.476 323.582L197.8 321.143L198.254 321.298L197.07 324.761L184.977 320.628L185.055 320.401L187.027 320.568ZM189.821 303.578L182.52 311.767L188.17 313.698L189.821 303.578Z" fill="black"/>
<path d="M173.156 343.62L169.003 355.77L166.988 355.082L169.665 347.247C169.775 346.925 169.879 346.622 169.976 346.338C170.092 346.061 170.204 345.793 170.314 345.534C170.423 345.276 170.533 345.017 170.642 344.759C170.395 344.865 170.122 344.983 169.824 345.113C169.532 345.225 169.234 345.324 168.93 345.41L167.018 345.993L166.5 344.263L171.083 342.912L173.156 343.62ZM183.829 347.269L164.525 363.307L162.396 362.58L181.7 346.541L183.829 347.269ZM181.651 355.591L177.498 367.741L175.483 367.052L178.16 359.217C178.27 358.896 178.374 358.593 178.471 358.309C178.587 358.031 178.7 357.764 178.809 357.505C178.919 357.247 179.028 356.988 179.138 356.73C178.89 356.835 178.617 356.953 178.319 357.084C178.027 357.196 177.729 357.294 177.425 357.381L175.514 357.964L174.995 356.233L179.578 354.883L181.651 355.591ZM183.808 370.151C182.351 369.653 181.437 368.739 181.068 367.408C180.705 366.058 180.873 364.361 181.571 362.317C182.257 360.311 183.134 358.888 184.203 358.049C185.278 357.19 186.583 357.023 188.116 357.547C189.573 358.045 190.486 358.96 190.856 360.291C191.244 361.628 191.092 363.309 190.4 365.334C189.714 367.34 188.831 368.782 187.749 369.659C186.692 370.524 185.379 370.688 183.808 370.151ZM184.419 368.363C185.252 368.647 185.983 368.485 186.614 367.877C187.251 367.249 187.832 366.169 188.356 364.636C188.873 363.122 189.069 361.931 188.943 361.064C188.823 360.177 188.347 359.592 187.514 359.307C186.7 359.029 185.975 359.204 185.338 359.831C184.726 360.447 184.158 361.521 183.634 363.054C183.123 364.549 182.918 365.736 183.019 366.616C183.138 367.502 183.605 368.085 184.419 368.363Z" fill="black"/>
<path d="M223.631 359.815L219.479 371.965L217.463 371.276L220.141 363.441C220.251 363.119 220.354 362.816 220.451 362.533C220.567 362.255 220.68 361.987 220.79 361.729C220.899 361.47 221.008 361.212 221.118 360.953C220.871 361.059 220.598 361.177 220.299 361.308C220.008 361.419 219.71 361.518 219.405 361.604L217.494 362.188L216.976 360.457L221.559 359.107L223.631 359.815ZM234.305 363.463L215.001 379.502L212.871 378.774L232.176 362.735L234.305 363.463ZM231.4 371.22C232.252 371.511 232.95 371.972 233.496 372.602C234.067 373.22 234.415 373.994 234.541 374.925C234.685 375.862 234.544 376.955 234.117 378.204C233.813 379.094 233.427 379.945 232.96 380.757C232.498 381.551 231.93 382.223 231.256 382.774C230.606 383.313 229.813 383.655 228.876 383.8C227.939 383.945 226.846 383.804 225.597 383.377C225.294 383.273 224.979 383.144 224.651 382.99C224.323 382.836 224.065 382.695 223.876 382.567L224.458 380.864C224.641 381.01 224.874 381.164 225.157 381.324C225.44 381.484 225.809 381.642 226.263 381.797C227.304 382.153 228.18 382.22 228.89 381.998C229.6 381.775 230.191 381.375 230.663 380.797C231.161 380.206 231.558 379.539 231.855 378.794L231.713 378.746C231.344 379.021 230.862 379.226 230.266 379.361C229.696 379.483 229.033 379.415 228.276 379.156C227.064 378.742 226.225 378.075 225.758 377.154C225.29 376.234 225.264 375.168 225.678 373.957C225.962 373.124 226.382 372.454 226.936 371.945C227.509 371.444 228.178 371.123 228.945 370.983C229.711 370.844 230.53 370.923 231.4 371.22ZM230.847 372.838C230.166 372.606 229.527 372.62 228.93 372.881C228.353 373.148 227.922 373.699 227.637 374.531C227.391 375.25 227.374 375.889 227.585 376.447C227.814 377.012 228.327 377.43 229.122 377.702C229.67 377.889 230.176 377.956 230.638 377.903C231.106 377.831 231.497 377.679 231.808 377.447C232.145 377.203 232.369 376.92 232.479 376.598C232.66 376.068 232.73 375.553 232.69 375.053C232.649 374.553 232.482 374.116 232.187 373.74C231.899 373.346 231.453 373.045 230.847 372.838Z" fill="black"/>
<path d="M272.513 377.579L268.36 389.728L266.345 389.04L269.023 381.205C269.133 380.883 269.236 380.58 269.333 380.296C269.449 380.019 269.562 379.751 269.671 379.492C269.781 379.234 269.89 378.975 270 378.717C269.752 378.823 269.479 378.941 269.181 379.071C268.889 379.183 268.591 379.282 268.287 379.368L266.376 379.951L265.858 378.221L270.441 376.87L272.513 377.579ZM283.187 381.227L263.882 397.265L261.753 396.538L281.058 380.499L283.187 381.227ZM274.244 400.807L282.64 392.009L276.367 389.865L276.949 388.162L285.323 391.024L284.848 392.415L276.345 401.525L274.244 400.807Z" fill="black"/>
<path d="M317.842 393.029L317.386 394.363C317.153 395.044 316.62 395.306 316.024 395.102C315.456 394.908 315.185 394.403 315.408 393.75C315.883 392.359 317.961 392.404 319.437 392.908C321.424 393.587 322.315 394.97 321.781 396.531C321.354 397.78 320.24 398.35 318.686 398.168C320.216 398.976 320.966 400.215 320.491 401.606C319.938 403.224 318.169 403.761 316.011 403.024C314.45 402.49 312.752 401.244 313.227 399.853C313.45 399.2 313.964 398.995 314.532 399.189C315.128 399.393 315.39 399.926 315.157 400.608L314.711 401.913C315.002 402.267 315.37 402.488 315.796 402.633C316.988 403.041 318.168 402.556 318.702 400.995C319.275 399.32 318.467 398.251 316.962 397.737L316.338 397.524L316.435 397.24L317.059 397.453C318.365 397.9 319.45 397.509 320.003 395.891C320.517 394.387 320.05 393.435 319.056 393.095C318.715 392.978 318.261 392.918 317.842 393.029ZM322.382 416.202L322.44 416.032L323.379 416.068L323.961 414.364L319.674 412.899L319.742 412.7C322.14 410.508 323.853 408.557 324.756 405.917L326.516 406.519C325.526 409.414 323.151 411.076 320.141 412.741L324.058 414.08L325.164 410.844L327.231 409.807L327.352 410.102L325.79 414.672L326.783 415.012L326.686 415.296L325.693 414.956L325.111 416.659L325.875 417.206L325.817 417.376L322.382 416.202ZM314.49 413.505L313.553 413.185L328.975 396.263L329.911 396.583L314.49 413.505Z" fill="black"/>
<path d="M361.318 419.47L361.376 419.299L362.627 419.442L365.683 410.499L364.377 410.053L364.455 409.826L367.477 410.352L367.598 410.647L364.387 420.043L365.492 420.706L365.434 420.876L361.318 419.47ZM361.243 430.541L360.306 430.22L375.728 413.298L376.665 413.619L361.243 430.541ZM367.347 432.627L367.56 432.002C370.759 430.527 373.728 429.26 374.689 426.449C375.126 425.172 374.8 424.268 373.75 423.909C373.324 423.763 373.011 423.752 372.555 423.881L372.07 425.3C371.837 425.982 371.304 426.243 370.707 426.039C370.14 425.845 369.859 425.369 370.092 424.688C370.509 423.467 372.181 423.119 373.941 423.721C375.985 424.419 376.943 425.698 376.371 427.373C375.536 429.814 372.245 430.909 368.899 431.889L373.497 433.461L374.531 432.292L374.758 432.37L373.904 434.868L367.347 432.627Z" fill="black"/>
<path d="M417.337 449.712L417.396 449.542L418.335 449.577L418.917 447.874L414.659 446.419L414.727 446.22C417.096 444.018 418.837 442.077 419.74 439.437L421.5 440.038C420.51 442.934 418.135 444.595 415.125 446.261L419.014 447.59L420.12 444.354L422.215 443.326L422.336 443.621L420.774 448.192L421.767 448.531L421.67 448.815L420.677 448.476L420.095 450.179L420.859 450.725L420.801 450.896L417.337 449.712ZM409.502 447.034L408.566 446.714L423.987 429.792L424.924 430.112L409.502 447.034ZM409.577 435.963L409.635 435.793L410.886 435.935L413.942 426.993L412.637 426.547L412.714 426.32L415.737 426.845L415.858 427.14L412.646 436.537L413.751 437.2L413.693 437.37L409.577 435.963Z" fill="black"/>
<path d="M165.114 392.073C165.954 388.873 165.687 387.799 165.92 387.118C166.143 386.465 166.762 386.137 167.415 386.361C168.039 386.574 168.357 387.222 168.134 387.874C167.901 388.556 167.033 389.242 165.738 392.287C168.939 393.127 170.013 392.86 170.694 393.093C171.347 393.316 171.674 393.935 171.451 394.588C171.238 395.213 170.59 395.53 169.937 395.307C169.256 395.074 168.57 394.206 165.525 392.911C162.22 403.322 161.789 406.44 161.071 408.541C160.848 409.194 160.228 409.521 159.576 409.298C158.951 409.084 158.633 408.437 158.857 407.784C159.574 405.683 161.142 402.953 164.9 392.698C161.728 391.867 160.626 392.125 159.945 391.892C159.292 391.669 158.993 391.059 159.216 390.406C159.429 389.782 160.048 389.454 160.701 389.678C161.383 389.91 162.097 390.789 165.114 392.073Z" fill="black"/>
<path d="M211.48 407.921C212.321 404.72 212.054 403.646 212.286 402.965C212.51 402.312 213.129 401.985 213.782 402.208C214.406 402.421 214.724 403.069 214.501 403.722C214.268 404.403 213.399 405.089 212.105 408.134C215.305 408.974 216.379 408.707 217.061 408.94C217.714 409.163 218.041 409.782 217.818 410.435C217.604 411.06 216.957 411.377 216.304 411.154C215.623 410.921 214.937 410.053 211.891 408.759L209.621 415.401C212.821 416.241 213.896 415.974 214.577 416.207C215.23 416.43 215.557 417.05 215.334 417.702C215.12 418.327 214.473 418.645 213.82 418.422C213.139 418.189 212.453 417.32 209.417 415.997C207.772 421.554 207.806 423.309 207.437 424.388C207.214 425.041 206.595 425.368 205.942 425.145C205.318 424.932 205 424.284 205.223 423.631C205.592 422.552 206.693 421.185 208.793 415.784C205.611 414.982 204.509 415.239 203.828 415.006C203.175 414.783 202.885 414.145 203.099 413.521C203.322 412.868 203.931 412.569 204.584 412.792C205.266 413.025 205.98 413.903 208.997 415.188L211.267 408.545C208.095 407.715 206.993 407.972 206.311 407.739C205.658 407.516 205.359 406.906 205.583 406.254C205.796 405.629 206.415 405.302 207.068 405.525C207.749 405.758 208.464 406.636 211.48 407.921Z" fill="black"/>
<path d="M371.456 369.831C372.533 366.68 374.944 365.285 377.385 366.119C379.827 366.954 380.851 369.523 379.774 372.674C378.687 375.853 376.314 377.23 373.873 376.396C371.432 375.561 370.369 373.011 371.456 369.831ZM373.443 370.51C372.376 373.633 372.741 375.533 374.019 375.97C375.296 376.406 376.748 375.127 377.815 372.005C378.882 368.882 378.517 366.982 377.24 366.545C375.962 366.108 374.511 367.388 373.443 370.51ZM370.166 386.035L369.059 385.657L387.66 369.821L388.767 370.2L370.166 386.035ZM378.024 383.172C379.101 380.021 381.512 378.626 383.954 379.46C386.395 380.295 387.419 382.864 386.342 386.015C385.255 389.195 382.883 390.571 380.441 389.737C378 388.902 376.938 386.352 378.024 383.172ZM380.012 383.852C378.944 386.974 379.309 388.874 380.587 389.311C381.864 389.748 383.316 388.468 384.383 385.346C385.451 382.223 385.085 380.323 383.808 379.886C382.531 379.45 381.079 380.729 380.012 383.852ZM387.563 386.432C388.64 383.281 391.051 381.886 393.492 382.72C395.933 383.555 396.957 386.124 395.88 389.275C394.794 392.455 392.421 393.831 389.98 392.997C387.538 392.162 386.476 389.612 387.563 386.432ZM389.55 387.112C388.483 390.234 388.848 392.134 390.125 392.571C391.403 393.008 392.854 391.728 393.922 388.606C394.989 385.483 394.624 383.583 393.346 383.146C392.069 382.71 390.617 383.989 389.55 387.112Z" fill="black"/>
<path d="M420.687 380.821C421.641 381.147 422.331 381.669 422.756 382.387C423.182 383.104 423.385 383.953 423.366 384.933C423.347 385.912 423.141 386.976 422.748 388.124C422.09 390.05 421.242 391.407 420.203 392.196C419.181 392.991 417.991 393.156 416.631 392.691C415.783 392.401 415.137 391.924 414.693 391.26C414.274 390.584 414.056 389.75 414.04 388.758C414.047 387.754 414.265 386.626 414.694 385.372C415.34 383.482 416.165 382.136 417.168 381.335C418.172 380.534 419.345 380.363 420.687 380.821ZM420.116 382.579C419.445 382.35 418.833 382.525 418.279 383.105C417.744 383.692 417.237 384.682 416.76 386.078C416.284 387.473 416.074 388.576 416.133 389.385C416.21 390.2 416.584 390.722 417.255 390.952C417.926 391.181 418.547 391.009 419.118 390.434C419.695 389.843 420.225 388.84 420.708 387.427C421.185 386.032 421.374 384.932 421.273 384.129C421.173 383.325 420.788 382.809 420.116 382.579ZM432.838 385.27L415.88 400.602L413.893 399.922L430.851 384.591L432.838 385.27ZM448.567 398.813C449.503 399.133 450.184 399.651 450.61 400.369C451.035 401.086 451.235 401.944 451.21 402.941C451.191 403.921 450.988 404.976 450.602 406.107C449.944 408.032 449.104 409.392 448.083 410.187C447.061 410.982 445.87 411.147 444.51 410.683C443.574 410.363 442.893 409.844 442.468 409.126C442.066 408.397 441.878 407.534 441.903 406.537C441.946 405.545 442.161 404.484 442.547 403.354C443.199 401.446 444.024 400.101 445.022 399.317C446.043 398.522 447.225 398.354 448.567 398.813ZM447.96 400.588C447.289 400.359 446.677 400.534 446.124 401.114C445.594 401.683 445.088 402.674 444.605 404.087C444.128 405.482 443.919 406.584 443.977 407.394C444.06 408.191 444.437 408.705 445.108 408.934C445.779 409.163 446.4 408.991 446.971 408.417C447.549 407.825 448.076 406.831 448.552 405.436C449.029 404.04 449.218 402.941 449.118 402.137C449.017 401.334 448.632 400.817 447.96 400.588ZM430.021 392.474C430.974 392.8 431.664 393.322 432.089 394.039C432.515 394.757 432.715 395.614 432.69 396.612C432.671 397.591 432.468 398.646 432.081 399.777C431.423 401.702 430.575 403.059 429.536 403.848C428.515 404.644 427.324 404.809 425.964 404.344C425.045 404.03 424.373 403.514 423.948 402.797C423.546 402.068 423.358 401.204 423.383 400.207C423.426 399.215 423.641 398.155 424.027 397.024C424.679 395.116 425.504 393.771 426.501 392.987C427.523 392.192 428.696 392.021 430.021 392.474ZM429.414 394.249C428.743 394.02 428.13 394.195 427.577 394.775C427.047 395.344 426.541 396.335 426.058 397.748C425.581 399.143 425.372 400.246 425.431 401.055C425.513 401.852 425.89 402.366 426.561 402.595C427.233 402.825 427.854 402.652 428.425 402.078C429.002 401.486 429.529 400.493 430.006 399.097C430.483 397.702 430.671 396.602 430.571 395.799C430.471 394.995 430.085 394.479 429.414 394.249ZM439.294 395.643C440.248 395.969 440.937 396.491 441.363 397.209C441.788 397.926 441.988 398.784 441.963 399.781C441.944 400.761 441.741 401.816 441.355 402.946C440.697 404.872 439.848 406.229 438.809 407.018C437.788 407.813 436.597 407.978 435.237 407.513C434.319 407.199 433.647 406.684 433.221 405.966C432.819 405.237 432.631 404.374 432.656 403.376C432.699 402.385 432.914 401.324 433.3 400.193C433.952 398.286 434.777 396.94 435.775 396.157C436.796 395.362 437.969 395.191 439.294 395.643ZM438.687 397.419C438.016 397.189 437.404 397.365 436.85 397.945C436.321 398.513 435.814 399.504 435.331 400.917C434.854 402.313 434.645 403.415 434.704 404.224C434.787 405.022 435.163 405.535 435.835 405.765C436.506 405.994 437.127 405.822 437.698 405.247C438.275 404.656 438.802 403.662 439.279 402.267C439.756 400.871 439.944 399.772 439.844 398.968C439.744 398.164 439.358 397.648 438.687 397.419Z" fill="black"/>
<path d="M357.761 578.358L358.546 576.058L372.854 580.948L372.068 583.248L357.761 578.358ZM362.695 569.487L363.48 567.187L374.381 570.913L373.596 573.212L362.695 569.487ZM364.47 560.582L365.256 558.283L378.428 562.785L377.642 565.084L364.47 560.582Z" fill="black"/>
<path d="M303.838 545.472L304.139 544.592L314.841 548.25L314.541 549.13L303.838 545.472ZM302.451 549.531L302.742 548.68L313.444 552.337L313.153 553.189L302.451 549.531Z" fill="black"/>
<path d="M72.0068 659.61C70.8334 659.209 69.9498 658.547 69.3559 657.626C68.781 656.711 68.4826 655.605 68.4608 654.308C68.439 653.011 68.6869 651.606 69.2043 650.092C69.8188 648.294 70.5952 646.826 71.5336 645.689C72.4719 644.551 73.4303 643.695 74.4086 643.12L76.9635 643.994C76.3028 644.381 75.6444 644.885 74.9883 645.506C74.3575 646.115 73.7509 646.869 73.1686 647.769C72.6051 648.676 72.1132 649.744 71.6927 650.974C71.0653 652.81 70.8738 654.298 71.1182 655.438C71.369 656.56 71.958 657.279 72.8854 657.596C73.5099 657.809 74.0759 657.823 74.5833 657.637C75.1096 657.458 75.5611 657.126 75.938 656.642C76.3213 656.139 76.6326 655.537 76.8719 654.837L78.434 650.266L80.8185 651.081L79.2565 655.652C78.9913 656.428 78.8657 657.135 78.8799 657.774C78.9194 658.4 79.0894 658.923 79.3898 659.343C79.6902 659.763 80.1243 660.07 80.692 660.264C81.3355 660.484 81.9555 660.463 82.552 660.202C83.1674 659.947 83.7404 659.446 84.271 658.697C84.8206 657.955 85.3024 656.978 85.7163 655.767C86.1238 654.575 86.3852 653.47 86.5004 652.452C86.6221 651.416 86.6136 650.452 86.4749 649.559C86.3616 648.653 86.1435 647.807 85.8205 647.021L88.3754 647.894C88.6859 648.655 88.8978 649.489 89.0111 650.394C89.1309 651.28 89.1299 652.242 89.0082 653.278C88.8865 654.314 88.6252 655.419 88.2241 656.592C87.7067 658.106 87.0425 659.369 86.2316 660.382C85.4207 661.394 84.4984 662.083 83.4647 662.448C82.4499 662.82 81.3558 662.805 80.1825 662.404C79.1416 662.048 78.3708 661.521 77.8701 660.821C77.3759 660.103 77.1588 659.13 77.2187 657.904L77.0767 657.855C76.6352 658.529 76.1538 659.04 75.6325 659.391C75.1177 659.722 74.5598 659.901 73.9587 659.928C73.3577 659.955 72.707 659.849 72.0068 659.61Z" fill="black"/>
<path d="M132.733 683.534C131.181 683.004 130.043 682.129 129.318 680.909C128.619 679.677 128.302 678.163 128.366 676.367C128.437 674.552 128.863 672.5 129.646 670.21C130.435 667.901 131.338 666.001 132.355 664.51C133.372 663.019 134.531 662.009 135.831 661.481C137.151 660.96 138.624 660.978 140.252 661.534C141.823 662.071 142.97 662.949 143.695 664.169C144.426 665.37 144.756 666.878 144.685 668.692C144.633 670.513 144.21 672.588 143.414 674.916C142.631 677.206 141.722 679.093 140.686 680.578C139.676 682.05 138.508 683.056 137.182 683.597C135.881 684.124 134.398 684.104 132.733 683.534ZM133.441 681.462C134.425 681.798 135.326 681.79 136.145 681.435C136.982 681.087 137.769 680.363 138.505 679.262C139.24 678.16 139.96 676.642 140.664 674.705L131.949 671.727C131.327 673.67 130.951 675.296 130.821 676.604C130.71 677.919 130.867 678.976 131.291 679.776C131.721 680.557 132.438 681.119 133.441 681.462ZM132.609 669.796L141.296 672.765C141.828 671.023 142.123 669.539 142.183 668.313C142.25 667.067 142.064 666.064 141.627 665.301C141.197 664.52 140.499 663.964 139.534 663.635C138.569 663.305 137.677 663.317 136.858 663.671C136.065 664.013 135.323 664.7 134.632 665.732C133.948 666.745 133.273 668.1 132.609 669.796Z" fill="black"/>
<path d="M189.367 702.891C188.023 702.431 186.915 701.746 186.043 700.835C185.17 699.924 184.603 698.864 184.34 697.654C184.096 696.45 184.204 695.177 184.663 693.833C185.077 692.622 185.635 691.639 186.336 690.886C187.063 690.119 187.912 689.553 188.882 689.188C189.878 688.809 190.987 688.596 192.208 688.549C191.869 688.116 191.55 687.658 191.25 687.175C190.95 686.692 190.752 686.16 190.655 685.577C190.565 684.976 190.643 684.315 190.888 683.596C191.121 682.915 191.537 682.317 192.135 681.803C192.74 681.27 193.521 680.934 194.477 680.796C195.439 680.639 196.564 680.78 197.851 681.22C198.797 681.543 199.585 681.929 200.214 682.376C200.843 682.824 201.346 683.27 201.722 683.716C202.123 684.149 202.402 684.509 202.558 684.794L200.81 686.384C200.378 685.73 199.858 685.119 199.249 684.551C198.665 683.971 197.957 683.539 197.124 683.254C196.329 682.983 195.666 682.883 195.134 682.955C194.621 683.033 194.221 683.213 193.935 683.496C193.654 683.759 193.462 684.042 193.359 684.345C193.249 684.667 193.215 685.015 193.256 685.388C193.298 685.762 193.481 686.215 193.806 686.749C194.156 687.27 194.71 687.935 195.47 688.744C196.85 690.209 197.798 691.516 198.315 692.665C198.837 693.795 199.089 694.821 199.069 695.745C199.056 696.649 198.914 697.499 198.642 698.293C198.092 699.902 197.321 701.107 196.328 701.909C195.335 702.711 194.225 703.177 192.997 703.307C191.788 703.444 190.578 703.305 189.367 702.891ZM190.122 700.866C191.068 701.19 191.934 701.253 192.72 701.057C193.525 700.867 194.223 700.461 194.816 699.839C195.409 699.218 195.864 698.443 196.181 697.516C196.498 696.588 196.609 695.707 196.514 694.871C196.419 694.036 196.144 693.234 195.688 692.465C195.251 691.703 194.675 690.977 193.959 690.289C193.156 690.289 192.403 690.359 191.699 690.499C191.015 690.646 190.384 690.885 189.806 691.215C189.253 691.534 188.757 691.966 188.316 692.513C187.901 693.048 187.561 693.703 187.296 694.479C186.966 695.444 186.855 696.357 186.962 697.218C187.095 698.067 187.421 698.812 187.941 699.455C188.487 700.085 189.213 700.556 190.122 700.866Z" fill="black"/>
<path d="M240.925 724.634L248.386 702.803C248.943 701.176 249.67 699.977 250.567 699.205C251.49 698.422 252.518 697.981 253.651 697.882C254.79 697.764 255.966 697.912 257.177 698.326C258.464 698.766 259.481 699.346 260.228 700.066C260.994 700.793 261.465 701.641 261.641 702.61C261.843 703.566 261.743 704.631 261.342 705.805C261.032 706.713 260.574 707.434 259.969 707.967C259.389 708.487 258.726 708.852 257.978 709.062C257.236 709.252 256.471 709.297 255.681 709.196L255.642 709.31C256.562 709.772 257.313 710.356 257.896 711.063C258.479 711.769 258.843 712.591 258.988 713.528C259.158 714.453 259.045 715.493 258.651 716.647C258.211 717.934 257.543 718.931 256.645 719.639C255.767 720.354 254.746 720.776 253.581 720.906C252.442 721.024 251.247 720.87 249.998 720.443C249.317 720.21 248.734 719.968 248.249 719.718C247.783 719.474 247.377 719.208 247.031 718.921C246.685 718.634 246.337 718.325 245.985 717.993L243.423 725.487L240.925 724.634ZM250.47 718.321C251.795 718.774 252.968 718.773 253.99 718.319C255.018 717.846 255.758 716.948 256.211 715.623C256.554 714.62 256.636 713.729 256.459 712.949C256.307 712.158 255.964 711.491 255.43 710.949C254.922 710.395 254.309 709.995 253.59 709.749L251.233 708.944L251.893 707.014L253.965 707.722C254.685 707.968 255.355 708.017 255.976 707.87C256.615 707.73 257.168 707.411 257.634 706.915C258.118 706.425 258.49 705.802 258.748 705.045C259.149 703.872 259.097 702.881 258.591 702.074C258.103 701.274 257.377 700.709 256.412 700.379C255.749 700.152 255.07 700.068 254.374 700.126C253.684 700.165 253.034 700.461 252.422 701.013C251.811 701.564 251.286 702.484 250.846 703.771L246.751 715.75C247.297 716.317 247.834 716.818 248.362 717.252C248.897 717.667 249.599 718.024 250.47 718.321Z" fill="black"/>
<path d="M304.198 741.82L306.012 736.511C304.744 736.015 303.683 735.409 302.829 734.694C301.974 733.979 301.335 733.159 300.912 732.232C300.508 731.312 300.313 730.273 300.328 729.116C300.369 727.946 300.628 726.661 301.107 725.26L303.29 718.873L305.902 719.766L303.709 726.181C303.153 727.809 302.934 729.161 303.052 730.237C303.17 731.313 303.553 732.173 304.199 732.817C304.865 733.467 305.718 733.97 306.759 734.325L311.125 721.551L313.623 722.405L309.257 735.179C310.298 735.535 311.271 735.656 312.176 735.543C313.101 735.436 313.939 734.993 314.691 734.215C315.443 733.436 316.098 732.233 316.654 730.606L318.847 724.19L321.458 725.083L319.275 731.47C318.635 733.343 317.808 734.805 316.794 735.853C315.787 736.883 314.587 737.519 313.194 737.761C311.826 737.991 310.265 737.859 308.51 737.365L306.696 742.674L304.198 741.82Z" fill="black"/>
<path d="M139.205 500.037L127.843 489.591L128.328 488.172L143.979 486.07L143.222 488.284L130.793 489.68L139.962 497.823L139.205 500.037ZM124.699 498.883L125.388 496.868L138.73 501.428L138.041 503.443L124.699 498.883Z" fill="black"/>
<path d="M183.557 515.195L184.313 512.98L196.548 512.153L187.573 503.442L188.33 501.228L199.421 512.469L198.936 513.888L183.557 515.195ZM182.402 518.573L183.091 516.557L196.433 521.117L195.744 523.133L182.402 518.573Z" fill="black"/>
<path d="M242.706 536.837L244.704 530.99L239.055 529.059L239.744 527.043L245.393 528.974L246.713 525.113L241.063 523.183L241.752 521.167L255.095 525.727L254.406 527.743L248.757 525.812L247.437 529.673L253.086 531.603L252.397 533.619L246.748 531.688L244.75 537.536L242.706 536.837Z" fill="black"/>
<path d="M247.266 426.989C249.168 421.425 255.224 418.454 260.788 420.355C266.352 422.257 269.323 428.313 267.422 433.877C265.52 439.441 259.464 442.412 253.9 440.511C248.336 438.609 245.365 432.553 247.266 426.989ZM248.288 427.338C246.581 432.334 249.253 437.781 254.249 439.489C259.245 441.196 264.692 438.524 266.4 433.528C268.107 428.532 265.435 423.085 260.439 421.377C255.443 419.67 249.996 422.342 248.288 427.338ZM262.021 429.178C261.556 430.541 260.261 431.176 258.612 430.898C259.046 431.205 259.213 431.737 259.313 432.279L259.995 436.126L260.769 436.644L260.711 436.815L258.213 435.961L257.249 430.527L255.801 430.032L254.384 434.177L255.234 434.753L255.176 434.923L251.513 433.671L251.572 433.501L252.596 433.566L255.72 424.425L254.87 423.849L254.909 423.736L259.309 425.239C261.467 425.977 262.603 427.475 262.021 429.178ZM259.004 425.484L257.528 424.979L255.907 429.72L257.384 430.224C258.519 430.613 259.633 430.137 260.186 428.519C260.739 426.901 260.139 425.872 259.004 425.484Z" fill="black"/>
<path d="M295.849 442.536C297.751 436.972 303.807 434.001 309.371 435.903C314.935 437.805 317.906 443.861 316.005 449.425C314.103 454.989 308.047 457.96 302.483 456.058C296.919 454.157 293.948 448.1 295.849 442.536ZM296.871 442.886C295.164 447.882 297.836 453.329 302.832 455.036C307.828 456.744 313.275 454.072 314.983 449.076C316.69 444.08 314.018 438.633 309.022 436.925C304.026 435.217 298.579 437.889 296.871 442.886ZM308.444 450.677L308.556 450.905C307.327 451.532 305.932 451.626 304.37 451.092C301.361 450.064 300.091 447.473 301.158 444.351C302.225 441.228 304.844 439.967 307.768 440.967C308.818 441.326 309.819 441.921 310.363 442.741L311.199 442.615L311.292 442.805L310.604 444.821L310.348 444.733C310.554 442.648 308.957 441.753 308.02 441.433C305.948 440.725 304.156 441.793 303.089 444.916C302.148 447.669 302.624 449.893 305.208 450.776C306.23 451.125 307.405 451.21 308.444 450.677Z" fill="black"/>
<path d="M349.927 461.547C350.364 460.27 351.092 459.346 351.998 458.736L350.7 456.041L351.538 455.63L352.846 458.296C353.873 457.887 355.116 457.868 356.394 458.304C357.7 458.751 358.652 459.488 359.243 460.451L361.871 459.162L362.282 460L359.654 461.289C360.054 462.345 360.044 463.578 359.608 464.856C359.171 466.133 358.433 467.086 357.433 467.695L358.75 470.333L357.912 470.744L356.604 468.078C355.558 468.449 354.343 468.478 353.066 468.041C351.788 467.605 350.845 466.839 350.283 465.886L347.579 467.212L347.168 466.374L349.872 465.048C349.491 464.03 349.5 462.796 349.927 461.547ZM350.864 461.867C350.088 464.138 351.106 466.262 353.405 467.048C355.762 467.853 357.866 466.797 358.642 464.526C359.448 462.17 358.43 460.046 356.074 459.241C353.774 458.455 351.669 459.511 350.864 461.867Z" fill="black"/>
<path d="M395.656 475.581C394.748 475.27 394.014 474.819 393.456 474.226C392.923 473.621 392.577 472.933 392.418 472.16C392.266 471.368 392.336 470.546 392.627 469.695C392.924 468.824 393.363 468.129 393.942 467.608C394.547 467.075 395.242 466.742 396.028 466.609C396.838 466.463 397.707 466.549 398.635 466.866C399.524 467.17 400.245 467.627 400.797 468.239C401.355 468.831 401.71 469.523 401.863 470.315C402.021 471.088 401.952 471.909 401.654 472.78C401.363 473.632 400.915 474.324 400.31 474.857C399.712 475.371 399.007 475.701 398.197 475.847C397.392 475.973 396.546 475.885 395.656 475.581ZM396.257 473.915C397.165 474.226 397.912 474.206 398.496 473.857C399.1 473.513 399.537 472.944 399.809 472.149C399.997 471.601 400.054 471.092 399.982 470.623C399.935 470.142 399.751 469.72 399.432 469.357C399.131 469.001 398.687 468.722 398.1 468.522C397.173 468.205 396.408 468.218 395.804 468.561C395.201 468.905 394.757 469.493 394.472 470.325C394.2 471.12 394.198 471.838 394.465 472.479C394.732 473.12 395.33 473.599 396.257 473.915ZM413.737 474.532C412.658 474.163 411.619 474.019 410.619 474.1C409.626 474.162 408.703 474.449 407.852 474.962C407.007 475.455 406.249 476.157 405.578 477.069C404.913 477.963 404.364 479.043 403.931 480.311C403.362 481.976 403.122 483.512 403.213 484.916C403.322 486.328 403.775 487.539 404.571 488.551C405.385 489.569 406.568 490.343 408.12 490.873C409.01 491.177 409.878 491.39 410.724 491.51C411.571 491.63 412.411 491.706 413.246 491.738L412.489 493.952C411.635 493.977 410.779 493.917 409.92 493.771C409.08 493.632 408.101 493.372 406.985 492.99C404.922 492.285 403.345 491.271 402.255 489.947C401.164 488.623 400.537 487.056 400.374 485.246C400.229 483.442 400.519 481.481 401.244 479.361C401.768 477.828 402.455 476.499 403.304 475.373C404.173 474.254 405.173 473.37 406.303 472.72C407.453 472.078 408.717 471.717 410.097 471.639C411.483 471.542 412.961 471.762 414.532 472.299C415.573 472.655 416.54 473.102 417.434 473.64C418.328 474.178 419.089 474.765 419.717 475.402L417.957 477.211C417.43 476.713 416.817 476.219 416.119 475.726C415.439 475.24 414.645 474.842 413.737 474.532Z" fill="black"/>
<path d="M87.0164 605.242L87.5015 603.823L101.609 587.498L103.909 588.284L105.045 609.819L104.56 611.238L87.0164 605.242ZM90.7262 603.942L102.394 607.93L101.883 593.933C101.878 593.762 101.868 593.452 101.852 593.003C101.837 592.553 101.824 592.095 101.815 591.627C101.831 591.146 101.841 590.779 101.842 590.526C101.618 590.873 101.372 591.222 101.104 591.574C100.861 591.914 100.618 592.222 100.376 592.498C100.152 592.781 99.964 593.023 99.8107 593.224L90.7262 603.942Z" fill="black"/>
<path d="M143.648 625.654L142.655 625.315L146.056 623.434C145.086 621.168 145.022 618.388 146.05 615.379C148.166 609.19 153.422 606.612 159.071 608.543C161.683 609.435 163.634 611.053 164.785 613.159L167.558 611.633L168.58 611.982L165.14 613.882C166.138 616.157 166.203 618.937 165.184 621.918C163.049 628.164 157.784 630.676 152.163 628.755C149.523 627.852 147.543 626.225 146.421 624.129L143.648 625.654ZM161.938 620.841C162.685 618.655 162.994 616.731 162.93 615.061L148.297 623.09C148.647 625.777 150.066 627.562 152.309 628.329C155.999 629.59 159.755 627.228 161.938 620.841ZM149.249 616.504C148.502 618.69 148.193 620.613 148.237 622.245L162.87 614.216C162.521 611.529 161.111 609.715 158.926 608.968C155.207 607.697 151.441 610.088 149.249 616.504Z" fill="black"/>
<path d="M214.07 627.086C215.963 627.733 217.329 628.591 218.168 629.66C219.007 630.728 219.396 631.971 219.335 633.387L221.464 634.115L220.94 635.648L219.095 635.017C219.056 635.194 219.007 635.368 218.949 635.538C218.91 635.715 218.861 635.888 218.803 636.059C218.718 636.305 218.622 636.557 218.512 636.815C218.409 637.055 218.297 637.291 218.175 637.524L220.077 638.174L219.553 639.707L217.253 638.922C216.704 639.6 216.033 640.142 215.239 640.548C214.446 640.953 213.524 641.177 212.473 641.219C211.43 641.243 210.245 641.028 208.921 640.576L207.331 640.032L205.07 646.647L202.714 645.841L206.353 635.196L203.883 634.352L204.407 632.819L206.876 633.663L207.74 631.136L205.27 630.292L205.794 628.759L208.264 629.604L209.642 625.572L214.07 627.086ZM214.613 638.019L208.709 636.001L208.049 637.932L209.497 638.426C210.613 638.808 211.592 638.974 212.434 638.923C213.276 638.872 214.002 638.571 214.613 638.019ZM216.569 634.154L210.096 631.942L209.233 634.468L215.677 636.671C215.786 636.475 215.888 636.267 215.985 636.047C216.088 635.807 216.182 635.564 216.266 635.318C216.337 635.11 216.392 634.918 216.431 634.741C216.496 634.552 216.542 634.356 216.569 634.154ZM213.267 629.158L211.28 628.478L210.62 630.409L216.61 632.456C216.489 631.696 216.153 631.042 215.6 630.494C215.048 629.946 214.27 629.5 213.267 629.158Z" fill="black"/>
<path d="M258.796 654.04L258.884 653.784L260.789 654.055L263.787 645.283L262.087 644.226L262.174 643.971L271.23 647.066C276.908 649.006 279.601 654.112 277.486 660.3C275.352 666.546 270.116 668.878 264.438 666.937L255.383 663.842L255.46 663.615L257.461 663.792L260.585 654.651L258.796 654.04ZM271.036 647.634L266.891 646.217L263.855 655.103L268.709 656.762L268.505 657.358L263.651 655.699L260.488 664.953L264.632 666.37C268.38 667.65 272.134 665.478 274.269 659.232C276.413 652.959 274.783 648.914 271.036 647.634Z" fill="black"/>
<path d="M316.625 684.773L318.161 674.804L316.06 674.086L316.681 672.269L318.47 672.881L320.003 663.291L322.274 664.067L320.627 673.618L322.983 674.423L327.725 665.93L330.337 666.823L328.945 676.461L331.273 677.256L335.759 668.676L338.001 669.443L333.402 677.984L335.133 678.576L334.512 680.393L332.469 679.694L327.724 688.567L325.169 687.693L326.677 677.715L324.037 676.813L319.151 685.636L316.625 684.773ZM318.95 682.144L322.022 676.124L320.319 675.542L318.95 682.144ZM327.399 685.158L330.396 678.986L328.665 678.394L327.399 685.158ZM324.971 675.102L326.958 675.782L328.119 669.045L324.971 675.102Z" fill="black"/>
<path d="M106.641 540.214L106.942 539.334L107.68 539.587C110.154 534.947 114.787 533.17 119.897 534.917C122.111 535.674 124.198 536.989 125.418 538.706L126.696 539.143L125.502 542.634L125.02 542.469C125.545 538.242 122.087 536.394 120.242 535.764C116.409 534.454 113.001 536.079 110.831 540.664L120.852 544.089L120.551 544.969L110.445 541.515C110.281 541.902 110.145 542.3 110.01 542.697C109.835 543.208 109.67 543.691 109.571 544.164L119.649 547.609L119.358 548.46L109.366 545.045C108.525 549.545 110.007 553.095 114.464 554.618C116.649 555.365 119.02 555.478 121.239 554.366L121.435 554.813C118.911 556.075 116.14 556.206 113.103 555.168C107.851 553.373 105.283 549.198 106.186 543.958L105.448 543.706L105.739 542.855L106.364 543.068C106.481 542.632 106.608 542.169 106.763 541.714C106.908 541.289 107.092 540.844 107.266 540.428L106.641 540.214Z" fill="black"/>
<path d="M169.029 572.295C167.137 571.648 165.846 570.478 165.156 568.784C164.474 567.071 164.572 564.928 165.452 562.354C166.357 559.704 167.601 557.921 169.183 557.003C170.784 556.092 172.521 555.956 174.394 556.597C175.189 556.868 175.844 557.208 176.36 557.617C176.901 558.013 177.331 558.456 177.65 558.946C177.968 559.435 178.208 559.94 178.369 560.46L178.539 560.518C178.585 560.259 178.67 559.886 178.794 559.4C178.924 558.895 179.041 558.491 179.145 558.188L179.737 556.457L173.69 554.39L174.33 552.517L180.377 554.583L181.241 552.057L183.739 552.911L182.875 555.437L185.033 556.174L184.392 558.048L182.235 557.311L176.365 574.485L174.321 573.787L174.651 571.617L174.537 571.578C174.085 571.91 173.581 572.181 173.022 572.392C172.471 572.584 171.866 572.683 171.208 572.691C170.55 572.699 169.824 572.567 169.029 572.295ZM170.163 570.368C171.753 570.912 173.018 570.858 173.959 570.207C174.919 569.563 175.7 568.361 176.301 566.601L176.466 566.118C177.12 564.207 177.302 562.652 177.014 561.455C176.726 560.257 175.74 559.371 174.055 558.795C172.711 558.336 171.531 558.513 170.512 559.328C169.494 560.142 168.675 561.458 168.054 563.275C167.433 565.092 167.282 566.615 167.602 567.844C167.928 569.055 168.782 569.896 170.163 570.368ZM175.808 579.177L163.09 574.831L163.711 573.014L176.429 577.36L175.808 579.177Z" fill="black"/>
<path d="M221.924 579.213L222.002 578.986L223.85 579.237L225.034 575.774C226.334 571.97 229.496 570.324 233.584 571.722C236.394 572.682 238.882 574.959 238.067 577.343C237.65 578.564 236.679 578.898 235.686 578.559C234.635 578.2 234.14 577.238 234.538 576.074L235.372 573.633C234.865 572.889 234.347 572.458 233.58 572.196C231.309 571.42 229.257 573.064 228.141 576.329L226.802 580.246L232.565 582.216L232.371 582.784L226.608 580.814C225.803 583.17 224.398 585.797 222.656 587.833C223.711 587.623 224.46 587.657 225.113 587.88C226.873 588.482 227.769 590.405 229.699 591.065C230.863 591.463 232.637 591.467 234.169 590.975L234.403 591.404C231.663 592.37 229.239 592.968 227.848 592.493C226.145 591.911 225.135 589.949 223.12 589.26C222.098 588.911 220.628 588.852 218.972 589.428L218.748 588.971C219.5 588.72 220.156 588.469 220.755 588.293L223.656 579.805L221.924 579.213Z" fill="black"/>
<path d="M283.944 611.782L283.291 611.558L283.738 610.253C279.444 608.531 278.256 604.955 279.654 600.867C281.099 596.638 284.34 594.67 288.657 595.86L289.113 594.526L289.766 594.749L289.319 596.055L289.348 596.064C292.329 597.083 294.901 599.389 294.086 601.774C293.669 602.994 292.699 603.328 291.705 602.989C290.655 602.63 290.188 601.678 290.585 600.514L291.42 598.072C290.743 597.27 290.082 596.791 289.259 596.51L289.174 596.481L284.701 609.567C285.022 609.741 285.41 609.905 285.808 610.041C287.482 610.613 289.039 610.511 290.563 609.764L290.759 610.211C288.892 611.126 286.851 611.348 284.381 610.504L283.944 611.782ZM282.742 601.384C281.568 604.819 281.917 607.601 284.106 609.174L288.502 596.314C286.028 595.944 283.936 597.892 282.742 601.384Z" fill="black"/>
<path d="M335.091 628.733L337.584 621.438L335.37 620.681L335.991 618.864L338.205 619.621L339.001 617.293L336.786 616.536L337.407 614.72L339.621 615.476L342.018 608.465L344.97 609.474L345.271 617.407L348.62 618.552L351.017 611.54L353.259 612.307L350.863 619.318L353.077 620.075L352.456 621.892L350.242 621.135L349.447 623.463L351.661 624.22L351.04 626.037L348.826 625.28L346.332 632.576L343.351 631.557L343.148 623.339L339.798 622.195L337.305 629.49L335.091 628.733ZM340.419 620.378L343.088 621.29L343.032 618.671L341.158 618.031L340.419 620.378ZM345.457 627.806L345.571 627.845L346.611 624.523L345.419 624.116L345.457 627.806ZM341.779 616.214L342.971 616.621L342.982 612.694L342.868 612.655L341.779 616.214ZM345.359 622.066L347.261 622.716L347.999 620.369L345.303 619.447L345.359 622.066Z" fill="black"/>
<path d="M143.875 450.072L143.45 449.926L140.612 443.852L141.031 443.646L144.038 447.464L149.316 432.021L150.196 432.322L144.918 447.765L149.632 446.586L149.838 447.005L143.875 450.072Z" fill="black"/>
<path d="M299.517 493.058L299.362 493.512L293.297 496.322L293.111 495.941L296.938 492.906L281.495 487.628L281.786 486.776L297.229 492.054L296.06 487.311L296.441 487.124L299.517 493.058Z" fill="black"/>
<path d="M195.885 451.108L196.311 451.253L199.149 457.328L198.73 457.533L195.723 453.716L190.445 469.159L189.565 468.858L194.843 453.415L190.129 454.594L189.923 454.175L195.885 451.108Z" fill="black"/>
<path d="M234.25 471.258L234.405 470.804L240.47 467.994L240.685 468.385L236.858 471.42L252.272 476.688L251.981 477.54L236.567 472.272L237.735 477.015L237.326 477.192L234.25 471.258Z" fill="black"/>
<path d="M336.86 504.235C335.658 501.256 334.15 498.807 332.361 496.991L332.642 496.167C335.168 495.826 337.851 494.841 340.634 493.192L342.28 493.755C340.664 495.422 339.232 496.644 337.984 497.327L346.813 500.345L339.526 521.664L337.511 520.975L344.108 501.671L337.295 499.343C337.864 500.647 338.249 502.49 338.506 504.798L336.86 504.235Z" fill="black"/>
<path d="M378.55 535.001L385.836 513.682L394.665 516.7C394.124 515.405 393.711 513.552 393.482 511.254L395.1 511.808C396.292 514.814 397.81 517.236 399.599 519.052L399.318 519.875C396.792 520.216 394.099 521.23 391.326 522.85L389.708 522.297C391.296 520.621 392.756 519.408 393.976 518.715L387.163 516.387L380.565 535.69L378.55 535.001Z" fill="black"/>
<defs>
<filter id="filter0_d_365_14" x="4.34814" y="0.808105" width="571.476" height="791.704" filterUnits="userSpaceOnUse" color-interpolation-filters="sRGB">
<feFlood flood-opacity="0" result="BackgroundImageFix"/>
<feColorMatrix in="SourceAlpha" type="matrix" values="0 0 0 0 0 0 0 0 0 0 0 0 0 0 0 0 0 0 127 0" result="hardAlpha"/>
<feOffset dy="4"/>
<feGaussianBlur stdDeviation="2"/>
<feComposite in2="hardAlpha" operator="out"/>
<feColorMatrix type="matrix" values="0 0 0 0 0 0 0 0 0 0 0 0 0 0 0 0 0 0 0.25 0"/>
<feBlend mode="normal" in2="BackgroundImageFix" result="effect1_dropShadow_365_14"/>
<feBlend mode="normal" in="SourceGraphic" in2="effect1_dropShadow_365_14" result="shape"/>
</filter>
<filter id="filter1_d_365_14" x="272.558" y="283.243" width="100.415" height="77.6172" filterUnits="userSpaceOnUse" color-interpolation-filters="sRGB">
<feFlood flood-opacity="0" result="BackgroundImageFix"/>
<feColorMatrix in="SourceAlpha" type="matrix" values="0 0 0 0 0 0 0 0 0 0 0 0 0 0 0 0 0 0 127 0" result="hardAlpha"/>
<feOffset dy="4"/>
<feGaussianBlur stdDeviation="2"/>
<feComposite in2="hardAlpha" operator="out"/>
<feColorMatrix type="matrix" values="0 0 0 0 0 0 0 0 0 0 0 0 0 0 0 0 0 0 0.25 0"/>
<feBlend mode="normal" in2="BackgroundImageFix" result="effect1_dropShadow_365_14"/>
<feBlend mode="normal" in="SourceGraphic" in2="effect1_dropShadow_365_14" result="shape"/>
</filter>
<filter id="filter2_d_365_14" x="377.76" y="304.321" width="53.9146" height="40.1831" filterUnits="userSpaceOnUse" color-interpolation-filters="sRGB">
<feFlood flood-opacity="0" result="BackgroundImageFix"/>
<feColorMatrix in="SourceAlpha" type="matrix" values="0 0 0 0 0 0 0 0 0 0 0 0 0 0 0 0 0 0 127 0" result="hardAlpha"/>
<feOffset dy="4"/>
<feGaussianBlur stdDeviation="2"/>
<feComposite in2="hardAlpha" operator="out"/>
<feColorMatrix type="matrix" values="0 0 0 0 0 0 0 0 0 0 0 0 0 0 0 0 0 0 0.25 0"/>
<feBlend mode="normal" in2="BackgroundImageFix" result="effect1_dropShadow_365_14"/>
<feBlend mode="normal" in="SourceGraphic" in2="effect1_dropShadow_365_14" result="shape"/>
</filter>
<filter id="filter3_d_365_14" x="232.161" y="250.609" width="47.3408" height="47.9502" filterUnits="userSpaceOnUse" color-interpolation-filters="sRGB">
<feFlood flood-opacity="0" result="BackgroundImageFix"/>
<feColorMatrix in="SourceAlpha" type="matrix" values="0 0 0 0 0 0 0 0 0 0 0 0 0 0 0 0 0 0 127 0" result="hardAlpha"/>
<feOffset dy="4"/>
<feGaussianBlur stdDeviation="2"/>
<feComposite in2="hardAlpha" operator="out"/>
<feColorMatrix type="matrix" values="0 0 0 0 0 0 0 0 0 0 0 0 0 0 0 0 0 0 0.25 0"/>
<feBlend mode="normal" in2="BackgroundImageFix" result="effect1_dropShadow_365_14"/>
<feBlend mode="normal" in="SourceGraphic" in2="effect1_dropShadow_365_14" result="shape"/>
</filter>
<filter id="filter4_d_365_14" x="431.007" y="320.284" width="50.7798" height="37.5684" filterUnits="userSpaceOnUse" color-interpolation-filters="sRGB">
<feFlood flood-opacity="0" result="BackgroundImageFix"/>
<feColorMatrix in="SourceAlpha" type="matrix" values="0 0 0 0 0 0 0 0 0 0 0 0 0 0 0 0 0 0 127 0" result="hardAlpha"/>
<feOffset dy="4"/>
<feGaussianBlur stdDeviation="2"/>
<feComposite in2="hardAlpha" operator="out"/>
<feColorMatrix type="matrix" values="0 0 0 0 0 0 0 0 0 0 0 0 0 0 0 0 0 0 0.25 0"/>
<feBlend mode="normal" in2="BackgroundImageFix" result="effect1_dropShadow_365_14"/>
<feBlend mode="normal" in="SourceGraphic" in2="effect1_dropShadow_365_14" result="shape"/>
</filter>
<filter id="filter5_d_365_14" x="183.816" y="231.69" width="45.5356" height="43.9971" filterUnits="userSpaceOnUse" color-interpolation-filters="sRGB">
<feFlood flood-opacity="0" result="BackgroundImageFix"/>
<feColorMatrix in="SourceAlpha" type="matrix" values="0 0 0 0 0 0 0 0 0 0 0 0 0 0 0 0 0 0 127 0" result="hardAlpha"/>
<feOffset dy="4"/>
<feGaussianBlur stdDeviation="2"/>
<feComposite in2="hardAlpha" operator="out"/>
<feColorMatrix type="matrix" values="0 0 0 0 0 0 0 0 0 0 0 0 0 0 0 0 0 0 0.25 0"/>
<feBlend mode="normal" in2="BackgroundImageFix" result="effect1_dropShadow_365_14"/>
<feBlend mode="normal" in="SourceGraphic" in2="effect1_dropShadow_365_14" result="shape"/>
</filter>
<filter id="filter6_d_365_14" x="161.105" y="291.789" width="59.3374" height="50.6177" filterUnits="userSpaceOnUse" color-interpolation-filters="sRGB">
<feFlood flood-opacity="0" result="BackgroundImageFix"/>
<feColorMatrix in="SourceAlpha" type="matrix" values="0 0 0 0 0 0 0 0 0 0 0 0 0 0 0 0 0 0 127 0" result="hardAlpha"/>
<feOffset dy="4"/>
<feGaussianBlur stdDeviation="2"/>
<feComposite in2="hardAlpha" operator="out"/>
<feColorMatrix type="matrix" values="0 0 0 0 0 0 0 0 0 0 0 0 0 0 0 0 0 0 0.25 0"/>
<feBlend mode="normal" in2="BackgroundImageFix" result="effect1_dropShadow_365_14"/>
<feBlend mode="normal" in="SourceGraphic" in2="effect1_dropShadow_365_14" result="shape"/>
</filter>
<filter id="filter7_d_365_14" x="209.364" y="308.283" width="59.3374" height="50.6177" filterUnits="userSpaceOnUse" color-interpolation-filters="sRGB">
<feFlood flood-opacity="0" result="BackgroundImageFix"/>
<feColorMatrix in="SourceAlpha" type="matrix" values="0 0 0 0 0 0 0 0 0 0 0 0 0 0 0 0 0 0 127 0" result="hardAlpha"/>
<feOffset dy="4"/>
<feGaussianBlur stdDeviation="2"/>
<feComposite in2="hardAlpha" operator="out"/>
<feColorMatrix type="matrix" values="0 0 0 0 0 0 0 0 0 0 0 0 0 0 0 0 0 0 0.25 0"/>
<feBlend mode="normal" in2="BackgroundImageFix" result="effect1_dropShadow_365_14"/>
<feBlend mode="normal" in="SourceGraphic" in2="effect1_dropShadow_365_14" result="shape"/>
</filter>
<filter id="filter8_d_365_14" x="146.552" y="334.371" width="59.3374" height="50.6177" filterUnits="userSpaceOnUse" color-interpolation-filters="sRGB">
<feFlood flood-opacity="0" result="BackgroundImageFix"/>
<feColorMatrix in="SourceAlpha" type="matrix" values="0 0 0 0 0 0 0 0 0 0 0 0 0 0 0 0 0 0 127 0" result="hardAlpha"/>
<feOffset dy="4"/>
<feGaussianBlur stdDeviation="2"/>
<feComposite in2="hardAlpha" operator="out"/>
<feColorMatrix type="matrix" values="0 0 0 0 0 0 0 0 0 0 0 0 0 0 0 0 0 0 0.25 0"/>
<feBlend mode="normal" in2="BackgroundImageFix" result="effect1_dropShadow_365_14"/>
<feBlend mode="normal" in="SourceGraphic" in2="effect1_dropShadow_365_14" result="shape"/>
</filter>
<filter id="filter9_d_365_14" x="194.811" y="350.865" width="59.3374" height="50.6177" filterUnits="userSpaceOnUse" color-interpolation-filters="sRGB">
<feFlood flood-opacity="0" result="BackgroundImageFix"/>
<feColorMatrix in="SourceAlpha" type="matrix" values="0 0 0 0 0 0 0 0 0 0 0 0 0 0 0 0 0 0 127 0" result="hardAlpha"/>
<feOffset dy="4"/>
<feGaussianBlur stdDeviation="2"/>
<feComposite in2="hardAlpha" operator="out"/>
<feColorMatrix type="matrix" values="0 0 0 0 0 0 0 0 0 0 0 0 0 0 0 0 0 0 0.25 0"/>
<feBlend mode="normal" in2="BackgroundImageFix" result="effect1_dropShadow_365_14"/>
<feBlend mode="normal" in="SourceGraphic" in2="effect1_dropShadow_365_14" result="shape"/>
</filter>
<filter id="filter10_d_365_14" x="243.07" y="367.358" width="59.3374" height="50.6177" filterUnits="userSpaceOnUse" color-interpolation-filters="sRGB">
<feFlood flood-opacity="0" result="BackgroundImageFix"/>
<feColorMatrix in="SourceAlpha" type="matrix" values="0 0 0 0 0 0 0 0 0 0 0 0 0 0 0 0 0 0 127 0" result="hardAlpha"/>
<feOffset dy="4"/>
<feGaussianBlur stdDeviation="2"/>
<feComposite in2="hardAlpha" operator="out"/>
<feColorMatrix type="matrix" values="0 0 0 0 0 0 0 0 0 0 0 0 0 0 0 0 0 0 0.25 0"/>
<feBlend mode="normal" in2="BackgroundImageFix" result="effect1_dropShadow_365_14"/>
<feBlend mode="normal" in="SourceGraphic" in2="effect1_dropShadow_365_14" result="shape"/>
</filter>
<filter id="filter11_d_365_14" x="291.33" y="383.853" width="59.3374" height="50.6177" filterUnits="userSpaceOnUse" color-interpolation-filters="sRGB">
<feFlood flood-opacity="0" result="BackgroundImageFix"/>
<feColorMatrix in="SourceAlpha" type="matrix" values="0 0 0 0 0 0 0 0 0 0 0 0 0 0 0 0 0 0 127 0" result="hardAlpha"/>
<feOffset dy="4"/>
<feGaussianBlur stdDeviation="2"/>
<feComposite in2="hardAlpha" operator="out"/>
<feColorMatrix type="matrix" values="0 0 0 0 0 0 0 0 0 0 0 0 0 0 0 0 0 0 0.25 0"/>
<feBlend mode="normal" in2="BackgroundImageFix" result="effect1_dropShadow_365_14"/>
<feBlend mode="normal" in="SourceGraphic" in2="effect1_dropShadow_365_14" result="shape"/>
</filter>
<filter id="filter12_d_365_14" x="339.589" y="400.346" width="59.3374" height="50.6177" filterUnits="userSpaceOnUse" color-interpolation-filters="sRGB">
<feFlood flood-opacity="0" result="BackgroundImageFix"/>
<feColorMatrix in="SourceAlpha" type="matrix" values="0 0 0 0 0 0 0 0 0 0 0 0 0 0 0 0 0 0 127 0" result="hardAlpha"/>
<feOffset dy="4"/>
<feGaussianBlur stdDeviation="2"/>
<feComposite in2="hardAlpha" operator="out"/>
<feColorMatrix type="matrix" values="0 0 0 0 0 0 0 0 0 0 0 0 0 0 0 0 0 0 0.25 0"/>
<feBlend mode="normal" in2="BackgroundImageFix" result="effect1_dropShadow_365_14"/>
<feBlend mode="normal" in="SourceGraphic" in2="effect1_dropShadow_365_14" result="shape"/>
</filter>
<filter id="filter13_d_365_14" x="387.848" y="416.84" width="59.3374" height="50.6177" filterUnits="userSpaceOnUse" color-interpolation-filters="sRGB">
<feFlood flood-opacity="0" result="BackgroundImageFix"/>
<feColorMatrix in="SourceAlpha" type="matrix" values="0 0 0 0 0 0 0 0 0 0 0 0 0 0 0 0 0 0 127 0" result="hardAlpha"/>
<feOffset dy="4"/>
<feGaussianBlur stdDeviation="2"/>
<feComposite in2="hardAlpha" operator="out"/>
<feColorMatrix type="matrix" values="0 0 0 0 0 0 0 0 0 0 0 0 0 0 0 0 0 0 0.25 0"/>
<feBlend mode="normal" in2="BackgroundImageFix" result="effect1_dropShadow_365_14"/>
<feBlend mode="normal" in="SourceGraphic" in2="effect1_dropShadow_365_14" result="shape"/>
</filter>
<filter id="filter14_d_365_14" x="355.088" y="358.088" width="59.3374" height="50.6177" filterUnits="userSpaceOnUse" color-interpolation-filters="sRGB">
<feFlood flood-opacity="0" result="BackgroundImageFix"/>
<feColorMatrix in="SourceAlpha" type="matrix" values="0 0 0 0 0 0 0 0 0 0 0 0 0 0 0 0 0 0 127 0" result="hardAlpha"/>
<feOffset dy="4"/>
<feGaussianBlur stdDeviation="2"/>
<feComposite in2="hardAlpha" operator="out"/>
<feColorMatrix type="matrix" values="0 0 0 0 0 0 0 0 0 0 0 0 0 0 0 0 0 0 0.25 0"/>
<feBlend mode="normal" in2="BackgroundImageFix" result="effect1_dropShadow_365_14"/>
<feBlend mode="normal" in="SourceGraphic" in2="effect1_dropShadow_365_14" result="shape"/>
</filter>
<filter id="filter15_d_365_14" x="403.348" y="374.582" width="59.3374" height="50.6177" filterUnits="userSpaceOnUse" color-interpolation-filters="sRGB">
<feFlood flood-opacity="0" result="BackgroundImageFix"/>
<feColorMatrix in="SourceAlpha" type="matrix" values="0 0 0 0 0 0 0 0 0 0 0 0 0 0 0 0 0 0 127 0" result="hardAlpha"/>
<feOffset dy="4"/>
<feGaussianBlur stdDeviation="2"/>
<feComposite in2="hardAlpha" operator="out"/>
<feColorMatrix type="matrix" values="0 0 0 0 0 0 0 0 0 0 0 0 0 0 0 0 0 0 0.25 0"/>
<feBlend mode="normal" in2="BackgroundImageFix" result="effect1_dropShadow_365_14"/>
<feBlend mode="normal" in="SourceGraphic" in2="effect1_dropShadow_365_14" result="shape"/>
</filter>
<filter id="filter16_d_365_14" x="131.999" y="376.953" width="59.3374" height="50.6177" filterUnits="userSpaceOnUse" color-interpolation-filters="sRGB">
<feFlood flood-opacity="0" result="BackgroundImageFix"/>
<feColorMatrix in="SourceAlpha" type="matrix" values="0 0 0 0 0 0 0 0 0 0 0 0 0 0 0 0 0 0 127 0" result="hardAlpha"/>
<feOffset dy="4"/>
<feGaussianBlur stdDeviation="2"/>
<feComposite in2="hardAlpha" operator="out"/>
<feColorMatrix type="matrix" values="0 0 0 0 0 0 0 0 0 0 0 0 0 0 0 0 0 0 0.25 0"/>
<feBlend mode="normal" in2="BackgroundImageFix" result="effect1_dropShadow_365_14"/>
<feBlend mode="normal" in="SourceGraphic" in2="effect1_dropShadow_365_14" result="shape"/>
</filter>
<filter id="filter17_d_365_14" x="180.258" y="393.446" width="59.3374" height="50.6177" filterUnits="userSpaceOnUse" color-interpolation-filters="sRGB">
<feFlood flood-opacity="0" result="BackgroundImageFix"/>
<feColorMatrix in="SourceAlpha" type="matrix" values="0 0 0 0 0 0 0 0 0 0 0 0 0 0 0 0 0 0 127 0" result="hardAlpha"/>
<feOffset dy="4"/>
<feGaussianBlur stdDeviation="2"/>
<feComposite in2="hardAlpha" operator="out"/>
<feColorMatrix type="matrix" values="0 0 0 0 0 0 0 0 0 0 0 0 0 0 0 0 0 0 0.25 0"/>
<feBlend mode="normal" in2="BackgroundImageFix" result="effect1_dropShadow_365_14"/>
<feBlend mode="normal" in="SourceGraphic" in2="effect1_dropShadow_365_14" result="shape"/>
</filter>
<filter id="filter18_d_365_14" x="276.776" y="426.434" width="59.3374" height="50.6177" filterUnits="userSpaceOnUse" color-interpolation-filters="sRGB">
<feFlood flood-opacity="0" result="BackgroundImageFix"/>
<feColorMatrix in="SourceAlpha" type="matrix" values="0 0 0 0 0 0 0 0 0 0 0 0 0 0 0 0 0 0 127 0" result="hardAlpha"/>
<feOffset dy="4"/>
<feGaussianBlur stdDeviation="2"/>
<feComposite in2="hardAlpha" operator="out"/>
<feColorMatrix type="matrix" values="0 0 0 0 0 0 0 0 0 0 0 0 0 0 0 0 0 0 0.25 0"/>
<feBlend mode="normal" in2="BackgroundImageFix" result="effect1_dropShadow_365_14"/>
<feBlend mode="normal" in="SourceGraphic" in2="effect1_dropShadow_365_14" result="shape"/>
</filter>
<filter id="filter19_d_365_14" x="325.036" y="442.928" width="59.3374" height="50.6177" filterUnits="userSpaceOnUse" color-interpolation-filters="sRGB">
<feFlood flood-opacity="0" result="BackgroundImageFix"/>
<feColorMatrix in="SourceAlpha" type="matrix" values="0 0 0 0 0 0 0 0 0 0 0 0 0 0 0 0 0 0 127 0" result="hardAlpha"/>
<feOffset dy="4"/>
<feGaussianBlur stdDeviation="2"/>
<feComposite in2="hardAlpha" operator="out"/>
<feColorMatrix type="matrix" values="0 0 0 0 0 0 0 0 0 0 0 0 0 0 0 0 0 0 0.25 0"/>
<feBlend mode="normal" in2="BackgroundImageFix" result="effect1_dropShadow_365_14"/>
<feBlend mode="normal" in="SourceGraphic" in2="effect1_dropShadow_365_14" result="shape"/>
</filter>
<filter id="filter20_d_365_14" x="373.294" y="459.422" width="59.3374" height="50.6177" filterUnits="userSpaceOnUse" color-interpolation-filters="sRGB">
<feFlood flood-opacity="0" result="BackgroundImageFix"/>
<feColorMatrix in="SourceAlpha" type="matrix" values="0 0 0 0 0 0 0 0 0 0 0 0 0 0 0 0 0 0 127 0" result="hardAlpha"/>
<feOffset dy="4"/>
<feGaussianBlur stdDeviation="2"/>
<feComposite in2="hardAlpha" operator="out"/>
<feColorMatrix type="matrix" values="0 0 0 0 0 0 0 0 0 0 0 0 0 0 0 0 0 0 0.25 0"/>
<feBlend mode="normal" in2="BackgroundImageFix" result="effect1_dropShadow_365_14"/>
<feBlend mode="normal" in="SourceGraphic" in2="effect1_dropShadow_365_14" result="shape"/>
</filter>
<filter id="filter21_d_365_14" x="117.445" y="419.534" width="59.3374" height="50.6177" filterUnits="userSpaceOnUse" color-interpolation-filters="sRGB">
<feFlood flood-opacity="0" result="BackgroundImageFix"/>
<feColorMatrix in="SourceAlpha" type="matrix" values="0 0 0 0 0 0 0 0 0 0 0 0 0 0 0 0 0 0 127 0" result="hardAlpha"/>
<feOffset dy="4"/>
<feGaussianBlur stdDeviation="2"/>
<feComposite in2="hardAlpha" operator="out"/>
<feColorMatrix type="matrix" values="0 0 0 0 0 0 0 0 0 0 0 0 0 0 0 0 0 0 0.25 0"/>
<feBlend mode="normal" in2="BackgroundImageFix" result="effect1_dropShadow_365_14"/>
<feBlend mode="normal" in="SourceGraphic" in2="effect1_dropShadow_365_14" result="shape"/>
</filter>
<filter id="filter22_d_365_14" x="165.705" y="436.028" width="59.3374" height="50.6177" filterUnits="userSpaceOnUse" color-interpolation-filters="sRGB">
<feFlood flood-opacity="0" result="BackgroundImageFix"/>
<feColorMatrix in="SourceAlpha" type="matrix" values="0 0 0 0 0 0 0 0 0 0 0 0 0 0 0 0 0 0 127 0" result="hardAlpha"/>
<feOffset dy="4"/>
<feGaussianBlur stdDeviation="2"/>
<feComposite in2="hardAlpha" operator="out"/>
<feColorMatrix type="matrix" values="0 0 0 0 0 0 0 0 0 0 0 0 0 0 0 0 0 0 0.25 0"/>
<feBlend mode="normal" in2="BackgroundImageFix" result="effect1_dropShadow_365_14"/>
<feBlend mode="normal" in="SourceGraphic" in2="effect1_dropShadow_365_14" result="shape"/>
</filter>
<filter id="filter23_d_365_14" x="213.963" y="452.522" width="59.3374" height="50.6177" filterUnits="userSpaceOnUse" color-interpolation-filters="sRGB">
<feFlood flood-opacity="0" result="BackgroundImageFix"/>
<feColorMatrix in="SourceAlpha" type="matrix" values="0 0 0 0 0 0 0 0 0 0 0 0 0 0 0 0 0 0 127 0" result="hardAlpha"/>
<feOffset dy="4"/>
<feGaussianBlur stdDeviation="2"/>
<feComposite in2="hardAlpha" operator="out"/>
<feColorMatrix type="matrix" values="0 0 0 0 0 0 0 0 0 0 0 0 0 0 0 0 0 0 0.25 0"/>
<feBlend mode="normal" in2="BackgroundImageFix" result="effect1_dropShadow_365_14"/>
<feBlend mode="normal" in="SourceGraphic" in2="effect1_dropShadow_365_14" result="shape"/>
</filter>
<filter id="filter24_d_365_14" x="262.223" y="469.016" width="59.3374" height="50.6177" filterUnits="userSpaceOnUse" color-interpolation-filters="sRGB">
<feFlood flood-opacity="0" result="BackgroundImageFix"/>
<feColorMatrix in="SourceAlpha" type="matrix" values="0 0 0 0 0 0 0 0 0 0 0 0 0 0 0 0 0 0 127 0" result="hardAlpha"/>
<feOffset dy="4"/>
<feGaussianBlur stdDeviation="2"/>
<feComposite in2="hardAlpha" operator="out"/>
<feColorMatrix type="matrix" values="0 0 0 0 0 0 0 0 0 0 0 0 0 0 0 0 0 0 0.25 0"/>
<feBlend mode="normal" in2="BackgroundImageFix" result="effect1_dropShadow_365_14"/>
<feBlend mode="normal" in="SourceGraphic" in2="effect1_dropShadow_365_14" result="shape"/>
</filter>
<filter id="filter25_d_365_14" x="314.519" y="482.096" width="50.6177" height="59.3374" filterUnits="userSpaceOnUse" color-interpolation-filters="sRGB">
<feFlood flood-opacity="0" result="BackgroundImageFix"/>
<feColorMatrix in="SourceAlpha" type="matrix" values="0 0 0 0 0 0 0 0 0 0 0 0 0 0 0 0 0 0 127 0" result="hardAlpha"/>
<feOffset dy="4"/>
<feGaussianBlur stdDeviation="2"/>
<feComposite in2="hardAlpha" operator="out"/>
<feColorMatrix type="matrix" values="0 0 0 0 0 0 0 0 0 0 0 0 0 0 0 0 0 0 0.25 0"/>
<feBlend mode="normal" in2="BackgroundImageFix" result="effect1_dropShadow_365_14"/>
<feBlend mode="normal" in="SourceGraphic" in2="effect1_dropShadow_365_14" result="shape"/>
</filter>
<filter id="filter26_d_365_14" x="362.778" y="498.59" width="50.6177" height="59.3374" filterUnits="userSpaceOnUse" color-interpolation-filters="sRGB">
<feFlood flood-opacity="0" result="BackgroundImageFix"/>
<feColorMatrix in="SourceAlpha" type="matrix" values="0 0 0 0 0 0 0 0 0 0 0 0 0 0 0 0 0 0 127 0" result="hardAlpha"/>
<feOffset dy="4"/>
<feGaussianBlur stdDeviation="2"/>
<feComposite in2="hardAlpha" operator="out"/>
<feColorMatrix type="matrix" values="0 0 0 0 0 0 0 0 0 0 0 0 0 0 0 0 0 0 0.25 0"/>
<feBlend mode="normal" in2="BackgroundImageFix" result="effect1_dropShadow_365_14"/>
<feBlend mode="normal" in="SourceGraphic" in2="effect1_dropShadow_365_14" result="shape"/>
</filter>
<filter id="filter27_d_365_14" x="330.992" y="543.243" width="75.6724" height="64.1777" filterUnits="userSpaceOnUse" color-interpolation-filters="sRGB">
<feFlood flood-opacity="0" result="BackgroundImageFix"/>
<feColorMatrix in="SourceAlpha" type="matrix" values="0 0 0 0 0 0 0 0 0 0 0 0 0 0 0 0 0 0 127 0" result="hardAlpha"/>
<feOffset dy="4"/>
<feGaussianBlur stdDeviation="2"/>
<feComposite in2="hardAlpha" operator="out"/>
<feColorMatrix type="matrix" values="0 0 0 0 0 0 0 0 0 0 0 0 0 0 0 0 0 0 0.25 0"/>
<feBlend mode="normal" in2="BackgroundImageFix" result="effect1_dropShadow_365_14"/>
<feBlend mode="normal" in="SourceGraphic" in2="effect1_dropShadow_365_14" result="shape"/>
</filter>
<filter id="filter28_d_365_14" x="270.431" y="522.545" width="75.6724" height="64.1777" filterUnits="userSpaceOnUse" color-interpolation-filters="sRGB">
<feFlood flood-opacity="0" result="BackgroundImageFix"/>
<feColorMatrix in="SourceAlpha" type="matrix" values="0 0 0 0 0 0 0 0 0 0 0 0 0 0 0 0 0 0 127 0" result="hardAlpha"/>
<feOffset dy="4"/>
<feGaussianBlur stdDeviation="2"/>
<feComposite in2="hardAlpha" operator="out"/>
<feColorMatrix type="matrix" values="0 0 0 0 0 0 0 0 0 0 0 0 0 0 0 0 0 0 0.25 0"/>
<feBlend mode="normal" in2="BackgroundImageFix" result="effect1_dropShadow_365_14"/>
<feBlend mode="normal" in="SourceGraphic" in2="effect1_dropShadow_365_14" result="shape"/>
</filter>
<filter id="filter29_d_365_14" x="104.75" y="467.806" width="65.6367" height="54.686" filterUnits="userSpaceOnUse" color-interpolation-filters="sRGB">
<feFlood flood-opacity="0" result="BackgroundImageFix"/>
<feColorMatrix in="SourceAlpha" type="matrix" values="0 0 0 0 0 0 0 0 0 0 0 0 0 0 0 0 0 0 127 0" result="hardAlpha"/>
<feOffset dy="4"/>
<feGaussianBlur stdDeviation="2"/>
<feComposite in2="hardAlpha" operator="out"/>
<feColorMatrix type="matrix" values="0 0 0 0 0 0 0 0 0 0 0 0 0 0 0 0 0 0 0.25 0"/>
<feBlend mode="normal" in2="BackgroundImageFix" result="effect1_dropShadow_365_14"/>
<feBlend mode="normal" in="SourceGraphic" in2="effect1_dropShadow_365_14" result="shape"/>
</filter>
<filter id="filter30_d_365_14" x="160.579" y="486.887" width="65.6367" height="54.686" filterUnits="userSpaceOnUse" color-interpolation-filters="sRGB">
<feFlood flood-opacity="0" result="BackgroundImageFix"/>
<feColorMatrix in="SourceAlpha" type="matrix" values="0 0 0 0 0 0 0 0 0 0 0 0 0 0 0 0 0 0 127 0" result="hardAlpha"/>
<feOffset dy="4"/>
<feGaussianBlur stdDeviation="2"/>
<feComposite in2="hardAlpha" operator="out"/>
<feColorMatrix type="matrix" values="0 0 0 0 0 0 0 0 0 0 0 0 0 0 0 0 0 0 0.25 0"/>
<feBlend mode="normal" in2="BackgroundImageFix" result="effect1_dropShadow_365_14"/>
<feBlend mode="normal" in="SourceGraphic" in2="effect1_dropShadow_365_14" result="shape"/>
</filter>
<filter id="filter31_d_365_14" x="216.408" y="505.968" width="65.6367" height="54.686" filterUnits="userSpaceOnUse" color-interpolation-filters="sRGB">
<feFlood flood-opacity="0" result="BackgroundImageFix"/>
<feColorMatrix in="SourceAlpha" type="matrix" values="0 0 0 0 0 0 0 0 0 0 0 0 0 0 0 0 0 0 127 0" result="hardAlpha"/>
<feOffset dy="4"/>
<feGaussianBlur stdDeviation="2"/>
<feComposite in2="hardAlpha" operator="out"/>
<feColorMatrix type="matrix" values="0 0 0 0 0 0 0 0 0 0 0 0 0 0 0 0 0 0 0.25 0"/>
<feBlend mode="normal" in2="BackgroundImageFix" result="effect1_dropShadow_365_14"/>
<feBlend mode="normal" in="SourceGraphic" in2="effect1_dropShadow_365_14" result="shape"/>
</filter>
<filter id="filter32_d_365_14" x="84.7461" y="520.149" width="65.6367" height="54.686" filterUnits="userSpaceOnUse" color-interpolation-filters="sRGB">
<feFlood flood-opacity="0" result="BackgroundImageFix"/>
<feColorMatrix in="SourceAlpha" type="matrix" values="0 0 0 0 0 0 0 0 0 0 0 0 0 0 0 0 0 0 127 0" result="hardAlpha"/>
<feOffset dy="4"/>
<feGaussianBlur stdDeviation="2"/>
<feComposite in2="hardAlpha" operator="out"/>
<feColorMatrix type="matrix" values="0 0 0 0 0 0 0 0 0 0 0 0 0 0 0 0 0 0 0.25 0"/>
<feBlend mode="normal" in2="BackgroundImageFix" result="effect1_dropShadow_365_14"/>
<feBlend mode="normal" in="SourceGraphic" in2="effect1_dropShadow_365_14" result="shape"/>
</filter>
<filter id="filter33_d_365_14" x="142.468" y="539.877" width="65.6367" height="54.686" filterUnits="userSpaceOnUse" color-interpolation-filters="sRGB">
<feFlood flood-opacity="0" result="BackgroundImageFix"/>
<feColorMatrix in="SourceAlpha" type="matrix" values="0 0 0 0 0 0 0 0 0 0 0 0 0 0 0 0 0 0 127 0" result="hardAlpha"/>
<feOffset dy="4"/>
<feGaussianBlur stdDeviation="2"/>
<feComposite in2="hardAlpha" operator="out"/>
<feColorMatrix type="matrix" values="0 0 0 0 0 0 0 0 0 0 0 0 0 0 0 0 0 0 0.25 0"/>
<feBlend mode="normal" in2="BackgroundImageFix" result="effect1_dropShadow_365_14"/>
<feBlend mode="normal" in="SourceGraphic" in2="effect1_dropShadow_365_14" result="shape"/>
</filter>
<filter id="filter34_d_365_14" x="198.297" y="558.958" width="65.6367" height="54.686" filterUnits="userSpaceOnUse" color-interpolation-filters="sRGB">
<feFlood flood-opacity="0" result="BackgroundImageFix"/>
<feColorMatrix in="SourceAlpha" type="matrix" values="0 0 0 0 0 0 0 0 0 0 0 0 0 0 0 0 0 0 127 0" result="hardAlpha"/>
<feOffset dy="4"/>
<feGaussianBlur stdDeviation="2"/>
<feComposite in2="hardAlpha" operator="out"/>
<feColorMatrix type="matrix" values="0 0 0 0 0 0 0 0 0 0 0 0 0 0 0 0 0 0 0.25 0"/>
<feBlend mode="normal" in2="BackgroundImageFix" result="effect1_dropShadow_365_14"/>
<feBlend mode="normal" in="SourceGraphic" in2="effect1_dropShadow_365_14" result="shape"/>
</filter>
<filter id="filter35_d_365_14" x="256.02" y="578.686" width="65.6367" height="54.686" filterUnits="userSpaceOnUse" color-interpolation-filters="sRGB">
<feFlood flood-opacity="0" result="BackgroundImageFix"/>
<feColorMatrix in="SourceAlpha" type="matrix" values="0 0 0 0 0 0 0 0 0 0 0 0 0 0 0 0 0 0 127 0" result="hardAlpha"/>
<feOffset dy="4"/>
<feGaussianBlur stdDeviation="2"/>
<feComposite in2="hardAlpha" operator="out"/>
<feColorMatrix type="matrix" values="0 0 0 0 0 0 0 0 0 0 0 0 0 0 0 0 0 0 0.25 0"/>
<feBlend mode="normal" in2="BackgroundImageFix" result="effect1_dropShadow_365_14"/>
<feBlend mode="normal" in="SourceGraphic" in2="effect1_dropShadow_365_14" result="shape"/>
</filter>
<filter id="filter36_d_365_14" x="313.741" y="598.414" width="65.6367" height="54.686" filterUnits="userSpaceOnUse" color-interpolation-filters="sRGB">
<feFlood flood-opacity="0" result="BackgroundImageFix"/>
<feColorMatrix in="SourceAlpha" type="matrix" values="0 0 0 0 0 0 0 0 0 0 0 0 0 0 0 0 0 0 127 0" result="hardAlpha"/>
<feOffset dy="4"/>
<feGaussianBlur stdDeviation="2"/>
<feComposite in2="hardAlpha" operator="out"/>
<feColorMatrix type="matrix" values="0 0 0 0 0 0 0 0 0 0 0 0 0 0 0 0 0 0 0.25 0"/>
<feBlend mode="normal" in2="BackgroundImageFix" result="effect1_dropShadow_365_14"/>
<feBlend mode="normal" in="SourceGraphic" in2="effect1_dropShadow_365_14" result="shape"/>
</filter>
<filter id="filter37_d_365_14" x="294.983" y="653.297" width="65.6367" height="54.686" filterUnits="userSpaceOnUse" color-interpolation-filters="sRGB">
<feFlood flood-opacity="0" result="BackgroundImageFix"/>
<feColorMatrix in="SourceAlpha" type="matrix" values="0 0 0 0 0 0 0 0 0 0 0 0 0 0 0 0 0 0 127 0" result="hardAlpha"/>
<feOffset dy="4"/>
<feGaussianBlur stdDeviation="2"/>
<feComposite in2="hardAlpha" operator="out"/>
<feColorMatrix type="matrix" values="0 0 0 0 0 0 0 0 0 0 0 0 0 0 0 0 0 0 0.25 0"/>
<feBlend mode="normal" in2="BackgroundImageFix" result="effect1_dropShadow_365_14"/>
<feBlend mode="normal" in="SourceGraphic" in2="effect1_dropShadow_365_14" result="shape"/>
</filter>
<filter id="filter38_d_365_14" x="237.262" y="633.569" width="65.6367" height="54.686" filterUnits="userSpaceOnUse" color-interpolation-filters="sRGB">
<feFlood flood-opacity="0" result="BackgroundImageFix"/>
<feColorMatrix in="SourceAlpha" type="matrix" values="0 0 0 0 0 0 0 0 0 0 0 0 0 0 0 0 0 0 127 0" result="hardAlpha"/>
<feOffset dy="4"/>
<feGaussianBlur stdDeviation="2"/>
<feComposite in2="hardAlpha" operator="out"/>
<feColorMatrix type="matrix" values="0 0 0 0 0 0 0 0 0 0 0 0 0 0 0 0 0 0 0.25 0"/>
<feBlend mode="normal" in2="BackgroundImageFix" result="effect1_dropShadow_365_14"/>
<feBlend mode="normal" in="SourceGraphic" in2="effect1_dropShadow_365_14" result="shape"/>
</filter>
<filter id="filter39_d_365_14" x="179.54" y="613.841" width="65.6367" height="54.686" filterUnits="userSpaceOnUse" color-interpolation-filters="sRGB">
<feFlood flood-opacity="0" result="BackgroundImageFix"/>
<feColorMatrix in="SourceAlpha" type="matrix" values="0 0 0 0 0 0 0 0 0 0 0 0 0 0 0 0 0 0 127 0" result="hardAlpha"/>
<feOffset dy="4"/>
<feGaussianBlur stdDeviation="2"/>
<feComposite in2="hardAlpha" operator="out"/>
<feColorMatrix type="matrix" values="0 0 0 0 0 0 0 0 0 0 0 0 0 0 0 0 0 0 0.25 0"/>
<feBlend mode="normal" in2="BackgroundImageFix" result="effect1_dropShadow_365_14"/>
<feBlend mode="normal" in="SourceGraphic" in2="effect1_dropShadow_365_14" result="shape"/>
</filter>
<filter id="filter40_d_365_14" x="123.71" y="594.76" width="65.6367" height="54.686" filterUnits="userSpaceOnUse" color-interpolation-filters="sRGB">
<feFlood flood-opacity="0" result="BackgroundImageFix"/>
<feColorMatrix in="SourceAlpha" type="matrix" values="0 0 0 0 0 0 0 0 0 0 0 0 0 0 0 0 0 0 127 0" result="hardAlpha"/>
<feOffset dy="4"/>
<feGaussianBlur stdDeviation="2"/>
<feComposite in2="hardAlpha" operator="out"/>
<feColorMatrix type="matrix" values="0 0 0 0 0 0 0 0 0 0 0 0 0 0 0 0 0 0 0.25 0"/>
<feBlend mode="normal" in2="BackgroundImageFix" result="effect1_dropShadow_365_14"/>
<feBlend mode="normal" in="SourceGraphic" in2="effect1_dropShadow_365_14" result="shape"/>
</filter>
<filter id="filter41_d_365_14" x="65.9888" y="575.033" width="65.6367" height="54.686" filterUnits="userSpaceOnUse" color-interpolation-filters="sRGB">
<feFlood flood-opacity="0" result="BackgroundImageFix"/>
<feColorMatrix in="SourceAlpha" type="matrix" values="0 0 0 0 0 0 0 0 0 0 0 0 0 0 0 0 0 0 127 0" result="hardAlpha"/>
<feOffset dy="4"/>
<feGaussianBlur stdDeviation="2"/>
<feComposite in2="hardAlpha" operator="out"/>
<feColorMatrix type="matrix" values="0 0 0 0 0 0 0 0 0 0 0 0 0 0 0 0 0 0 0.25 0"/>
<feBlend mode="normal" in2="BackgroundImageFix" result="effect1_dropShadow_365_14"/>
<feBlend mode="normal" in="SourceGraphic" in2="effect1_dropShadow_365_14" result="shape"/>
</filter>
<filter id="filter42_d_365_14" x="47.8779" y="628.023" width="65.6367" height="54.686" filterUnits="userSpaceOnUse" color-interpolation-filters="sRGB">
<feFlood flood-opacity="0" result="BackgroundImageFix"/>
<feColorMatrix in="SourceAlpha" type="matrix" values="0 0 0 0 0 0 0 0 0 0 0 0 0 0 0 0 0 0 127 0" result="hardAlpha"/>
<feOffset dy="4"/>
<feGaussianBlur stdDeviation="2"/>
<feComposite in2="hardAlpha" operator="out"/>
<feColorMatrix type="matrix" values="0 0 0 0 0 0 0 0 0 0 0 0 0 0 0 0 0 0 0.25 0"/>
<feBlend mode="normal" in2="BackgroundImageFix" result="effect1_dropShadow_365_14"/>
<feBlend mode="normal" in="SourceGraphic" in2="effect1_dropShadow_365_14" result="shape"/>
</filter>
<filter id="filter43_d_365_14" x="105.6" y="647.751" width="65.6367" height="54.686" filterUnits="userSpaceOnUse" color-interpolation-filters="sRGB">
<feFlood flood-opacity="0" result="BackgroundImageFix"/>
<feColorMatrix in="SourceAlpha" type="matrix" values="0 0 0 0 0 0 0 0 0 0 0 0 0 0 0 0 0 0 127 0" result="hardAlpha"/>
<feOffset dy="4"/>
<feGaussianBlur stdDeviation="2"/>
<feComposite in2="hardAlpha" operator="out"/>
<feColorMatrix type="matrix" values="0 0 0 0 0 0 0 0 0 0 0 0 0 0 0 0 0 0 0.25 0"/>
<feBlend mode="normal" in2="BackgroundImageFix" result="effect1_dropShadow_365_14"/>
<feBlend mode="normal" in="SourceGraphic" in2="effect1_dropShadow_365_14" result="shape"/>
</filter>
<filter id="filter44_d_365_14" x="161.429" y="666.832" width="65.6367" height="54.686" filterUnits="userSpaceOnUse" color-interpolation-filters="sRGB">
<feFlood flood-opacity="0" result="BackgroundImageFix"/>
<feColorMatrix in="SourceAlpha" type="matrix" values="0 0 0 0 0 0 0 0 0 0 0 0 0 0 0 0 0 0 127 0" result="hardAlpha"/>
<feOffset dy="4"/>
<feGaussianBlur stdDeviation="2"/>
<feComposite in2="hardAlpha" operator="out"/>
<feColorMatrix type="matrix" values="0 0 0 0 0 0 0 0 0 0 0 0 0 0 0 0 0 0 0.25 0"/>
<feBlend mode="normal" in2="BackgroundImageFix" result="effect1_dropShadow_365_14"/>
<feBlend mode="normal" in="SourceGraphic" in2="effect1_dropShadow_365_14" result="shape"/>
</filter>
<filter id="filter45_d_365_14" x="219.151" y="686.56" width="65.6367" height="54.686" filterUnits="userSpaceOnUse" color-interpolation-filters="sRGB">
<feFlood flood-opacity="0" result="BackgroundImageFix"/>
<feColorMatrix in="SourceAlpha" type="matrix" values="0 0 0 0 0 0 0 0 0 0 0 0 0 0 0 0 0 0 127 0" result="hardAlpha"/>
<feOffset dy="4"/>
<feGaussianBlur stdDeviation="2"/>
<feComposite in2="hardAlpha" operator="out"/>
<feColorMatrix type="matrix" values="0 0 0 0 0 0 0 0 0 0 0 0 0 0 0 0 0 0 0.25 0"/>
<feBlend mode="normal" in2="BackgroundImageFix" result="effect1_dropShadow_365_14"/>
<feBlend mode="normal" in="SourceGraphic" in2="effect1_dropShadow_365_14" result="shape"/>
</filter>
<filter id="filter46_d_365_14" x="276.873" y="706.288" width="65.6367" height="54.686" filterUnits="userSpaceOnUse" color-interpolation-filters="sRGB">
<feFlood flood-opacity="0" result="BackgroundImageFix"/>
<feColorMatrix in="SourceAlpha" type="matrix" values="0 0 0 0 0 0 0 0 0 0 0 0 0 0 0 0 0 0 127 0" result="hardAlpha"/>
<feOffset dy="4"/>
<feGaussianBlur stdDeviation="2"/>
<feComposite in2="hardAlpha" operator="out"/>
<feColorMatrix type="matrix" values="0 0 0 0 0 0 0 0 0 0 0 0 0 0 0 0 0 0 0.25 0"/>
<feBlend mode="normal" in2="BackgroundImageFix" result="effect1_dropShadow_365_14"/>
<feBlend mode="normal" in="SourceGraphic" in2="effect1_dropShadow_365_14" result="shape"/>
</filter>
<filter id="filter47_d_365_14" x="228.517" y="409.94" width="59.3374" height="50.6177" filterUnits="userSpaceOnUse" color-interpolation-filters="sRGB">
<feFlood flood-opacity="0" result="BackgroundImageFix"/>
<feColorMatrix in="SourceAlpha" type="matrix" values="0 0 0 0 0 0 0 0 0 0 0 0 0 0 0 0 0 0 127 0" result="hardAlpha"/>
<feOffset dy="4"/>
<feGaussianBlur stdDeviation="2"/>
<feComposite in2="hardAlpha" operator="out"/>
<feColorMatrix type="matrix" values="0 0 0 0 0 0 0 0 0 0 0 0 0 0 0 0 0 0 0.25 0"/>
<feBlend mode="normal" in2="BackgroundImageFix" result="effect1_dropShadow_365_14"/>
<feBlend mode="normal" in="SourceGraphic" in2="effect1_dropShadow_365_14" result="shape"/>
</filter>
</defs>
</svg>
