<svg width="820" height="653" viewBox="0 0 820 653" fill="none" xmlns="http://www.w3.org/2000/svg">
<g filter="url(#filter0_d_365_15)">
<rect x="8" width="751" height="645" fill="#FFF1DA"/>
<rect x="8.5" y="0.5" width="750" height="644" stroke="black"/>
</g>
<path d="M682.865 61.275C681.522 61.275 680.503 60.9283 679.81 60.235C679.117 59.585 678.77 58.7183 678.77 57.635C678.77 56.465 679.095 55.3817 679.745 54.385C680.438 53.345 681.327 52.5217 682.41 51.915C683.493 51.3083 684.62 51.005 685.79 51.005C686.31 51.005 686.83 51.07 687.35 51.2C687.913 51.2867 688.455 51.4383 688.975 51.655V22.405L713.285 16.165V49.25C713.285 51.1133 712.873 52.76 712.05 54.19C711.27 55.5767 710.23 56.6817 708.93 57.505C707.673 58.285 706.287 58.675 704.77 58.675C703.427 58.675 702.408 58.35 701.715 57.7C701.022 57.0067 700.675 56.1183 700.675 55.035C700.675 53.865 701 52.7817 701.65 51.785C702.343 50.745 703.232 49.9217 704.315 49.315C705.398 48.7083 706.525 48.405 707.695 48.405C708.215 48.405 708.735 48.47 709.255 48.6C709.818 48.6867 710.36 48.8383 710.88 49.055V19.935L711.985 20.845L690.405 26.825L691.38 25.265V51.85C691.38 53.7133 690.968 55.36 690.145 56.79C689.365 58.1767 688.325 59.26 687.025 60.04C685.768 60.8633 684.382 61.275 682.865 61.275Z" fill="black"/>
<path d="M27.5091 630.364L25.486 624.805L29.1508 623.472L27.6391 619.318L30.2045 618.384L31.0138 613.386L24.2554 594.818L20.4227 591.509L17.8573 592.443L15.1896 585.113L22.7635 582.357L23.4082 584.128L27.073 582.794L26.5172 581.267L36.3511 577.688L36.9069 579.215L40.5717 577.881L39.927 576.11L47.5009 573.353L50.1687 580.682L47.5422 581.638L46.794 586.614L53.5523 605.183L57.324 608.514L59.9504 607.558L61.4622 611.711L65.127 610.377L67.15 615.936L27.5091 630.364ZM19.8613 589.777L46.9197 579.928L45.6081 576.324L42.2487 577.547L42.8934 579.319L36.0524 581.808L35.4966 580.281L28.8389 582.705L29.3947 584.232L22.5537 586.722L21.909 584.95L18.5496 586.173L19.8613 589.777ZM25.4043 592.463L44.5223 585.504L44.9048 582.944L23.3435 590.792L25.4043 592.463ZM33.5291 612.125L50.8147 605.833L44.2787 587.876L26.993 594.167L33.5291 612.125ZM32.903 617.056L54.4642 609.209L52.4645 607.515L33.2854 614.496L32.903 617.056ZM31.6661 622.21L58.7246 612.362L57.9465 610.224L30.888 620.072L31.6661 622.21ZM29.513 627.697L63.9011 615.181L63.123 613.043L28.7349 625.56L29.513 627.697Z" fill="black"/>
<path d="M712.154 619.673C713.599 615.703 716.071 612.521 717.915 611.256C718.837 610.623 720.736 609.585 723.736 608.186C727.318 606.516 728.807 605.467 729.429 603.757C729.54 603.451 729.679 602.879 729.707 602.613L729.463 602.524C729.096 603.151 727.38 604.256 725.553 604.144C724.67 604.099 723.259 603.794 721.299 603.288C720.077 603.604 718.578 604.303 716.756 605.508C714.956 606.651 713.568 607.045 712.591 606.689C710.453 605.911 709.326 605.017 708.998 603.445L707.828 598.108C708.756 597.27 709.967 595.843 711.456 594.033C712.967 592.162 714.294 590.985 715.278 590.374C716.261 589.764 717.361 588.642 718.494 587.049C720.761 583.862 721.633 582.796 725.742 582.147C726.531 581.12 727.181 579.904 727.648 578.622C728.115 577.339 728.399 575.99 728.56 574.596L730.026 575.129C731.875 576.701 732.685 578.657 732.379 580.828L732.746 580.961C733.318 580.339 734.257 578.329 734.679 577.169C734.946 576.436 735.174 575.62 735.313 575.048L737.451 575.826C739.405 578.059 739.948 581.507 738.814 584.623C745.549 589.495 749.755 599.603 747.986 611.687C747.101 617.728 745.472 623.914 743.138 630.328L742.938 630.877L712.154 619.673ZM716.836 617.642L740.351 626.201L740.952 624.552C748.799 602.99 743.827 590.805 735.56 584.822C735.971 584.072 736.277 583.422 736.521 582.75C737.122 581.101 737.044 579.413 736.267 577.747C736.173 578.197 736.039 578.563 735.884 578.991C735.128 581.067 733.695 583.105 732.628 583.754L729.818 582.732L730.041 582.121C730.752 580.166 730.697 579.178 729.792 577.673C729.731 578.411 729.525 579.166 729.192 580.083C728.325 582.465 726.958 584.319 726.253 584.547C725.942 584.641 725.236 584.868 724.281 585.213C722.682 585.806 721.682 587.033 719.465 589.893C718.804 590.759 718.11 591.336 717.337 591.747C716.649 592.119 715.404 593.257 713.938 595.006C712.471 596.754 711.305 598.059 710.61 598.636L710.782 599.875C711.264 603.301 711.342 603.468 713.48 604.246C714.274 604.535 715.096 604.558 716.795 603.309C717.906 602.537 720.095 601.466 721.217 601.044C721.522 601.155 725.126 601.706 726.442 601.701C727.758 601.696 728.952 600.885 729.236 600.297L732.106 601.342L731.822 604.973C731.144 606.456 730.205 607.705 728.995 608.371L725.49 610.208C720.463 612.806 718.058 614.282 716.925 617.397L716.836 617.642ZM735.021 623.361C736.149 621.213 737.249 618.57 738.361 615.516C742.918 602.994 742.02 597.479 738.507 591.359L739.19 591.192C742.11 594.953 744.418 601.534 742.872 610.724C742.087 615.35 740.809 620.003 739.052 624.829L735.021 623.361ZM724.48 589.988C723.502 589.633 722.936 589.288 722.719 588.933L722.747 588.666L722.903 588.239C723.214 587.384 724.33 587.167 725.674 587.656C726.163 587.834 726.668 588.156 727.112 588.456L728.645 589.568L728.445 590.117L727.978 589.878C727.367 589.656 726.79 589.723 726.229 589.933C725.668 590.144 725.029 590.189 724.48 589.988ZM713.592 600.897C713.125 600.659 712.493 599.737 712.432 598.953C713.482 597.399 715.348 596.833 717.652 597.533L717.785 597.928C715.714 598.488 714.236 599.887 713.592 600.897Z" fill="black"/>
<path d="M39.6153 134V133.54L44.1233 132.666V103.548H38.7873V102.858L48.2173 101.478L48.9073 102.122V132.666L53.4613 133.54V134H39.6153ZM61.2069 131.332C61.2069 129.722 62.4489 128.48 64.0129 128.48C65.6689 128.48 66.8649 129.722 66.8649 131.332C66.8649 132.942 65.6689 134.184 64.0129 134.184C62.4489 134.184 61.2069 132.942 61.2069 131.332ZM87.634 110.678V107.596C87.634 103.364 90.302 100.696 95.684 100.696C98.858 100.696 102.124 101.846 102.124 104.698C102.124 106.17 101.25 107.182 99.824 107.182C98.306 107.182 97.11 106.032 97.11 104.238V101.754C96.742 101.57 96.328 101.386 95.776 101.386C93.706 101.386 92.418 103.824 92.418 107.596V111H99.87V111.92H92.418V132.666L96.558 133.54V134H84.874V133.54L87.634 132.666V111.92H84.874V111.552L87.634 110.678ZM112.207 120.89V119.51H120.165V111.552H121.591V119.51H129.549V120.89H121.591V128.894H120.165V120.89H112.207ZM142.194 134V133.54L144.954 132.666V112.518L142.194 111.92V111.414L149.14 110.678L149.738 111.322V132.666L152.498 133.54V134H142.194ZM143.758 104.56C143.758 102.674 145.138 101.294 147.024 101.294C148.91 101.294 150.336 102.674 150.336 104.56C150.336 106.446 148.91 107.826 147.024 107.826C145.138 107.826 143.758 106.446 143.758 104.56ZM165.125 117.624V116.198H182.467V117.624H165.125ZM165.125 124.202V122.822H182.467V124.202H165.125ZM208.682 134V133.54L211.258 132.666V112.426L209.05 111.92H202.656V132.666L206.658 133.54V134H195.112V133.54L197.872 132.666V111.92H195.112V111.552L197.872 110.678V107.826C197.872 103.502 201.736 100.696 208.82 100.696C212.822 100.696 216.272 101.984 216.272 104.974C216.272 106.768 215.076 107.734 213.558 107.734C211.856 107.734 210.522 106.538 210.522 104.56V101.938C209.924 101.57 209.326 101.386 208.314 101.386C204.634 101.386 202.656 103.916 202.656 107.826V111H208.498L215.444 110.678L216.042 111.322V132.666L218.802 133.54V134H208.682ZM35.5673 180V178.252C43.6633 170.984 51.7593 164.038 51.7593 154.976C51.7593 150.56 49.4593 148.306 45.5953 148.306C43.9393 148.306 42.8353 148.674 41.4093 149.64V154.194C41.4093 156.08 40.2133 157.23 38.5113 157.23C36.9473 157.23 35.6593 156.264 35.6593 154.332C35.6593 150.56 39.8453 147.616 46.0093 147.616C52.4953 147.616 56.6813 150.284 56.6813 155.758C56.6813 164.038 47.3893 170.892 38.9713 176.826H54.6573L56.2673 172.594H57.0953V180H35.5673ZM61.2069 177.332C61.2069 175.722 62.4489 174.48 64.0129 174.48C65.6689 174.48 66.8649 175.722 66.8649 177.332C66.8649 178.942 65.6689 180.184 64.0129 180.184C62.4489 180.184 61.2069 178.942 61.2069 177.332ZM87.634 156.678V153.596C87.634 149.364 90.302 146.696 95.684 146.696C98.858 146.696 102.124 147.846 102.124 150.698C102.124 152.17 101.25 153.182 99.824 153.182C98.306 153.182 97.11 152.032 97.11 150.238V147.754C96.742 147.57 96.328 147.386 95.776 147.386C93.706 147.386 92.418 149.824 92.418 153.596V157H99.87V157.92H92.418V178.666L96.558 179.54V180H84.874V179.54L87.634 178.666V157.92H84.874V157.552L87.634 156.678ZM112.207 166.89V165.51H120.165V157.552H121.591V165.51H129.549V166.89H121.591V174.894H120.165V166.89H112.207ZM144.954 156.678V153.596C144.954 149.364 147.622 146.696 153.004 146.696C156.178 146.696 159.444 147.846 159.444 150.698C159.444 152.17 158.57 153.182 157.144 153.182C155.626 153.182 154.43 152.032 154.43 150.238V147.754C154.062 147.57 153.648 147.386 153.096 147.386C151.026 147.386 149.738 149.824 149.738 153.596V157H157.19V157.92H149.738V178.666L153.878 179.54V180H142.194V179.54L144.954 178.666V157.92H142.194V157.552L144.954 156.678ZM169.527 163.624V162.198H186.869V163.624H169.527ZM169.527 170.202V168.822H186.869V170.202H169.527ZM202.275 156.678V155.252C202.275 150.422 206.967 147.524 213.453 147.524C215.431 147.524 216.535 147.846 217.915 148.49C219.249 147.432 221.273 146.696 223.803 146.696C226.839 146.696 230.197 147.846 230.197 150.698C230.197 152.17 229.277 153.182 227.851 153.182C226.333 153.182 225.137 152.032 225.137 150.238V147.754C224.769 147.57 224.355 147.386 223.803 147.386C221.733 147.386 220.445 149.824 220.445 153.596V157H227.897V157.92H220.445V178.666L224.585 179.54V180H213.085V179.54L215.661 178.666V157.92H207.059V178.666L210.969 179.54V180H199.515V179.54L202.275 178.666V157.92H199.515V157.552L202.275 156.678ZM215.661 156.678V153.596C215.661 151.894 216.121 150.468 217.041 149.318C216.213 148.766 215.155 148.26 213.453 148.26C209.313 148.26 207.059 151.158 207.059 155.252V157H214.695L215.661 156.678ZM41.5933 195.594V199.688C41.5933 201.62 40.3973 202.77 38.7413 202.77C37.1773 202.77 35.9353 201.758 35.9353 199.826C35.9353 195.686 41.5933 193.524 46.4233 193.524C52.4953 193.524 56.3593 196.698 56.3593 201.712C56.3593 205.852 53.6453 208.566 49.1373 209.486C54.2433 210.36 57.6473 213.212 57.6473 217.72C57.6473 222.964 53.1393 226.276 46.4693 226.276C41.3173 226.276 35.7053 224.16 35.7053 219.974C35.7053 218.042 36.9473 217.076 38.5113 217.076C40.1673 217.076 41.3633 218.226 41.3633 220.112V224.206C42.6513 225.08 44.1233 225.402 45.5953 225.402C49.7813 225.402 52.7713 222.734 52.7713 217.766C52.7713 212.384 49.2293 209.992 44.0773 209.992H42.1453V209.072H44.0313C48.4473 209.072 51.4373 206.818 51.4373 201.62C51.4373 196.882 49.0913 194.444 45.6413 194.444C44.3533 194.444 42.8813 194.72 41.5933 195.594ZM61.2069 223.332C61.2069 221.722 62.4489 220.48 64.0129 220.48C65.6689 220.48 66.8649 221.722 66.8649 223.332C66.8649 224.942 65.6689 226.184 64.0129 226.184C62.4489 226.184 61.2069 224.942 61.2069 223.332ZM87.634 202.678V199.596C87.634 195.364 90.302 192.696 95.684 192.696C98.858 192.696 102.124 193.846 102.124 196.698C102.124 198.17 101.25 199.182 99.824 199.182C98.306 199.182 97.11 198.032 97.11 196.238V193.754C96.742 193.57 96.328 193.386 95.776 193.386C93.706 193.386 92.418 195.824 92.418 199.596V203H99.87V203.92H92.418V224.666L96.558 225.54V226H84.874V225.54L87.634 224.666V203.92H84.874V203.552L87.634 202.678ZM112.207 212.89V211.51H120.165V203.552H121.591V211.51H129.549V212.89H121.591V220.894H120.165V212.89H112.207ZM142.194 226V225.54L144.954 224.666V194.398L142.194 193.8V193.294L149.14 192.558L149.738 193.202V224.666L152.498 225.54V226H142.194ZM165.125 209.624V208.198H182.467V209.624H165.125ZM165.125 216.202V214.822H182.467V216.202H165.125ZM208.682 226V225.54L211.58 224.666V194.766C210.752 193.938 209.418 193.478 207.992 193.478C204.45 193.478 202.656 195.916 202.656 199.596V203H209.188V203.92H202.656V224.666L206.796 225.54V226H195.112V225.54L197.872 224.666V203.92H195.112V203.552L197.872 202.678V199.596C197.872 195.364 201.184 192.696 208.222 192.696C209.464 192.696 210.844 192.788 211.994 193.018L215.766 192.558L216.364 193.202V224.666L219.124 225.54V226H208.682ZM46.7453 272V271.54L49.4593 270.666V265.1H35.2453V264.41C40.0753 255.808 43.2953 248.494 43.2953 239.8H48.0333C48.0333 249.184 43.0653 256.452 36.3033 264.18H49.4593V252.864L53.6453 248.678L54.2433 249.322V264.18H57.5553V265.1H54.2433V270.666L57.0033 271.54V272H46.7453ZM61.2069 269.332C61.2069 267.722 62.4489 266.48 64.0129 266.48C65.6689 266.48 66.8649 267.722 66.8649 269.332C66.8649 270.942 65.6689 272.184 64.0129 272.184C62.4489 272.184 61.2069 270.942 61.2069 269.332ZM87.634 248.678V245.596C87.634 241.364 90.302 238.696 95.684 238.696C98.858 238.696 102.124 239.846 102.124 242.698C102.124 244.17 101.25 245.182 99.824 245.182C98.306 245.182 97.11 244.032 97.11 242.238V239.754C96.742 239.57 96.328 239.386 95.776 239.386C93.706 239.386 92.418 241.824 92.418 245.596V249H99.87V249.92H92.418V270.666L96.558 271.54V272H84.874V271.54L87.634 270.666V249.92H84.874V249.552L87.634 248.678ZM112.207 258.89V257.51H120.165V249.552H121.591V257.51H129.549V258.89H121.591V266.894H120.165V258.89H112.207ZM144.954 248.678V245.596C144.954 241.364 147.622 238.696 153.004 238.696C156.178 238.696 159.444 239.846 159.444 242.698C159.444 244.17 158.57 245.182 157.144 245.182C155.626 245.182 154.43 244.032 154.43 242.238V239.754C154.062 239.57 153.648 239.386 153.096 239.386C151.026 239.386 149.738 241.824 149.738 245.596V249H157.19V249.92H149.738V270.666L153.878 271.54V272H142.194V271.54L144.954 270.666V249.92H142.194V249.552L144.954 248.678ZM169.527 258.89V257.51H177.485V249.552H178.911V257.51H186.869V258.89H178.911V266.894H177.485V258.89H169.527ZM199.515 272V271.54L202.275 270.666V240.398L199.515 239.8V239.294L206.461 238.558L207.059 239.202V270.666L209.819 271.54V272H199.515ZM222.445 255.624V254.198H239.787V255.624H222.445ZM222.445 262.202V260.822H239.787V262.202H222.445ZM279.389 272V271.54L282.333 270.666V240.766C281.459 239.938 280.125 239.478 278.699 239.478C275.157 239.478 273.363 241.916 273.363 245.596V249H279.895V249.92H273.363V270.666L277.503 271.54V272H265.819V271.54L268.579 270.666V249.92H259.977V270.666L263.887 271.54V272H252.433V271.54L255.193 270.666V249.92H252.433V249.552L255.193 248.678V247.252C255.193 242.422 259.977 239.524 266.187 239.524C268.533 239.524 269.821 239.938 271.109 240.72C272.765 239.432 275.387 238.696 278.883 238.696C280.171 238.696 281.551 238.788 282.747 239.018L286.473 238.558L287.071 239.202V270.666L289.831 271.54V272H279.389ZM268.579 248.678V245.596C268.579 243.94 269.085 242.56 270.189 241.456C269.269 240.812 268.073 240.26 266.279 240.26C262.231 240.26 259.977 243.204 259.977 247.252V249H267.613L268.579 248.678Z" fill="black"/>
<path opacity="0.5" d="M38 0V642" stroke="black"/>
<path opacity="0.5" d="M68 0V642" stroke="black"/>
<path opacity="0.5" d="M98 0V642" stroke="black"/>
<path opacity="0.5" d="M128 0V642" stroke="black"/>
<path opacity="0.5" d="M158 0V642" stroke="black"/>
<path opacity="0.5" d="M7 38L758.024 38" stroke="black"/>
<path opacity="0.5" d="M7 68L758.024 68" stroke="black"/>
<path opacity="0.5" d="M7 98L758.024 98" stroke="black"/>
<path opacity="0.5" d="M7 128L758.024 128" stroke="black"/>
<path opacity="0.5" d="M7 158L758.024 158" stroke="black"/>
<path opacity="0.5" d="M7 188L758.024 188" stroke="black"/>
<path opacity="0.5" d="M7 218L758.024 218" stroke="black"/>
<path opacity="0.5" d="M7 248L758.024 248" stroke="black"/>
<path opacity="0.5" d="M7 278H758.024" stroke="black"/>
<path opacity="0.5" d="M7 308H758.024" stroke="black"/>
<path opacity="0.5" d="M7 338H758.024" stroke="black"/>
<path opacity="0.5" d="M7 368H758.024" stroke="black"/>
<path opacity="0.5" d="M7 398H758.024" stroke="black"/>
<path opacity="0.5" d="M7 428H758.024" stroke="black"/>
<path opacity="0.5" d="M7 458H758.024" stroke="black"/>
<path opacity="0.5" d="M7 488H758.024" stroke="black"/>
<path opacity="0.5" d="M7 518H758.024" stroke="black"/>
<path opacity="0.5" d="M7 548H758.024" stroke="black"/>
<path opacity="0.5" d="M7 578H758.024" stroke="black"/>
<path opacity="0.5" d="M7 608H758.024" stroke="black"/>
<path opacity="0.5" d="M7 638H758.024" stroke="black"/>
<path opacity="0.5" d="M188 0V642" stroke="black"/>
<g opacity="0.5" filter="url(#filter1_d_365_15)">
<path d="M218 0V642" stroke="black"/>
</g>
<path opacity="0.5" d="M248 0V642" stroke="black"/>
<path opacity="0.5" d="M278 0V642" stroke="black"/>
<path opacity="0.5" d="M308 0V642" stroke="black"/>
<path opacity="0.5" d="M338 0V642" stroke="black"/>
<path opacity="0.5" d="M368 2V644" stroke="black"/>
<path opacity="0.5" d="M398 2V644" stroke="black"/>
<path opacity="0.5" d="M428 2V644" stroke="black"/>
<path opacity="0.5" d="M458 2V644" stroke="black"/>
<path opacity="0.5" d="M488 2V644" stroke="black"/>
<path opacity="0.5" d="M518 2V644" stroke="black"/>
<path opacity="0.5" d="M548 2V644" stroke="black"/>
<path opacity="0.5" d="M578 2V644" stroke="black"/>
<path opacity="0.5" d="M608 2V644" stroke="black"/>
<path opacity="0.5" d="M638 2V644" stroke="black"/>
<path opacity="0.5" d="M668 2V644" stroke="black"/>
<path opacity="0.5" d="M698 2V644" stroke="black"/>
<path opacity="0.5" d="M728 2V644" stroke="black"/>
<path d="M406.547 392.388V396.344C407.927 397.172 409.123 397.54 410.549 397.54C414.873 397.54 417.449 394.09 417.449 388.57C417.449 382.866 414.597 379.278 409.077 379.278C406.869 379.278 404.845 379.83 403.281 380.98L402.775 380.428L404.109 365.938C409.813 365.938 414.505 365.846 420.025 365.156V369.112H405.581L403.465 380.014C405.535 378.726 407.881 378.128 410.871 378.128C418.599 378.128 422.325 382.222 422.325 388.11C422.325 394.32 418.093 398.23 410.733 398.23C405.627 398.23 400.843 396.16 400.843 392.296C400.843 390.318 402.085 389.352 403.649 389.352C405.351 389.352 406.547 390.502 406.547 392.388ZM426.207 395.332C426.207 393.722 427.449 392.48 429.013 392.48C430.669 392.48 431.865 393.722 431.865 395.332C431.865 396.942 430.669 398.184 429.013 398.184C427.449 398.184 426.207 396.942 426.207 395.332ZM451.254 397.126V392.112H452.22C453.186 396.528 456.268 397.54 458.982 397.54C462.524 397.54 464.916 395.792 464.916 392.894C464.916 390.088 462.616 389.398 459.028 388.478C455.256 387.466 451.392 386.454 451.392 381.532C451.392 377.668 453.738 374.816 459.534 374.816C461.696 374.816 463.766 375.322 465.422 376.196L466.388 375.414L466.848 375.874V380.842H465.928C465.008 376.426 461.926 375.506 459.718 375.506C456.544 375.506 454.612 377.3 454.612 379.784C454.612 382.36 456.682 383.096 459.764 383.97C463.812 385.212 468.136 386.454 468.136 391.468C468.136 395.378 465.56 398.23 459.074 398.23C456.636 398.23 454.474 397.77 452.68 396.804L451.714 397.586L451.254 397.126ZM481.789 384.89V383.51H489.747V375.552H491.173V383.51H499.131V384.89H491.173V392.894H489.747V384.89H481.789ZM511.73 375.92V375.552C515.042 374.77 517.342 372.332 518.722 369.71L519.32 370.308V375H526.864V375.92H519.32V392.066C519.32 394.918 520.562 396.804 523.138 396.804C524.518 396.804 525.806 396.206 526.818 395.194L527.324 395.7C525.852 397.218 523.828 398.23 521.068 398.23C516.652 398.23 514.536 395.608 514.536 392.066V375.92H511.73ZM540.322 381.624V380.198H557.664V381.624H540.322ZM540.322 388.202V386.822H557.664V388.202H540.322ZM602.924 398.46C601.636 398.46 600.44 398.245 599.336 397.816C598.262 397.356 597.388 396.574 596.714 395.47C596.039 394.366 595.702 392.817 595.702 390.824V376.472H592.206V374.54L595.748 372.93V368.514C595.349 367.809 594.797 367.257 594.092 366.858C593.386 366.429 592.528 366.214 591.516 366.214C590.197 366.214 589.185 366.613 588.48 367.41C587.774 368.207 587.422 369.219 587.422 370.446C587.422 371.059 587.514 371.719 587.698 372.424C587.912 373.129 588.311 373.835 588.894 374.54H585.214C584.784 373.927 584.432 373.237 584.156 372.47C583.91 371.703 583.788 370.967 583.788 370.262C583.788 368.606 584.14 367.241 584.846 366.168C585.551 365.064 586.486 364.236 587.652 363.684C588.817 363.132 590.105 362.856 591.516 362.856C592.957 362.856 594.214 363.055 595.288 363.454C596.361 363.853 597.266 364.42 598.002 365.156C598.768 365.861 599.351 366.705 599.75 367.686V373.344H606.88V376.472H599.75V390.732C599.75 392.235 600.102 393.354 600.808 394.09C601.544 394.795 602.479 395.148 603.614 395.148C604.227 395.148 604.856 395.102 605.5 395.01C606.144 394.887 606.665 394.765 607.064 394.642V397.724C606.634 397.939 606.021 398.107 605.224 398.23C604.426 398.383 603.66 398.46 602.924 398.46ZM579.556 398.46C577.838 398.46 576.351 398.322 575.094 398.046C573.867 397.77 572.778 397.387 571.828 396.896V393.216C572.809 393.707 573.99 394.167 575.37 394.596C576.78 394.995 578.206 395.194 579.648 395.194C581.702 395.194 583.19 394.872 584.11 394.228C585.03 393.553 585.49 392.664 585.49 391.56C585.49 390.947 585.321 390.395 584.984 389.904C584.646 389.413 584.033 388.923 583.144 388.432C582.285 387.941 581.043 387.389 579.418 386.776C577.823 386.163 576.458 385.549 575.324 384.936C574.189 384.323 573.315 383.587 572.702 382.728C572.088 381.869 571.782 380.765 571.782 379.416C571.782 377.331 572.625 375.721 574.312 374.586C576.029 373.451 578.268 372.884 581.028 372.884C582.53 372.884 583.926 373.037 585.214 373.344C586.532 373.62 587.759 374.019 588.894 374.54L587.514 377.76C586.839 377.453 586.118 377.193 585.352 376.978C584.616 376.733 583.864 376.549 583.098 376.426C582.331 376.273 581.549 376.196 580.752 376.196C579.096 376.196 577.823 376.472 576.934 377.024C576.075 377.545 575.646 378.266 575.646 379.186C575.646 379.861 575.845 380.443 576.244 380.934C576.642 381.394 577.302 381.854 578.222 382.314C579.142 382.743 580.368 383.249 581.902 383.832C583.496 384.415 584.846 385.028 585.95 385.672C587.084 386.285 587.943 387.037 588.526 387.926C589.108 388.785 589.4 389.873 589.4 391.192C589.4 392.787 589.001 394.121 588.204 395.194C587.406 396.267 586.272 397.08 584.8 397.632C583.328 398.184 581.58 398.46 579.556 398.46ZM405.029 427.072C406.593 425.508 409.031 424.542 412.067 424.542C418.323 424.542 422.647 428.314 422.647 434.34C422.647 440.412 418.277 444.23 411.883 444.23C404.109 444.23 400.107 438.664 400.107 429.832C400.107 418.286 407.053 412.582 418.645 411.57L419.059 412.03C409.123 414.054 405.673 419.574 405.029 427.072ZM404.983 429.234C404.983 437.422 407.007 443.54 411.561 443.54C415.287 443.54 417.725 440.044 417.725 434.34C417.725 428.636 414.873 425.462 411.147 425.462C408.341 425.462 405.995 426.98 404.983 429.234ZM426.207 441.332C426.207 439.722 427.449 438.48 429.013 438.48C430.669 438.48 431.865 439.722 431.865 441.332C431.865 442.942 430.669 444.184 429.013 444.184C427.449 444.184 426.207 442.942 426.207 441.332ZM452.634 420.678V417.596C452.634 413.364 455.302 410.696 460.684 410.696C463.858 410.696 467.124 411.846 467.124 414.698C467.124 416.17 466.25 417.182 464.824 417.182C463.306 417.182 462.11 416.032 462.11 414.238V411.754C461.742 411.57 461.328 411.386 460.776 411.386C458.706 411.386 457.418 413.824 457.418 417.596V421H464.87V421.92H457.418V442.666L461.558 443.54V444H449.874V443.54L452.634 442.666V421.92H449.874V421.552L452.634 420.678ZM477.207 430.89V429.51H485.165V421.552H486.591V429.51H494.549V430.89H486.591V438.894H485.165V430.89H477.207ZM507.148 421.92V421.552C510.46 420.77 512.76 418.332 514.14 415.71L514.738 416.308V421H522.282V421.92H514.738V438.066C514.738 440.918 515.98 442.804 518.556 442.804C519.936 442.804 521.224 442.206 522.236 441.194L522.742 441.7C521.27 443.218 519.246 444.23 516.486 444.23C512.07 444.23 509.954 441.608 509.954 438.066V421.92H507.148ZM535.74 427.624V426.198H553.082V427.624H535.74ZM535.74 434.202V432.822H553.082V434.202H535.74ZM590.66 444.46C589.372 444.46 588.176 444.245 587.072 443.816C585.998 443.356 585.124 442.574 584.45 441.47C583.775 440.366 583.438 438.817 583.438 436.824V422.472H579.942V420.54L583.484 418.93V414.514C582.993 413.809 582.257 413.241 581.276 412.812C580.325 412.383 579.252 412.168 578.056 412.168C576.216 412.168 574.882 412.643 574.054 413.594C573.226 414.514 572.812 415.802 572.812 417.458V444H568.764V417.458C568.764 415.434 569.162 413.793 569.96 412.536C570.788 411.248 571.892 410.313 573.272 409.73C574.682 409.117 576.277 408.81 578.056 408.81C579.65 408.81 581.061 409.009 582.288 409.408C583.545 409.807 584.618 410.374 585.508 411.11C586.397 411.815 587.056 412.674 587.486 413.686V419.344H594.616V422.472H587.486V436.732C587.486 438.235 587.838 439.354 588.544 440.09C589.28 440.795 590.215 441.148 591.35 441.148C591.963 441.148 592.592 441.102 593.236 441.01C593.88 440.887 594.401 440.765 594.8 440.642V443.724C594.37 443.939 593.757 444.107 592.96 444.23C592.162 444.383 591.396 444.46 590.66 444.46ZM412.159 490H407.375C407.375 478.224 414.919 471.278 419.611 461.112H403.511L401.671 465.344H400.935V457.8H421.543V458.49C417.863 469.254 412.159 479.098 412.159 490ZM426.207 487.332C426.207 485.722 427.449 484.48 429.013 484.48C430.669 484.48 431.865 485.722 431.865 487.332C431.865 488.942 430.669 490.184 429.013 490.184C427.449 490.184 426.207 488.942 426.207 487.332ZM452.634 466.678V463.596C452.634 459.364 455.302 456.696 460.684 456.696C463.858 456.696 467.124 457.846 467.124 460.698C467.124 462.17 466.25 463.182 464.824 463.182C463.306 463.182 462.11 462.032 462.11 460.238V457.754C461.742 457.57 461.328 457.386 460.776 457.386C458.706 457.386 457.418 459.824 457.418 463.596V467H464.87V467.92H457.418V488.666L461.558 489.54V490H449.874V489.54L452.634 488.666V467.92H449.874V467.552L452.634 466.678ZM477.207 476.89V475.51H485.165V467.552H486.591V475.51H494.549V476.89H486.591V484.894H485.165V476.89H477.207ZM509.954 466.678V463.596C509.954 459.364 512.622 456.696 518.004 456.696C521.178 456.696 524.444 457.846 524.444 460.698C524.444 462.17 523.57 463.182 522.144 463.182C520.626 463.182 519.43 462.032 519.43 460.238V457.754C519.062 457.57 518.648 457.386 518.096 457.386C516.026 457.386 514.738 459.824 514.738 463.596V467H522.19V467.92H514.738V488.666L518.878 489.54V490H507.194V489.54L509.954 488.666V467.92H507.194V467.552L509.954 466.678ZM534.527 476.89V475.51H542.485V467.552H543.911V475.51H551.869V476.89H543.911V484.894H542.485V476.89H534.527ZM564.515 490V489.54L567.275 488.666V468.518L564.515 467.92V467.414L571.461 466.678L572.059 467.322V488.666L574.819 489.54V490H564.515ZM566.079 460.56C566.079 458.674 567.459 457.294 569.345 457.294C571.231 457.294 572.657 458.674 572.657 460.56C572.657 462.446 571.231 463.826 569.345 463.826C567.459 463.826 566.079 462.446 566.079 460.56ZM587.445 473.624V472.198H604.787V473.624H587.445ZM587.445 480.202V478.822H604.787V480.202H587.445ZM644.389 490V489.54L647.011 488.666V468.426L644.757 467.92H638.363V488.666L642.365 489.54V490H630.911V489.54L633.579 488.666V467.92H624.977V488.666L628.887 489.54V490H617.433V489.54L620.193 488.666V467.92H617.433V467.552L620.193 466.678V465.252C620.193 460.422 624.977 457.524 631.141 457.524C633.671 457.524 634.913 458.03 636.247 458.858C638.041 457.478 640.847 456.696 644.527 456.696C648.529 456.696 651.979 457.984 651.979 460.974C651.979 462.768 650.829 463.734 649.265 463.734C647.563 463.734 646.229 462.538 646.229 460.56V457.938C645.631 457.57 645.033 457.386 644.021 457.386C640.341 457.386 638.363 459.916 638.363 463.826V467H644.251L651.151 466.678L651.749 467.322V488.666L654.509 489.54V490H644.389ZM633.579 466.678V463.826C633.579 462.17 634.223 460.744 635.373 459.64C634.407 458.858 633.165 458.26 631.279 458.26C627.231 458.26 624.977 461.204 624.977 465.252V467H632.613L633.579 466.678Z" fill="black"/>
<g filter="url(#filter2_d_365_15)">
<path d="M518 128.46L534.382 151.912C538.733 150.157 539.579 147.986 538.039 141.844L518 128.46Z" fill="black"/>
<path d="M1013.73 613.018L576.142 177.29C564.845 176.004 562.972 178.059 566.669 186.318L1004.85 623.043L1013.73 613.018Z" fill="#F6E1BF"/>
<path d="M566.669 186.318C562.972 178.059 564.845 176.004 576.142 177.29C572.647 170.164 572.919 168.085 579.119 169.282L538.039 141.844C539.579 147.986 538.733 150.157 534.382 151.912L560.176 188.837C560.549 185.064 561.892 184.387 566.669 186.318Z" fill="#FFFBF3"/>
<path d="M1020.39 605.498L579.119 169.282C572.919 168.085 572.647 170.164 576.142 177.29L1013.73 613.018L1020.39 605.498Z" fill="#FFFBF3"/>
<path d="M560.176 188.837L999.959 628.558L1004.85 623.043L566.669 186.318C561.892 184.387 560.549 185.064 560.176 188.837Z" fill="#FFFBF3"/>
<path d="M999.959 628.558C1015.45 624.061 1019.97 618.942 1020.39 605.498M999.959 628.558L560.176 188.837M999.959 628.558L1004.85 623.043M1020.39 605.498L579.119 169.282M1020.39 605.498L1013.73 613.018M579.119 169.282C572.919 168.085 572.647 170.164 576.142 177.29M579.119 169.282L538.039 141.844M560.176 188.837C560.549 185.064 561.892 184.387 566.669 186.318M560.176 188.837L534.382 151.912M1013.73 613.018L576.142 177.29M1013.73 613.018L1004.85 623.043M576.142 177.29C564.845 176.004 562.972 178.059 566.669 186.318M566.669 186.318L1004.85 623.043M534.382 151.912L518 128.46L538.039 141.844M534.382 151.912C538.733 150.157 539.579 147.986 538.039 141.844" stroke="black"/>
</g>
<defs>
<filter id="filter0_d_365_15" x="4" y="0" width="759" height="653" filterUnits="userSpaceOnUse" color-interpolation-filters="sRGB">
<feFlood flood-opacity="0" result="BackgroundImageFix"/>
<feColorMatrix in="SourceAlpha" type="matrix" values="0 0 0 0 0 0 0 0 0 0 0 0 0 0 0 0 0 0 127 0" result="hardAlpha"/>
<feOffset dy="4"/>
<feGaussianBlur stdDeviation="2"/>
<feComposite in2="hardAlpha" operator="out"/>
<feColorMatrix type="matrix" values="0 0 0 0 0 0 0 0 0 0 0 0 0 0 0 0 0 0 0.25 0"/>
<feBlend mode="normal" in2="BackgroundImageFix" result="effect1_dropShadow_365_15"/>
<feBlend mode="normal" in="SourceGraphic" in2="effect1_dropShadow_365_15" result="shape"/>
</filter>
<filter id="filter1_d_365_15" x="213.5" y="0" width="9" height="650" filterUnits="userSpaceOnUse" color-interpolation-filters="sRGB">
<feFlood flood-opacity="0" result="BackgroundImageFix"/>
<feColorMatrix in="SourceAlpha" type="matrix" values="0 0 0 0 0 0 0 0 0 0 0 0 0 0 0 0 0 0 127 0" result="hardAlpha"/>
<feOffset dy="4"/>
<feGaussianBlur stdDeviation="2"/>
<feComposite in2="hardAlpha" operator="out"/>
<feColorMatrix type="matrix" values="0 0 0 0 0 0 0 0 0 0 0 0 0 0 0 0 0 0 0.25 0"/>
<feBlend mode="normal" in2="BackgroundImageFix" result="effect1_dropShadow_365_15"/>
<feBlend mode="normal" in="SourceGraphic" in2="effect1_dropShadow_365_15" result="shape"/>
</filter>
<filter id="filter2_d_365_15" x="513.59" y="128.044" width="511.309" height="509.076" filterUnits="userSpaceOnUse" color-interpolation-filters="sRGB">
<feFlood flood-opacity="0" result="BackgroundImageFix"/>
<feColorMatrix in="SourceAlpha" type="matrix" values="0 0 0 0 0 0 0 0 0 0 0 0 0 0 0 0 0 0 127 0" result="hardAlpha"/>
<feOffset dy="4"/>
<feGaussianBlur stdDeviation="2"/>
<feComposite in2="hardAlpha" operator="out"/>
<feColorMatrix type="matrix" values="0 0 0 0 0 0 0 0 0 0 0 0 0 0 0 0 0 0 0.25 0"/>
<feBlend mode="normal" in2="BackgroundImageFix" result="effect1_dropShadow_365_15"/>
<feBlend mode="normal" in="SourceGraphic" in2="effect1_dropShadow_365_15" result="shape"/>
</filter>
</defs>
</svg>
