<svg width="199" height="514" viewBox="0 0 199 514" fill="none" xmlns="http://www.w3.org/2000/svg">
<g filter="url(#filter0_d_352_1703)">
<path fill-rule="evenodd" clip-rule="evenodd" d="M-181.908 421.886C-135.31 403.298 -112.854 384.843 -78.6759 339.182C-68.579 324.113 -62.0335 312.511 -56.6485 298.681C-53.6191 290.9 -50.9569 282.414 -48.2363 272.208C-47.9367 271.084 -47.6363 269.939 -47.3347 268.772C-69.177 282.035 -81.9813 288.027 -107.17 292.548C-125.127 295.125 -132.334 299.134 -144.071 307.273C-161.34 320.878 -170.6 328.765 -185.259 344.023C-193.338 355.211 -195.573 360.884 -198.159 370.46C-203.449 397.81 -203.646 407.67 -198.257 413.909C-193.812 420.304 -190.291 422.153 -181.908 421.886ZM-162.713 401.966L-83.7907 329.364C-80.1434 322.099 -81.645 312.816 -87.9632 309.672C-93.7566 307.115 -99.3465 304.668 -104.287 304.29C-113.835 304.324 -117.221 302.185 -123.657 306.036L-136.054 312.908L-147.221 321.671C-158.241 330.459 -166.69 338.986 -173.78 349.624L-185.737 366.185L-190.413 383.713C-190.837 396.542 -188.689 401.239 -181.541 406.13C-173.801 409.037 -169.705 407.746 -162.713 401.966Z" fill="#E9CDA1"/>
<path fill-rule="evenodd" clip-rule="evenodd" d="M-22.0568 322.881L-21.0926 350.914L-24.9396 382.629C-28.0121 396.04 -30.8589 402.643 -37.6274 413.044C-42.8399 427.139 -41.8341 434.702 -35.2131 447.814C-31.0849 456.371 -28.7786 459.678 -24.6686 464.157C-19.1486 468.951 -15.7669 470.341 -9.20202 470.411C5.80189 471.41 11.5407 468.083 20.1217 459.741C26.7835 453.322 28.4205 448.989 29.4568 440.61C29.3446 427.18 27.4911 420.345 22.0533 409.004C12.5402 392.688 10.4352 385.331 6.82743 374.012C-0.118301 352.109 -0.958988 337.245 -2.26947 310.572C-4.2706 312.204 -6.0462 313.587 -7.71885 314.804C-11.3567 317.449 -14.5075 319.305 -18.4323 321.204C-19.5658 321.753 -20.7638 322.305 -22.0568 322.881ZM-8.35398 397.182C-2.22607 398.41 0.792509 399.953 5.55991 403.971C14.3811 415.907 17.0997 423.059 18.5122 436.561C18.5687 445.878 16.1463 449.563 8.64276 454.14C3.16938 458.148 -0.0280915 458.747 -5.85777 458.262C-15.4877 456.799 -17.936 453.858 -22.2234 448.554C-28.1396 436.047 -27.9223 429.702 -26.1484 418.645C-24.2787 410.973 -22.3403 407.131 -17.4922 400.905C-14.4239 397.918 -12.4615 397.125 -8.35398 397.182Z" fill="#E9CDA1"/>
<path d="M119.44 169.7L33.6493 221.724L11.3863 272.877L112.802 199.191C146.107 176.267 161.419 161.418 185.555 133.054C162.236 144.993 148.43 152.382 119.44 169.7Z" fill="#FFF1DA"/>
<path d="M-24.8563 290.938L-27.5074 278.447L-12.9325 250.675C-27.5084 260.989 -35.3244 266.208 -48.2363 272.208C-50.9569 282.414 -53.6191 290.9 -56.6485 298.681C-44.1118 297.689 -37.1377 296.214 -24.8563 290.938Z" fill="#FFF1DA"/>
<path d="M100.184 58.2362C82.244 72.0551 71.7845 86.2047 52.2046 126.557L-12.9325 250.675L-27.5074 278.447L-24.8563 290.938L-18.4323 321.204C-14.5075 319.305 -11.3567 317.449 -7.71885 314.804L11.3863 272.877L33.6493 221.724L69.8268 140.323C82.0125 111.016 88.7631 93.8906 100.184 58.2362Z" fill="#FFF1DA"/>
<path d="M-18.4323 321.204C-19.5658 321.753 -20.7638 322.305 -22.0568 322.881L-21.0926 350.914L-24.9396 382.629C-28.0121 396.04 -30.8589 402.643 -37.6274 413.044C-42.8399 427.139 -41.8341 434.702 -35.2131 447.814C-31.0849 456.371 -28.7786 459.678 -24.6686 464.157C-19.1486 468.951 -15.7669 470.341 -9.20202 470.411C5.80189 471.41 11.5407 468.083 20.1217 459.741C26.7835 453.322 28.4205 448.989 29.4568 440.61C29.3447 427.18 27.4911 420.345 22.0533 409.004C12.5402 392.688 10.4352 385.331 6.82743 374.012C-0.118301 352.109 -0.958985 337.245 -2.26947 310.572C-4.2706 312.204 -6.04621 313.587 -7.71885 314.804M-18.4323 321.204C-14.5075 319.305 -11.3567 317.449 -7.71885 314.804M-18.4323 321.204L-24.8563 290.938M-7.71885 314.804L11.3863 272.877M-56.6485 298.681C-62.0335 312.511 -68.579 324.113 -78.6759 339.182C-112.854 384.843 -135.31 403.298 -181.908 421.886C-190.291 422.153 -193.812 420.304 -198.257 413.909C-203.646 407.67 -203.449 397.81 -198.159 370.46C-195.573 360.884 -193.338 355.211 -185.259 344.023C-170.6 328.765 -161.34 320.878 -144.071 307.273C-132.334 299.134 -125.127 295.125 -107.17 292.548C-81.9813 288.027 -69.177 282.035 -47.3347 268.772C-47.6363 269.939 -47.9367 271.084 -48.2363 272.208M-56.6485 298.681C-44.1118 297.689 -37.1377 296.214 -24.8563 290.938M-56.6485 298.681C-53.6191 290.9 -50.9569 282.414 -48.2363 272.208M-24.8563 290.938L-27.5074 278.447L-12.9326 250.675M-48.2363 272.208C-35.3244 266.208 -27.5084 260.989 -12.9326 250.675M-12.9326 250.675L52.2046 126.557C71.7845 86.2047 82.244 72.0551 100.184 58.2362C88.7631 93.8906 82.0125 111.016 69.8268 140.323L33.6493 221.724M33.6493 221.724L119.44 169.7C148.43 152.382 162.236 144.993 185.555 133.054C161.419 161.418 146.107 176.267 112.802 199.191L11.3863 272.877M33.6493 221.724L11.3863 272.877M-83.7907 329.364L-162.713 401.966C-169.705 407.746 -173.801 409.037 -181.541 406.13C-188.689 401.239 -190.837 396.542 -190.413 383.713L-185.737 366.185L-173.78 349.624C-166.69 338.986 -158.241 330.459 -147.221 321.671L-136.054 312.908L-123.657 306.036C-117.221 302.185 -113.835 304.324 -104.287 304.29C-99.3465 304.668 -93.7566 307.115 -87.9632 309.672C-81.645 312.816 -80.1434 322.099 -83.7907 329.364ZM5.55992 403.971C0.792507 399.953 -2.22607 398.41 -8.35398 397.182C-12.4615 397.125 -14.4239 397.918 -17.4922 400.905C-22.3403 407.131 -24.2787 410.973 -26.1484 418.645C-27.9223 429.702 -28.1396 436.047 -22.2234 448.554C-17.936 453.858 -15.4877 456.799 -5.85778 458.262C-0.0280967 458.747 3.16938 458.148 8.64276 454.14C16.1463 449.563 18.5687 445.878 18.5122 436.561C17.0997 423.059 14.3811 415.907 5.55992 403.971Z" stroke="black" stroke-width="0.774095"/>
<circle cx="-0.499466" cy="261.048" r="10.8373" transform="rotate(116.01 -0.499466 261.048)" fill="#E9CDA1" stroke="black" stroke-width="0.774095"/>
<circle cx="-0.499478" cy="261.048" r="7.74095" transform="rotate(116.01 -0.499478 261.048)" fill="#FFFBF3" stroke="black" stroke-width="0.774095"/>
</g>
<defs>
<filter id="filter0_d_352_1703" x="-205.697" y="57.1719" width="394.643" height="419.992" filterUnits="userSpaceOnUse" color-interpolation-filters="sRGB">
<feFlood flood-opacity="0" result="BackgroundImageFix"/>
<feColorMatrix in="SourceAlpha" type="matrix" values="0 0 0 0 0 0 0 0 0 0 0 0 0 0 0 0 0 0 127 0" result="hardAlpha"/>
<feOffset dy="3.09638"/>
<feGaussianBlur stdDeviation="1.54819"/>
<feComposite in2="hardAlpha" operator="out"/>
<feColorMatrix type="matrix" values="0 0 0 0 0 0 0 0 0 0 0 0 0 0 0 0 0 0 0.25 0"/>
<feBlend mode="normal" in2="BackgroundImageFix" result="effect1_dropShadow_352_1703"/>
<feBlend mode="normal" in="SourceGraphic" in2="effect1_dropShadow_352_1703" result="shape"/>
</filter>
</defs>
</svg>
