<svg width="842" height="968" viewBox="0 0 842 968" fill="none" xmlns="http://www.w3.org/2000/svg">
<g filter="url(#filter0_d_365_7)">
<rect x="369.812" y="738" width="143" height="143" transform="rotate(29.2224 369.812 738)" fill="#F6E1BF"/>
<rect x="370.005" y="738.68" width="142" height="142" transform="rotate(29.2224 370.005 738.68)" stroke="black"/>
</g>
<g filter="url(#filter1_d_365_7)">
<rect x="712.812" y="742" width="143" height="143" transform="rotate(29.2224 712.812 742)" fill="#F6E1BF"/>
<rect x="713.005" y="742.68" width="142" height="142" transform="rotate(29.2224 713.005 742.68)" stroke="black"/>
</g>
<g filter="url(#filter2_d_365_7)">
<rect x="623.966" y="120.102" width="137.44" height="137.44" transform="rotate(-4.74282 623.966 120.102)" fill="#F6E1BF"/>
<rect x="624.264" y="120.354" width="136.888" height="136.888" transform="rotate(-4.74282 624.264 120.354)" stroke="black" stroke-width="0.551969"/>
</g>
<path d="M696.008 145.298L695.657 141.073C695.458 138.68 696.885 137.072 698.997 136.897C701.25 136.71 702.787 138.142 702.956 140.184C703.33 144.691 696.805 147.217 691.947 147.62C687.088 148.023 680.236 146.607 679.856 142.03C679.681 139.918 681.043 138.387 683.225 138.206C685.338 138.03 687.009 139.381 687.208 141.774L687.558 145.999C689.09 146.51 690.445 146.61 691.853 146.494C693.261 146.377 694.582 146.054 696.008 145.298ZM671.467 202.419L675.933 200.702L672.183 155.499L667.495 154.541L667.436 153.836L684.194 152.446L684.252 153.15L679.787 154.868L683.134 195.213L705.293 153.815L705.205 152.759L700.517 151.801L700.459 151.097L717.146 149.712L717.204 150.416L712.739 152.134L716.489 197.337L721.177 198.295L721.235 198.999L704.548 200.384L704.49 199.68L708.955 197.962L705.59 157.406L683.432 198.804L683.537 200.071L688.225 201.029L688.283 201.733L671.526 203.124L671.467 202.419Z" fill="black"/>
<g filter="url(#filter3_d_365_7)">
<rect x="47.2476" y="25.3906" width="137.44" height="137.44" transform="rotate(18.7802 47.2476 25.3906)" fill="#F6E1BF"/>
<rect x="47.42" y="25.7408" width="136.888" height="136.888" transform="rotate(18.7802 47.42 25.7408)" stroke="black" stroke-width="0.551969"/>
</g>
<path d="M101.874 83.2721L105.408 134.547L109.256 137.274L109.029 137.943L92.9084 132.461L93.1358 131.792L97.9828 132.022L96.9814 116.533L76.7804 109.664L66.2766 121.241L71.7309 124.514L71.5034 125.182L59.5969 121.134L59.8243 120.465L64.8051 120.741L99.6663 82.5215L101.874 83.2721ZM95.2914 89.2426L77.8601 108.464L96.857 114.924L95.2914 89.2426Z" fill="black"/>
<g filter="url(#filter4_d_365_7)">
<rect x="147.342" y="40.5493" width="137.44" height="137.44" transform="rotate(-1.83177 147.342 40.5493)" fill="#F6E1BF"/>
<rect x="147.627" y="40.8163" width="136.888" height="136.888" transform="rotate(-1.83177 147.627 40.8163)" stroke="black" stroke-width="0.551969"/>
</g>
<path d="M195.664 76.2371L218.261 75.5144C228.218 75.196 235.356 79.5624 235.602 87.2596C235.803 93.5444 231.417 97.8553 224.539 99.4183C232.703 100.5 238.141 104.78 238.356 111.488C238.611 119.468 230.999 124.589 219.842 124.946L197.245 125.668L197.227 125.103L201.781 123.827L200.308 77.7851L195.684 76.8726L195.664 76.2371ZM209.416 123.865L218.384 123.578C225.729 123.344 230.83 119.293 230.584 111.595C230.335 103.828 224.988 100.182 217.644 100.416L208.675 100.703L209.416 123.865ZM216.894 76.9719L207.926 77.2587L208.63 99.2909L217.599 99.0041C223.742 98.8076 228.074 94.9933 227.839 87.6492C227.606 80.3758 223.038 76.7754 216.894 76.9719Z" fill="black"/>
<g filter="url(#filter5_d_365_7)">
<rect x="169.854" y="133.1" width="137.44" height="137.44" transform="rotate(9.51281 169.854 133.1)" fill="#F6E1BF"/>
<rect x="170.081" y="133.418" width="136.888" height="136.888" transform="rotate(9.51281 170.081 133.418)" stroke="black" stroke-width="0.551969"/>
</g>
<path d="M224.754 181.465L217.153 226.827L223.551 229.26L223.434 229.957L204.76 226.828L204.876 226.131L209.627 225.566L217.182 180.482L212.828 178.678L212.933 178.051L248.819 184.065L247.382 192.635L246.198 192.437L244.195 184.723L224.754 181.465Z" fill="black"/>
<g filter="url(#filter6_d_365_7)">
<rect x="32.8066" y="173.063" width="137.44" height="137.44" transform="rotate(-12.6516 32.8066 173.063)" fill="#F6E1BF"/>
<rect x="33.1364" y="173.272" width="136.888" height="136.888" transform="rotate(-12.6516 33.1364 173.272)" stroke="black" stroke-width="0.551969"/>
</g>
<path d="M99.2038 197.746L103.583 217.256L113.234 215.089C123.988 212.675 132.579 216.105 134.497 224.653C136.416 233.202 130.132 240.043 119.377 242.457L97.8003 247.3L97.6765 246.749L101.91 244.64L91.8205 199.693L87.1075 199.665L86.9682 199.045L122.608 191.045L124.512 199.524L123.34 199.787L118.575 193.398L99.2038 197.746ZM109.417 243.245L117.689 241.388C124.721 239.809 128.756 234.559 126.914 226.356C125.073 218.152 119.196 215.199 112.165 216.777L103.892 218.634L109.417 243.245Z" fill="black"/>
<g filter="url(#filter7_d_365_7)">
<rect x="297.548" y="25.3906" width="137.44" height="137.44" transform="rotate(15.9989 297.548 25.3906)" fill="#F6E1BF"/>
<rect x="297.737" y="25.732" width="136.888" height="136.888" transform="rotate(15.9989 297.737 25.732)" stroke="black" stroke-width="0.551969"/>
</g>
<path d="M357.888 132.854L321.689 122.475L315.469 131.863L313.839 131.396L317.189 119.714L322.554 121.253C324.136 121.118 326.545 118.355 328.53 113.485L342.663 78.8031L338.541 76.5187L338.716 75.9074L375.73 86.5202L375.555 87.1315L370.848 86.8845L358.074 131.437L363.168 132.898L359.818 144.579L358.188 144.112L357.888 132.854ZM344.439 79.0183L330.354 113.787C328.554 118.269 326.922 120.888 324.863 121.915L350.807 129.353L363.659 84.5292L344.439 79.0183Z" fill="black"/>
<g filter="url(#filter8_d_365_7)">
<rect x="259.666" y="181.396" width="137.44" height="137.44" transform="rotate(-16 259.666 181.396)" fill="#F6E1BF"/>
<rect x="260.007" y="181.585" width="136.888" height="136.888" transform="rotate(-16 260.007 181.585)" stroke="black" stroke-width="0.551969"/>
</g>
<path d="M341.306 246.679L362.495 240.603L363.701 232.76L364.788 232.449L367.164 240.734L329.946 251.406L329.79 250.863L333.893 248.511L321.196 204.23L316.489 204.477L316.314 203.866L352.852 193.389L355.248 201.742L354.161 202.054L348.963 195.974L328.453 201.855L334.451 222.773L351.022 218.021L350.929 212.315L351.948 212.023L355.395 224.044L354.376 224.336L351.431 219.447L334.86 224.199L341.306 246.679Z" fill="black"/>
<g filter="url(#filter9_d_365_7)">
<rect x="396.519" y="49.1255" width="137.44" height="137.44" transform="rotate(5.97833 396.519 49.1255)" fill="#F6E1BF"/>
<rect x="396.764" y="49.4287" width="136.888" height="136.888" transform="rotate(5.97833 396.764 49.4287)" stroke="black" stroke-width="0.551969"/>
</g>
<path d="M448.89 140.334L470.814 142.629L474.867 135.808L475.991 135.926L475.093 144.498L436.586 140.466L436.645 139.904L441.331 139.258L446.128 93.4431L441.671 91.9107L441.738 91.2783L479.542 95.2373L478.637 103.88L477.512 103.762L474.968 96.179L453.747 93.9567L451.48 115.599L468.626 117.395L470.675 112.068L471.729 112.179L470.427 124.616L469.373 124.506L468.471 118.87L451.326 117.075L448.89 140.334ZM450.653 83.4743C450.925 80.8744 453.092 79.1832 455.621 79.4481C458.221 79.7203 459.99 81.8236 459.718 84.4235C459.445 87.0234 457.279 88.7146 454.679 88.4424C452.15 88.1774 450.381 86.0742 450.653 83.4743ZM466.463 85.1299C466.736 82.53 468.832 80.8315 471.432 81.1038C473.961 81.3687 475.73 83.4719 475.458 86.0718C475.185 88.6718 473.019 90.3629 470.49 90.098C467.89 89.8258 466.191 87.7299 466.463 85.1299Z" fill="black"/>
<g filter="url(#filter10_d_365_7)">
<rect x="407.594" y="183.902" width="137.44" height="137.44" transform="rotate(-10.921 407.594 183.902)" fill="#F6E1BF"/>
<rect x="407.917" y="184.121" width="136.888" height="136.888" transform="rotate(-10.921 407.917 184.121)" stroke="black" stroke-width="0.551969"/>
</g>
<path d="M459.244 213.923L459.766 216.629C460.275 219.265 459.097 221.363 456.461 221.872C454.033 222.34 452.073 221.135 451.538 218.36C450.815 214.614 453.642 212.486 457.111 211.816C462.73 210.732 465.406 214.533 468.113 219.983L470.464 224.71C472.925 229.632 476.606 232.304 482.919 231.086L478.877 210.135L474.113 209.687L473.979 208.993L490.49 205.808L490.624 206.501L486.369 208.689L490.411 229.64C496.724 228.422 499.148 224.572 499.6 219.088L500.094 213.812C500.538 207.538 501.717 203.209 507.198 202.152C510.597 201.496 514.083 202.407 514.806 206.153C515.341 208.928 513.97 210.775 511.542 211.244C508.906 211.752 507.032 210.243 506.523 207.607L506.001 204.901C505.614 204.76 505.393 204.731 504.907 204.825C502.479 205.293 501.772 209.459 501.468 213.475L501.057 218.807C500.713 222.615 499.746 226.184 496.46 228.545L497.848 228.277C506.797 226.55 511.566 228.148 514.674 235.68L516.732 240.751C518.79 245.823 520.502 248.73 523.416 248.168C524.11 248.034 525.11 247.625 526.129 246.565L526.791 247.013C525.517 248.986 523.388 250.26 520.752 250.769C515.41 251.8 512.286 248.661 509.902 242.645L507.873 237.352C505.586 231.461 502.667 228.642 495.73 229.981L490.666 230.958L494.962 253.227L499.726 253.675L499.86 254.368L483.349 257.554L483.215 256.86L487.47 254.672L483.173 232.404L478.109 233.381C471.172 234.719 469.581 238.408 469.58 244.74L469.666 250.408C469.691 256.879 468.029 260.942 462.618 261.986C459.982 262.495 457.532 262.104 455.615 260.747L456.063 260.085C457.403 260.69 458.483 260.697 459.177 260.563C461.952 260.028 462.583 256.956 462.622 251.192L462.714 245.705C462.755 237.711 466.422 234.341 475.579 232.574L476.897 232.319C472.968 231.351 470.744 228.398 469.077 224.978L466.712 220.181C464.935 216.567 462.659 212.976 460.231 213.445C459.815 213.525 459.551 213.648 459.244 213.923Z" fill="black"/>
<g filter="url(#filter11_d_365_7)">
<rect x="488.182" y="64.291" width="137.44" height="137.44" transform="rotate(-27.8899 488.182 64.291)" fill="#F6E1BF"/>
<rect x="488.555" y="64.4058" width="136.888" height="136.888" transform="rotate(-27.8899 488.555 64.4058)" stroke="black" stroke-width="0.551969"/>
</g>
<path d="M556.79 82.8742L555.728 83.436L551.3 75.0683L551.594 74.1134L554.943 74.0991C556.887 70.6724 560.795 67.4847 564.854 65.3365C573.597 60.7097 581.964 61.7171 585.665 68.7111C588.574 74.2063 586.652 79.9396 581.193 84.4274C588.782 81.8499 595.61 83.2722 598.783 89.267C602.649 96.5732 598.189 104.609 588.448 109.765C584.139 112.045 578.96 113.587 574.876 113.271L573.013 116.095L572.058 115.801L567.596 107.371L568.658 106.809C574.442 113.66 582.222 111.141 586.031 109.125C592.713 105.589 595.516 99.709 591.848 92.7775C588.146 85.7836 581.682 85.0482 574.688 88.7497C573.189 89.5429 571.224 90.6629 569.416 91.7793L568.524 90.0932C570.497 89.2891 572.528 88.294 574.027 87.5008C579.959 84.3611 582.366 79.0906 578.862 72.4714C575.293 65.7272 569.611 64.6576 564.053 67.599C560.931 69.2515 554.249 74.1468 556.79 82.8742Z" fill="black"/>
<g filter="url(#filter12_d_365_7)">
<rect x="581.028" y="135.232" width="137.44" height="137.44" transform="rotate(22.9792 581.028 135.232)" fill="#F6E1BF"/>
<rect x="581.174" y="135.594" width="136.888" height="136.888" transform="rotate(22.9792 581.174 135.594)" stroke="black" stroke-width="0.551969"/>
</g>
<path d="M587.832 231.492L592.584 232.049L610.292 190.289L606.588 187.261L606.864 186.61L622.345 193.175L622.069 193.825L617.317 193.268L601.513 230.539L640.385 204.201L640.799 203.225L637.095 200.197L637.371 199.546L652.786 206.083L652.511 206.734L647.759 206.177L630.051 247.936L633.755 250.965L633.479 251.615L618.063 245.078L618.339 244.428L623.091 244.985L638.978 207.518L600.106 233.857L599.609 235.027L603.313 238.056L603.037 238.707L587.557 232.142L587.832 231.492Z" fill="black"/>
<g filter="url(#filter13_d_365_7)">
<rect x="520.007" y="291.992" width="137.44" height="137.44" transform="rotate(8.46608 520.007 291.992)" fill="#F6E1BF"/>
<rect x="520.24" y="292.305" width="136.888" height="136.888" transform="rotate(8.46608 520.24 292.305)" stroke="black" stroke-width="0.551969"/>
</g>
<path d="M597.918 388.499L598.394 389.141C596.537 390.579 593.966 391.053 591.241 390.648C585.51 389.795 583.815 385.828 583.283 379.32L582.794 372.533C582.396 367.045 580.338 363.596 573.56 362.587L568.249 361.796L564.91 384.228L569.254 386.232L569.15 386.931L552.518 384.455L552.622 383.757L557.362 383.105L564.04 338.241L559.695 336.237L559.799 335.538L576.431 338.013L576.327 338.712L571.587 339.364L568.446 360.468C575.225 361.477 579.068 358.692 581.316 353.669L583.462 348.846C585.661 343.673 588.374 339.362 594.454 340.267C598.018 340.798 600.933 342.803 600.372 346.577C599.956 349.372 598.05 350.66 595.604 350.296C592.948 349.901 591.681 347.855 592.077 345.199L592.482 342.474C592.164 342.212 591.825 342.091 591.336 342.018C588.68 341.622 586.592 345.097 584.94 348.995L582.853 353.898C581.334 357.387 579.028 360.401 574.865 361.495L576.193 361.693C585.417 363.066 589.445 366.237 590.044 373.255L590.634 379.843C591.091 385.411 591.682 388.642 594.757 389.1C595.456 389.204 596.535 389.15 597.918 388.499Z" fill="black"/>
<g filter="url(#filter14_d_365_7)">
<rect x="403.848" y="291.992" width="137.44" height="137.44" transform="rotate(11.6341 403.848 291.992)" fill="#F6E1BF"/>
<rect x="404.063" y="292.318" width="136.888" height="136.888" transform="rotate(11.6341 404.063 292.318)" stroke="black" stroke-width="0.551969"/>
</g>
<path d="M486.765 349.149L480.801 394.232L484.821 396.43L484.678 397.122L468.485 393.788L468.628 393.096L473.397 392.707L478.74 352.042L452.292 390.454L450.009 389.984L440.624 344.122L429.356 383.784L433.307 385.968L433.193 386.521L423.021 384.427L423.135 383.873L427.903 383.485L440.331 339.589L436.104 337.348L436.246 336.656L446.834 338.836L455.728 383.226L481.296 345.932L491.468 348.026L491.326 348.718L486.765 349.149Z" fill="black"/>
<g filter="url(#filter15_d_365_7)">
<rect x="586.432" y="401.292" width="137.44" height="137.44" transform="rotate(-2.76659 586.432 401.292)" fill="#F6E1BF"/>
<rect x="586.721" y="401.555" width="136.888" height="136.888" transform="rotate(-2.76659 586.721 401.555)" stroke="black" stroke-width="0.551969"/>
</g>
<path d="M641.372 474.869L643.597 437.484L638.959 436.647L638.928 436.012L676.189 434.212L676.22 434.847L671.684 436.127L673.89 481.785L678.542 482.905L678.576 483.61L661.851 484.419L661.817 483.713L666.339 482.15L664.119 436.209L645.348 437.117L643.196 474.568C642.785 482.157 640.344 485.812 635.969 486.023C633.287 486.153 629.556 485.06 629.359 480.967C629.222 478.144 630.911 476.506 633.311 476.39C635.781 476.271 637.627 477.879 637.763 480.702L637.879 483.101C638.094 483.162 638.309 483.222 638.521 483.212C639.862 483.147 641.056 480.048 641.372 474.869Z" fill="black"/>
<g filter="url(#filter16_d_365_7)">
<rect x="429.673" y="438.471" width="137.44" height="137.44" transform="rotate(-18.5889 429.673 438.471)" fill="#F6E1BF"/>
<rect x="430.022" y="438.645" width="136.888" height="136.888" transform="rotate(-18.5889 430.022 438.645)" stroke="black" stroke-width="0.551969"/>
</g>
<path d="M498.633 505.973L502.558 503.237L488.098 460.245L483.318 460.436L483.092 459.767L499.03 454.406L499.256 455.076L495.331 457.812L502.177 478.17L526.419 470.017L519.572 449.659L514.792 449.851L514.566 449.181L530.437 443.843L530.663 444.513L526.738 447.249L541.197 490.242L545.978 490.05L546.203 490.72L530.332 496.058L530.107 495.388L534.032 492.652L526.892 471.423L502.65 479.576L509.79 500.805L514.571 500.613L514.796 501.283L498.858 506.643L498.633 505.973Z" fill="black"/>
<g filter="url(#filter17_d_365_7)">
<rect x="290.134" y="250.594" width="137.44" height="137.44" transform="rotate(18.5462 290.134 250.594)" fill="#F6E1BF"/>
<rect x="290.308" y="250.944" width="136.888" height="136.888" transform="rotate(18.5462 290.308 250.944)" stroke="black" stroke-width="0.551969"/>
</g>
<path d="M310.803 322.863C315.702 308.26 328.047 302.118 341.376 306.59C354.639 311.039 360.848 323.407 355.949 338.009C351.006 352.745 338.639 358.731 325.376 354.282C312.046 349.81 305.859 337.599 310.803 322.863ZM318.349 325.469C313.293 340.54 316.938 350.333 325.713 353.277C334.421 356.198 343.235 350.585 348.291 335.514C353.37 320.376 349.747 310.516 341.039 307.595C332.264 304.651 323.428 310.331 318.349 325.469Z" fill="black"/>
<g filter="url(#filter18_d_365_7)">
<rect x="319.42" y="414.529" width="137.44" height="137.44" transform="rotate(9.07071 319.42 414.529)" fill="#F6E1BF"/>
<rect x="319.649" y="414.845" width="136.888" height="136.888" transform="rotate(9.07071 319.649 414.845)" stroke="black" stroke-width="0.551969"/>
</g>
<path d="M349.163 506.33L353.91 505.728L361.117 460.588L356.749 458.817L356.849 458.189L405.617 465.975L405.517 466.603L400.815 466.926L393.608 512.066L397.932 514.116L397.82 514.813L381.285 512.173L381.396 511.476L386.143 510.874L393.394 465.455L368.696 461.512L361.445 506.931L365.768 508.981L365.657 509.678L349.052 507.027L349.163 506.33Z" fill="black"/>
<g filter="url(#filter19_d_365_7)">
<rect x="134.616" y="278.01" width="137.44" height="137.44" transform="rotate(-11.636 134.616 278.01)" fill="#F6E1BF"/>
<rect x="134.942" y="278.225" width="136.888" height="136.888" transform="rotate(-11.636 134.942 278.225)" stroke="black" stroke-width="0.551969"/>
</g>
<path d="M207.749 302.387L201.106 303.755L210.383 348.805L217.573 348.694L217.716 349.386L198.824 353.277L198.682 352.585L202.909 350.344L193.689 305.571L188.978 305.459L188.849 304.837L208.364 300.818C219.297 298.567 227.978 302.189 229.759 310.839C231.541 319.489 224.997 326.247 214.064 328.498L208.459 329.652L207.374 328.938L207.274 328.454L212.879 327.299C219.799 325.874 223.857 320.711 222.147 312.407C220.437 304.103 214.669 300.962 207.749 302.387Z" fill="black"/>
<g filter="url(#filter20_d_365_7)">
<rect x="222.77" y="373.683" width="137.44" height="137.44" transform="rotate(23.4667 222.77 373.683)" fill="#F6E1BF"/>
<rect x="222.913" y="374.046" width="136.888" height="136.888" transform="rotate(23.4667 222.913 374.046)" stroke="black" stroke-width="0.551969"/>
</g>
<path d="M272.809 481.649L273.184 482.737C267.022 485.222 260.491 485.006 253.557 481.995C239.947 476.087 235.024 463.475 241.214 449.217C247.375 435.024 260.044 429.972 273.33 435.739C278.255 437.877 282.776 441.303 285.122 445.48L288.547 445.041L288.914 445.971L285.031 454.914L283.929 454.436C285.961 444.612 278.191 439.621 273.979 437.792C264.063 433.488 254.727 438.138 248.65 452.137C243.107 464.904 244.995 475.814 256.855 480.962C261.845 483.129 267.39 483.841 272.809 481.649Z" fill="black"/>
<g filter="url(#filter21_d_365_7)">
<rect x="32.6694" y="288.68" width="137.44" height="137.44" transform="rotate(8.48761 32.6694 288.68)" fill="#F6E1BF"/>
<rect x="32.9017" y="288.994" width="136.888" height="136.888" transform="rotate(8.48761 32.9017 288.994)" stroke="black" stroke-width="0.551969"/>
</g>
<path d="M112.543 339.654L99.4759 337.704L92.6874 383.195L97.0313 385.2L96.927 385.899L80.296 383.417L80.4003 382.718L85.1405 382.068L91.9291 336.578L78.9317 334.638L74.5734 341.345L73.4553 341.178L74.7379 332.583L117.154 338.913L115.871 347.508L114.684 347.331L112.543 339.654Z" fill="black"/>
<g filter="url(#filter22_d_365_7)">
<rect x="46.606" y="452.029" width="137.44" height="137.44" transform="rotate(-10.6314 46.606 452.029)" fill="#F6E1BF"/>
<rect x="46.9281" y="452.249" width="136.888" height="136.888" transform="rotate(-10.6314 46.9281 452.249)" stroke="black" stroke-width="0.551969"/>
</g>
<path d="M126.568 511.904L102.735 481.441L97.9735 480.969L97.8432 480.275L114.578 477.133L114.708 477.828L110.443 479.994L129.266 504.065L138.635 474.702L132.277 474.53L132.146 473.836L144.506 471.516L144.637 472.21L140.163 474.416L128.365 511.136C125.242 520.923 123.017 526.301 117.184 527.396C114.476 527.904 109.849 527.766 109.028 523.392C108.506 520.614 110.082 518.665 112.373 518.235C114.803 517.779 116.796 519.202 117.239 521.563L117.878 524.965C118.182 525.052 118.472 525.069 118.82 525.004C122.222 524.365 124.578 518.532 126.568 511.904Z" fill="black"/>
<g filter="url(#filter23_d_365_7)">
<rect x="32.5723" y="530.443" width="137.44" height="137.44" transform="rotate(10.0787 32.5723 530.443)" fill="#F6E1BF"/>
<rect x="32.7957" y="530.763" width="136.888" height="136.888" transform="rotate(10.0787 32.7957 530.763)" stroke="black" stroke-width="0.551969"/>
</g>
<path d="M97.2848 581.823L96.679 585.231C110.73 587.729 118.778 596.551 116.689 608.307C114.574 620.202 103.992 625.64 89.9405 623.143L89.347 626.482L93.4249 628.57L93.3013 629.265L77.0238 626.372L77.1475 625.677L81.9039 625.159L82.4974 621.82C68.4459 619.322 60.4553 610.582 62.5696 598.687C64.6591 586.931 75.1844 581.411 89.2359 583.908L89.8417 580.5L85.5551 578.375L85.6788 577.679L101.956 580.572L101.833 581.268L97.2848 581.823ZM82.6828 620.776L89.0504 584.952C79.7291 583.295 72.5444 588.189 70.4177 600.154C68.3034 612.049 73.3616 619.119 82.6828 620.776ZM96.4935 586.275L90.126 622.099C99.4472 623.756 106.632 618.862 108.746 606.967C110.873 595.002 105.815 587.932 96.4935 586.275Z" fill="black"/>
<g filter="url(#filter24_d_365_7)">
<rect x="152.113" y="537.277" width="137.44" height="137.44" transform="rotate(-3.73863 152.113 537.277)" fill="#F6E1BF"/>
<rect x="152.407" y="537.535" width="136.888" height="136.888" transform="rotate(-3.73863 152.407 537.535)" stroke="black" stroke-width="0.551969"/>
</g>
<path d="M239.029 616.4L222.269 596.112L207.868 618.436L213.877 619.388L213.923 620.093L201.304 620.918L201.258 620.213L206.176 618.546L221.283 595.115L203.359 573.275L198.971 572.217L198.925 571.511L215.704 570.415L215.75 571.12L211.255 572.759L226.575 591.583L239.315 570.926L233.235 569.978L233.189 569.273L245.808 568.448L245.855 569.153L241.007 570.815L227.565 592.651L246.855 615.888L251.314 616.942L251.36 617.647L234.51 618.748L234.464 618.043L239.029 616.4Z" fill="black"/>
<g filter="url(#filter25_d_365_7)">
<rect x="76.4121" y="652.958" width="137.44" height="137.44" transform="rotate(-18.2455 76.4121 652.958)" fill="#F6E1BF"/>
<rect x="76.7606" y="653.133" width="136.888" height="136.888" transform="rotate(-18.2455 76.7606 653.133)" stroke="black" stroke-width="0.551969"/>
</g>
<path d="M189.423 706.96L147.284 720.852L147.107 720.315L151.115 717.803L136.803 674.39L132.021 674.553L131.8 673.882L147.77 668.617L147.991 669.288L144.05 672.001L158.45 715.683L181.868 707.963L167.468 664.281L162.686 664.444L162.465 663.773L178.367 658.53L178.588 659.201L174.647 661.914L189.048 705.596L194.08 703.937L197.885 715.478L196.274 716.009L189.423 706.96Z" fill="black"/>
<g filter="url(#filter26_d_365_7)">
<rect x="302.345" y="525.337" width="137.44" height="137.44" transform="rotate(22.5705 302.345 525.337)" fill="#F6E1BF"/>
<rect x="302.494" y="525.698" width="136.888" height="136.888" transform="rotate(22.5705 302.494 525.698)" stroke="black" stroke-width="0.551969"/>
</g>
<path d="M340.577 583.747L335.75 595.36C332.93 602.145 333.396 607.465 340.247 610.313C343.509 611.669 348.847 612.816 352.922 612.215L361.193 592.316L357.468 589.314L357.739 588.662L373.266 595.116L372.995 595.768L368.239 595.245L350.83 637.13L354.555 640.132L354.284 640.784L338.756 634.33L339.028 633.678L343.784 634.201L352.38 613.52C347.277 614.383 340.684 612.943 336.378 611.153C327.309 607.384 325.179 600.913 328.324 593.345L333.531 580.818L329.806 577.816L330.077 577.164L345.604 583.618L345.333 584.27L340.577 583.747Z" fill="black"/>
<g filter="url(#filter27_d_365_7)">
<rect x="385.78" y="560.665" width="137.44" height="137.44" transform="rotate(-7.67946 385.78 560.665)" fill="#F6E1BF"/>
<rect x="386.09" y="560.902" width="136.888" height="136.888" transform="rotate(-7.67946 386.09 560.902)" stroke="black" stroke-width="0.551969"/>
</g>
<path d="M428.702 641.762L433.103 640.028L426.994 594.726L422.264 594.009L422.169 593.309L438.833 591.062L438.928 591.762L434.556 593.706L440.702 639.288L461.498 636.484L455.352 590.902L450.621 590.185L450.527 589.485L467.191 587.238L467.285 587.938L462.914 589.882L469.06 635.464L489.855 632.66L483.709 587.078L478.978 586.362L478.884 585.661L495.548 583.414L495.643 584.115L491.271 586.059L497.38 631.361L502.082 631.867L502.157 632.427L428.778 642.322L428.702 641.762Z" fill="black"/>
<g filter="url(#filter28_d_365_7)">
<rect x="343.021" y="636.794" width="137.44" height="137.44" transform="rotate(13.3128 343.021 636.794)" fill="#F6E1BF"/>
<rect x="343.227" y="637.127" width="136.888" height="136.888" transform="rotate(13.3128 343.227 637.127)" stroke="black" stroke-width="0.551969"/>
</g>
<path d="M419.817 744.03L352.301 728.054L352.432 727.504L357.161 727.462L367.687 682.978L363.527 680.614L363.69 679.927L380.053 683.799L379.89 684.486L375.112 684.735L364.521 729.494L384.941 734.326L395.532 689.567L391.372 687.203L391.535 686.516L407.898 690.388L407.735 691.075L402.957 691.324L392.366 736.083L412.786 740.914L423.377 696.156L419.217 693.792L419.38 693.105L435.743 696.977L435.581 697.664L430.802 697.913L420.211 742.672L425.299 743.875L422.501 755.701L420.92 755.327L419.817 744.03Z" fill="black"/>
<g filter="url(#filter29_d_365_7)">
<rect x="534.631" y="511.676" width="137.44" height="137.44" transform="rotate(14.6922 534.631 511.676)" fill="#F6E1BF"/>
<rect x="534.828" y="512.013" width="136.888" height="136.888" transform="rotate(14.6922 534.828 512.013)" stroke="black" stroke-width="0.551969"/>
</g>
<path d="M588.752 566.091L583.574 585.841L592.595 588.207C603.256 591.002 609.329 597.926 607.179 606.128C605.01 614.397 596.321 617.451 585.66 614.655L564.816 609.19L564.959 608.643L569.688 608.714L581.443 563.882L570.713 561.069L565.724 567.284L564.562 566.979L566.766 558.573L593.625 565.615L593.463 566.23L588.752 566.091ZM576.997 610.923L584.651 612.93C591.622 614.758 597.582 612.084 599.661 604.156C601.722 596.297 597.822 591.111 590.852 589.284L583.197 587.277L576.997 610.923Z" fill="black"/>
<g filter="url(#filter30_d_365_7)">
<rect x="601.558" y="641.015" width="137.44" height="137.44" transform="rotate(-9.92569 601.558 641.015)" fill="#F6E1BF"/>
<rect x="601.877" y="641.239" width="136.888" height="136.888" transform="rotate(-9.92569 601.877 641.239)" stroke="black" stroke-width="0.551969"/>
</g>
<path d="M658.66 670.882L662.118 690.647L671.374 689.028C682.162 687.14 690.636 690.893 692.098 699.244C693.571 707.665 686.875 714.073 676.087 715.961L654.791 719.687L654.694 719.13L659.023 717.225L651.143 672.198L646.388 671.667L646.267 670.971L662.83 668.073L662.952 668.769L658.66 670.882ZM666.588 716.188L674.382 714.825C681.481 713.582 685.855 708.657 684.442 700.584C683.042 692.58 677.267 689.503 670.169 690.745L662.374 692.109L666.588 716.188ZM701.043 663.466L708.861 708.146L713.407 708.713L713.529 709.409L697.244 712.258L697.122 711.562L701.415 709.449L693.596 664.769L688.841 664.238L688.719 663.542L705.004 660.692L705.126 661.388L701.043 663.466Z" fill="black"/>
<g filter="url(#filter31_d_365_7)">
<rect x="21.2524" y="731.356" width="137.44" height="137.44" transform="rotate(-8.99423 21.2524 731.356)" fill="#F6E1BF"/>
<rect x="21.5682" y="731.586" width="136.888" height="136.888" transform="rotate(-8.99423 21.5682 731.586)" stroke="black" stroke-width="0.551969"/>
</g>
<path d="M86.5837 760.767L89.7206 780.586L99.0018 779.117C109.818 777.405 118.231 781.295 119.556 789.669C120.893 798.113 114.093 804.411 103.276 806.123L81.9227 809.503L81.8343 808.944L86.1935 807.11L79.0471 761.96L74.3014 761.352L74.1909 760.654L90.7993 758.026L90.9098 758.723L86.5837 760.767ZM93.7743 806.196L101.59 804.959C108.708 803.832 113.161 798.979 111.88 790.884C110.61 782.859 104.886 779.687 97.7683 780.814L89.9526 782.051L93.7743 806.196Z" fill="black"/>
<g filter="url(#filter32_d_365_7)">
<rect x="207.042" y="724.736" width="137.44" height="137.44" transform="rotate(11.9745 207.042 724.736)" fill="#F6E1BF"/>
<rect x="207.255" y="725.063" width="136.888" height="136.888" transform="rotate(11.9745 207.255 725.063)" stroke="black" stroke-width="0.551969"/>
</g>
<path d="M277.849 803.29L252.76 797.969L253.053 796.587L278.142 801.908C280.713 788.081 276.761 778.792 265.426 776.388C260.934 775.435 251.878 774.887 247.876 784.222L246.701 783.972L248.724 774.434L249.561 773.89L252.098 776.233C256.5 774.206 262.169 774.036 267.353 775.136C281.521 778.141 288.982 789.618 285.772 804.754C282.561 819.89 271.085 827.35 256.778 824.316C251.525 823.202 246.136 820.687 243.005 817.061L239.736 818.174L239.191 817.336L241.199 807.867L242.374 808.116C242.425 818.094 250.771 821.309 255.471 822.305C266.737 824.695 274.609 818.564 277.849 803.29Z" fill="black"/>
<g filter="url(#filter33_d_365_7)">
<rect x="435" y="796.698" width="137.44" height="137.44" transform="rotate(-15.4863 435 796.698)" fill="#F6E1BF"/>
<rect x="435.34" y="796.89" width="136.888" height="136.888" transform="rotate(-15.4863 435.34 796.89)" stroke="black" stroke-width="0.551969"/>
</g>
<path d="M491.162 870.339L495.229 867.819L483.118 824.108L478.334 824.04L478.146 823.359L494.35 818.869L494.539 819.55L490.472 822.07L496.207 842.769L505.603 840.165C502.087 825.89 508.263 814.575 520.451 811.198C532.979 807.727 544.297 814.708 548.41 829.551C552.56 844.53 546.41 856.205 533.882 859.676C521.422 863.128 510.16 856.351 505.999 841.595L496.603 844.198L502.583 865.782L507.367 865.849L507.556 866.53L491.351 871.02L491.162 870.339ZM513.636 839.259C517.881 854.579 525.701 860.843 533.599 858.655C541.497 856.466 544.979 847.071 540.735 831.751C536.471 816.363 528.632 810.031 520.734 812.219C512.835 814.408 509.373 823.871 513.636 839.259Z" fill="black"/>
<g filter="url(#filter34_d_365_7)">
<rect x="575.393" y="825.194" width="137.44" height="137.44" fill="#F6E1BF"/>
<rect x="575.669" y="825.47" width="136.888" height="136.888" stroke="black" stroke-width="0.551969"/>
</g>
<path d="M621.785 909.745L622.35 909.179C623.551 910.027 624.611 910.239 625.317 910.239C628.073 910.239 629.133 907.484 630.404 902.326L631.605 897.239C632.948 891.728 635.562 888.832 640.719 887.701C632.1 886.712 626.872 882.049 626.872 875.125C626.872 867.141 634.008 862.408 644.535 862.408H665.872V863.044L661.279 864.103V909.815L665.872 911.158V911.864H648.703V911.158L653.719 909.815V888.266H649.127C642.486 888.266 640.154 891.728 638.883 897.522L637.681 902.75C636.339 908.685 633.866 912.288 628.426 912.288C625.741 912.288 623.41 911.44 621.785 909.745ZM653.719 863.821H645.453C639.165 863.821 634.643 867.565 634.643 875.337C634.643 883.18 639.165 886.853 645.453 886.853H653.719V863.821Z" fill="black"/>
<defs>
<filter id="filter0_d_365_7" x="296" y="738" width="202.613" height="202.613" filterUnits="userSpaceOnUse" color-interpolation-filters="sRGB">
<feFlood flood-opacity="0" result="BackgroundImageFix"/>
<feColorMatrix in="SourceAlpha" type="matrix" values="0 0 0 0 0 0 0 0 0 0 0 0 0 0 0 0 0 0 127 0" result="hardAlpha"/>
<feOffset dy="4"/>
<feGaussianBlur stdDeviation="2"/>
<feComposite in2="hardAlpha" operator="out"/>
<feColorMatrix type="matrix" values="0 0 0 0 0 0 0 0 0 0 0 0 0 0 0 0 0 0 0.25 0"/>
<feBlend mode="normal" in2="BackgroundImageFix" result="effect1_dropShadow_365_7"/>
<feBlend mode="normal" in="SourceGraphic" in2="effect1_dropShadow_365_7" result="shape"/>
</filter>
<filter id="filter1_d_365_7" x="639" y="742" width="202.613" height="202.613" filterUnits="userSpaceOnUse" color-interpolation-filters="sRGB">
<feFlood flood-opacity="0" result="BackgroundImageFix"/>
<feColorMatrix in="SourceAlpha" type="matrix" values="0 0 0 0 0 0 0 0 0 0 0 0 0 0 0 0 0 0 127 0" result="hardAlpha"/>
<feOffset dy="4"/>
<feGaussianBlur stdDeviation="2"/>
<feComposite in2="hardAlpha" operator="out"/>
<feColorMatrix type="matrix" values="0 0 0 0 0 0 0 0 0 0 0 0 0 0 0 0 0 0 0.25 0"/>
<feBlend mode="normal" in2="BackgroundImageFix" result="effect1_dropShadow_365_7"/>
<feBlend mode="normal" in="SourceGraphic" in2="effect1_dropShadow_365_7" result="shape"/>
</filter>
<filter id="filter2_d_365_7" x="621.758" y="108.738" width="152.75" height="152.75" filterUnits="userSpaceOnUse" color-interpolation-filters="sRGB">
<feFlood flood-opacity="0" result="BackgroundImageFix"/>
<feColorMatrix in="SourceAlpha" type="matrix" values="0 0 0 0 0 0 0 0 0 0 0 0 0 0 0 0 0 0 127 0" result="hardAlpha"/>
<feOffset dy="2.20788"/>
<feGaussianBlur stdDeviation="1.10394"/>
<feComposite in2="hardAlpha" operator="out"/>
<feColorMatrix type="matrix" values="0 0 0 0 0 0 0 0 0 0 0 0 0 0 0 0 0 0 0.25 0"/>
<feBlend mode="normal" in2="BackgroundImageFix" result="effect1_dropShadow_365_7"/>
<feBlend mode="normal" in="SourceGraphic" in2="effect1_dropShadow_365_7" result="shape"/>
</filter>
<filter id="filter3_d_365_7" x="0.792122" y="25.3906" width="178.786" height="178.786" filterUnits="userSpaceOnUse" color-interpolation-filters="sRGB">
<feFlood flood-opacity="0" result="BackgroundImageFix"/>
<feColorMatrix in="SourceAlpha" type="matrix" values="0 0 0 0 0 0 0 0 0 0 0 0 0 0 0 0 0 0 127 0" result="hardAlpha"/>
<feOffset dy="2.20788"/>
<feGaussianBlur stdDeviation="1.10394"/>
<feComposite in2="hardAlpha" operator="out"/>
<feColorMatrix type="matrix" values="0 0 0 0 0 0 0 0 0 0 0 0 0 0 0 0 0 0 0.25 0"/>
<feBlend mode="normal" in2="BackgroundImageFix" result="effect1_dropShadow_365_7"/>
<feBlend mode="normal" in="SourceGraphic" in2="effect1_dropShadow_365_7" result="shape"/>
</filter>
<filter id="filter4_d_365_7" x="145.134" y="36.1562" width="146.179" height="146.179" filterUnits="userSpaceOnUse" color-interpolation-filters="sRGB">
<feFlood flood-opacity="0" result="BackgroundImageFix"/>
<feColorMatrix in="SourceAlpha" type="matrix" values="0 0 0 0 0 0 0 0 0 0 0 0 0 0 0 0 0 0 127 0" result="hardAlpha"/>
<feOffset dy="2.20788"/>
<feGaussianBlur stdDeviation="1.10394"/>
<feComposite in2="hardAlpha" operator="out"/>
<feColorMatrix type="matrix" values="0 0 0 0 0 0 0 0 0 0 0 0 0 0 0 0 0 0 0.25 0"/>
<feBlend mode="normal" in2="BackgroundImageFix" result="effect1_dropShadow_365_7"/>
<feBlend mode="normal" in="SourceGraphic" in2="effect1_dropShadow_365_7" result="shape"/>
</filter>
<filter id="filter5_d_365_7" x="144.932" y="133.1" width="162.68" height="162.681" filterUnits="userSpaceOnUse" color-interpolation-filters="sRGB">
<feFlood flood-opacity="0" result="BackgroundImageFix"/>
<feColorMatrix in="SourceAlpha" type="matrix" values="0 0 0 0 0 0 0 0 0 0 0 0 0 0 0 0 0 0 127 0" result="hardAlpha"/>
<feOffset dy="2.20788"/>
<feGaussianBlur stdDeviation="1.10394"/>
<feComposite in2="hardAlpha" operator="out"/>
<feColorMatrix type="matrix" values="0 0 0 0 0 0 0 0 0 0 0 0 0 0 0 0 0 0 0.25 0"/>
<feBlend mode="normal" in2="BackgroundImageFix" result="effect1_dropShadow_365_7"/>
<feBlend mode="normal" in="SourceGraphic" in2="effect1_dropShadow_365_7" result="shape"/>
</filter>
<filter id="filter6_d_365_7" x="30.5988" y="142.96" width="168.621" height="168.622" filterUnits="userSpaceOnUse" color-interpolation-filters="sRGB">
<feFlood flood-opacity="0" result="BackgroundImageFix"/>
<feColorMatrix in="SourceAlpha" type="matrix" values="0 0 0 0 0 0 0 0 0 0 0 0 0 0 0 0 0 0 127 0" result="hardAlpha"/>
<feOffset dy="2.20788"/>
<feGaussianBlur stdDeviation="1.10394"/>
<feComposite in2="hardAlpha" operator="out"/>
<feColorMatrix type="matrix" values="0 0 0 0 0 0 0 0 0 0 0 0 0 0 0 0 0 0 0.25 0"/>
<feBlend mode="normal" in2="BackgroundImageFix" result="effect1_dropShadow_365_7"/>
<feBlend mode="normal" in="SourceGraphic" in2="effect1_dropShadow_365_7" result="shape"/>
</filter>
<filter id="filter7_d_365_7" x="257.459" y="25.3906" width="174.414" height="174.414" filterUnits="userSpaceOnUse" color-interpolation-filters="sRGB">
<feFlood flood-opacity="0" result="BackgroundImageFix"/>
<feColorMatrix in="SourceAlpha" type="matrix" values="0 0 0 0 0 0 0 0 0 0 0 0 0 0 0 0 0 0 127 0" result="hardAlpha"/>
<feOffset dy="2.20788"/>
<feGaussianBlur stdDeviation="1.10394"/>
<feComposite in2="hardAlpha" operator="out"/>
<feColorMatrix type="matrix" values="0 0 0 0 0 0 0 0 0 0 0 0 0 0 0 0 0 0 0.25 0"/>
<feBlend mode="normal" in2="BackgroundImageFix" result="effect1_dropShadow_365_7"/>
<feBlend mode="normal" in="SourceGraphic" in2="effect1_dropShadow_365_7" result="shape"/>
</filter>
<filter id="filter8_d_365_7" x="257.458" y="143.512" width="174.416" height="174.416" filterUnits="userSpaceOnUse" color-interpolation-filters="sRGB">
<feFlood flood-opacity="0" result="BackgroundImageFix"/>
<feColorMatrix in="SourceAlpha" type="matrix" values="0 0 0 0 0 0 0 0 0 0 0 0 0 0 0 0 0 0 127 0" result="hardAlpha"/>
<feOffset dy="2.20788"/>
<feGaussianBlur stdDeviation="1.10394"/>
<feComposite in2="hardAlpha" operator="out"/>
<feColorMatrix type="matrix" values="0 0 0 0 0 0 0 0 0 0 0 0 0 0 0 0 0 0 0.25 0"/>
<feBlend mode="normal" in2="BackgroundImageFix" result="effect1_dropShadow_365_7"/>
<feBlend mode="normal" in="SourceGraphic" in2="effect1_dropShadow_365_7" result="shape"/>
</filter>
<filter id="filter9_d_365_7" x="379.996" y="49.1255" width="155.424" height="155.424" filterUnits="userSpaceOnUse" color-interpolation-filters="sRGB">
<feFlood flood-opacity="0" result="BackgroundImageFix"/>
<feColorMatrix in="SourceAlpha" type="matrix" values="0 0 0 0 0 0 0 0 0 0 0 0 0 0 0 0 0 0 127 0" result="hardAlpha"/>
<feOffset dy="2.20788"/>
<feGaussianBlur stdDeviation="1.10394"/>
<feComposite in2="hardAlpha" operator="out"/>
<feColorMatrix type="matrix" values="0 0 0 0 0 0 0 0 0 0 0 0 0 0 0 0 0 0 0.25 0"/>
<feBlend mode="normal" in2="BackgroundImageFix" result="effect1_dropShadow_365_7"/>
<feBlend mode="normal" in="SourceGraphic" in2="effect1_dropShadow_365_7" result="shape"/>
</filter>
<filter id="filter10_d_365_7" x="405.386" y="157.863" width="165.406" height="165.406" filterUnits="userSpaceOnUse" color-interpolation-filters="sRGB">
<feFlood flood-opacity="0" result="BackgroundImageFix"/>
<feColorMatrix in="SourceAlpha" type="matrix" values="0 0 0 0 0 0 0 0 0 0 0 0 0 0 0 0 0 0 127 0" result="hardAlpha"/>
<feOffset dy="2.20788"/>
<feGaussianBlur stdDeviation="1.10394"/>
<feComposite in2="hardAlpha" operator="out"/>
<feColorMatrix type="matrix" values="0 0 0 0 0 0 0 0 0 0 0 0 0 0 0 0 0 0 0.25 0"/>
<feBlend mode="normal" in2="BackgroundImageFix" result="effect1_dropShadow_365_7"/>
<feBlend mode="normal" in="SourceGraphic" in2="effect1_dropShadow_365_7" result="shape"/>
</filter>
<filter id="filter11_d_365_7" x="485.974" y="0" width="190.183" height="190.183" filterUnits="userSpaceOnUse" color-interpolation-filters="sRGB">
<feFlood flood-opacity="0" result="BackgroundImageFix"/>
<feColorMatrix in="SourceAlpha" type="matrix" values="0 0 0 0 0 0 0 0 0 0 0 0 0 0 0 0 0 0 127 0" result="hardAlpha"/>
<feOffset dy="2.20788"/>
<feGaussianBlur stdDeviation="1.10394"/>
<feComposite in2="hardAlpha" operator="out"/>
<feColorMatrix type="matrix" values="0 0 0 0 0 0 0 0 0 0 0 0 0 0 0 0 0 0 0.25 0"/>
<feBlend mode="normal" in2="BackgroundImageFix" result="effect1_dropShadow_365_7"/>
<feBlend mode="normal" in="SourceGraphic" in2="effect1_dropShadow_365_7" result="shape"/>
</filter>
<filter id="filter12_d_365_7" x="525.164" y="135.232" width="184.606" height="184.606" filterUnits="userSpaceOnUse" color-interpolation-filters="sRGB">
<feFlood flood-opacity="0" result="BackgroundImageFix"/>
<feColorMatrix in="SourceAlpha" type="matrix" values="0 0 0 0 0 0 0 0 0 0 0 0 0 0 0 0 0 0 127 0" result="hardAlpha"/>
<feOffset dy="2.20788"/>
<feGaussianBlur stdDeviation="1.10394"/>
<feComposite in2="hardAlpha" operator="out"/>
<feColorMatrix type="matrix" values="0 0 0 0 0 0 0 0 0 0 0 0 0 0 0 0 0 0 0.25 0"/>
<feBlend mode="normal" in2="BackgroundImageFix" result="effect1_dropShadow_365_7"/>
<feBlend mode="normal" in="SourceGraphic" in2="effect1_dropShadow_365_7" result="shape"/>
</filter>
<filter id="filter13_d_365_7" x="497.565" y="291.992" width="160.593" height="160.593" filterUnits="userSpaceOnUse" color-interpolation-filters="sRGB">
<feFlood flood-opacity="0" result="BackgroundImageFix"/>
<feColorMatrix in="SourceAlpha" type="matrix" values="0 0 0 0 0 0 0 0 0 0 0 0 0 0 0 0 0 0 127 0" result="hardAlpha"/>
<feOffset dy="2.20788"/>
<feGaussianBlur stdDeviation="1.10394"/>
<feComposite in2="hardAlpha" operator="out"/>
<feColorMatrix type="matrix" values="0 0 0 0 0 0 0 0 0 0 0 0 0 0 0 0 0 0 0.25 0"/>
<feBlend mode="normal" in2="BackgroundImageFix" result="effect1_dropShadow_365_7"/>
<feBlend mode="normal" in="SourceGraphic" in2="effect1_dropShadow_365_7" result="shape"/>
</filter>
<filter id="filter14_d_365_7" x="373.924" y="291.992" width="166.749" height="166.749" filterUnits="userSpaceOnUse" color-interpolation-filters="sRGB">
<feFlood flood-opacity="0" result="BackgroundImageFix"/>
<feColorMatrix in="SourceAlpha" type="matrix" values="0 0 0 0 0 0 0 0 0 0 0 0 0 0 0 0 0 0 127 0" result="hardAlpha"/>
<feOffset dy="2.20788"/>
<feGaussianBlur stdDeviation="1.10394"/>
<feComposite in2="hardAlpha" operator="out"/>
<feColorMatrix type="matrix" values="0 0 0 0 0 0 0 0 0 0 0 0 0 0 0 0 0 0 0.25 0"/>
<feBlend mode="normal" in2="BackgroundImageFix" result="effect1_dropShadow_365_7"/>
<feBlend mode="normal" in="SourceGraphic" in2="effect1_dropShadow_365_7" result="shape"/>
</filter>
<filter id="filter15_d_365_7" x="584.224" y="394.659" width="148.33" height="148.33" filterUnits="userSpaceOnUse" color-interpolation-filters="sRGB">
<feFlood flood-opacity="0" result="BackgroundImageFix"/>
<feColorMatrix in="SourceAlpha" type="matrix" values="0 0 0 0 0 0 0 0 0 0 0 0 0 0 0 0 0 0 127 0" result="hardAlpha"/>
<feOffset dy="2.20788"/>
<feGaussianBlur stdDeviation="1.10394"/>
<feComposite in2="hardAlpha" operator="out"/>
<feColorMatrix type="matrix" values="0 0 0 0 0 0 0 0 0 0 0 0 0 0 0 0 0 0 0.25 0"/>
<feBlend mode="normal" in2="BackgroundImageFix" result="effect1_dropShadow_365_7"/>
<feBlend mode="normal" in="SourceGraphic" in2="effect1_dropShadow_365_7" result="shape"/>
</filter>
<filter id="filter16_d_365_7" x="427.465" y="394.659" width="178.499" height="178.498" filterUnits="userSpaceOnUse" color-interpolation-filters="sRGB">
<feFlood flood-opacity="0" result="BackgroundImageFix"/>
<feColorMatrix in="SourceAlpha" type="matrix" values="0 0 0 0 0 0 0 0 0 0 0 0 0 0 0 0 0 0 127 0" result="hardAlpha"/>
<feOffset dy="2.20788"/>
<feGaussianBlur stdDeviation="1.10394"/>
<feComposite in2="hardAlpha" operator="out"/>
<feColorMatrix type="matrix" values="0 0 0 0 0 0 0 0 0 0 0 0 0 0 0 0 0 0 0.25 0"/>
<feBlend mode="normal" in2="BackgroundImageFix" result="effect1_dropShadow_365_7"/>
<feBlend mode="normal" in="SourceGraphic" in2="effect1_dropShadow_365_7" result="shape"/>
</filter>
<filter id="filter17_d_365_7" x="244.211" y="250.594" width="178.434" height="178.434" filterUnits="userSpaceOnUse" color-interpolation-filters="sRGB">
<feFlood flood-opacity="0" result="BackgroundImageFix"/>
<feColorMatrix in="SourceAlpha" type="matrix" values="0 0 0 0 0 0 0 0 0 0 0 0 0 0 0 0 0 0 127 0" result="hardAlpha"/>
<feOffset dy="2.20788"/>
<feGaussianBlur stdDeviation="1.10394"/>
<feComposite in2="hardAlpha" operator="out"/>
<feColorMatrix type="matrix" values="0 0 0 0 0 0 0 0 0 0 0 0 0 0 0 0 0 0 0.25 0"/>
<feBlend mode="normal" in2="BackgroundImageFix" result="effect1_dropShadow_365_7"/>
<feBlend mode="normal" in="SourceGraphic" in2="effect1_dropShadow_365_7" result="shape"/>
</filter>
<filter id="filter18_d_365_7" x="295.545" y="414.529" width="161.805" height="161.805" filterUnits="userSpaceOnUse" color-interpolation-filters="sRGB">
<feFlood flood-opacity="0" result="BackgroundImageFix"/>
<feColorMatrix in="SourceAlpha" type="matrix" values="0 0 0 0 0 0 0 0 0 0 0 0 0 0 0 0 0 0 127 0" result="hardAlpha"/>
<feOffset dy="2.20788"/>
<feGaussianBlur stdDeviation="1.10394"/>
<feComposite in2="hardAlpha" operator="out"/>
<feColorMatrix type="matrix" values="0 0 0 0 0 0 0 0 0 0 0 0 0 0 0 0 0 0 0.25 0"/>
<feBlend mode="normal" in2="BackgroundImageFix" result="effect1_dropShadow_365_7"/>
<feBlend mode="normal" in="SourceGraphic" in2="effect1_dropShadow_365_7" result="shape"/>
</filter>
<filter id="filter19_d_365_7" x="132.408" y="250.29" width="166.752" height="166.752" filterUnits="userSpaceOnUse" color-interpolation-filters="sRGB">
<feFlood flood-opacity="0" result="BackgroundImageFix"/>
<feColorMatrix in="SourceAlpha" type="matrix" values="0 0 0 0 0 0 0 0 0 0 0 0 0 0 0 0 0 0 127 0" result="hardAlpha"/>
<feOffset dy="2.20788"/>
<feGaussianBlur stdDeviation="1.10394"/>
<feComposite in2="hardAlpha" operator="out"/>
<feColorMatrix type="matrix" values="0 0 0 0 0 0 0 0 0 0 0 0 0 0 0 0 0 0 0.25 0"/>
<feBlend mode="normal" in2="BackgroundImageFix" result="effect1_dropShadow_365_7"/>
<feBlend mode="normal" in="SourceGraphic" in2="effect1_dropShadow_365_7" result="shape"/>
</filter>
<filter id="filter20_d_365_7" x="165.831" y="373.683" width="185.219" height="185.219" filterUnits="userSpaceOnUse" color-interpolation-filters="sRGB">
<feFlood flood-opacity="0" result="BackgroundImageFix"/>
<feColorMatrix in="SourceAlpha" type="matrix" values="0 0 0 0 0 0 0 0 0 0 0 0 0 0 0 0 0 0 127 0" result="hardAlpha"/>
<feOffset dy="2.20788"/>
<feGaussianBlur stdDeviation="1.10394"/>
<feComposite in2="hardAlpha" operator="out"/>
<feColorMatrix type="matrix" values="0 0 0 0 0 0 0 0 0 0 0 0 0 0 0 0 0 0 0.25 0"/>
<feBlend mode="normal" in2="BackgroundImageFix" result="effect1_dropShadow_365_7"/>
<feBlend mode="normal" in="SourceGraphic" in2="effect1_dropShadow_365_7" result="shape"/>
</filter>
<filter id="filter21_d_365_7" x="10.1759" y="288.68" width="160.636" height="160.636" filterUnits="userSpaceOnUse" color-interpolation-filters="sRGB">
<feFlood flood-opacity="0" result="BackgroundImageFix"/>
<feColorMatrix in="SourceAlpha" type="matrix" values="0 0 0 0 0 0 0 0 0 0 0 0 0 0 0 0 0 0 127 0" result="hardAlpha"/>
<feOffset dy="2.20788"/>
<feGaussianBlur stdDeviation="1.10394"/>
<feComposite in2="hardAlpha" operator="out"/>
<feColorMatrix type="matrix" values="0 0 0 0 0 0 0 0 0 0 0 0 0 0 0 0 0 0 0.25 0"/>
<feBlend mode="normal" in2="BackgroundImageFix" result="effect1_dropShadow_365_7"/>
<feBlend mode="normal" in="SourceGraphic" in2="effect1_dropShadow_365_7" result="shape"/>
</filter>
<filter id="filter22_d_365_7" x="44.3981" y="426.672" width="164.853" height="164.853" filterUnits="userSpaceOnUse" color-interpolation-filters="sRGB">
<feFlood flood-opacity="0" result="BackgroundImageFix"/>
<feColorMatrix in="SourceAlpha" type="matrix" values="0 0 0 0 0 0 0 0 0 0 0 0 0 0 0 0 0 0 127 0" result="hardAlpha"/>
<feOffset dy="2.20788"/>
<feGaussianBlur stdDeviation="1.10394"/>
<feComposite in2="hardAlpha" operator="out"/>
<feColorMatrix type="matrix" values="0 0 0 0 0 0 0 0 0 0 0 0 0 0 0 0 0 0 0.25 0"/>
<feBlend mode="normal" in2="BackgroundImageFix" result="effect1_dropShadow_365_7"/>
<feBlend mode="normal" in="SourceGraphic" in2="effect1_dropShadow_365_7" result="shape"/>
</filter>
<filter id="filter23_d_365_7" x="6.31214" y="530.443" width="163.787" height="163.787" filterUnits="userSpaceOnUse" color-interpolation-filters="sRGB">
<feFlood flood-opacity="0" result="BackgroundImageFix"/>
<feColorMatrix in="SourceAlpha" type="matrix" values="0 0 0 0 0 0 0 0 0 0 0 0 0 0 0 0 0 0 127 0" result="hardAlpha"/>
<feOffset dy="2.20788"/>
<feGaussianBlur stdDeviation="1.10394"/>
<feComposite in2="hardAlpha" operator="out"/>
<feColorMatrix type="matrix" values="0 0 0 0 0 0 0 0 0 0 0 0 0 0 0 0 0 0 0.25 0"/>
<feBlend mode="normal" in2="BackgroundImageFix" result="effect1_dropShadow_365_7"/>
<feBlend mode="normal" in="SourceGraphic" in2="effect1_dropShadow_365_7" result="shape"/>
</filter>
<filter id="filter24_d_365_7" x="149.905" y="528.315" width="150.526" height="150.526" filterUnits="userSpaceOnUse" color-interpolation-filters="sRGB">
<feFlood flood-opacity="0" result="BackgroundImageFix"/>
<feColorMatrix in="SourceAlpha" type="matrix" values="0 0 0 0 0 0 0 0 0 0 0 0 0 0 0 0 0 0 127 0" result="hardAlpha"/>
<feOffset dy="2.20788"/>
<feGaussianBlur stdDeviation="1.10394"/>
<feComposite in2="hardAlpha" operator="out"/>
<feColorMatrix type="matrix" values="0 0 0 0 0 0 0 0 0 0 0 0 0 0 0 0 0 0 0.25 0"/>
<feBlend mode="normal" in2="BackgroundImageFix" result="effect1_dropShadow_365_7"/>
<feBlend mode="normal" in="SourceGraphic" in2="effect1_dropShadow_365_7" result="shape"/>
</filter>
<filter id="filter25_d_365_7" x="74.2042" y="609.927" width="177.977" height="177.977" filterUnits="userSpaceOnUse" color-interpolation-filters="sRGB">
<feFlood flood-opacity="0" result="BackgroundImageFix"/>
<feColorMatrix in="SourceAlpha" type="matrix" values="0 0 0 0 0 0 0 0 0 0 0 0 0 0 0 0 0 0 127 0" result="hardAlpha"/>
<feOffset dy="2.20788"/>
<feGaussianBlur stdDeviation="1.10394"/>
<feComposite in2="hardAlpha" operator="out"/>
<feColorMatrix type="matrix" values="0 0 0 0 0 0 0 0 0 0 0 0 0 0 0 0 0 0 0.25 0"/>
<feBlend mode="normal" in2="BackgroundImageFix" result="effect1_dropShadow_365_7"/>
<feBlend mode="normal" in="SourceGraphic" in2="effect1_dropShadow_365_7" result="shape"/>
</filter>
<filter id="filter26_d_365_7" x="247.385" y="525.337" width="184.082" height="184.082" filterUnits="userSpaceOnUse" color-interpolation-filters="sRGB">
<feFlood flood-opacity="0" result="BackgroundImageFix"/>
<feColorMatrix in="SourceAlpha" type="matrix" values="0 0 0 0 0 0 0 0 0 0 0 0 0 0 0 0 0 0 127 0" result="hardAlpha"/>
<feOffset dy="2.20788"/>
<feGaussianBlur stdDeviation="1.10394"/>
<feComposite in2="hardAlpha" operator="out"/>
<feColorMatrix type="matrix" values="0 0 0 0 0 0 0 0 0 0 0 0 0 0 0 0 0 0 0.25 0"/>
<feBlend mode="normal" in2="BackgroundImageFix" result="effect1_dropShadow_365_7"/>
<feBlend mode="normal" in="SourceGraphic" in2="effect1_dropShadow_365_7" result="shape"/>
</filter>
<filter id="filter27_d_365_7" x="383.572" y="542.299" width="158.99" height="158.989" filterUnits="userSpaceOnUse" color-interpolation-filters="sRGB">
<feFlood flood-opacity="0" result="BackgroundImageFix"/>
<feColorMatrix in="SourceAlpha" type="matrix" values="0 0 0 0 0 0 0 0 0 0 0 0 0 0 0 0 0 0 127 0" result="hardAlpha"/>
<feOffset dy="2.20788"/>
<feGaussianBlur stdDeviation="1.10394"/>
<feComposite in2="hardAlpha" operator="out"/>
<feColorMatrix type="matrix" values="0 0 0 0 0 0 0 0 0 0 0 0 0 0 0 0 0 0 0.25 0"/>
<feBlend mode="normal" in2="BackgroundImageFix" result="effect1_dropShadow_365_7"/>
<feBlend mode="normal" in="SourceGraphic" in2="effect1_dropShadow_365_7" result="shape"/>
</filter>
<filter id="filter28_d_365_7" x="309.166" y="636.794" width="169.811" height="169.811" filterUnits="userSpaceOnUse" color-interpolation-filters="sRGB">
<feFlood flood-opacity="0" result="BackgroundImageFix"/>
<feColorMatrix in="SourceAlpha" type="matrix" values="0 0 0 0 0 0 0 0 0 0 0 0 0 0 0 0 0 0 127 0" result="hardAlpha"/>
<feOffset dy="2.20788"/>
<feGaussianBlur stdDeviation="1.10394"/>
<feComposite in2="hardAlpha" operator="out"/>
<feColorMatrix type="matrix" values="0 0 0 0 0 0 0 0 0 0 0 0 0 0 0 0 0 0 0.25 0"/>
<feBlend mode="normal" in2="BackgroundImageFix" result="effect1_dropShadow_365_7"/>
<feBlend mode="normal" in="SourceGraphic" in2="effect1_dropShadow_365_7" result="shape"/>
</filter>
<filter id="filter29_d_365_7" x="497.565" y="511.676" width="172.22" height="172.221" filterUnits="userSpaceOnUse" color-interpolation-filters="sRGB">
<feFlood flood-opacity="0" result="BackgroundImageFix"/>
<feColorMatrix in="SourceAlpha" type="matrix" values="0 0 0 0 0 0 0 0 0 0 0 0 0 0 0 0 0 0 127 0" result="hardAlpha"/>
<feOffset dy="2.20788"/>
<feGaussianBlur stdDeviation="1.10394"/>
<feComposite in2="hardAlpha" operator="out"/>
<feColorMatrix type="matrix" values="0 0 0 0 0 0 0 0 0 0 0 0 0 0 0 0 0 0 0.25 0"/>
<feBlend mode="normal" in2="BackgroundImageFix" result="effect1_dropShadow_365_7"/>
<feBlend mode="normal" in="SourceGraphic" in2="effect1_dropShadow_365_7" result="shape"/>
</filter>
<filter id="filter30_d_365_7" x="599.35" y="617.324" width="163.489" height="163.49" filterUnits="userSpaceOnUse" color-interpolation-filters="sRGB">
<feFlood flood-opacity="0" result="BackgroundImageFix"/>
<feColorMatrix in="SourceAlpha" type="matrix" values="0 0 0 0 0 0 0 0 0 0 0 0 0 0 0 0 0 0 127 0" result="hardAlpha"/>
<feOffset dy="2.20788"/>
<feGaussianBlur stdDeviation="1.10394"/>
<feComposite in2="hardAlpha" operator="out"/>
<feColorMatrix type="matrix" values="0 0 0 0 0 0 0 0 0 0 0 0 0 0 0 0 0 0 0.25 0"/>
<feBlend mode="normal" in2="BackgroundImageFix" result="effect1_dropShadow_365_7"/>
<feBlend mode="normal" in="SourceGraphic" in2="effect1_dropShadow_365_7" result="shape"/>
</filter>
<filter id="filter31_d_365_7" x="19.0446" y="709.87" width="161.653" height="161.653" filterUnits="userSpaceOnUse" color-interpolation-filters="sRGB">
<feFlood flood-opacity="0" result="BackgroundImageFix"/>
<feColorMatrix in="SourceAlpha" type="matrix" values="0 0 0 0 0 0 0 0 0 0 0 0 0 0 0 0 0 0 127 0" result="hardAlpha"/>
<feOffset dy="2.20788"/>
<feGaussianBlur stdDeviation="1.10394"/>
<feComposite in2="hardAlpha" operator="out"/>
<feColorMatrix type="matrix" values="0 0 0 0 0 0 0 0 0 0 0 0 0 0 0 0 0 0 0.25 0"/>
<feBlend mode="normal" in2="BackgroundImageFix" result="effect1_dropShadow_365_7"/>
<feBlend mode="normal" in="SourceGraphic" in2="effect1_dropShadow_365_7" result="shape"/>
</filter>
<filter id="filter32_d_365_7" x="176.318" y="724.736" width="167.381" height="167.381" filterUnits="userSpaceOnUse" color-interpolation-filters="sRGB">
<feFlood flood-opacity="0" result="BackgroundImageFix"/>
<feColorMatrix in="SourceAlpha" type="matrix" values="0 0 0 0 0 0 0 0 0 0 0 0 0 0 0 0 0 0 127 0" result="hardAlpha"/>
<feOffset dy="2.20788"/>
<feGaussianBlur stdDeviation="1.10394"/>
<feComposite in2="hardAlpha" operator="out"/>
<feColorMatrix type="matrix" values="0 0 0 0 0 0 0 0 0 0 0 0 0 0 0 0 0 0 0.25 0"/>
<feBlend mode="normal" in2="BackgroundImageFix" result="effect1_dropShadow_365_7"/>
<feBlend mode="normal" in="SourceGraphic" in2="effect1_dropShadow_365_7" result="shape"/>
</filter>
<filter id="filter33_d_365_7" x="432.792" y="760" width="173.564" height="173.564" filterUnits="userSpaceOnUse" color-interpolation-filters="sRGB">
<feFlood flood-opacity="0" result="BackgroundImageFix"/>
<feColorMatrix in="SourceAlpha" type="matrix" values="0 0 0 0 0 0 0 0 0 0 0 0 0 0 0 0 0 0 127 0" result="hardAlpha"/>
<feOffset dy="2.20788"/>
<feGaussianBlur stdDeviation="1.10394"/>
<feComposite in2="hardAlpha" operator="out"/>
<feColorMatrix type="matrix" values="0 0 0 0 0 0 0 0 0 0 0 0 0 0 0 0 0 0 0.25 0"/>
<feBlend mode="normal" in2="BackgroundImageFix" result="effect1_dropShadow_365_7"/>
<feBlend mode="normal" in="SourceGraphic" in2="effect1_dropShadow_365_7" result="shape"/>
</filter>
<filter id="filter34_d_365_7" x="573.185" y="825.194" width="141.856" height="141.856" filterUnits="userSpaceOnUse" color-interpolation-filters="sRGB">
<feFlood flood-opacity="0" result="BackgroundImageFix"/>
<feColorMatrix in="SourceAlpha" type="matrix" values="0 0 0 0 0 0 0 0 0 0 0 0 0 0 0 0 0 0 127 0" result="hardAlpha"/>
<feOffset dy="2.20788"/>
<feGaussianBlur stdDeviation="1.10394"/>
<feComposite in2="hardAlpha" operator="out"/>
<feColorMatrix type="matrix" values="0 0 0 0 0 0 0 0 0 0 0 0 0 0 0 0 0 0 0.25 0"/>
<feBlend mode="normal" in2="BackgroundImageFix" result="effect1_dropShadow_365_7"/>
<feBlend mode="normal" in="SourceGraphic" in2="effect1_dropShadow_365_7" result="shape"/>
</filter>
</defs>
</svg>
