<svg width="157" height="126" viewBox="0 0 157 126" fill="none" xmlns="http://www.w3.org/2000/svg">
<g filter="url(#filter0_d_365_5)">
<path d="M61.8723 49.1262C61.8723 49.1262 36.5979 18.7904 27.5216 7.88582C18.4452 -3.01877 -0.849225 14.3752 7.5762 24.4991C16.0016 34.623 40.7122 64.3116 48.6722 73.8376C56.6322 83.3637 71.5249 71.3552 63.3688 61.5963C55.2128 51.8373 36.0137 28.7546 30.6419 22.3054C25.2701 15.8562 15.5227 22.4511 21.644 29.8001C27.7653 37.1491 47.0011 60.243 47.0011 60.243" stroke="#5B5B5B" stroke-width="2"/>
</g>
<g filter="url(#filter1_d_365_5)">
<path d="M99.9597 112.872C99.9597 112.872 130.296 87.5979 141.2 78.5216C152.105 69.4452 134.711 50.1508 124.587 58.5762C114.463 67.0016 84.7743 91.7122 75.2483 99.6722C65.7223 107.632 77.7307 122.525 87.4897 114.369C97.2486 106.213 120.331 87.0137 126.781 81.6419C133.23 76.2701 126.635 66.5227 119.286 72.644C111.937 78.7653 88.8429 98.0011 88.8429 98.0011" stroke="#5B5B5B" stroke-width="2"/>
</g>
<g filter="url(#filter2_d_365_5)">
<path d="M106.96 64.8723C106.96 64.8723 137.296 39.5979 148.2 30.5216C159.105 21.4452 141.711 2.15078 131.587 10.5762C121.463 19.0016 91.7743 43.7122 82.2483 51.6722C72.7223 59.6322 84.7307 74.5249 94.4897 66.3688C104.249 58.2128 127.331 39.0137 133.781 33.6419C140.23 28.2701 133.635 18.5227 126.286 24.644C118.937 30.7653 95.8429 50.0011 95.8429 50.0011" stroke="#5B5B5B" stroke-width="2"/>
</g>
<g filter="url(#filter3_d_365_5)">
<path d="M79.9907 74.2234C79.9907 74.2234 82.0805 34.7938 82.8382 20.6264C83.5959 6.45895 57.621 6.09682 56.9167 19.2492C56.2124 32.4016 54.1492 70.9733 53.5102 83.3708C52.8711 95.7683 71.9565 97.0871 72.6102 84.3855C73.2639 71.6839 74.8777 41.7037 75.323 33.3221C75.7683 24.9406 64.1365 23.1499 63.6291 32.7009C63.1217 42.2518 61.5272 72.2652 61.5272 72.2652" stroke="#5B5B5B" stroke-width="2"/>
</g>
<defs>
<filter id="filter0_d_365_5" x="0.496094" y="3.41797" width="70.2412" height="82.9009" filterUnits="userSpaceOnUse" color-interpolation-filters="sRGB">
<feFlood flood-opacity="0" result="BackgroundImageFix"/>
<feColorMatrix in="SourceAlpha" type="matrix" values="0 0 0 0 0 0 0 0 0 0 0 0 0 0 0 0 0 0 127 0" result="hardAlpha"/>
<feOffset dy="4"/>
<feGaussianBlur stdDeviation="2"/>
<feComposite in2="hardAlpha" operator="out"/>
<feColorMatrix type="matrix" values="0 0 0 0 0 0 0 0 0 0 0 0 0 0 0 0 0 0 0.25 0"/>
<feBlend mode="normal" in2="BackgroundImageFix" result="effect1_dropShadow_365_5"/>
<feBlend mode="normal" in="SourceGraphic" in2="effect1_dropShadow_365_5" result="shape"/>
</filter>
<filter id="filter1_d_365_5" x="66.7671" y="55.4961" width="82.9009" height="70.2412" filterUnits="userSpaceOnUse" color-interpolation-filters="sRGB">
<feFlood flood-opacity="0" result="BackgroundImageFix"/>
<feColorMatrix in="SourceAlpha" type="matrix" values="0 0 0 0 0 0 0 0 0 0 0 0 0 0 0 0 0 0 127 0" result="hardAlpha"/>
<feOffset dy="4"/>
<feGaussianBlur stdDeviation="2"/>
<feComposite in2="hardAlpha" operator="out"/>
<feColorMatrix type="matrix" values="0 0 0 0 0 0 0 0 0 0 0 0 0 0 0 0 0 0 0.25 0"/>
<feBlend mode="normal" in2="BackgroundImageFix" result="effect1_dropShadow_365_5"/>
<feBlend mode="normal" in="SourceGraphic" in2="effect1_dropShadow_365_5" result="shape"/>
</filter>
<filter id="filter2_d_365_5" x="73.7671" y="7.49609" width="82.9009" height="70.2412" filterUnits="userSpaceOnUse" color-interpolation-filters="sRGB">
<feFlood flood-opacity="0" result="BackgroundImageFix"/>
<feColorMatrix in="SourceAlpha" type="matrix" values="0 0 0 0 0 0 0 0 0 0 0 0 0 0 0 0 0 0 127 0" result="hardAlpha"/>
<feOffset dy="4"/>
<feGaussianBlur stdDeviation="2"/>
<feComposite in2="hardAlpha" operator="out"/>
<feColorMatrix type="matrix" values="0 0 0 0 0 0 0 0 0 0 0 0 0 0 0 0 0 0 0.25 0"/>
<feBlend mode="normal" in2="BackgroundImageFix" result="effect1_dropShadow_365_5"/>
<feBlend mode="normal" in="SourceGraphic" in2="effect1_dropShadow_365_5" result="shape"/>
</filter>
<filter id="filter3_d_365_5" x="48.4946" y="8.68262" width="39.3599" height="93.6279" filterUnits="userSpaceOnUse" color-interpolation-filters="sRGB">
<feFlood flood-opacity="0" result="BackgroundImageFix"/>
<feColorMatrix in="SourceAlpha" type="matrix" values="0 0 0 0 0 0 0 0 0 0 0 0 0 0 0 0 0 0 127 0" result="hardAlpha"/>
<feOffset dy="4"/>
<feGaussianBlur stdDeviation="2"/>
<feComposite in2="hardAlpha" operator="out"/>
<feColorMatrix type="matrix" values="0 0 0 0 0 0 0 0 0 0 0 0 0 0 0 0 0 0 0.25 0"/>
<feBlend mode="normal" in2="BackgroundImageFix" result="effect1_dropShadow_365_5"/>
<feBlend mode="normal" in="SourceGraphic" in2="effect1_dropShadow_365_5" result="shape"/>
</filter>
</defs>
</svg>
