<svg width="575" height="463" viewBox="0 0 575 463" fill="none" xmlns="http://www.w3.org/2000/svg">
<path opacity="0.5" fill-rule="evenodd" clip-rule="evenodd" d="M64.573 210.505C184.716 -59.1944 557.198 111.117 467.58 368.639L466.588 371.166L490.943 380.723L494.334 387.621L465.124 462.065L0.999777 279.95L30.2102 205.507L38.3798 200.228L64.573 210.505ZM386.932 336.994C443.821 192.013 233.505 75.2646 141.314 240.618L233.909 276.95C261.247 238.361 303.617 262.145 296.635 301.563L386.932 336.994Z" fill="#F6E1BF" stroke="black" stroke-width="0.987277"/>
<path d="M29.8457 262.521L20.1089 287.336" stroke="black" stroke-width="0.493638"/>
<path d="M72.8105 279.381L63.0737 304.195" stroke="black" stroke-width="0.493638"/>
<path d="M115.358 295.28L105.121 320.694" stroke="black" stroke-width="0.493638"/>
<path d="M158.693 312.549L148.776 337.823" stroke="black" stroke-width="0.493638"/>
<path d="M200.83 328.818L190.823 354.322" stroke="black" stroke-width="0.493638"/>
<path d="M242.968 345.087L232.87 370.82" stroke="black" stroke-width="0.493638"/>
<path d="M286.172 363.365L276.525 387.95" stroke="black" stroke-width="0.493638"/>
<path d="M329.26 377.886L318.802 404.538" stroke="black" stroke-width="0.493638"/>
<path d="M371.604 397.682L362.227 421.578" stroke="black" stroke-width="0.493638"/>
<path d="M415.003 410.734L404.274 438.076" stroke="black" stroke-width="0.493638"/>
<path d="M457.189 427.553L446.551 454.665" stroke="black" stroke-width="0.493638"/>
<path d="M260.601 287.311L244.977 281.181" stroke="black" stroke-width="0.493638"/>
<path d="M263.753 292.791L257.893 307.725" stroke="black" stroke-width="0.493638"/>
<path d="M267.862 290.426L284.865 297.097" stroke="black" stroke-width="0.493638"/>
<path d="M273.039 269.125L266.097 286.817" stroke="black" stroke-width="0.493638"/>
<path d="M462.572 367.887L435.919 357.429" stroke="black" stroke-width="0.493638"/>
<path d="M475.947 331.773L449.189 326.312" stroke="black" stroke-width="0.493638"/>
<path d="M479.181 293.801L452.868 293.287" stroke="black" stroke-width="0.493638"/>
<path d="M477.147 256.414L449.581 260.446" stroke="black" stroke-width="0.493638"/>
<path d="M468.336 220.08L443.595 228.401" stroke="black" stroke-width="0.493638"/>
<path d="M453.136 187.867L429.692 198.288" stroke="black" stroke-width="0.493638"/>
<path d="M430.97 155.837L410.589 171.967" stroke="black" stroke-width="0.493638"/>
<path d="M404.583 129.84L389.707 146.804" stroke="black" stroke-width="0.493638"/>
<path d="M372.076 107.274L361.204 126.871" stroke="black" stroke-width="0.493638"/>
<path d="M307.643 80.931L301.704 104.85" stroke="black" stroke-width="0.493638"/>
<path d="M270.252 75.5396L269.639 100.752" stroke="black" stroke-width="0.493638"/>
<path d="M232.905 76.7937L237.117 103.9" stroke="black" stroke-width="0.493638"/>
<path d="M197.071 85.0049L204.375 108.286" stroke="black" stroke-width="0.493638"/>
<path d="M162.659 100.402L176.757 125.289" stroke="black" stroke-width="0.493638"/>
<path d="M131.95 121.23L147.761 141.751" stroke="black" stroke-width="0.493638"/>
<path d="M105.173 147.578L124.214 164.594" stroke="black" stroke-width="0.493638"/>
<path d="M82.9189 178.616L102.795 190.127" stroke="black" stroke-width="0.493638"/>
<path d="M66.5391 210.9L87.6774 219.194" stroke="black" stroke-width="0.493638"/>
<path d="M340.711 91.2552L331.425 114.921" stroke="black" stroke-width="0.493638"/>
<path d="M96.0602 228.521C94.5881 227.557 93.5562 226.442 92.9644 225.177C92.3745 223.907 92.3022 222.705 92.7473 221.571C93.1925 220.436 93.9861 219.8 95.1282 219.663C96.2703 219.526 97.5792 219.934 99.0551 220.889C100.526 221.842 101.559 222.954 102.154 224.226C102.744 225.496 102.815 226.7 102.368 227.84C101.923 228.974 101.129 229.61 99.9871 229.747C98.845 229.885 97.536 229.476 96.0602 228.521ZM96.6521 227.055C98.0512 227.952 99.205 228.432 100.113 228.496C101.019 228.553 101.611 228.228 101.889 227.519C102.167 226.811 102.012 225.996 101.423 225.074C100.834 224.153 99.8593 223.246 98.4975 222.352C97.0936 221.453 95.9365 220.974 95.0261 220.915C94.1128 220.85 93.5172 221.171 93.2392 221.88C92.9612 222.588 93.118 223.406 93.7094 224.334C94.3009 225.263 95.2818 226.169 96.6521 227.055Z" fill="black"/>
<path d="M114.096 205.804L113.701 205.566L113.859 204.17L105.935 199.005L105.399 200.37L104.995 200.112L105.466 197.222L105.736 197.146L114.478 202.847L115.2 201.829L115.567 202.056L114.096 205.804ZM111.43 197.458C109.958 196.494 108.926 195.379 108.334 194.114C107.745 192.844 107.672 191.642 108.117 190.507C108.562 189.373 109.356 188.737 110.498 188.6C111.64 188.462 112.949 188.871 114.425 189.826C115.896 190.779 116.929 191.891 117.524 193.163C118.114 194.433 118.185 195.637 117.738 196.776C117.293 197.911 116.499 198.547 115.357 198.684C114.215 198.822 112.906 198.413 111.43 197.458ZM112.022 195.992C113.421 196.889 114.575 197.369 115.483 197.433C116.389 197.49 116.981 197.164 117.259 196.456C117.537 195.747 117.382 194.932 116.793 194.011C116.204 193.09 115.229 192.182 113.867 191.289C112.464 190.39 111.306 189.911 110.396 189.852C109.483 189.787 108.887 190.108 108.609 190.816C108.331 191.525 108.488 192.343 109.079 193.271C109.671 194.199 110.652 195.106 112.022 195.992Z" fill="black"/>
<path d="M127.266 181.881L126.832 181.345C126.878 180.598 126.912 179.979 126.934 179.489C126.959 178.995 126.977 178.43 126.988 177.795C127.002 177.156 126.996 176.615 126.97 176.172C126.94 175.725 126.893 175.244 126.829 174.727C126.765 174.211 126.675 173.76 126.558 173.375C126.441 172.983 126.292 172.593 126.11 172.205C125.928 171.818 125.713 171.464 125.467 171.143C124.557 169.953 123.645 169.89 122.729 170.954C122.27 171.488 122.034 172.14 122.022 172.911L122.641 173.717C122.757 173.858 122.816 174.034 122.817 174.246C122.818 174.45 122.756 174.624 122.632 174.768C122.514 174.905 122.373 174.97 122.209 174.964C122.044 174.958 121.875 174.843 121.702 174.619C121.322 174.13 121.195 173.494 121.318 172.712C121.438 171.926 121.823 171.155 122.474 170.399C123.152 169.612 123.842 169.192 124.546 169.139C125.252 169.083 125.909 169.447 126.515 170.233C126.83 170.647 127.084 171.148 127.278 171.735C127.471 172.315 127.605 172.848 127.682 173.335C127.758 173.821 127.789 174.495 127.773 175.357C127.761 176.215 127.74 176.862 127.711 177.298C127.677 177.73 127.616 178.451 127.528 179.461C127.514 179.659 127.501 179.807 127.49 179.907L130.459 176.457L129.918 175.076L130.265 174.673L131.739 176.684L127.266 181.881ZM129.304 171.036C128.233 169.64 127.627 168.247 127.487 166.857C127.35 165.464 127.679 164.305 128.474 163.381C129.269 162.458 130.228 162.12 131.351 162.368C132.475 162.615 133.575 163.433 134.652 164.822C135.726 166.208 136.333 167.599 136.474 168.996C136.611 170.389 136.281 171.55 135.483 172.477C134.688 173.401 133.728 173.739 132.605 173.491C131.482 173.243 130.381 172.425 129.304 171.036ZM130.347 169.848C131.371 171.157 132.301 171.992 133.138 172.352C133.974 172.705 134.64 172.593 135.136 172.016C135.633 171.44 135.755 170.619 135.504 169.555C135.253 168.491 134.633 167.312 133.643 166.019C132.615 164.707 131.681 163.872 130.841 163.516C130.001 163.152 129.332 163.259 128.836 163.836C128.339 164.412 128.217 165.237 128.469 166.308C128.72 167.379 129.346 168.559 130.347 169.848Z" fill="black"/>
<path d="M147.009 155.686C146.907 155.439 146.885 155.219 146.942 155.027C147.001 154.827 147.103 154.679 147.249 154.582C147.408 154.477 147.567 154.452 147.726 154.506C147.883 154.556 147.997 154.672 148.068 154.853L148.413 155.708C148.662 155.758 148.941 155.737 149.249 155.643C149.558 155.549 149.853 155.409 150.136 155.221C150.74 154.82 151.142 154.288 151.343 153.623C151.549 152.956 151.499 152.24 151.194 151.473C150.88 150.694 150.431 150.245 149.847 150.127C149.266 150.006 148.61 150.189 147.877 150.675L147.241 151.097L147.022 150.558L147.613 150.165C148.975 149.261 149.382 148.121 148.833 146.745C148.559 146.063 148.194 145.639 147.738 145.472C147.283 145.299 146.801 145.381 146.291 145.72C146.047 145.882 145.815 146.094 145.595 146.358C145.379 146.618 145.216 146.908 145.107 147.228L145.435 148.028C145.511 148.207 145.519 148.396 145.46 148.595C145.398 148.79 145.292 148.938 145.142 149.037C144.992 149.137 144.839 149.162 144.682 149.111C144.53 149.058 144.401 148.906 144.296 148.655C144.138 148.278 144.129 147.865 144.269 147.414C144.408 146.964 144.647 146.539 144.988 146.141C145.332 145.739 145.738 145.383 146.205 145.073C147.057 144.507 147.829 144.294 148.521 144.434C149.214 144.567 149.72 145.033 150.041 145.832C150.287 146.453 150.342 147.067 150.209 147.674C150.075 148.281 149.791 148.834 149.356 149.332C150.061 149.093 150.689 149.09 151.239 149.323C151.786 149.553 152.198 150.011 152.474 150.697C152.832 151.589 152.822 152.49 152.446 153.401C152.073 154.309 151.415 155.075 150.473 155.701C149.989 156.022 149.516 156.25 149.055 156.383C148.594 156.516 148.177 156.528 147.802 156.419C147.427 156.31 147.163 156.065 147.009 155.686ZM152.622 147.544C151.969 145.91 151.763 144.405 152.004 143.029C152.249 141.651 152.88 140.624 153.895 139.95C154.91 139.276 155.925 139.211 156.94 139.753C157.954 140.296 158.792 141.381 159.453 143.01C160.112 144.634 160.32 146.138 160.077 147.521C159.832 148.899 159.2 149.927 158.18 150.604C157.165 151.278 156.15 151.343 155.135 150.801C154.121 150.258 153.283 149.173 152.622 147.544ZM153.948 146.683C154.579 148.22 155.249 149.275 155.957 149.848C156.666 150.415 157.337 150.487 157.971 150.066C158.605 149.645 158.946 148.889 158.992 147.796C159.038 146.704 158.76 145.401 158.157 143.889C157.523 142.347 156.849 141.291 156.138 140.721C155.427 140.143 154.755 140.065 154.121 140.486C153.487 140.906 153.146 141.667 153.098 142.766C153.05 143.866 153.333 145.171 153.948 146.683Z" fill="black"/>
<path d="M171.952 138.361L171.838 137.942C171.979 137.22 172.093 136.591 172.179 136.054C172.27 135.514 172.349 134.902 172.417 134.218C172.487 133.527 172.52 132.893 172.516 132.316C172.512 131.739 172.469 131.121 172.388 130.462C172.307 129.803 172.178 129.163 172.001 128.543L173.315 127.86C173.487 128.472 173.601 129.12 173.655 129.804C173.706 130.484 173.713 131.127 173.673 131.733C173.636 132.331 173.55 132.99 173.413 133.71C173.279 134.422 173.141 135.05 173 135.593C172.863 136.133 172.689 136.757 172.476 137.463L176.112 135.577L175.222 132.389L175.937 130.653L176.194 130.763L177.358 134.93L178.398 134.39L178.551 134.936L177.518 135.473L177.98 137.084L178.885 136.953L179.012 137.365L176.11 138.872L175.989 138.421L176.705 137.641L176.272 136.12L171.952 138.361ZM179.053 131.113C178.579 129.419 178.535 127.9 178.922 126.558C179.313 125.214 180.05 124.261 181.132 123.7C182.213 123.138 183.229 123.182 184.18 123.83C185.13 124.478 185.847 125.647 186.33 127.337C186.811 129.022 186.857 130.539 186.468 131.888C186.076 133.233 185.337 134.187 184.251 134.751C183.169 135.312 182.153 135.269 181.203 134.621C180.253 133.973 179.536 132.803 179.053 131.113ZM180.463 130.399C180.927 131.995 181.479 133.116 182.121 133.762C182.766 134.4 183.426 134.545 184.101 134.194C184.777 133.843 185.196 133.128 185.359 132.047C185.522 130.965 185.385 129.64 184.947 128.072C184.482 126.471 183.926 125.349 183.279 124.706C182.634 124.055 181.974 123.905 181.299 124.256C180.623 124.606 180.203 125.326 180.038 126.414C179.872 127.502 180.014 128.83 180.463 130.399Z" fill="black"/>
<path d="M199.211 123.721C199.169 123.462 199.201 123.244 199.306 123.068C199.411 122.892 199.548 122.773 199.716 122.711C199.895 122.644 200.055 122.656 200.198 122.746C200.339 122.831 200.422 122.965 200.446 123.148L200.567 124.008C201.007 124.174 201.509 124.152 202.073 123.943C202.758 123.689 203.253 123.243 203.559 122.603C203.865 121.963 203.952 121.193 203.822 120.293C203.666 119.309 203.339 118.643 202.843 118.295C202.35 117.94 201.724 117.903 200.967 118.184C200.336 118.418 199.827 118.784 199.442 119.283L199.029 119.034L198.667 113.928C200.629 113.201 202.137 112.571 203.19 112.038L203.401 113.342L199.46 114.802L199.467 118.641C199.941 118.114 200.542 117.716 201.27 117.446C202.321 117.057 203.201 117.063 203.909 117.464C204.62 117.859 205.057 118.601 205.22 119.693C205.384 120.772 205.204 121.736 204.678 122.583C204.153 123.43 203.344 124.056 202.249 124.462C201.453 124.757 200.767 124.844 200.191 124.723C199.612 124.597 199.285 124.263 199.211 123.721ZM206.042 117.093C205.781 115.353 205.925 113.841 206.475 112.557C207.029 111.271 207.878 110.416 209.021 109.993C210.164 109.57 211.166 109.738 212.029 110.499C212.892 111.259 213.459 112.508 213.73 114.245C213.999 115.977 213.857 117.488 213.304 118.778C212.749 120.064 211.898 120.92 210.751 121.345C209.608 121.768 208.605 121.6 207.742 120.839C206.879 120.079 206.312 118.83 206.042 117.093ZM207.53 116.558C207.792 118.199 208.202 119.38 208.76 120.1C209.32 120.814 209.957 121.038 210.671 120.774C211.385 120.51 211.889 119.851 212.184 118.798C212.48 117.746 212.507 116.414 212.267 114.803C212.003 113.157 211.589 111.975 211.027 111.257C210.468 110.532 209.831 110.301 209.118 110.566C208.404 110.83 207.898 111.492 207.6 112.551C207.301 113.611 207.278 114.946 207.53 116.558Z" fill="black"/>
<path d="M228.755 112.996C228.79 112.121 228.926 111.312 229.165 110.57C229.409 109.827 229.721 109.185 230.102 108.643C230.487 108.096 230.942 107.613 231.468 107.194C231.998 106.769 232.554 106.426 233.136 106.164C233.724 105.902 234.352 105.695 235.021 105.545L235.353 105.858C233.881 106.29 232.704 107.013 231.822 108.027C230.944 109.035 230.441 110.245 230.311 111.657C230.898 110.973 231.673 110.552 232.638 110.395C233.658 110.229 234.461 110.408 235.046 110.933C235.637 111.456 235.909 112.246 235.862 113.301C235.819 114.386 235.46 115.296 234.782 116.032C234.104 116.762 233.26 117.21 232.25 117.374C231.646 117.472 231.113 117.442 230.649 117.283C230.191 117.123 229.818 116.851 229.531 116.465C229.249 116.078 229.038 115.594 228.896 115.013C228.759 114.426 228.712 113.754 228.755 112.996ZM230.263 112.61C230.214 113.681 230.262 114.538 230.408 115.181C230.555 115.824 230.774 116.275 231.066 116.535C231.363 116.789 231.745 116.878 232.212 116.802C232.821 116.703 233.324 116.371 233.722 115.806C234.119 115.236 234.34 114.512 234.384 113.635C234.414 112.698 234.229 112.024 233.829 111.615C233.428 111.201 232.895 111.049 232.23 111.157C231.809 111.225 231.417 111.393 231.054 111.661C230.696 111.922 230.432 112.239 230.263 112.61ZM237.419 110.867C237.497 109.109 237.93 107.652 238.716 106.498C239.507 105.343 240.504 104.667 241.707 104.471C242.91 104.276 243.862 104.634 244.562 105.546C245.263 106.458 245.58 107.792 245.511 109.549C245.442 111.3 245.012 112.756 244.222 113.916C243.431 115.071 242.431 115.747 241.223 115.944C240.02 116.14 239.068 115.782 238.368 114.87C237.667 113.957 237.351 112.623 237.419 110.867ZM238.982 110.628C238.924 112.289 239.1 113.526 239.508 114.34C239.921 115.148 240.503 115.491 241.254 115.369C242.006 115.246 242.627 114.697 243.119 113.721C243.612 112.744 243.895 111.443 243.968 109.816C244.025 108.15 243.847 106.91 243.433 106.097C243.024 105.278 242.443 104.93 241.692 105.052C240.941 105.174 240.317 105.727 239.821 106.709C239.324 107.691 239.045 108.997 238.982 110.628Z" fill="black"/>
<path d="M391.736 170.181L392.123 169.929L393.31 170.68L401.413 165.8L400.419 164.723L400.827 164.472L403.222 166.156L403.173 166.432L394.232 171.814L394.832 172.907L394.468 173.139L391.736 170.181ZM395.436 174.187L396.019 173.817C396.756 173.948 397.367 174.052 397.851 174.13C398.339 174.211 398.898 174.293 399.528 174.377C400.161 174.464 400.699 174.52 401.142 174.544C401.589 174.566 402.073 174.574 402.593 174.569C403.114 174.564 403.572 174.526 403.968 174.455C404.371 174.383 404.775 174.279 405.181 174.143C405.587 174.006 405.963 173.833 406.31 173.625C407.596 172.858 407.762 171.958 406.81 170.927C406.332 170.409 405.711 170.101 404.947 170.001L404.075 170.523C403.922 170.623 403.74 170.661 403.53 170.638C403.327 170.616 403.161 170.534 403.032 170.395C402.91 170.263 402.861 170.115 402.886 169.952C402.911 169.789 403.044 169.635 403.286 169.488C403.816 169.167 404.462 169.112 405.225 169.325C405.992 169.533 406.714 170.004 407.391 170.737C408.095 171.5 408.434 172.234 408.406 172.939C408.381 173.647 407.944 174.258 407.094 174.77C406.647 175.036 406.12 175.232 405.515 175.357C404.917 175.482 404.372 175.555 403.88 175.576C403.388 175.596 402.715 175.549 401.86 175.435C401.01 175.325 400.369 175.231 399.939 175.152C399.513 175.069 398.804 174.926 397.811 174.723C397.616 174.686 397.47 174.657 397.373 174.635L400.46 177.978L401.894 177.598L402.256 177.989L400.089 179.224L395.436 174.187ZM405.978 177.449C407.487 176.545 408.941 176.102 410.337 176.121C411.737 176.144 412.851 176.603 413.677 177.498C414.504 178.394 414.731 179.385 414.356 180.473C413.982 181.561 413.043 182.56 411.541 183.472C410.042 184.381 408.59 184.825 407.187 184.806C405.787 184.783 404.671 184.322 403.841 183.423C403.014 182.528 402.788 181.536 403.162 180.449C403.537 179.361 404.475 178.361 405.978 177.449ZM407.039 178.621C405.622 179.489 404.687 180.318 404.233 181.108C403.787 181.898 403.822 182.573 404.338 183.132C404.855 183.691 405.656 183.906 406.742 183.778C407.827 183.65 409.069 183.169 410.467 182.333C411.888 181.461 412.824 180.629 413.274 179.835C413.731 179.042 413.701 178.365 413.185 177.806C412.669 177.247 411.864 177.032 410.771 177.159C409.678 177.287 408.434 177.774 407.039 178.621Z" fill="black"/>
<path d="M412.657 194.712L413.082 194.53L414.121 195.476L422.948 192.078L422.156 190.845L422.601 190.668L424.667 192.742L424.571 193.006L414.831 196.753L415.232 197.934L414.834 198.099L412.657 194.712ZM417.571 198.934C417.82 198.836 418.04 198.817 418.231 198.877C418.43 198.939 418.576 199.043 418.671 199.19C418.774 199.35 418.797 199.51 418.74 199.669C418.687 199.825 418.57 199.937 418.388 200.005L417.528 200.337C417.474 200.586 417.492 200.865 417.581 201.174C417.67 201.484 417.806 201.782 417.989 202.067C418.381 202.677 418.908 203.087 419.569 203.298C420.233 203.513 420.95 203.474 421.721 203.18C422.505 202.878 422.96 202.436 423.087 201.853C423.217 201.275 423.044 200.616 422.568 199.876L422.156 199.234L422.698 199.023L423.082 199.62C423.966 200.995 425.1 201.419 426.484 200.89C427.17 200.626 427.6 200.268 427.773 199.814C427.953 199.362 427.878 198.879 427.547 198.364C427.388 198.117 427.179 197.882 426.919 197.658C426.662 197.438 426.374 197.272 426.057 197.158L425.251 197.474C425.072 197.546 424.883 197.552 424.684 197.49C424.49 197.425 424.344 197.317 424.246 197.166C424.149 197.015 424.127 196.861 424.179 196.705C424.235 196.553 424.389 196.427 424.641 196.325C425.021 196.173 425.434 196.17 425.882 196.316C426.331 196.462 426.752 196.708 427.145 197.054C427.542 197.405 427.891 197.816 428.194 198.287C428.747 199.148 428.949 199.923 428.799 200.612C428.656 201.303 428.183 201.803 427.379 202.112C426.754 202.348 426.14 202.395 425.534 202.252C424.929 202.109 424.381 201.817 423.889 201.375C424.118 202.083 424.112 202.711 423.87 203.257C423.633 203.801 423.169 204.206 422.478 204.473C421.581 204.817 420.68 204.794 419.775 204.404C418.873 204.018 418.116 203.349 417.504 202.397C417.19 201.908 416.97 201.432 416.844 200.97C416.718 200.507 416.712 200.089 416.826 199.715C416.941 199.342 417.189 199.082 417.571 198.934ZM425.629 204.667C427.272 204.038 428.78 203.855 430.152 204.116C431.527 204.382 432.544 205.027 433.203 206.052C433.862 207.078 433.912 208.093 433.355 209.1C432.797 210.106 431.699 210.927 430.061 211.564C428.427 212.199 426.921 212.385 425.542 212.122C424.167 211.856 423.149 211.208 422.487 210.179C421.828 209.154 421.777 208.138 422.335 207.132C422.892 206.126 423.99 205.304 425.629 204.667ZM426.47 206.005C424.924 206.614 423.859 207.268 423.275 207.967C422.699 208.668 422.616 209.338 423.027 209.978C423.439 210.619 424.19 210.97 425.282 211.033C426.373 211.095 427.68 210.836 429.202 210.256C430.752 209.644 431.818 208.987 432.399 208.283C432.987 207.581 433.076 206.91 432.664 206.27C432.253 205.63 431.498 205.278 430.399 205.214C429.3 205.149 427.991 205.413 426.47 206.005Z" fill="black"/>
<path d="M425.295 220.036L425.745 219.931L426.604 221.043L435.887 219.229L435.321 217.877L435.791 217.781L437.465 220.182L437.324 220.425L427.082 222.424L427.272 223.657L426.851 223.749L425.295 220.036ZM429.837 224.748L430.264 224.67C430.972 224.87 431.59 225.034 432.118 225.164C432.648 225.299 433.252 225.428 433.928 225.552C434.611 225.678 435.24 225.763 435.816 225.806C436.391 225.85 437.011 225.858 437.674 225.831C438.337 225.804 438.985 225.728 439.618 225.602L440.19 226.968C439.567 227.09 438.912 227.149 438.225 227.147C437.543 227.143 436.902 227.096 436.302 227.008C435.708 226.922 435.059 226.781 434.353 226.586C433.653 226.394 433.039 226.206 432.51 226.02C431.983 225.84 431.376 225.615 430.688 225.345L432.271 229.123L435.521 228.497L437.192 229.353L437.061 229.6L432.813 230.417L433.266 231.499L432.709 231.607L432.259 230.532L430.616 230.861L430.672 231.774L430.251 231.867L428.987 228.85L429.446 228.767L430.165 229.545L431.717 229.238L429.837 224.748ZM436.478 232.42C438.206 232.086 439.723 232.167 441.029 232.663C442.336 233.163 443.226 233.975 443.697 235.099C444.167 236.223 444.041 237.232 443.317 238.126C442.593 239.021 441.369 239.639 439.646 239.982C437.926 240.323 436.41 240.244 435.098 239.746C433.79 239.246 432.9 238.431 432.427 237.302C431.956 236.178 432.083 235.169 432.806 234.275C433.53 233.381 434.754 232.763 436.478 232.42ZM437.075 233.884C435.446 234.215 434.284 234.674 433.587 235.261C432.898 235.851 432.7 236.497 432.994 237.199C433.288 237.901 433.967 238.377 435.031 238.628C436.095 238.88 437.427 238.851 439.026 238.544C440.66 238.211 441.824 237.749 442.518 237.157C443.219 236.568 443.422 235.922 443.128 235.22C442.834 234.518 442.152 234.04 441.081 233.786C440.01 233.532 438.675 233.565 437.075 233.884Z" fill="black"/>
<path d="M433.374 247.155L433.834 247.123L434.506 248.357L443.959 248.042L443.615 246.618L444.094 246.597L445.366 249.234L445.188 249.451L434.758 249.796L434.75 251.044L434.319 251.068L433.374 247.155ZM437.108 252.529L437.542 252.52C438.209 252.829 438.793 253.09 439.294 253.303C439.796 253.52 440.371 253.744 441.019 253.973C441.673 254.207 442.281 254.391 442.843 254.525C443.404 254.659 444.014 254.766 444.673 254.844C445.332 254.923 445.985 254.951 446.63 254.928L446.977 256.367C446.342 256.388 445.686 256.343 445.008 256.232C444.336 256.119 443.71 255.971 443.132 255.788C442.559 255.609 441.94 255.367 441.274 255.062C440.614 254.761 440.038 254.477 439.545 254.21C439.053 253.948 438.49 253.629 437.854 253.254L438.816 257.235L442.124 257.134L443.638 258.245L443.469 258.468L439.145 258.6L439.42 259.739L438.853 259.757L438.58 258.625L436.905 258.688L436.815 259.599L436.385 259.623L435.617 256.444L436.083 256.435L436.669 257.317L438.25 257.26L437.108 252.529ZM442.445 261.159C444.204 261.105 445.689 261.426 446.899 262.123C448.111 262.825 448.86 263.768 449.146 264.953C449.432 266.137 449.146 267.113 448.29 267.881C447.433 268.649 446.126 269.065 444.37 269.129C442.618 269.192 441.134 268.874 439.917 268.173C438.706 267.471 437.956 266.525 437.669 265.336C437.383 264.151 437.668 263.175 438.525 262.407C439.382 261.64 440.689 261.224 442.445 261.159ZM442.801 262.7C441.141 262.767 439.92 263.036 439.139 263.505C438.365 263.977 438.067 264.584 438.245 265.323C438.424 266.063 439.019 266.642 440.029 267.059C441.04 267.476 442.359 267.66 443.987 267.611C445.653 267.542 446.875 267.27 447.655 266.796C448.44 266.326 448.744 265.721 448.565 264.982C448.387 264.242 447.789 263.661 446.772 263.24C445.755 262.82 444.432 262.639 442.801 262.7Z" fill="black"/>
<path d="M436.776 277.873L437.235 277.921L437.681 279.254L447.046 280.585L446.955 279.122L447.43 279.185L448.224 282.003L448.012 282.186L437.68 280.714L437.455 281.942L437.027 281.891L436.776 277.873ZM438.831 283.679C439.091 283.715 439.29 283.808 439.428 283.959C439.567 284.11 439.641 284.275 439.653 284.455C439.664 284.645 439.607 284.795 439.48 284.906C439.358 285.017 439.206 285.057 439.024 285.028L438.165 284.896C437.88 285.269 437.756 285.756 437.793 286.356C437.839 287.085 438.124 287.688 438.648 288.165C439.172 288.643 439.884 288.949 440.784 289.083C441.771 289.217 442.503 289.097 442.98 288.722C443.461 288.352 443.677 287.764 443.627 286.958C443.585 286.286 443.38 285.693 443.013 285.18L443.372 284.856L448.365 285.982C448.495 288.07 448.664 289.696 448.871 290.857L447.561 290.684L447.299 286.489L443.621 285.389C443.989 285.995 444.197 286.685 444.245 287.46C444.315 288.579 444.056 289.42 443.468 289.982C442.885 290.549 442.048 290.753 440.956 290.595C439.875 290.441 439.004 289.99 438.344 289.243C437.685 288.496 437.318 287.54 437.246 286.375C437.193 285.528 437.307 284.846 437.589 284.329C437.876 283.811 438.29 283.595 438.831 283.679ZM443.208 292.131C444.95 292.383 446.356 292.957 447.427 293.853C448.498 294.755 449.072 295.814 449.148 297.03C449.224 298.247 448.774 299.158 447.797 299.766C446.82 300.373 445.46 300.556 443.719 300.314C441.984 300.072 440.577 299.501 439.501 298.599C438.43 297.698 437.856 296.636 437.779 295.415C437.703 294.198 438.154 293.287 439.131 292.679C440.108 292.072 441.467 291.889 443.208 292.131ZM443.291 293.71C441.644 293.488 440.396 293.541 439.545 293.867C438.7 294.198 438.302 294.743 438.349 295.503C438.397 296.262 438.882 296.935 439.805 297.522C440.727 298.108 441.995 298.518 443.606 298.752C445.259 298.974 446.51 298.919 447.36 298.587C448.215 298.261 448.619 297.718 448.572 296.958C448.524 296.199 448.036 295.523 447.108 294.932C446.18 294.341 444.908 293.934 443.291 293.71Z" fill="black"/>
<path d="M434.594 310.057L435.03 310.211L435.156 311.61L443.959 315.07L444.208 313.626L444.656 313.797L444.778 316.722L444.528 316.851L434.817 313.031L434.314 314.173L433.91 314.025L434.594 310.057ZM438.232 317.323C439.049 317.641 439.769 318.034 440.393 318.502C441.016 318.974 441.521 319.479 441.908 320.015C442.3 320.558 442.608 321.146 442.833 321.78C443.061 322.419 443.204 323.057 443.262 323.693C443.318 324.334 443.308 324.995 443.232 325.676L442.828 325.888C442.899 324.356 442.6 323.007 441.929 321.843C441.263 320.684 440.284 319.813 438.991 319.23C439.447 320.008 439.591 320.878 439.425 321.841C439.249 322.86 438.818 323.56 438.131 323.942C437.443 324.33 436.608 324.329 435.627 323.941C434.614 323.547 433.871 322.91 433.397 322.03C432.928 321.15 432.78 320.206 432.954 319.198C433.058 318.595 433.261 318.1 433.562 317.714C433.863 317.333 434.242 317.07 434.701 316.924C435.158 316.784 435.684 316.742 436.28 316.798C436.88 316.86 437.531 317.034 438.232 317.323ZM438.106 318.874C437.109 318.478 436.284 318.244 435.628 318.172C434.972 318.101 434.474 318.161 434.133 318.353C433.796 318.55 433.588 318.882 433.507 319.348C433.402 319.956 433.552 320.541 433.956 321.101C434.366 321.662 434.978 322.107 435.792 322.435C436.669 322.769 437.366 322.814 437.883 322.569C438.405 322.325 438.723 321.871 438.838 321.208C438.91 320.787 438.879 320.362 438.745 319.931C438.615 319.507 438.401 319.155 438.106 318.874ZM437.419 326.207C439.056 326.855 440.291 327.738 441.126 328.858C441.96 329.983 442.273 331.146 442.066 332.347C441.858 333.548 441.209 334.331 440.118 334.695C439.027 335.06 437.663 334.924 436.025 334.286C434.392 333.65 433.156 332.769 432.317 331.643C431.483 330.518 431.17 329.353 431.379 328.147C431.586 326.946 432.235 326.163 433.326 325.798C434.417 325.433 435.781 325.569 437.419 326.207ZM437.135 327.762C435.584 327.166 434.357 326.928 433.454 327.049C432.556 327.176 432.042 327.614 431.912 328.364C431.783 329.114 432.099 329.881 432.862 330.665C433.624 331.448 434.762 332.14 436.276 332.741C437.832 333.338 439.062 333.574 439.966 333.448C440.873 333.328 441.392 332.893 441.522 332.143C441.651 331.393 441.332 330.624 440.566 329.834C439.8 329.044 438.656 328.354 437.135 327.762Z" fill="black"/>
<path d="M423.145 341.754L423.568 341.941L423.586 343.346L432.096 347.474L432.456 346.053L432.889 346.259L432.785 349.184L432.527 349.294L423.138 344.736L422.549 345.836L422.157 345.657L423.145 341.754ZM429.715 351.064L431.885 352.298L430.202 358.945L429.804 358.757C429.291 358.271 428.581 357.564 427.676 356.635C426.77 355.71 426.026 354.96 425.446 354.383C424.864 353.811 424.147 353.195 423.296 352.534C422.444 351.878 421.615 351.358 420.811 350.974L421.171 349.553C421.818 349.865 422.439 350.243 423.032 350.685C423.631 351.128 424.203 351.634 424.749 352.202C425.3 352.771 425.792 353.309 426.225 353.817C426.663 354.331 427.189 354.954 427.804 355.688C428.418 356.427 428.944 357.041 429.383 357.528L430.631 352.601L429.585 351.58L429.715 351.064ZM424.884 357.416C426.466 358.187 427.63 359.164 428.376 360.344C429.12 361.53 429.343 362.714 429.044 363.895C428.745 365.077 428.037 365.807 426.922 366.087C425.806 366.367 424.456 366.126 422.872 365.364C421.293 364.603 420.128 363.629 419.379 362.442C418.634 361.257 418.412 360.07 418.712 358.884C419.011 357.703 419.719 356.972 420.835 356.692C421.951 356.413 423.3 356.654 424.884 357.416ZM424.481 358.945C422.981 358.23 421.776 357.899 420.866 357.95C419.961 358.007 419.415 358.404 419.228 359.142C419.041 359.88 419.297 360.669 419.997 361.509C420.697 362.349 421.778 363.127 423.241 363.842C424.747 364.558 425.955 364.887 426.866 364.831C427.78 364.782 428.33 364.388 428.517 363.65C428.704 362.913 428.446 362.121 427.742 361.274C427.039 360.428 425.952 359.651 424.481 358.945Z" fill="black"/>
<path d="M260.688 106.24L261.408 103.85L268.263 104.013L268.168 104.443C267.809 105.052 267.277 105.901 266.572 106.99C265.872 108.079 265.306 108.97 264.872 109.665C264.444 110.359 264.003 111.195 263.547 112.171C263.097 113.148 262.774 114.072 262.578 114.941L261.113 114.906C261.274 114.205 261.504 113.517 261.803 112.84C262.102 112.158 262.468 111.487 262.9 110.829C263.333 110.165 263.748 109.566 264.147 109.03C264.551 108.489 265.042 107.838 265.621 107.075C266.205 106.312 266.686 105.663 267.064 105.126L261.982 105.005L261.22 106.252L260.688 106.24ZM267.954 109.538C268.355 107.824 269.048 106.473 270.034 105.483C271.024 104.493 272.129 104.013 273.347 104.042C274.565 104.071 275.435 104.599 275.956 105.624C276.476 106.65 276.541 108.02 276.151 109.733C275.76 111.442 275.069 112.794 274.079 113.789C273.088 114.778 271.981 115.258 270.758 115.229C269.539 115.2 268.67 114.673 268.149 113.647C267.628 112.621 267.563 111.251 267.954 109.538ZM269.534 109.591C269.171 111.213 269.116 112.461 269.368 113.337C269.625 114.207 270.134 114.651 270.894 114.669C271.655 114.687 272.367 114.262 273.031 113.393C273.695 112.524 274.213 111.297 274.585 109.712C274.948 108.085 275.001 106.833 274.744 105.958C274.492 105.078 273.986 104.628 273.225 104.61C272.465 104.592 271.75 105.02 271.081 105.894C270.412 106.767 269.896 108 269.534 109.591Z" fill="black"/>
<path d="M370.514 152.635L370.855 152.323L372.148 152.871L379.348 146.736L378.192 145.836L378.554 145.522L381.191 146.792L381.187 147.073L373.242 153.839L374.013 154.82L373.691 155.108L370.514 152.635ZM375.091 156.198L375.431 155.886L376.725 156.434L383.925 150.299L382.769 149.399L383.131 149.085L385.768 150.356L385.764 150.636L377.819 157.402L378.589 158.383L378.268 158.671L375.091 156.198ZM383.85 156.008C385.192 154.87 386.554 154.196 387.935 153.988C389.32 153.782 390.493 154.054 391.455 154.803C392.417 155.551 392.801 156.493 392.609 157.627C392.417 158.761 391.654 159.9 390.32 161.045C388.989 162.185 387.629 162.86 386.241 163.07C384.856 163.275 383.681 163.002 382.715 162.25C381.753 161.501 381.369 160.56 381.561 159.426C381.753 158.292 382.516 157.152 383.85 156.008ZM385.088 156.992C383.831 158.079 383.044 159.049 382.725 159.902C382.413 160.754 382.558 161.414 383.158 161.882C383.759 162.349 384.584 162.431 385.635 162.128C386.685 161.825 387.832 161.147 389.075 160.095C390.335 159.004 391.122 158.03 391.437 157.174C391.759 156.316 391.62 155.654 391.019 155.187C390.419 154.719 389.59 154.637 388.532 154.941C387.474 155.245 386.326 155.929 385.088 156.992Z" fill="black"/>
<path d="M290.606 115.274C290.75 114.884 290.938 114.544 291.171 114.255C291.405 113.961 291.678 113.719 291.991 113.53C292.303 113.34 292.605 113.188 292.896 113.074C293.188 112.959 293.522 112.853 293.9 112.756C293.744 112.646 293.606 112.538 293.486 112.433C293.366 112.322 293.253 112.203 293.147 112.073C293.041 111.939 292.958 111.797 292.896 111.648C292.839 111.495 292.797 111.333 292.77 111.163C292.748 110.988 292.751 110.797 292.781 110.588C292.816 110.38 292.875 110.16 292.96 109.928C293.098 109.537 293.285 109.19 293.52 108.885C293.756 108.581 294.045 108.318 294.388 108.097C294.731 107.87 295.148 107.716 295.637 107.635C296.132 107.549 296.678 107.548 297.273 107.633C298.348 107.785 299.062 108.13 299.417 108.668C299.773 109.202 299.817 109.842 299.55 110.588C299.424 110.934 299.255 111.242 299.045 111.514C298.841 111.786 298.606 112.01 298.343 112.186C298.08 112.356 297.826 112.497 297.582 112.608C297.338 112.713 297.068 112.807 296.771 112.89C296.975 113.023 297.152 113.152 297.3 113.277C297.449 113.396 297.594 113.534 297.733 113.688C297.877 113.844 297.982 113.999 298.049 114.154C298.121 114.304 298.179 114.481 298.223 114.685C298.272 114.884 298.277 115.092 298.235 115.31C298.2 115.523 298.142 115.766 298.062 116.041C297.742 116.941 297.178 117.609 296.368 118.045C295.564 118.476 294.521 118.601 293.238 118.419C292.021 118.247 291.208 117.885 290.798 117.334C290.388 116.782 290.324 116.096 290.606 115.274ZM292.051 115.416C291.786 116.147 291.788 116.718 292.057 117.13C292.332 117.538 292.805 117.789 293.477 117.885C294.19 117.985 294.826 117.881 295.384 117.57C295.942 117.26 296.348 116.756 296.602 116.06C296.662 115.897 296.704 115.745 296.729 115.603C296.755 115.461 296.758 115.326 296.74 115.199C296.727 115.073 296.701 114.957 296.664 114.854C296.633 114.745 296.573 114.638 296.484 114.532C296.4 114.427 296.312 114.331 296.22 114.245C296.129 114.155 296.01 114.06 295.863 113.961C295.717 113.857 295.572 113.764 295.428 113.681C295.284 113.594 295.112 113.491 294.91 113.374C294.736 113.282 294.575 113.192 294.427 113.103C293.233 113.61 292.441 114.38 292.051 115.416ZM294.386 109.873C294.318 110.055 294.274 110.223 294.252 110.376C294.236 110.529 294.232 110.666 294.241 110.787C294.255 110.908 294.295 111.028 294.361 111.147C294.432 111.266 294.506 111.37 294.582 111.458C294.658 111.542 294.767 111.638 294.907 111.746C295.054 111.85 295.191 111.942 295.32 112.022C295.449 112.098 295.618 112.194 295.824 112.312L296.241 112.558C297.177 112.072 297.82 111.366 298.169 110.439C298.403 109.777 298.415 109.254 298.204 108.871C297.999 108.489 297.603 108.256 297.018 108.173C296.407 108.087 295.87 108.195 295.406 108.498C294.943 108.796 294.603 109.254 294.386 109.873ZM300.296 113.74C300.894 112.084 301.74 110.823 302.834 109.955C303.933 109.087 305.086 108.739 306.293 108.91C307.499 109.08 308.301 109.705 308.699 110.785C309.097 111.864 309.002 113.232 308.414 114.889C307.827 116.54 306.984 117.802 305.884 118.675C304.785 119.542 303.629 119.89 302.418 119.719C301.211 119.548 300.409 118.923 300.011 117.844C299.613 116.764 299.708 115.396 300.296 113.74ZM301.86 113.976C301.31 115.545 301.11 116.779 301.258 117.677C301.412 118.571 301.865 119.072 302.619 119.179C303.372 119.285 304.129 118.946 304.89 118.16C305.65 117.375 306.307 116.216 306.862 114.685C307.412 113.111 307.61 111.874 307.457 110.975C307.31 110.071 306.859 109.566 306.106 109.46C305.352 109.353 304.592 109.695 303.826 110.485C303.06 111.275 302.404 112.438 301.86 113.976Z" fill="black"/>
<path d="M342.315 134.975L342.61 134.62L343.966 134.987L350.267 127.933L348.999 127.198L349.315 126.837L352.1 127.739L352.135 128.017L345.18 135.798L346.077 136.666L345.798 136.994L342.315 134.975ZM350.967 133.599C352.143 132.289 353.4 131.437 354.74 131.043C356.085 130.652 357.284 130.762 358.338 131.373C359.393 131.984 359.901 132.865 359.865 134.015C359.828 135.164 359.227 136.397 358.06 137.711C356.896 139.022 355.641 139.875 354.294 140.271C352.949 140.662 351.748 140.551 350.689 139.937C349.635 139.326 349.126 138.445 349.162 137.296C349.199 136.146 349.801 134.914 350.967 133.599ZM352.327 134.405C351.229 135.653 350.58 136.721 350.38 137.61C350.187 138.496 350.42 139.13 351.078 139.512C351.737 139.894 352.566 139.863 353.565 139.421C354.565 138.978 355.609 138.151 356.698 136.939C357.798 135.687 358.446 134.616 358.642 133.725C358.845 132.832 358.617 132.194 357.959 131.813C357.3 131.431 356.468 131.462 355.461 131.907C354.454 132.352 353.41 133.184 352.327 134.405ZM359.441 138.512C360.617 137.203 361.874 136.351 363.214 135.957C364.559 135.565 365.758 135.675 366.812 136.287C367.867 136.898 368.376 137.778 368.339 138.928C368.302 140.078 367.701 141.31 366.534 142.625C365.37 143.935 364.115 144.788 362.768 145.184C361.424 145.576 360.222 145.465 359.163 144.851C358.109 144.239 357.6 143.359 357.637 142.209C357.673 141.059 358.275 139.827 359.441 138.512ZM360.802 139.319C359.704 140.566 359.055 141.635 358.855 142.523C358.661 143.41 358.894 144.044 359.552 144.426C360.211 144.807 361.04 144.777 362.039 144.334C363.039 143.891 364.083 143.064 365.172 141.853C366.273 140.601 366.921 139.529 367.116 138.638C367.319 137.745 367.091 137.108 366.433 136.726C365.774 136.344 364.942 136.376 363.935 136.82C362.928 137.265 361.884 138.098 360.802 139.319Z" fill="black"/>
<path d="M317.572 124.013C319.124 124.407 320.514 124.392 321.741 123.967C322.968 123.543 324.015 122.755 324.881 121.603C324.041 121.887 323.166 121.85 322.256 121.493C321.308 121.121 320.713 120.57 320.469 119.839C320.232 119.105 320.399 118.301 320.969 117.425C321.564 116.499 322.352 115.891 323.333 115.602C324.32 115.31 325.302 115.356 326.279 115.739C327.385 116.173 327.99 116.86 328.096 117.802C328.206 118.746 327.83 119.88 326.968 121.204C326.492 121.94 325.97 122.566 325.402 123.084C324.836 123.596 324.254 123.995 323.657 124.28C323.059 124.564 322.426 124.755 321.758 124.852C321.095 124.951 320.43 124.964 319.763 124.89C319.103 124.813 318.416 124.662 317.704 124.438L317.572 124.013ZM322.42 117.928C321.91 118.695 321.723 119.348 321.859 119.887C321.997 120.422 322.375 120.811 322.992 121.053C323.404 121.214 323.829 121.271 324.268 121.222C324.707 121.173 325.097 121.039 325.437 120.819C326.301 119.462 326.772 118.424 326.85 117.703C326.929 116.983 326.645 116.495 325.999 116.242C325.4 116.007 324.773 116.043 324.117 116.349C323.466 116.657 322.901 117.183 322.42 117.928ZM327.95 122.418C328.914 120.946 330.029 119.914 331.294 119.322C332.564 118.732 333.766 118.66 334.901 119.105C336.035 119.55 336.671 120.344 336.808 121.486C336.946 122.628 336.537 123.937 335.582 125.413C334.63 126.884 333.517 127.917 332.246 128.512C330.976 129.101 329.771 129.173 328.632 128.726C327.497 128.281 326.861 127.487 326.724 126.345C326.587 125.203 326.995 123.894 327.95 122.418ZM329.416 123.01C328.519 124.409 328.039 125.563 327.975 126.471C327.918 127.377 328.244 127.969 328.952 128.247C329.661 128.525 330.476 128.369 331.397 127.781C332.318 127.192 333.226 126.217 334.119 124.855C335.018 123.452 335.497 122.294 335.556 121.384C335.622 120.471 335.3 119.875 334.592 119.597C333.883 119.319 333.065 119.476 332.137 120.067C331.209 120.659 330.302 121.64 329.416 123.01Z" fill="black"/>
</svg>
