<svg width="493" height="613" viewBox="0 0 493 613" fill="none" xmlns="http://www.w3.org/2000/svg">
<path opacity="0.5" d="M490.901 118.987L2.09084 493.532L208.62 3.50313L490.901 118.987Z" fill="#F6E1BF" stroke="black" stroke-width="1.18435"/>
<path d="M4.8584 486.986L7.58556 488.139" stroke="black" stroke-width="1.18435"/>
<path d="M7.16406 481.532L13.1638 484.069" stroke="black" stroke-width="1.18435"/>
<path d="M9.7002 475.532L16.7908 478.53" stroke="black" stroke-width="1.18435"/>
<path d="M11.4609 469.848L20.7333 473.768" stroke="black" stroke-width="1.18435"/>
<path d="M13.998 463.848L22.725 467.537" stroke="black" stroke-width="1.18435"/>
<path d="M163.192 110.953L172.465 114.873" stroke="black" stroke-width="1.18435"/>
<path d="M165.499 105.499L174.225 109.188" stroke="black" stroke-width="1.18435"/>
<path d="M167.804 100.045L177.622 104.195" stroke="black" stroke-width="1.18435"/>
<path d="M170.11 94.5903L179.928 98.741" stroke="black" stroke-width="1.18435"/>
<path d="M173.192 88.8212L186.828 94.586" stroke="black" stroke-width="1.18435"/>
<path d="M174.953 83.1361L184.225 87.0562" stroke="black" stroke-width="1.18435"/>
<path d="M177.489 77.1366L186.762 81.0567" stroke="black" stroke-width="1.18435"/>
<path d="M179.795 71.6823L188.522 75.3718" stroke="black" stroke-width="1.18435"/>
<path d="M182.101 66.2279L191.373 70.148" stroke="black" stroke-width="1.18435"/>
<path d="M184.638 60.228L205.91 69.2212" stroke="black" stroke-width="1.18435"/>
<path d="M212.983 5.3479L209.063 14.6202" stroke="black" stroke-width="1.18435"/>
<path d="M218.438 7.65381L214.748 16.3807" stroke="black" stroke-width="1.18435"/>
<path d="M223.892 9.95984L219.741 19.7776" stroke="black" stroke-width="1.18435"/>
<path d="M230.122 11.951L225.971 21.7688" stroke="black" stroke-width="1.18435"/>
<path d="M234.801 14.5717L229.036 28.2075" stroke="black" stroke-width="1.18435"/>
<path d="M240.8 17.1083L236.88 26.3806" stroke="black" stroke-width="1.18435"/>
<path d="M246.8 19.6448L242.88 28.9171" stroke="black" stroke-width="1.18435"/>
<path d="M252.254 21.9508L248.565 30.6777" stroke="black" stroke-width="1.18435"/>
<path d="M258.254 24.4873L254.334 33.7596" stroke="black" stroke-width="1.18435"/>
<path d="M263.625 25.4718L254.631 46.7436" stroke="black" stroke-width="1.18435"/>
<path d="M269.079 27.7777L265.158 37.0501" stroke="black" stroke-width="1.18435"/>
<path d="M274.533 30.0836L270.844 38.8105" stroke="black" stroke-width="1.18435"/>
<path d="M279.987 32.3896L275.836 42.2074" stroke="black" stroke-width="1.18435"/>
<path d="M285.211 35.2411L281.06 45.0589" stroke="black" stroke-width="1.18435"/>
<path d="M291.21 37.7776L285.446 51.4134" stroke="black" stroke-width="1.18435"/>
<path d="M296.895 39.5382L292.975 48.8106" stroke="black" stroke-width="1.18435"/>
<path d="M302.896 42.0746L298.975 51.3469" stroke="black" stroke-width="1.18435"/>
<path d="M308.35 44.3805L304.66 53.1074" stroke="black" stroke-width="1.18435"/>
<path d="M314.349 46.9171L310.429 56.1895" stroke="black" stroke-width="1.18435"/>
<path d="M319.804 49.2231L310.811 70.495" stroke="black" stroke-width="1.18435"/>
<path d="M324.712 51.2986L320.792 60.5709" stroke="black" stroke-width="1.18435"/>
<path d="M330.167 53.6045L326.477 62.3314" stroke="black" stroke-width="1.18435"/>
<path d="M335.621 55.9104L331.47 65.7282" stroke="black" stroke-width="1.18435"/>
<path d="M341.852 57.9014L337.701 67.7191" stroke="black" stroke-width="1.18435"/>
<path d="M346.991 59.4314L341.226 73.0672" stroke="black" stroke-width="1.18435"/>
<path d="M352.445 61.7373L348.525 71.0096" stroke="black" stroke-width="1.18435"/>
<path d="M358.99 64.5045L355.07 73.7769" stroke="black" stroke-width="1.18435"/>
<path d="M364.214 67.3558L360.525 76.0827" stroke="black" stroke-width="1.18435"/>
<path d="M369.899 69.1165L365.979 78.3888" stroke="black" stroke-width="1.18435"/>
<path d="M375.354 71.4224L366.36 92.6942" stroke="black" stroke-width="1.18435"/>
<path d="M381.899 74.1893L377.979 83.4617" stroke="black" stroke-width="1.18435"/>
<path d="M387.353 76.4955L383.664 85.2224" stroke="black" stroke-width="1.18435"/>
<path d="M392.808 78.8014L388.657 88.6192" stroke="black" stroke-width="1.18435"/>
<path d="M399.037 80.7926L394.886 90.6104" stroke="black" stroke-width="1.18435"/>
<path d="M403.716 83.4133L397.951 97.0491" stroke="black" stroke-width="1.18435"/>
<path d="M409.716 85.9497L405.796 95.222" stroke="black" stroke-width="1.18435"/>
<path d="M415.716 88.4862L411.796 97.7585" stroke="black" stroke-width="1.18435"/>
<path d="M421.17 90.7924L417.48 99.5193" stroke="black" stroke-width="1.18435"/>
<path d="M427.17 93.3289L423.25 102.601" stroke="black" stroke-width="1.18435"/>
<path d="M432.624 95.6348L423.631 116.907" stroke="black" stroke-width="1.18435"/>
<path d="M439.085 97.0804L435.165 106.353" stroke="black" stroke-width="1.18435"/>
<path d="M444.539 99.3864L440.85 108.113" stroke="black" stroke-width="1.18435"/>
<path d="M449.993 101.692L445.842 111.51" stroke="black" stroke-width="1.18435"/>
<path d="M455.217 104.544L451.066 114.362" stroke="black" stroke-width="1.18435"/>
<path d="M461.217 107.08L455.452 120.716" stroke="black" stroke-width="1.18435"/>
<path d="M187.175 54.2283L196.447 58.1484" stroke="black" stroke-width="1.18435"/>
<path d="M189.48 48.7739L198.207 52.4634" stroke="black" stroke-width="1.18435"/>
<path d="M191.787 43.3196L201.604 47.4703" stroke="black" stroke-width="1.18435"/>
<path d="M194.092 37.8654L203.91 42.0161" stroke="black" stroke-width="1.18435"/>
<path d="M196.628 31.8657L210.264 37.6306" stroke="black" stroke-width="1.18435"/>
<path d="M198.704 26.9567L207.976 30.8768" stroke="black" stroke-width="1.18435"/>
<path d="M200.926 20.1809L210.199 24.101" stroke="black" stroke-width="1.18435"/>
<path d="M203.232 14.7267L211.959 18.4162" stroke="black" stroke-width="1.18435"/>
<path d="M205.768 8.72693L215.04 12.647" stroke="black" stroke-width="1.18435"/>
<path d="M139.211 167.678L148.483 171.598" stroke="black" stroke-width="1.18435"/>
<path d="M141.517 162.224L150.244 165.913" stroke="black" stroke-width="1.18435"/>
<path d="M143.823 156.77L153.641 160.92" stroke="black" stroke-width="1.18435"/>
<path d="M146.128 151.315L155.946 155.466" stroke="black" stroke-width="1.18435"/>
<path d="M148.665 145.315L162.301 151.08" stroke="black" stroke-width="1.18435"/>
<path d="M150.74 140.407L160.013 144.327" stroke="black" stroke-width="1.18435"/>
<path d="M153.508 133.861L162.78 137.781" stroke="black" stroke-width="1.18435"/>
<path d="M155.813 128.407L164.54 132.097" stroke="black" stroke-width="1.18435"/>
<path d="M158.12 122.953L167.392 126.873" stroke="black" stroke-width="1.18435"/>
<path d="M160.425 117.498L181.697 126.492" stroke="black" stroke-width="1.18435"/>
<path d="M115.229 224.403L124.501 228.323" stroke="black" stroke-width="1.18435"/>
<path d="M117.535 218.949L126.262 222.638" stroke="black" stroke-width="1.18435"/>
<path d="M119.84 213.494L129.658 217.645" stroke="black" stroke-width="1.18435"/>
<path d="M122.146 208.04L131.964 212.191" stroke="black" stroke-width="1.18435"/>
<path d="M124.683 202.04L138.319 207.805" stroke="black" stroke-width="1.18435"/>
<path d="M126.758 197.131L136.031 201.052" stroke="black" stroke-width="1.18435"/>
<path d="M129.525 190.586L138.798 194.506" stroke="black" stroke-width="1.18435"/>
<path d="M131.832 185.132L140.558 188.822" stroke="black" stroke-width="1.18435"/>
<path d="M134.137 179.678L143.41 183.598" stroke="black" stroke-width="1.18435"/>
<path d="M136.444 174.223L157.716 183.216" stroke="black" stroke-width="1.18435"/>
<path d="M91.2471 281.128L100.519 285.048" stroke="black" stroke-width="1.18435"/>
<path d="M93.5532 275.674L102.28 279.363" stroke="black" stroke-width="1.18435"/>
<path d="M95.8589 270.219L105.677 274.37" stroke="black" stroke-width="1.18435"/>
<path d="M98.165 264.765L107.983 268.916" stroke="black" stroke-width="1.18435"/>
<path d="M100.701 258.765L114.337 264.53" stroke="black" stroke-width="1.18435"/>
<path d="M102.777 253.856L112.049 257.777" stroke="black" stroke-width="1.18435"/>
<path d="M105.544 247.311L114.816 251.231" stroke="black" stroke-width="1.18435"/>
<path d="M107.85 241.857L116.577 245.546" stroke="black" stroke-width="1.18435"/>
<path d="M110.156 236.403L119.428 240.323" stroke="black" stroke-width="1.18435"/>
<path d="M112.461 230.948L133.733 239.942" stroke="black" stroke-width="1.18435"/>
<path d="M67.2651 337.853L76.5375 341.773" stroke="black" stroke-width="1.18435"/>
<path d="M69.5708 332.399L78.2977 336.088" stroke="black" stroke-width="1.18435"/>
<path d="M71.877 326.944L81.6947 331.095" stroke="black" stroke-width="1.18435"/>
<path d="M74.1826 321.49L84.0004 325.641" stroke="black" stroke-width="1.18435"/>
<path d="M76.7197 315.49L90.3555 321.255" stroke="black" stroke-width="1.18435"/>
<path d="M78.7944 310.581L88.0668 314.502" stroke="black" stroke-width="1.18435"/>
<path d="M81.5615 304.036L90.8339 307.956" stroke="black" stroke-width="1.18435"/>
<path d="M83.8677 298.582L92.5946 302.271" stroke="black" stroke-width="1.18435"/>
<path d="M86.6353 292.036L95.9076 295.957" stroke="black" stroke-width="1.18435"/>
<path d="M88.48 287.673L109.752 296.666" stroke="black" stroke-width="1.18435"/>
<path d="M43.2832 394.578L52.5555 398.498" stroke="black" stroke-width="1.18435"/>
<path d="M45.5894 389.123L54.3163 392.813" stroke="black" stroke-width="1.18435"/>
<path d="M47.895 383.669L57.7128 387.82" stroke="black" stroke-width="1.18435"/>
<path d="M50.2012 378.215L60.0189 382.366" stroke="black" stroke-width="1.18435"/>
<path d="M52.7373 372.215L66.3731 377.98" stroke="black" stroke-width="1.18435"/>
<path d="M54.813 367.306L64.0853 371.226" stroke="black" stroke-width="1.18435"/>
<path d="M57.5801 360.761L66.8524 364.681" stroke="black" stroke-width="1.18435"/>
<path d="M59.8857 355.307L68.6127 358.996" stroke="black" stroke-width="1.18435"/>
<path d="M62.6533 348.762L71.9257 352.682" stroke="black" stroke-width="1.18435"/>
<path d="M64.498 344.398L85.7699 353.391" stroke="black" stroke-width="1.18435"/>
<path d="M19.8462 451.533L29.1185 455.454" stroke="black" stroke-width="1.18435"/>
<path d="M22.1523 446.079L30.8793 449.769" stroke="black" stroke-width="1.18435"/>
<path d="M24.459 440.625L34.2768 444.775" stroke="black" stroke-width="1.18435"/>
<path d="M26.4497 434.394L36.2675 438.545" stroke="black" stroke-width="1.18435"/>
<path d="M28.5249 429.485L42.1607 435.25" stroke="black" stroke-width="1.18435"/>
<path d="M31.6069 423.716L40.8793 427.637" stroke="black" stroke-width="1.18435"/>
<path d="M34.1436 417.717L43.4159 421.637" stroke="black" stroke-width="1.18435"/>
<path d="M36.4497 412.262L45.1766 415.952" stroke="black" stroke-width="1.18435"/>
<path d="M38.9858 406.263L48.2582 410.183" stroke="black" stroke-width="1.18435"/>
<path d="M41.292 400.808L62.5638 409.802" stroke="black" stroke-width="1.18435"/>
<path d="M16.3037 458.393L35.3938 466.464" stroke="black" stroke-width="1.18435"/>
<circle cx="158.947" cy="323.251" r="17.7652" transform="rotate(-67.0826 158.947 323.251)" fill="#FFF9ED" stroke="black" stroke-width="1.18435"/>
<circle cx="208.99" cy="221.61" r="24.2791" transform="rotate(-67.0826 208.99 221.61)" fill="#FFF9EE" stroke="black" stroke-width="1.18435"/>
<circle cx="255.468" cy="122.32" r="31.9774" transform="rotate(-67.0826 255.468 122.32)" fill="#FFF8ED" stroke="black" stroke-width="1.18435"/>
<path d="M225.445 82.0779L224.889 81.7229L225.167 79.7329L214.03 72.0546L213.214 73.985L212.646 73.601L213.427 69.4882L213.816 69.3892L226.101 77.8642L227.171 76.4367L227.687 76.7745L225.445 82.0779Z" fill="black"/>
<path d="M200.723 140.554L199.898 140.014C199.634 138.976 199.409 138.119 199.225 137.442C199.043 136.758 198.82 135.981 198.557 135.112C198.297 134.235 198.052 133.501 197.823 132.909C197.588 132.315 197.313 131.68 197 131.004C196.687 130.329 196.367 129.755 196.04 129.281C195.709 128.798 195.335 128.333 194.918 127.885C194.501 127.437 194.054 127.048 193.578 126.72C191.82 125.497 190.55 125.81 189.768 127.659C189.376 128.587 189.34 129.578 189.661 130.632L190.855 131.46C191.075 131.601 191.232 131.815 191.326 132.103C191.417 132.38 191.409 132.644 191.303 132.895C191.203 133.132 191.039 133.283 190.813 133.346C190.586 133.41 190.306 133.328 189.971 133.099C189.241 132.598 188.789 131.788 188.615 130.669C188.435 129.547 188.623 128.329 189.178 127.015C189.757 125.647 190.513 124.773 191.448 124.394C192.386 124.008 193.439 124.217 194.607 125.023C195.217 125.449 195.783 126.019 196.303 126.734C196.819 127.439 197.235 128.106 197.552 128.735C197.869 129.364 198.205 130.269 198.561 131.449C198.919 132.622 199.173 133.512 199.324 134.119C199.468 134.722 199.7 135.731 200.021 137.144C200.088 137.42 200.136 137.627 200.165 137.767L202.699 131.773L201.358 130.129L201.655 129.428L204.541 131.522L200.723 140.554Z" fill="black"/>
<path d="M173.82 197.39C173.503 197.177 173.303 196.932 173.22 196.658C173.132 196.373 173.137 196.116 173.235 195.886C173.341 195.635 173.51 195.479 173.744 195.418C173.97 195.354 174.197 195.402 174.425 195.562L175.511 196.309C175.848 196.172 176.163 195.926 176.457 195.571C176.751 195.217 176.992 194.816 177.181 194.369C177.585 193.414 177.644 192.461 177.36 191.51C177.078 190.553 176.453 189.737 175.484 189.064C174.495 188.383 173.605 188.202 172.815 188.523C172.027 188.836 171.389 189.572 170.899 190.731L170.474 191.736L169.786 191.266L170.182 190.331C171.092 188.178 170.677 186.497 168.936 185.29C168.071 184.693 167.301 184.475 166.625 184.637C165.946 184.789 165.437 185.268 165.096 186.074C164.933 186.46 164.824 186.897 164.769 187.385C164.717 187.866 164.753 188.34 164.875 188.806L165.898 189.502C166.128 189.656 166.287 189.875 166.374 190.159C166.455 190.441 166.445 190.7 166.345 190.937C166.245 191.174 166.081 191.324 165.855 191.388C165.631 191.445 165.357 191.366 165.034 191.149C164.548 190.824 164.211 190.338 164.021 189.691C163.832 189.044 163.783 188.349 163.874 187.605C163.967 186.854 164.17 186.11 164.483 185.371C165.052 184.023 165.805 183.16 166.739 182.781C167.67 182.392 168.642 182.547 169.656 183.247C170.439 183.794 170.99 184.482 171.31 185.312C171.63 186.141 171.727 187.025 171.602 187.962C172.254 187.12 173 186.621 173.84 186.465C174.674 186.307 175.526 186.527 176.398 187.128C177.529 187.909 178.229 188.991 178.498 190.375C178.771 191.751 178.592 193.185 177.962 194.675C177.638 195.44 177.254 196.084 176.81 196.607C176.365 197.129 175.876 197.474 175.343 197.639C174.81 197.805 174.302 197.722 173.82 197.39Z" fill="black"/>
<path d="M149.067 254.041L148.56 253.683C148.056 252.759 147.607 251.962 147.211 251.292C146.819 250.615 146.348 249.869 145.798 249.054C145.245 248.229 144.702 247.501 144.171 246.869C143.64 246.237 143.029 245.596 142.338 244.945C141.647 244.293 140.921 243.707 140.16 243.185L140.985 241.235C141.732 241.751 142.449 242.361 143.133 243.065C143.81 243.767 144.404 244.469 144.913 245.171C145.418 245.864 145.925 246.668 146.431 247.585C146.934 248.492 147.355 249.309 147.695 250.035C148.037 250.755 148.414 251.601 148.825 252.573L151.106 247.178L147.217 244.48L146.421 241.916L146.804 241.803L151.888 245.329L152.541 243.785L153.208 244.247L152.559 245.781L154.538 247.133L155.416 246.162L155.932 246.5L154.11 250.808L153.567 250.422L153.643 248.91L151.777 247.63L149.067 254.041Z" fill="black"/>
<path d="M126.387 310.178C126.077 309.967 125.882 309.721 125.801 309.439C125.721 309.158 125.731 308.899 125.831 308.662C125.937 308.411 126.106 308.255 126.34 308.194C126.566 308.13 126.787 308.175 127.001 308.33L128.015 309.046C128.619 308.751 129.089 308.207 129.424 307.414C129.83 306.452 129.85 305.499 129.484 304.553C129.117 303.608 128.401 302.762 127.335 302.016C126.157 301.215 125.143 300.902 124.294 301.078C123.442 301.244 122.791 301.859 122.341 302.923C121.966 303.81 121.85 304.699 121.992 305.589L121.327 305.775L115.654 301.149C116.819 298.393 117.64 296.205 118.117 294.586L119.682 295.643L117.341 301.18L121.347 304.934C121.263 303.924 121.437 302.908 121.869 301.885C122.494 300.409 123.362 299.498 124.473 299.154C125.581 298.8 126.783 299.072 128.079 299.972C129.365 300.859 130.192 301.991 130.56 303.368C130.928 304.745 130.787 306.202 130.137 307.739C129.664 308.857 129.082 309.657 128.391 310.139C127.694 310.619 127.026 310.632 126.387 310.178Z" fill="black"/>
<path d="M99.1259 363.161C98.0922 362.452 97.2169 361.671 96.5001 360.817C95.7862 359.956 95.2465 359.089 94.8811 358.216C94.5118 357.334 94.2736 356.415 94.1666 355.459C94.0556 354.494 94.0636 353.559 94.1905 352.655C94.3202 351.744 94.5484 350.826 94.8751 349.903L95.5072 349.739C94.9102 351.85 94.8895 353.825 95.445 355.664C95.9967 357.494 97.0779 359.025 98.6888 360.257C98.3071 359.026 98.3883 357.767 98.9324 356.48C99.508 355.119 100.336 354.283 101.417 353.974C102.501 353.658 103.663 353.93 104.904 354.79C106.186 355.667 107.014 356.795 107.389 358.175C107.757 359.552 107.656 360.915 107.086 362.263C106.745 363.069 106.302 363.692 105.757 364.132C105.215 364.565 104.601 364.809 103.915 364.862C103.233 364.909 102.486 364.797 101.675 364.525C100.859 364.245 100.01 363.79 99.1259 363.161ZM99.8064 361.041C101.065 361.917 102.139 362.51 103.029 362.823C103.919 363.135 104.632 363.213 105.17 363.057C105.703 362.891 106.101 362.497 106.364 361.874C106.708 361.061 106.689 360.199 106.308 359.287C105.92 358.373 105.213 357.554 104.185 356.832C103.072 356.083 102.116 355.794 101.317 355.967C100.51 356.137 99.9197 356.666 99.5445 357.553C99.3069 358.115 99.2118 358.718 99.2594 359.361C99.303 359.994 99.4854 360.554 99.8064 361.041Z" fill="black"/>
<path d="M71.0882 415.4L68.2877 413.186L72.1062 404.154L72.6279 404.507C73.2489 405.304 74.0984 406.458 75.1767 407.967C76.2578 409.47 77.1463 410.692 77.8423 411.633C78.5412 412.567 79.4205 413.594 80.4804 414.712C81.5432 415.824 82.6016 416.739 83.6557 417.456L82.8396 419.386C81.9919 418.804 81.1963 418.137 80.453 417.383C79.7029 416.627 79.0035 415.789 78.355 414.868C77.6996 413.944 77.1204 413.076 76.6172 412.265C76.1101 411.444 75.5012 410.448 74.7906 409.277C74.0828 408.1 73.4716 407.119 72.957 406.334L70.1264 413.03L71.3846 414.699L71.0882 415.4Z" fill="black"/>
<path d="M225.445 82.0779L224.889 81.7229L225.167 79.7329L214.03 72.0546L213.214 73.985L212.646 73.601L213.427 69.4882L213.816 69.3892L226.101 77.8642L227.171 76.4367L227.687 76.7745L225.445 82.0779Z" fill="black"/>
<path d="M242.257 69.6983L242.612 69.1418L244.602 69.4202L252.281 58.2836L250.35 57.4675L250.734 56.8993L254.847 57.6801L254.946 58.0692L246.471 70.354L247.899 71.4246L247.561 71.9404L242.257 69.6983Z" fill="black"/>
<path d="M200.723 140.554L199.898 140.014C199.634 138.976 199.409 138.119 199.225 137.442C199.043 136.758 198.82 135.981 198.557 135.112C198.297 134.235 198.052 133.501 197.823 132.909C197.588 132.315 197.313 131.68 197 131.004C196.687 130.329 196.367 129.755 196.04 129.281C195.709 128.798 195.335 128.333 194.918 127.885C194.501 127.437 194.054 127.048 193.578 126.72C191.82 125.497 190.55 125.81 189.768 127.659C189.376 128.587 189.34 129.578 189.661 130.632L190.855 131.46C191.075 131.601 191.232 131.815 191.326 132.103C191.417 132.38 191.409 132.644 191.303 132.895C191.203 133.132 191.039 133.283 190.813 133.346C190.586 133.41 190.306 133.328 189.971 133.099C189.241 132.598 188.789 131.788 188.615 130.669C188.435 129.547 188.623 128.329 189.178 127.015C189.757 125.647 190.513 124.773 191.448 124.394C192.386 124.008 193.439 124.217 194.607 125.023C195.217 125.449 195.783 126.019 196.303 126.734C196.819 127.439 197.235 128.106 197.552 128.735C197.869 129.364 198.205 130.269 198.561 131.449C198.919 132.622 199.173 133.512 199.324 134.119C199.468 134.722 199.7 135.731 200.021 137.144C200.088 137.42 200.136 137.627 200.165 137.767L202.699 131.773L201.358 130.129L201.655 129.428L204.541 131.522L200.723 140.554Z" fill="black"/>
<path d="M296.894 87.6537L297.435 86.8284C298.473 86.5645 299.33 86.3402 300.007 86.1553C300.69 85.9733 301.467 85.7508 302.337 85.4878C303.213 85.2276 303.947 84.9831 304.539 84.7542C305.134 84.5186 305.769 84.2442 306.444 83.9309C307.119 83.6176 307.694 83.2976 308.167 82.9709C308.65 82.6402 309.116 82.2661 309.564 81.8487C310.012 81.4313 310.4 80.9848 310.729 80.5091C311.951 78.7505 311.638 77.4804 309.789 76.6987C308.861 76.3063 307.87 76.2707 306.816 76.5916L305.988 77.7862C305.847 78.0061 305.633 78.1631 305.346 78.2572C305.068 78.3474 304.804 78.3395 304.553 78.2336C304.316 78.1333 304.166 77.9699 304.102 77.7433C304.038 77.5167 304.121 77.2363 304.35 76.902C304.85 76.1715 305.66 75.7195 306.779 75.546C307.902 75.3657 309.12 75.5534 310.434 76.1089C311.802 76.6873 312.675 77.4439 313.055 78.3787C313.441 79.3163 313.231 80.3693 312.426 81.5378C312 82.1482 311.43 82.7134 310.715 83.2335C310.01 83.7497 309.342 84.1663 308.713 84.4832C308.084 84.8001 307.18 85.1362 306 85.4915C304.826 85.8497 303.936 86.1042 303.33 86.2549C302.726 86.3988 301.718 86.6312 300.305 86.9519C300.029 87.0189 299.821 87.0668 299.681 87.0955L305.675 89.6297L307.32 88.2891L308.021 88.5855L305.926 91.4723L296.894 87.6537Z" fill="black"/>
<path d="M173.82 197.39C173.503 197.177 173.303 196.932 173.22 196.658C173.132 196.373 173.137 196.116 173.235 195.886C173.341 195.635 173.51 195.479 173.744 195.418C173.97 195.354 174.197 195.402 174.425 195.562L175.511 196.309C175.848 196.172 176.163 195.926 176.457 195.571C176.751 195.217 176.992 194.816 177.181 194.369C177.585 193.414 177.644 192.461 177.36 191.51C177.078 190.553 176.453 189.737 175.484 189.064C174.495 188.383 173.605 188.202 172.815 188.523C172.027 188.836 171.389 189.572 170.899 190.731L170.474 191.736L169.786 191.266L170.182 190.331C171.092 188.178 170.677 186.497 168.936 185.29C168.071 184.693 167.301 184.475 166.625 184.637C165.946 184.789 165.437 185.268 165.096 186.074C164.933 186.46 164.824 186.897 164.769 187.385C164.717 187.866 164.753 188.34 164.875 188.806L165.898 189.502C166.128 189.656 166.287 189.875 166.374 190.159C166.455 190.441 166.445 190.7 166.345 190.937C166.245 191.174 166.081 191.324 165.855 191.388C165.631 191.445 165.357 191.366 165.034 191.149C164.548 190.824 164.211 190.338 164.021 189.691C163.832 189.044 163.783 188.349 163.874 187.605C163.967 186.854 164.17 186.11 164.483 185.371C165.052 184.023 165.805 183.16 166.739 182.781C167.67 182.392 168.642 182.547 169.656 183.247C170.439 183.794 170.99 184.482 171.31 185.312C171.63 186.141 171.727 187.025 171.602 187.962C172.254 187.12 173 186.621 173.84 186.465C174.674 186.307 175.526 186.527 176.398 187.128C177.529 187.909 178.229 188.991 178.498 190.375C178.771 191.751 178.592 193.185 177.962 194.675C177.638 195.44 177.254 196.084 176.81 196.607C176.365 197.129 175.876 197.474 175.343 197.639C174.81 197.805 174.302 197.722 173.82 197.39Z" fill="black"/>
<path d="M353.801 104.981C354.015 104.664 354.259 104.464 354.534 104.38C354.818 104.293 355.075 104.298 355.306 104.395C355.556 104.501 355.712 104.671 355.773 104.904C355.837 105.131 355.789 105.358 355.629 105.586L354.882 106.671C355.019 107.009 355.265 107.324 355.62 107.618C355.975 107.912 356.376 108.153 356.823 108.342C357.778 108.746 358.73 108.805 359.681 108.521C360.639 108.239 361.454 107.613 362.127 106.645C362.809 105.655 362.989 104.766 362.669 103.975C362.355 103.188 361.619 102.55 360.461 102.06L359.455 101.635L359.925 100.947L360.86 101.342C363.014 102.253 364.694 101.838 365.901 100.097C366.498 99.2315 366.716 98.4613 366.555 97.7862C366.403 97.1072 365.924 96.5973 365.118 96.2565C364.732 96.0933 364.295 95.9844 363.807 95.9298C363.326 95.8781 362.852 95.9133 362.385 96.0353L361.689 97.0584C361.535 97.2889 361.317 97.4479 361.032 97.5352C360.751 97.6158 360.491 97.606 360.254 97.5057C360.017 97.4055 359.867 97.2421 359.803 97.0155C359.746 96.7918 359.826 96.5181 360.042 96.1945C360.367 95.7092 360.853 95.3717 361.5 95.1822C362.147 94.9927 362.842 94.9434 363.586 95.0344C364.337 95.1282 365.082 95.3312 365.82 95.6433C367.168 96.2132 368.031 96.9655 368.411 97.9002C368.799 98.8311 368.644 99.8032 367.944 100.817C367.397 101.6 366.709 102.151 365.88 102.471C365.05 102.791 364.166 102.888 363.229 102.763C364.071 103.415 364.57 104.161 364.726 105.001C364.885 105.834 364.664 106.687 364.064 107.559C363.282 108.69 362.2 109.39 360.816 109.659C359.44 109.932 358.007 109.753 356.517 109.123C355.751 108.799 355.107 108.415 354.585 107.971C354.062 107.526 353.718 107.037 353.552 106.504C353.386 105.971 353.469 105.463 353.801 104.981Z" fill="black"/>
<path d="M149.067 254.041L148.56 253.683C148.056 252.759 147.607 251.962 147.211 251.292C146.819 250.615 146.348 249.869 145.798 249.054C145.245 248.229 144.702 247.501 144.171 246.869C143.64 246.237 143.029 245.596 142.338 244.945C141.647 244.293 140.921 243.707 140.16 243.185L140.985 241.235C141.732 241.751 142.449 242.361 143.133 243.065C143.81 243.767 144.404 244.469 144.913 245.171C145.418 245.864 145.925 246.668 146.431 247.585C146.934 248.492 147.355 249.309 147.695 250.035C148.037 250.755 148.414 251.601 148.825 252.573L151.106 247.178L147.217 244.48L146.421 241.916L146.804 241.803L151.888 245.329L152.541 243.785L153.208 244.247L152.559 245.781L154.538 247.133L155.416 246.162L155.932 246.5L154.11 250.808L153.567 250.422L153.643 248.91L151.777 247.63L149.067 254.041Z" fill="black"/>
<path d="M411.691 128.653L412.049 128.146C412.972 127.642 413.769 127.192 414.439 126.797C415.116 126.405 415.862 125.934 416.677 125.384C417.502 124.831 418.23 124.288 418.862 123.757C419.494 123.226 420.135 122.615 420.787 121.924C421.438 121.233 422.024 120.507 422.546 119.746L424.497 120.57C423.981 121.318 423.371 122.034 422.666 122.719C421.965 123.396 421.263 123.989 420.56 124.499C419.868 125.004 419.063 125.51 418.146 126.017C417.239 126.52 416.422 126.941 415.696 127.28C414.976 127.623 414.13 128 413.158 128.411L418.553 130.692L421.251 126.803L423.815 126.007L423.928 126.39L420.402 131.474L421.946 132.126L421.485 132.793L419.95 132.145L418.599 134.124L419.569 135.002L419.231 135.517L414.924 133.696L415.309 133.153L416.821 133.229L418.101 131.363L411.691 128.653Z" fill="black"/>
<path d="M126.387 310.178C126.077 309.967 125.882 309.721 125.801 309.439C125.721 309.158 125.731 308.899 125.831 308.662C125.937 308.411 126.106 308.255 126.34 308.194C126.566 308.13 126.787 308.175 127.001 308.33L128.015 309.046C128.619 308.751 129.089 308.207 129.424 307.414C129.83 306.452 129.85 305.499 129.484 304.553C129.117 303.608 128.401 302.762 127.335 302.016C126.157 301.215 125.143 300.902 124.294 301.078C123.442 301.244 122.791 301.859 122.341 302.923C121.966 303.81 121.85 304.699 121.992 305.589L121.327 305.775L115.654 301.149C116.819 298.393 117.64 296.205 118.117 294.586L119.682 295.643L117.341 301.18L121.347 304.934C121.263 303.924 121.437 302.908 121.869 301.885C122.494 300.409 123.362 299.498 124.473 299.154C125.581 298.8 126.783 299.072 128.079 299.972C129.365 300.859 130.192 301.991 130.56 303.368C130.928 304.745 130.787 306.202 130.137 307.739C129.664 308.857 129.082 309.657 128.391 310.139C127.694 310.619 127.026 310.632 126.387 310.178Z" fill="black"/>
<path d="M99.1259 363.161C98.0922 362.452 97.2169 361.671 96.5001 360.817C95.7862 359.956 95.2465 359.089 94.8811 358.216C94.5118 357.334 94.2736 356.415 94.1666 355.459C94.0556 354.494 94.0636 353.559 94.1905 352.655C94.3202 351.744 94.5484 350.826 94.8751 349.903L95.5072 349.739C94.9102 351.85 94.8895 353.825 95.445 355.664C95.9967 357.494 97.0779 359.025 98.6888 360.257C98.3071 359.026 98.3883 357.767 98.9324 356.48C99.508 355.119 100.336 354.283 101.417 353.974C102.501 353.658 103.663 353.93 104.904 354.79C106.186 355.667 107.014 356.795 107.389 358.175C107.757 359.552 107.656 360.915 107.086 362.263C106.745 363.069 106.302 363.692 105.757 364.132C105.215 364.565 104.601 364.809 103.915 364.862C103.233 364.909 102.486 364.797 101.675 364.525C100.859 364.245 100.01 363.79 99.1259 363.161ZM99.8064 361.041C101.065 361.917 102.139 362.51 103.029 362.823C103.919 363.135 104.632 363.213 105.17 363.057C105.703 362.891 106.101 362.497 106.364 361.874C106.708 361.061 106.689 360.199 106.308 359.287C105.92 358.373 105.213 357.554 104.185 356.832C103.072 356.083 102.116 355.794 101.317 355.967C100.51 356.137 99.9197 356.666 99.5445 357.553C99.3069 358.115 99.2118 358.718 99.2594 359.361C99.303 359.994 99.4854 360.554 99.8064 361.041Z" fill="black"/>
<path d="M71.0882 415.4L68.2877 413.186L72.1062 404.154L72.6279 404.507C73.2489 405.304 74.0984 406.458 75.1767 407.967C76.2578 409.47 77.1463 410.692 77.8423 411.633C78.5412 412.567 79.4205 413.594 80.4804 414.712C81.5432 415.824 82.6016 416.739 83.6557 417.456L82.8396 419.386C81.9919 418.804 81.1963 418.137 80.453 417.383C79.7029 416.627 79.0035 415.789 78.355 414.868C77.6996 413.944 77.1204 413.076 76.6172 412.265C76.1101 411.444 75.5012 410.448 74.7906 409.277C74.0828 408.1 73.4716 407.119 72.957 406.334L70.1264 413.03L71.3846 414.699L71.0882 415.4Z" fill="black"/>
</svg>
