<svg width="899" height="773" viewBox="0 0 899 773" fill="none" xmlns="http://www.w3.org/2000/svg">
<path opacity="0.5" d="M621.901 118.987L133.091 493.532L339.62 3.50325L621.901 118.987Z" fill="#F6E1BF" stroke="black" stroke-width="1.18435"/>
<path d="M135.858 486.986L138.586 488.139" stroke="black" stroke-width="1.18435"/>
<path d="M138.164 481.532L144.164 484.069" stroke="black" stroke-width="1.18435"/>
<path d="M140.7 475.533L147.791 478.53" stroke="black" stroke-width="1.18435"/>
<path d="M142.461 469.848L151.733 473.768" stroke="black" stroke-width="1.18435"/>
<path d="M144.998 463.848L153.725 467.537" stroke="black" stroke-width="1.18435"/>
<path d="M294.192 110.953L303.465 114.873" stroke="black" stroke-width="1.18435"/>
<path d="M296.499 105.499L305.225 109.189" stroke="black" stroke-width="1.18435"/>
<path d="M298.804 100.045L308.622 104.196" stroke="black" stroke-width="1.18435"/>
<path d="M301.11 94.5905L310.928 98.7412" stroke="black" stroke-width="1.18435"/>
<path d="M304.192 88.8213L317.828 94.5862" stroke="black" stroke-width="1.18435"/>
<path d="M305.953 83.1362L315.225 87.0563" stroke="black" stroke-width="1.18435"/>
<path d="M308.489 77.1367L317.762 81.0568" stroke="black" stroke-width="1.18435"/>
<path d="M310.795 71.6824L319.522 75.3719" stroke="black" stroke-width="1.18435"/>
<path d="M313.101 66.228L322.373 70.1481" stroke="black" stroke-width="1.18435"/>
<path d="M315.638 60.2281L336.91 69.2214" stroke="black" stroke-width="1.18435"/>
<path d="M343.983 5.34802L340.063 14.6204" stroke="black" stroke-width="1.18435"/>
<path d="M349.438 7.65393L345.748 16.3808" stroke="black" stroke-width="1.18435"/>
<path d="M354.892 9.95996L350.741 19.7777" stroke="black" stroke-width="1.18435"/>
<path d="M361.122 11.9512L356.971 21.7689" stroke="black" stroke-width="1.18435"/>
<path d="M365.801 14.5718L360.036 28.2076" stroke="black" stroke-width="1.18435"/>
<path d="M371.8 17.1084L367.88 26.3807" stroke="black" stroke-width="1.18435"/>
<path d="M377.8 19.6449L373.88 28.9172" stroke="black" stroke-width="1.18435"/>
<path d="M383.254 21.9509L379.565 30.6778" stroke="black" stroke-width="1.18435"/>
<path d="M389.254 24.4874L385.334 33.7598" stroke="black" stroke-width="1.18435"/>
<path d="M394.625 25.4719L385.631 46.7438" stroke="black" stroke-width="1.18435"/>
<path d="M400.079 27.7778L396.158 37.0502" stroke="black" stroke-width="1.18435"/>
<path d="M405.533 30.0837L401.844 38.8107" stroke="black" stroke-width="1.18435"/>
<path d="M410.987 32.3898L406.836 42.2075" stroke="black" stroke-width="1.18435"/>
<path d="M416.211 35.2412L412.06 45.059" stroke="black" stroke-width="1.18435"/>
<path d="M422.21 37.7777L416.446 51.4135" stroke="black" stroke-width="1.18435"/>
<path d="M427.895 39.5383L423.975 48.8107" stroke="black" stroke-width="1.18435"/>
<path d="M433.896 42.0747L429.975 51.347" stroke="black" stroke-width="1.18435"/>
<path d="M439.35 44.3806L435.66 53.1075" stroke="black" stroke-width="1.18435"/>
<path d="M445.349 46.9172L441.429 56.1896" stroke="black" stroke-width="1.18435"/>
<path d="M450.804 49.2233L441.811 70.4951" stroke="black" stroke-width="1.18435"/>
<path d="M455.712 51.2987L451.792 60.571" stroke="black" stroke-width="1.18435"/>
<path d="M461.167 53.6046L457.477 62.3315" stroke="black" stroke-width="1.18435"/>
<path d="M466.621 55.9105L462.47 65.7283" stroke="black" stroke-width="1.18435"/>
<path d="M472.852 57.9015L468.701 67.7193" stroke="black" stroke-width="1.18435"/>
<path d="M477.991 59.4315L472.226 73.0673" stroke="black" stroke-width="1.18435"/>
<path d="M483.445 61.7374L479.525 71.0098" stroke="black" stroke-width="1.18435"/>
<path d="M489.99 64.5046L486.07 73.777" stroke="black" stroke-width="1.18435"/>
<path d="M495.214 67.356L491.525 76.0829" stroke="black" stroke-width="1.18435"/>
<path d="M500.899 69.1166L496.979 78.3889" stroke="black" stroke-width="1.18435"/>
<path d="M506.354 71.4225L497.36 92.6943" stroke="black" stroke-width="1.18435"/>
<path d="M512.899 74.1895L508.979 83.4618" stroke="black" stroke-width="1.18435"/>
<path d="M518.353 76.4956L514.664 85.2225" stroke="black" stroke-width="1.18435"/>
<path d="M523.808 78.8015L519.657 88.6193" stroke="black" stroke-width="1.18435"/>
<path d="M530.037 80.7927L525.886 90.6105" stroke="black" stroke-width="1.18435"/>
<path d="M534.716 83.4135L528.951 97.0493" stroke="black" stroke-width="1.18435"/>
<path d="M540.716 85.9498L536.796 95.2222" stroke="black" stroke-width="1.18435"/>
<path d="M546.716 88.4863L542.796 97.7587" stroke="black" stroke-width="1.18435"/>
<path d="M552.17 90.7925L548.48 99.5194" stroke="black" stroke-width="1.18435"/>
<path d="M558.17 93.329L554.25 102.601" stroke="black" stroke-width="1.18435"/>
<path d="M563.624 95.6349L554.631 116.907" stroke="black" stroke-width="1.18435"/>
<path d="M570.085 97.0806L566.165 106.353" stroke="black" stroke-width="1.18435"/>
<path d="M575.539 99.3865L571.85 108.113" stroke="black" stroke-width="1.18435"/>
<path d="M580.993 101.692L576.842 111.51" stroke="black" stroke-width="1.18435"/>
<path d="M586.217 104.544L582.066 114.362" stroke="black" stroke-width="1.18435"/>
<path d="M592.217 107.08L586.452 120.716" stroke="black" stroke-width="1.18435"/>
<path d="M318.175 54.2284L327.447 58.1485" stroke="black" stroke-width="1.18435"/>
<path d="M320.48 48.774L329.207 52.4636" stroke="black" stroke-width="1.18435"/>
<path d="M322.787 43.3197L332.604 47.4704" stroke="black" stroke-width="1.18435"/>
<path d="M325.092 37.8655L334.91 42.0162" stroke="black" stroke-width="1.18435"/>
<path d="M327.628 31.8658L341.264 37.6307" stroke="black" stroke-width="1.18435"/>
<path d="M329.704 26.9568L338.976 30.8769" stroke="black" stroke-width="1.18435"/>
<path d="M331.926 20.181L341.199 24.1011" stroke="black" stroke-width="1.18435"/>
<path d="M334.232 14.7268L342.959 18.4163" stroke="black" stroke-width="1.18435"/>
<path d="M336.768 8.72705L346.04 12.6472" stroke="black" stroke-width="1.18435"/>
<path d="M270.211 167.678L279.483 171.598" stroke="black" stroke-width="1.18435"/>
<path d="M272.517 162.224L281.244 165.914" stroke="black" stroke-width="1.18435"/>
<path d="M274.823 156.77L284.641 160.92" stroke="black" stroke-width="1.18435"/>
<path d="M277.128 151.315L286.946 155.466" stroke="black" stroke-width="1.18435"/>
<path d="M279.665 145.316L293.301 151.08" stroke="black" stroke-width="1.18435"/>
<path d="M281.74 140.407L291.013 144.327" stroke="black" stroke-width="1.18435"/>
<path d="M284.508 133.861L293.78 137.782" stroke="black" stroke-width="1.18435"/>
<path d="M286.813 128.407L295.54 132.097" stroke="black" stroke-width="1.18435"/>
<path d="M289.12 122.953L298.392 126.873" stroke="black" stroke-width="1.18435"/>
<path d="M291.425 117.499L312.697 126.492" stroke="black" stroke-width="1.18435"/>
<path d="M246.229 224.403L255.501 228.323" stroke="black" stroke-width="1.18435"/>
<path d="M248.535 218.949L257.262 222.638" stroke="black" stroke-width="1.18435"/>
<path d="M250.84 213.495L260.658 217.645" stroke="black" stroke-width="1.18435"/>
<path d="M253.146 208.04L262.964 212.191" stroke="black" stroke-width="1.18435"/>
<path d="M255.683 202.041L269.319 207.805" stroke="black" stroke-width="1.18435"/>
<path d="M257.758 197.132L267.031 201.052" stroke="black" stroke-width="1.18435"/>
<path d="M260.525 190.586L269.798 194.507" stroke="black" stroke-width="1.18435"/>
<path d="M262.832 185.132L271.558 188.822" stroke="black" stroke-width="1.18435"/>
<path d="M265.137 179.678L274.41 183.598" stroke="black" stroke-width="1.18435"/>
<path d="M267.444 174.223L288.716 183.217" stroke="black" stroke-width="1.18435"/>
<path d="M222.247 281.128L231.519 285.048" stroke="black" stroke-width="1.18435"/>
<path d="M224.553 275.674L233.28 279.363" stroke="black" stroke-width="1.18435"/>
<path d="M226.859 270.219L236.677 274.37" stroke="black" stroke-width="1.18435"/>
<path d="M229.165 264.765L238.983 268.916" stroke="black" stroke-width="1.18435"/>
<path d="M231.701 258.765L245.337 264.53" stroke="black" stroke-width="1.18435"/>
<path d="M233.777 253.857L243.049 257.777" stroke="black" stroke-width="1.18435"/>
<path d="M236.544 247.311L245.816 251.232" stroke="black" stroke-width="1.18435"/>
<path d="M238.85 241.857L247.577 245.547" stroke="black" stroke-width="1.18435"/>
<path d="M241.156 236.403L250.428 240.323" stroke="black" stroke-width="1.18435"/>
<path d="M243.461 230.948L264.733 239.942" stroke="black" stroke-width="1.18435"/>
<path d="M198.265 337.853L207.537 341.773" stroke="black" stroke-width="1.18435"/>
<path d="M200.571 332.399L209.298 336.088" stroke="black" stroke-width="1.18435"/>
<path d="M202.877 326.944L212.695 331.095" stroke="black" stroke-width="1.18435"/>
<path d="M205.183 321.49L215 325.641" stroke="black" stroke-width="1.18435"/>
<path d="M207.72 315.49L221.356 321.255" stroke="black" stroke-width="1.18435"/>
<path d="M209.794 310.582L219.067 314.502" stroke="black" stroke-width="1.18435"/>
<path d="M212.562 304.036L221.834 307.956" stroke="black" stroke-width="1.18435"/>
<path d="M214.868 298.582L223.595 302.272" stroke="black" stroke-width="1.18435"/>
<path d="M217.635 292.037L226.908 295.957" stroke="black" stroke-width="1.18435"/>
<path d="M219.48 287.673L240.752 296.666" stroke="black" stroke-width="1.18435"/>
<path d="M174.283 394.578L183.556 398.498" stroke="black" stroke-width="1.18435"/>
<path d="M176.589 389.124L185.316 392.813" stroke="black" stroke-width="1.18435"/>
<path d="M178.895 383.669L188.713 387.82" stroke="black" stroke-width="1.18435"/>
<path d="M181.201 378.215L191.019 382.366" stroke="black" stroke-width="1.18435"/>
<path d="M183.737 372.215L197.373 377.98" stroke="black" stroke-width="1.18435"/>
<path d="M185.813 367.306L195.085 371.226" stroke="black" stroke-width="1.18435"/>
<path d="M188.58 360.761L197.852 364.681" stroke="black" stroke-width="1.18435"/>
<path d="M190.886 355.307L199.613 358.996" stroke="black" stroke-width="1.18435"/>
<path d="M193.653 348.762L202.926 352.682" stroke="black" stroke-width="1.18435"/>
<path d="M195.498 344.398L216.77 353.391" stroke="black" stroke-width="1.18435"/>
<path d="M150.846 451.534L160.119 455.454" stroke="black" stroke-width="1.18435"/>
<path d="M153.152 446.079L161.879 449.769" stroke="black" stroke-width="1.18435"/>
<path d="M155.459 440.625L165.277 444.775" stroke="black" stroke-width="1.18435"/>
<path d="M157.45 434.395L167.267 438.545" stroke="black" stroke-width="1.18435"/>
<path d="M159.525 429.486L173.161 435.25" stroke="black" stroke-width="1.18435"/>
<path d="M162.607 423.717L171.879 427.637" stroke="black" stroke-width="1.18435"/>
<path d="M165.144 417.717L174.416 421.637" stroke="black" stroke-width="1.18435"/>
<path d="M167.45 412.262L176.177 415.952" stroke="black" stroke-width="1.18435"/>
<path d="M169.986 406.263L179.258 410.183" stroke="black" stroke-width="1.18435"/>
<path d="M172.292 400.808L193.564 409.802" stroke="black" stroke-width="1.18435"/>
<path d="M147.304 458.393L166.394 466.464" stroke="black" stroke-width="1.18435"/>
<circle cx="289.947" cy="323.251" r="17.7652" transform="rotate(-67.0826 289.947 323.251)" fill="#FFF9ED" stroke="black" stroke-width="1.18435"/>
<circle cx="339.99" cy="221.61" r="24.2791" transform="rotate(-67.0826 339.99 221.61)" fill="#FFF9EE" stroke="black" stroke-width="1.18435"/>
<circle cx="386.468" cy="122.32" r="31.9774" transform="rotate(-67.0826 386.468 122.32)" fill="#FFF8ED" stroke="black" stroke-width="1.18435"/>
<path d="M356.445 82.078L355.889 81.723L356.167 79.733L345.03 72.0547L344.214 73.9851L343.646 73.6012L344.427 69.4883L344.816 69.3893L357.101 77.8643L358.171 76.4368L358.687 76.7746L356.445 82.078Z" fill="black"/>
<path d="M331.723 140.554L330.898 140.014C330.634 138.976 330.409 138.119 330.225 137.442C330.043 136.758 329.82 135.981 329.557 135.112C329.297 134.235 329.052 133.501 328.823 132.91C328.588 132.315 328.313 131.68 328 131.005C327.687 130.329 327.367 129.755 327.04 129.281C326.709 128.798 326.335 128.333 325.918 127.885C325.501 127.437 325.054 127.049 324.578 126.72C322.82 125.497 321.55 125.81 320.768 127.66C320.376 128.587 320.34 129.578 320.661 130.632L321.855 131.461C322.075 131.601 322.232 131.815 322.326 132.103C322.417 132.38 322.409 132.645 322.303 132.895C322.203 133.132 322.039 133.283 321.813 133.347C321.586 133.41 321.306 133.328 320.971 133.099C320.241 132.598 319.789 131.788 319.615 130.669C319.435 129.547 319.623 128.329 320.178 127.015C320.757 125.647 321.513 124.773 322.448 124.394C323.386 124.008 324.439 124.218 325.607 125.023C326.217 125.449 326.783 126.019 327.303 126.734C327.819 127.439 328.235 128.106 328.552 128.735C328.869 129.364 329.205 130.269 329.561 131.449C329.919 132.622 330.173 133.512 330.324 134.119C330.468 134.723 330.7 135.731 331.021 137.144C331.088 137.42 331.136 137.628 331.165 137.767L333.699 131.773L332.358 130.129L332.655 129.428L335.541 131.522L331.723 140.554Z" fill="black"/>
<path d="M304.82 197.391C304.503 197.177 304.303 196.932 304.22 196.658C304.132 196.373 304.137 196.116 304.235 195.886C304.341 195.635 304.51 195.479 304.744 195.418C304.97 195.354 305.197 195.402 305.425 195.563L306.511 196.309C306.848 196.172 307.163 195.926 307.457 195.571C307.751 195.217 307.992 194.816 308.181 194.369C308.585 193.414 308.644 192.461 308.36 191.51C308.078 190.553 307.453 189.737 306.484 189.064C305.495 188.383 304.605 188.202 303.815 188.523C303.027 188.837 302.389 189.573 301.899 190.731L301.474 191.737L300.786 191.266L301.182 190.332C302.092 188.178 301.677 186.497 299.936 185.29C299.071 184.693 298.301 184.475 297.625 184.637C296.946 184.789 296.437 185.268 296.096 186.074C295.933 186.46 295.824 186.897 295.769 187.385C295.717 187.866 295.753 188.34 295.875 188.806L296.898 189.502C297.128 189.656 297.287 189.875 297.374 190.159C297.455 190.441 297.445 190.7 297.345 190.937C297.245 191.174 297.081 191.325 296.855 191.388C296.631 191.446 296.357 191.366 296.034 191.149C295.548 190.824 295.211 190.338 295.021 189.691C294.832 189.044 294.783 188.349 294.874 187.605C294.967 186.854 295.17 186.11 295.483 185.371C296.052 184.023 296.805 183.16 297.739 182.781C298.67 182.392 299.642 182.547 300.656 183.247C301.439 183.794 301.99 184.482 302.31 185.312C302.63 186.142 302.727 187.025 302.602 187.962C303.254 187.12 304 186.621 304.84 186.465C305.674 186.307 306.526 186.528 307.398 187.128C308.529 187.909 309.229 188.991 309.498 190.375C309.771 191.751 309.592 193.185 308.962 194.675C308.638 195.44 308.254 196.084 307.81 196.607C307.365 197.129 306.876 197.474 306.343 197.639C305.81 197.805 305.302 197.722 304.82 197.391Z" fill="black"/>
<path d="M280.067 254.041L279.56 253.683C279.056 252.759 278.607 251.962 278.211 251.292C277.819 250.615 277.348 249.869 276.798 249.054C276.245 248.229 275.702 247.501 275.171 246.869C274.64 246.238 274.029 245.596 273.338 244.945C272.647 244.293 271.921 243.707 271.16 243.185L271.985 241.235C272.732 241.751 273.449 242.361 274.133 243.065C274.81 243.767 275.404 244.469 275.913 245.171C276.418 245.864 276.925 246.669 277.431 247.585C277.934 248.492 278.355 249.309 278.695 250.036C279.037 250.755 279.414 251.601 279.825 252.573L282.106 247.179L278.217 244.48L277.421 241.916L277.804 241.803L282.888 245.329L283.541 243.785L284.208 244.247L283.559 245.781L285.538 247.133L286.416 246.162L286.932 246.5L285.11 250.808L284.567 250.422L284.643 248.91L282.777 247.63L280.067 254.041Z" fill="black"/>
<path d="M257.387 310.178C257.077 309.967 256.882 309.721 256.801 309.44C256.721 309.158 256.731 308.899 256.831 308.662C256.937 308.411 257.106 308.255 257.34 308.194C257.566 308.13 257.787 308.176 258.001 308.33L259.015 309.046C259.619 308.751 260.089 308.207 260.424 307.414C260.83 306.453 260.85 305.499 260.484 304.553C260.117 303.608 259.401 302.762 258.335 302.016C257.157 301.215 256.143 300.902 255.294 301.078C254.442 301.245 253.791 301.86 253.341 302.923C252.966 303.81 252.85 304.699 252.992 305.59L252.327 305.775L246.654 301.15C247.819 298.393 248.64 296.205 249.117 294.586L250.682 295.643L248.341 301.18L252.347 304.934C252.263 303.924 252.437 302.908 252.869 301.885C253.494 300.409 254.362 299.498 255.473 299.154C256.581 298.8 257.783 299.073 259.079 299.972C260.365 300.859 261.192 301.991 261.56 303.368C261.928 304.745 261.787 306.202 261.137 307.74C260.664 308.857 260.082 309.657 259.391 310.139C258.694 310.619 258.026 310.632 257.387 310.178Z" fill="black"/>
<path d="M230.126 363.161C229.092 362.452 228.217 361.671 227.5 360.817C226.786 359.956 226.247 359.09 225.881 358.216C225.512 357.334 225.274 356.415 225.167 355.459C225.056 354.494 225.064 353.56 225.19 352.655C225.32 351.744 225.548 350.827 225.875 349.903L226.507 349.739C225.91 351.85 225.889 353.825 226.445 355.665C226.997 357.495 228.078 359.025 229.689 360.257C229.307 359.026 229.388 357.767 229.932 356.48C230.508 355.119 231.336 354.283 232.417 353.974C233.501 353.658 234.663 353.93 235.904 354.79C237.186 355.667 238.014 356.795 238.389 358.175C238.757 359.552 238.656 360.915 238.086 362.263C237.745 363.069 237.302 363.692 236.757 364.132C236.215 364.565 235.601 364.809 234.915 364.862C234.233 364.909 233.486 364.797 232.675 364.526C231.859 364.245 231.01 363.79 230.126 363.161ZM230.806 361.041C232.065 361.917 233.139 362.511 234.029 362.823C234.919 363.135 235.632 363.213 236.17 363.057C236.703 362.891 237.101 362.497 237.364 361.874C237.708 361.061 237.689 360.199 237.308 359.287C236.92 358.373 236.213 357.555 235.185 356.833C234.072 356.083 233.116 355.795 232.317 355.967C231.51 356.137 230.92 356.666 230.545 357.553C230.307 358.116 230.212 358.718 230.259 359.361C230.303 359.994 230.485 360.554 230.806 361.041Z" fill="black"/>
<path d="M202.088 415.4L199.288 413.186L203.106 404.154L203.628 404.507C204.249 405.304 205.098 406.458 206.177 407.967C207.258 409.47 208.146 410.692 208.842 411.633C209.541 412.567 210.421 413.594 211.48 414.713C212.543 415.825 213.602 416.739 214.656 417.456L213.84 419.387C212.992 418.805 212.196 418.137 211.453 417.384C210.703 416.627 210.004 415.789 209.355 414.868C208.7 413.944 208.12 413.076 207.617 412.265C207.11 411.444 206.501 410.448 205.791 409.277C205.083 408.1 204.472 407.119 203.957 406.334L201.126 413.03L202.385 414.699L202.088 415.4Z" fill="black"/>
<path d="M356.445 82.078L355.889 81.723L356.167 79.733L345.03 72.0547L344.214 73.9851L343.646 73.6012L344.427 69.4883L344.816 69.3893L357.101 77.8643L358.171 76.4368L358.687 76.7746L356.445 82.078Z" fill="black"/>
<path d="M373.257 69.6984L373.612 69.1419L375.602 69.4204L383.281 58.2837L381.35 57.4676L381.734 56.8994L385.847 57.6802L385.946 58.0693L377.471 70.3541L378.899 71.4247L378.561 71.9405L373.257 69.6984Z" fill="black"/>
<path d="M331.723 140.554L330.898 140.014C330.634 138.976 330.409 138.119 330.225 137.442C330.043 136.758 329.82 135.981 329.557 135.112C329.297 134.235 329.052 133.501 328.823 132.91C328.588 132.315 328.313 131.68 328 131.005C327.687 130.329 327.367 129.755 327.04 129.281C326.709 128.798 326.335 128.333 325.918 127.885C325.501 127.437 325.054 127.049 324.578 126.72C322.82 125.497 321.55 125.81 320.768 127.66C320.376 128.587 320.34 129.578 320.661 130.632L321.855 131.461C322.075 131.601 322.232 131.815 322.326 132.103C322.417 132.38 322.409 132.645 322.303 132.895C322.203 133.132 322.039 133.283 321.813 133.347C321.586 133.41 321.306 133.328 320.971 133.099C320.241 132.598 319.789 131.788 319.615 130.669C319.435 129.547 319.623 128.329 320.178 127.015C320.757 125.647 321.513 124.773 322.448 124.394C323.386 124.008 324.439 124.218 325.607 125.023C326.217 125.449 326.783 126.019 327.303 126.734C327.819 127.439 328.235 128.106 328.552 128.735C328.869 129.364 329.205 130.269 329.561 131.449C329.919 132.622 330.173 133.512 330.324 134.119C330.468 134.723 330.7 135.731 331.021 137.144C331.088 137.42 331.136 137.628 331.165 137.767L333.699 131.773L332.358 130.129L332.655 129.428L335.541 131.522L331.723 140.554Z" fill="black"/>
<path d="M427.894 87.6539L428.435 86.8285C429.473 86.5647 430.33 86.3403 431.007 86.1555C431.69 85.9735 432.467 85.7509 433.337 85.4879C434.213 85.2277 434.947 84.9832 435.539 84.7544C436.134 84.5187 436.769 84.2443 437.444 83.931C438.119 83.6178 438.694 83.2977 439.167 82.971C439.65 82.6403 440.116 82.2663 440.564 81.8489C441.012 81.4315 441.4 80.9849 441.729 80.5092C442.951 78.7507 442.638 77.4805 440.789 76.6988C439.861 76.3065 438.87 76.2708 437.816 76.5917L436.988 77.7863C436.847 78.0062 436.633 78.1632 436.346 78.2573C436.068 78.3475 435.804 78.3396 435.553 78.2337C435.316 78.1335 435.166 77.97 435.102 77.7434C435.038 77.5168 435.121 77.2364 435.35 76.9022C435.85 76.1717 436.66 75.7197 437.779 75.5461C438.902 75.3659 440.12 75.5535 441.434 76.109C442.802 76.6874 443.675 77.444 444.055 78.3788C444.441 79.3164 444.231 80.3695 443.426 81.5379C443 82.1483 442.43 82.7136 441.715 83.2337C441.01 83.7499 440.342 84.1664 439.713 84.4833C439.084 84.8002 438.18 85.1363 437 85.4917C435.826 85.8499 434.936 86.1043 434.33 86.255C433.726 86.399 432.718 86.6313 431.305 86.952C431.029 87.0191 430.821 87.0669 430.681 87.0956L436.675 89.6298L438.32 88.2892L439.021 88.5856L436.926 91.4724L427.894 87.6539Z" fill="black"/>
<path d="M304.82 197.391C304.503 197.177 304.303 196.932 304.22 196.658C304.132 196.373 304.137 196.116 304.235 195.886C304.341 195.635 304.51 195.479 304.744 195.418C304.97 195.354 305.197 195.402 305.425 195.563L306.511 196.309C306.848 196.172 307.163 195.926 307.457 195.571C307.751 195.217 307.992 194.816 308.181 194.369C308.585 193.414 308.644 192.461 308.36 191.51C308.078 190.553 307.453 189.737 306.484 189.064C305.495 188.383 304.605 188.202 303.815 188.523C303.027 188.837 302.389 189.573 301.899 190.731L301.474 191.737L300.786 191.266L301.182 190.332C302.092 188.178 301.677 186.497 299.936 185.29C299.071 184.693 298.301 184.475 297.625 184.637C296.946 184.789 296.437 185.268 296.096 186.074C295.933 186.46 295.824 186.897 295.769 187.385C295.717 187.866 295.753 188.34 295.875 188.806L296.898 189.502C297.128 189.656 297.287 189.875 297.374 190.159C297.455 190.441 297.445 190.7 297.345 190.937C297.245 191.174 297.081 191.325 296.855 191.388C296.631 191.446 296.357 191.366 296.034 191.149C295.548 190.824 295.211 190.338 295.021 189.691C294.832 189.044 294.783 188.349 294.874 187.605C294.967 186.854 295.17 186.11 295.483 185.371C296.052 184.023 296.805 183.16 297.739 182.781C298.67 182.392 299.642 182.547 300.656 183.247C301.439 183.794 301.99 184.482 302.31 185.312C302.63 186.142 302.727 187.025 302.602 187.962C303.254 187.12 304 186.621 304.84 186.465C305.674 186.307 306.526 186.528 307.398 187.128C308.529 187.909 309.229 188.991 309.498 190.375C309.771 191.751 309.592 193.185 308.962 194.675C308.638 195.44 308.254 196.084 307.81 196.607C307.365 197.129 306.876 197.474 306.343 197.639C305.81 197.805 305.302 197.722 304.82 197.391Z" fill="black"/>
<path d="M484.801 104.981C485.015 104.664 485.259 104.464 485.534 104.38C485.818 104.293 486.075 104.298 486.306 104.395C486.556 104.501 486.712 104.671 486.773 104.904C486.837 105.131 486.789 105.358 486.629 105.586L485.882 106.671C486.019 107.009 486.265 107.324 486.62 107.618C486.975 107.912 487.376 108.153 487.823 108.342C488.778 108.746 489.73 108.805 490.681 108.521C491.639 108.239 492.454 107.614 493.127 106.645C493.809 105.655 493.989 104.766 493.669 103.976C493.355 103.188 492.619 102.55 491.461 102.06L490.455 101.635L490.925 100.947L491.86 101.343C494.014 102.253 495.694 101.838 496.901 100.097C497.498 99.2316 497.716 98.4615 497.555 97.7863C497.403 97.1073 496.924 96.5974 496.118 96.2567C495.732 96.0934 495.295 95.9845 494.807 95.93C494.326 95.8783 493.852 95.9134 493.385 96.0354L492.689 97.0585C492.535 97.2891 492.317 97.448 492.032 97.5354C491.751 97.6159 491.491 97.6061 491.254 97.5059C491.017 97.4056 490.867 97.2422 490.803 97.0156C490.746 96.7919 490.826 96.5182 491.042 96.1947C491.367 95.7093 491.853 95.3719 492.5 95.1823C493.147 94.9928 493.842 94.9435 494.586 95.0345C495.337 95.1283 496.082 95.3313 496.82 95.6434C498.168 96.2133 499.031 96.9656 499.411 97.9003C499.799 98.8312 499.644 99.8033 498.944 100.817C498.397 101.6 497.709 102.151 496.88 102.471C496.05 102.791 495.166 102.888 494.229 102.763C495.071 103.415 495.57 104.161 495.726 105.001C495.885 105.834 495.664 106.687 495.064 107.559C494.282 108.69 493.2 109.39 491.816 109.659C490.44 109.932 489.007 109.753 487.517 109.123C486.751 108.799 486.107 108.415 485.585 107.971C485.062 107.526 484.718 107.037 484.552 106.504C484.386 105.971 484.469 105.463 484.801 104.981Z" fill="black"/>
<path d="M280.067 254.041L279.56 253.683C279.056 252.759 278.607 251.962 278.211 251.292C277.819 250.615 277.348 249.869 276.798 249.054C276.245 248.229 275.702 247.501 275.171 246.869C274.64 246.238 274.029 245.596 273.338 244.945C272.647 244.293 271.921 243.707 271.16 243.185L271.985 241.235C272.732 241.751 273.449 242.361 274.133 243.065C274.81 243.767 275.404 244.469 275.913 245.171C276.418 245.864 276.925 246.669 277.431 247.585C277.934 248.492 278.355 249.309 278.695 250.036C279.037 250.755 279.414 251.601 279.825 252.573L282.106 247.179L278.217 244.48L277.421 241.916L277.804 241.803L282.888 245.329L283.541 243.785L284.208 244.247L283.559 245.781L285.538 247.133L286.416 246.162L286.932 246.5L285.11 250.808L284.567 250.422L284.643 248.91L282.777 247.63L280.067 254.041Z" fill="black"/>
<path d="M542.691 128.653L543.049 128.146C543.972 127.642 544.769 127.192 545.439 126.797C546.116 126.405 546.862 125.934 547.677 125.384C548.502 124.831 549.23 124.288 549.862 123.757C550.494 123.226 551.135 122.615 551.787 121.924C552.438 121.233 553.024 120.507 553.546 119.746L555.497 120.57C554.981 121.318 554.371 122.034 553.666 122.719C552.965 123.396 552.263 123.99 551.56 124.499C550.868 125.004 550.063 125.51 549.146 126.017C548.239 126.52 547.422 126.941 546.696 127.281C545.976 127.623 545.13 128 544.158 128.411L549.553 130.692L552.251 126.803L554.815 126.007L554.928 126.39L551.402 131.474L552.946 132.127L552.485 132.794L550.95 132.145L549.599 134.124L550.569 135.002L550.231 135.517L545.924 133.696L546.309 133.153L547.821 133.229L549.101 131.363L542.691 128.653Z" fill="black"/>
<path d="M257.387 310.178C257.077 309.967 256.882 309.721 256.801 309.44C256.721 309.158 256.731 308.899 256.831 308.662C256.937 308.411 257.106 308.255 257.34 308.194C257.566 308.13 257.787 308.176 258.001 308.33L259.015 309.046C259.619 308.751 260.089 308.207 260.424 307.414C260.83 306.453 260.85 305.499 260.484 304.553C260.117 303.608 259.401 302.762 258.335 302.016C257.157 301.215 256.143 300.902 255.294 301.078C254.442 301.245 253.791 301.86 253.341 302.923C252.966 303.81 252.85 304.699 252.992 305.59L252.327 305.775L246.654 301.15C247.819 298.393 248.64 296.205 249.117 294.586L250.682 295.643L248.341 301.18L252.347 304.934C252.263 303.924 252.437 302.908 252.869 301.885C253.494 300.409 254.362 299.498 255.473 299.154C256.581 298.8 257.783 299.073 259.079 299.972C260.365 300.859 261.192 301.991 261.56 303.368C261.928 304.745 261.787 306.202 261.137 307.74C260.664 308.857 260.082 309.657 259.391 310.139C258.694 310.619 258.026 310.632 257.387 310.178Z" fill="black"/>
<path d="M230.126 363.161C229.092 362.452 228.217 361.671 227.5 360.817C226.786 359.956 226.247 359.09 225.881 358.216C225.512 357.334 225.274 356.415 225.167 355.459C225.056 354.494 225.064 353.56 225.19 352.655C225.32 351.744 225.548 350.827 225.875 349.903L226.507 349.739C225.91 351.85 225.889 353.825 226.445 355.665C226.997 357.495 228.078 359.025 229.689 360.257C229.307 359.026 229.388 357.767 229.932 356.48C230.508 355.119 231.336 354.283 232.417 353.974C233.501 353.658 234.663 353.93 235.904 354.79C237.186 355.667 238.014 356.795 238.389 358.175C238.757 359.552 238.656 360.915 238.086 362.263C237.745 363.069 237.302 363.692 236.757 364.132C236.215 364.565 235.601 364.809 234.915 364.862C234.233 364.909 233.486 364.797 232.675 364.526C231.859 364.245 231.01 363.79 230.126 363.161ZM230.806 361.041C232.065 361.917 233.139 362.511 234.029 362.823C234.919 363.135 235.632 363.213 236.17 363.057C236.703 362.891 237.101 362.497 237.364 361.874C237.708 361.061 237.689 360.199 237.308 359.287C236.92 358.373 236.213 357.555 235.185 356.833C234.072 356.083 233.116 355.795 232.317 355.967C231.51 356.137 230.92 356.666 230.545 357.553C230.307 358.116 230.212 358.718 230.259 359.361C230.303 359.994 230.485 360.554 230.806 361.041Z" fill="black"/>
<path d="M202.088 415.4L199.288 413.186L203.106 404.154L203.628 404.507C204.249 405.304 205.098 406.458 206.177 407.967C207.258 409.47 208.146 410.692 208.842 411.633C209.541 412.567 210.421 413.594 211.48 414.713C212.543 415.825 213.602 416.739 214.656 417.456L213.84 419.387C212.992 418.805 212.196 418.137 211.453 417.384C210.703 416.627 210.004 415.789 209.355 414.868C208.7 413.944 208.12 413.076 207.617 412.265C207.11 411.444 206.501 410.448 205.791 409.277C205.083 408.1 204.472 407.119 203.957 406.334L201.126 413.03L202.385 414.699L202.088 415.4Z" fill="black"/>
<path d="M341.446 544.972L331.753 553.453H308.5H279.5L249 527.5L235.5 437.5L223 340.5L226 325.5L253 276L280.866 308.713L300.252 322.04L329.33 334.156L340.234 346.272L346.292 378.985L351.138 433.506L352.35 481.97L347.504 524.375L341.446 544.972Z" fill="#FEEAB5" stroke="black" stroke-width="2.42317"/>
<path d="M227.66 200.06L225 226.5L207 223.5L182.831 220.5L153.753 197.5L103.5 164.924L71 137.5L95.597 131L111.348 133.423L130.733 140.693L153.753 149.174L182.831 164.924L210.698 183.098L227.66 200.06Z" fill="#FEEAB5" stroke="black" stroke-width="2.42317"/>
<g filter="url(#filter0_d_357_1736)">
<path d="M357.108 595.234L369.175 614.34C370.398 616.276 371.047 618.519 371.047 620.809V643.958V750.578C371.047 757.269 365.622 762.694 358.931 762.694H249.888H-288.055H-306.447C-309.428 762.694 -312.304 761.595 -314.525 759.607L-331.698 744.242C-333.269 742.836 -334.446 741.045 -335.113 739.044L-344.378 711.249C-344.79 710.014 -345 708.72 -345 707.418V610.034V596.57C-345 595.059 -344.717 593.561 -344.167 592.155L-334.096 566.417L-320.083 522.045C-319.734 520.938 -319.544 519.778 -319.526 518.618C-319.015 486.124 -321.868 466.247 -333.299 430.753C-333.819 429.139 -334.006 427.425 -333.833 425.739L-325.615 345.908C-319.084 309.765 -311.667 291.015 -292.902 259.886C-273.324 230.397 -261.687 214.094 -234.746 187.191C-204.429 162.61 -188.264 152.418 -162.051 144.785L-80.5813 120.824C-79.9699 120.644 -79.3371 120.511 -78.7049 120.431C-51.8682 117.02 -36.4887 117.325 -9.39084 120.554L69.3622 136.304C108.551 148.909 129.642 157.522 163.866 178.71L223.864 224.59C225.049 225.497 226.064 226.625 226.84 227.899C248.249 263.018 258.602 284.657 276.543 322.888L317.382 438.197C317.618 438.865 317.796 439.552 317.912 440.25L340.159 573.734C340.549 576.074 341.618 578.248 343.232 579.986L355.743 593.46C356.252 594.008 356.709 594.602 357.108 595.234Z" fill="#FFFBF3"/>
<path d="M371.047 643.958V750.578C371.047 757.269 365.623 762.694 358.931 762.694H249.888M371.047 643.958V620.809C371.047 618.519 370.398 616.276 369.175 614.34L357.108 595.234C356.709 594.602 356.252 594.008 355.743 593.46L343.232 579.986C341.618 578.248 340.549 576.074 340.159 573.734L317.912 440.25C317.796 439.552 317.618 438.865 317.382 438.197L276.543 322.888C258.601 284.657 248.249 263.018 226.84 227.899C226.064 226.625 225.049 225.497 223.864 224.59L163.866 178.71C129.642 157.522 108.551 148.909 69.3622 136.304L-9.39084 120.554C-36.4887 117.325 -51.8682 117.02 -78.7049 120.431C-79.3371 120.511 -79.9699 120.644 -80.5813 120.824L-162.051 144.785C-188.264 152.418 -204.429 162.61 -234.746 187.191C-261.687 214.094 -273.324 230.398 -292.902 259.886C-311.667 291.015 -319.084 309.765 -325.615 345.908L-333.833 425.739C-334.006 427.425 -333.819 429.139 -333.299 430.753C-321.868 466.247 -319.015 486.124 -319.526 518.618C-319.544 519.778 -319.734 520.938 -320.083 522.045L-334.096 566.417L-344.167 592.155C-344.717 593.561 -345 595.059 -345 596.57V610.034M371.047 643.958L222.189 543.119C221.274 542.499 220.449 541.758 219.735 540.914L208.073 527.132C207.68 526.668 207.323 526.174 207.004 525.656L199.446 513.374C198.36 511.61 197.745 509.598 197.659 507.528L195.367 452.528L187.013 395.241C186.928 394.662 186.802 394.091 186.635 393.53L169.924 337.427L151.208 292.976C150.764 291.922 150.173 290.936 149.452 290.048L115.058 247.628C114.482 246.917 113.827 246.274 113.106 245.711L76.5469 217.149C75.7983 216.564 74.9836 216.069 74.1194 215.675L20.995 191.423C20.1262 191.026 19.2135 190.733 18.276 190.551L-22.7843 182.567C-23.5463 182.419 -24.3207 182.344 -25.0969 182.344H-78.3166C-79.2113 182.344 -80.1033 182.443 -80.9762 182.64L-126.484 192.879C-127.574 193.124 -128.624 193.519 -129.605 194.052L-169.726 215.832C-170.262 216.123 -170.776 216.454 -171.262 216.822L-209.527 245.811C-210.183 246.308 -210.787 246.871 -211.329 247.49L-235.957 275.636L-254.843 302.785C-255.176 303.263 -255.473 303.764 -255.734 304.285L-270.619 334.055C-270.935 334.687 -271.194 335.344 -271.396 336.021L-283.961 378.287C-284.266 379.313 -284.434 380.375 -284.46 381.445L-285.632 429.508L-280.786 482.818V529.315C-280.786 530.617 -280.996 531.911 -281.408 533.146L-287.515 551.467C-287.873 552.543 -288.382 553.564 -289.025 554.499L-300.494 571.182C-301.084 572.04 -301.783 572.819 -302.572 573.499L-345 610.034M-345 610.034V707.418C-345 708.72 -344.79 710.014 -344.378 711.249L-335.113 739.044C-334.446 741.045 -333.269 742.836 -331.698 744.242L-314.525 759.607C-312.304 761.595 -309.428 762.694 -306.447 762.694H-288.055M-288.055 762.694L-212.253 700.674C-209.603 698.505 -206.159 697.56 -202.773 698.071L-143.877 706.961L-62.7006 719.077L29.3799 731.193L150.538 749.366L249.888 762.694M-288.055 762.694H249.888" stroke="black" stroke-width="2.42317"/>
</g>
<circle cx="-53.7178" cy="414.827" r="184.161" stroke="black" stroke-width="2.42317"/>
<circle cx="-53.7179" cy="414.827" r="95.7152" fill="black"/>
<path d="M752.783 676V708.713M592.854 676V708.713M720.07 676V708.713M688.569 676V708.713M655.856 676V708.713M624.355 676V708.713M528.64 676V708.713M561.352 676V708.713M495.927 676V708.713M399 676V708.713M464.426 676V708.713M430.501 676V708.713" stroke="black" stroke-width="2.42317"/>
<path d="M832.765 750.457H371V675.988H790.346M832.765 750.457V675.988M832.765 750.457V755.593H872.76V771H897V667H832.765V675.988M832.765 675.988H790.346M790.346 675.988V711.938" stroke="black" stroke-width="2.42317"/>
<defs>
<filter id="filter0_d_357_1736" x="-350.211" y="116.788" width="726.47" height="655.117" filterUnits="userSpaceOnUse" color-interpolation-filters="sRGB">
<feFlood flood-opacity="0" result="BackgroundImageFix"/>
<feColorMatrix in="SourceAlpha" type="matrix" values="0 0 0 0 0 0 0 0 0 0 0 0 0 0 0 0 0 0 127 0" result="hardAlpha"/>
<feOffset dy="4"/>
<feGaussianBlur stdDeviation="2"/>
<feComposite in2="hardAlpha" operator="out"/>
<feColorMatrix type="matrix" values="0 0 0 0 0 0 0 0 0 0 0 0 0 0 0 0 0 0 0.25 0"/>
<feBlend mode="normal" in2="BackgroundImageFix" result="effect1_dropShadow_357_1736"/>
<feBlend mode="normal" in="SourceGraphic" in2="effect1_dropShadow_357_1736" result="shape"/>
</filter>
</defs>
</svg>
