<svg width="447" height="301" viewBox="0 0 447 301" fill="none" xmlns="http://www.w3.org/2000/svg">
<g filter="url(#filter0_d_352_1308)">
<path d="M108.121 88.5734L123.414 71.7608C125.946 63.8315 125.841 63.0291 131.351 54.2975C138.633 43.0368 146.503 37.2108 157.315 28.5467C168.117 21.3819 171.962 18.5428 184.276 14.5091L214.775 4.85335C227.78 1.32998 235.139 0.345759 248.419 0.707134L283.127 2.61297L317.25 6.21087L351.871 15.6656L381.309 32.8L402.548 57.2019L415.61 86.9843L412.885 85.1229C416.951 88.045 420.635 91.4076 424.569 95.7689L434.94 113.252L441.298 135.03L441.863 151.647L437.959 162.927L438.33 180.107L435.23 203.665L428.399 223.406L431.664 226.747L437.685 253.145L432.22 268.938L419.813 281.065L396.516 288.16L347.21 291.939L173.39 290.523L140.417 285.428L107.53 272.784L79.7842 256.236L56.2462 234.827L33.8792 210.035L9.16863 175.59L5.176 161.577C6.1971 156.481 7.27122 153.93 10.4028 150.123L17.2787 143.029L30.9442 136.39L54.089 126.084L90.4874 112.154L92.7652 111.048L108.121 88.5734Z" fill="#FFFBF3"/>
<path d="M150.845 215.144C156.338 192.794 159.477 180.333 168.063 161.736L188.733 120.259L208.904 89.3454C216.692 78.7626 221.605 73.1043 232.221 63.9416L258.293 45.1755C269.229 39.1489 276.156 36.4478 289.768 32.6996L318.51 28.12L354.714 31.1754L379.553 37.8761M150.845 215.144L131.795 215.442M150.845 215.144L168.309 223.082C191.856 233.851 205.938 238.866 232.215 246.461C250.935 251.784 261.13 254.243 278.334 257.368L324.149 261.854L378.162 259.073C396.481 256.386 406.269 254.376 420.201 247.095L427.715 225.38M379.553 37.8761L344.562 27.6621C333.868 25.632 327.897 25.0745 317.229 24.5192L289.659 25.7147C275.198 27.8086 267.328 30.1287 253.672 36.6291L224.389 55.5474C212.575 64.7278 206.24 71.1881 195.367 84.661C184.292 99.8512 178.599 108.317 170.013 123.254L145.05 177.14L132.558 213.237M379.553 37.8761L400.792 62.2781L409.991 83.1452L415.61 86.9843L402.548 57.2019L381.309 32.8L351.871 15.6656L317.25 6.21087L283.127 2.61297L248.419 0.707132C235.139 0.345759 227.78 1.32998 214.775 4.85335L184.276 14.5091C171.962 18.5428 168.117 21.3819 157.315 28.5467C146.503 37.2108 138.633 43.0368 131.351 54.2975C125.841 63.0291 125.946 63.8315 123.414 71.7608L108.121 88.5734L92.7652 111.048M379.553 37.8761L355.386 21.9344L324.365 11.1995L285.34 7.16816L253.605 9.44867L224.082 16.2844L195.644 27.2849L170.96 40.2157L137.838 64.7526L121.982 81.3703L103.437 102.11L86.9098 127.968L76.4992 147.102C102.213 171.727 114.954 186.06 132.558 213.237M131.795 215.442L129.89 215.471C110.713 187.959 97.9746 173.252 72.3342 148.187L85.0872 122.285L86.4832 120.242M131.795 215.442L132.558 213.237M151.82 212.324C186.455 226.6 203.677 233.125 226.445 239.411C246.987 245.004 258.211 247.98 276.316 252.249L323.628 257.884L365.559 255.343L381.806 254.018C397.404 251.777 405.567 250.192 415.884 244.969L430.891 203.427L434.143 183.08L433.99 163.448L428.717 145.834L419.627 131.952L409.539 122.777L384.917 113.625L363.594 113.193L337.498 117.425L313.811 125.649L295.026 134.306L278.498 143.743L259.258 159.19L278.15 141.097L295.069 130.531L315.004 120.378L337.932 112.523L365.741 106.989L388.756 108.006C398.011 109.672 403.009 111.409 411.881 116.009C416.122 118.607 418.44 120.285 422.164 124.62L434.791 142.884L432.707 127.005C431.135 119.35 429.129 115.153 424.614 108.415L411.38 93.731C405.968 88.4671 401.675 86.271 393.006 82.9515L368.189 74.3636L346.128 72.4132L317.408 75.1056L287.863 83.8285L258.45 97.6491L235.805 113.812L221.12 127.046L203.334 147.416L215.22 131.319L231.466 113.574L251.465 97.7582L279.013 82.0288L306.691 71.3972L333.936 65.668L358.101 65.1886L389.534 72.9083C406.339 80.1375 414.664 84.7873 424.569 95.7689L434.94 113.252L441.298 135.03L441.863 151.647L437.959 162.927L438.33 180.107L435.23 203.665L428.399 223.406M427.715 225.38L430.027 229.653L433.954 249.328L428.922 260.218L419.769 268.418L379.118 274.561L331.916 275.91L250.396 274.225L181.718 271.932L145.361 265.666L114.166 253.608L83.6003 236.083L43.8349 197.691L20.0141 167.975C17.1831 163.479 16.4672 161.059 17.4968 156.999C18.5146 153.056 19.6247 151.437 22.1166 149.124L59.8813 131.246L86.4832 120.242M427.715 225.38L428.399 223.406M86.4832 120.242L92.7652 111.048M92.7652 111.048L90.4874 112.154C76.2729 117.594 54.089 126.084 54.089 126.084L30.9442 136.39L17.2787 143.029L10.4028 150.123C7.27122 153.93 6.1971 156.481 5.176 161.577L9.16862 175.59L33.8792 210.035L56.2462 234.827L79.7842 256.236L107.53 272.784L140.417 285.428L173.39 290.523L347.21 291.939L396.516 288.16L419.813 281.065L432.22 268.938L437.685 253.145L431.664 226.747L428.399 223.406" stroke="black" stroke-width="1.19367"/>
</g>
<defs>
<filter id="filter0_d_352_1308" x="0.5625" y="0.0401611" width="445.9" height="300.496" filterUnits="userSpaceOnUse" color-interpolation-filters="sRGB">
<feFlood flood-opacity="0" result="BackgroundImageFix"/>
<feColorMatrix in="SourceAlpha" type="matrix" values="0 0 0 0 0 0 0 0 0 0 0 0 0 0 0 0 0 0 127 0" result="hardAlpha"/>
<feOffset dy="4"/>
<feGaussianBlur stdDeviation="2"/>
<feComposite in2="hardAlpha" operator="out"/>
<feColorMatrix type="matrix" values="0 0 0 0 0 0 0 0 0 0 0 0 0 0 0 0 0 0 0.25 0"/>
<feBlend mode="normal" in2="BackgroundImageFix" result="effect1_dropShadow_352_1308"/>
<feBlend mode="normal" in="SourceGraphic" in2="effect1_dropShadow_352_1308" result="shape"/>
</filter>
</defs>
</svg>
